<svg xmlns="http://www.w3.org/2000/svg" viewBox="0 0 1153.11 1153.11"><defs><style>.cls-1{fill:#666;}.cls-2{fill:none;}</style></defs><g id="Layer_2" data-name="Layer 2"><g id="Layer_1-2" data-name="Layer 1"><path class="cls-1" d="M1114.37,1018.73q-152.62,0-305.23,0c-4.94,0-6.29-1.63-6.31-6.27-1-32.62-.47-64.83.08-97.51-8.77,0-16.95.5-25-.18-4.9-1.06-16.66,5-11.28,9.92,47.73,38.62,38.85,45.41,5.81,90.56,6.49,17.64,26.52,34.06,14.44,53.27a38.2,38.2,0,0,0-4,14.58c-2.21,7.86,5.13,29.78-6.3,30.23-1.31-.12-3.46-2.56-3.43-3.94.37-16-2.82-32.34,4.94-47.54,10.92-21.54-32.22-40.65-9.91-60,5.83-5.72,9.11-14,14.85-19.66,10.16-9.43,10.26-17.53.62-28.34-35.32-42.57-35.65-8.12-34.7-69.13q-130.71.09-261.37-.14c-6.53,0-6.62,0-6.66-6.63-.07-11.29,0-22.58,0-34.26-16.19-.35-32.06,0-48.23-.13-3.63,0-6.79-.2-6.76-5.55.22-39.14.22-78.28.24-117.43q0-80-.1-160c0-4.37,1.47-5.59,5.36-5.59,16.64,0,32.78-.26,49.54-.17,1.17-45.57-11.45-29.49,56-32.2,1-55.09-10.36-33.08,52.11-39.64V443H641.8V406.13h53.28V367.5H859.91c0-6,0-10.69,0-15.33,0-6.54,0-6.54,6.39-6.55l248.07-.07M802.05,628.49V409h-50c-.54,12.32.43,24.36-.55,36.29h-2.28V408.94H698.9c0,11.34-.09,22.33.06,33.3,0,3.25-1,4.49-4.31,4.39-16.7-.17-32.75.05-49.74,0-.75,15.92,1.63,31.93-1.14,47.52l-1.82-.38v-46.9H592.22V555.29c11.25,1.35,22.48-1.22,33.28,1.54l0,1.83H592.21V580c21.32,1.46,43.72-1.6,64.53,1.73,4,5.77,11.64,9.92,11.25,17.64-.26,9.61-.08,19.22-.08,29h28c.66-12.41-.41-24.65.73-36.76l2.16,0v36.75h50.15c.69-15-1.54-30.14,1.09-44.81l2,.34v44.61Zm281.86-53.65c-.72,8.33,1.9,16.45-1.82,23.63-1.55-2.28-2.67-4.51-2.14-7.35,0-26,0-52,.1-78,0-3.91-.86-5.58-5.26-5.58q-58,0-116-.43c-3.56,0-4.65,1.09-4.63,4.52q.36,101.91.64,203.79h125c0-24.18,0-48.22.17-72.39,0-1.75,1.32-3.5,2-5.26.63,1.71,1.79,3.4,1.81,5.12.18,14.2.07,28.49.09,42.69h30.47v-55H1091.8l0-1.57c7.23-2.85,15.06.05,22.44-1.24V574.84ZM512.29,753.41c44.56.58,89.07-.06,133.64.32,4.91,0,6.05-1.45,6-6.18-.16-54.49-.09-109-.09-163.51H512.29ZM831,457c-2.18-5.58-13.35-14.93-7.15-19.53,3.41-2.26,6.29-.58,8.39,2.58,10.18,14.37,7.61,19.12,27.31,17.42V371H805.3v86ZM805.91,820.69c9.05-11.13,16.78-22.34,32.64-20.15a11.86,11.86,0,0,0,7.17-1.19c8.31-5.2,15.56-10.83,14.39-22.69-1-10-.2-20.15-.2-30.48H806.1C805.6,770.78,806.06,794.82,805.91,820.69ZM806,628.25h53.63V573.87H806Zm.27,3.54v54.27h53.34V631.79ZM484.23,558.48v50.68H508.9c0-7.8,0-15.12,0-22.44,0-6.72,0-6.81,6.88-6.81,24.25,0,48.5.17,72.75.21V558.48ZM806.11,969.27h53.57V915.91H806.11Zm0-226.28h53.55V689.7H806.1ZM429.4,726.14h51.1v-55H429.4Zm.24,3.27v54.85h50.95V729.41Zm51.1-116.47H429.36v54.82h51.38ZM859.55,912.43V860.48h-53.3v51.95Zm-323-72V787.72H484.18v52.71Zm326.6,128.85h51.37V916H863.16Zm-3.55-398.82V517.84h-37c7.72,6.59,16.5,11.69,18.51,22.69-10.34-11.63-19.41-23.94-35.3-27v56.91ZM752.33,631.85v54.3h50.31v-54.3ZM863.15,803.72v53h51.34v-53Zm-433.9,36.52h51.29V787.46H429.25Zm434-491.68v52.8h51.23v-52.8Zm-.14,108.79h51.31V404.9H863.12ZM918,800.18h50.71v-53.3H918ZM972,458.26h50.69V404.89H972ZM1022.78,747H972.51v53.11h50.27Zm-50.61,166.3h50.43v-52.9H972.17Zm-223.61-227V632h-49.2v54.28ZM918.08,404.87V458h50.48V404.87Zm-115.33,285H752.23v53h50.52ZM918.17,916.35v52.91h50.46V916.35Zm-3.57-3.75V860.26H863.29V912.6Zm54.27-55.83V803.86H918v52.91Zm53.66,112.65V916.76H972.18v52.66Zm.24-620.3H971.89v52.13h50.88Zm-54.15,52.31V349H918v52.45Zm54.06,402.27h-50.1v53h50.1Zm53.1-56.71h-49.57v53.15h49.57Zm-.08-342h-49.38v53.35h49.38Zm-49.65,508.27h49.54v-53h-49.54ZM748.63,743.07V689.85H699.31v53.22ZM429.45,558.31v51H480.7v-51ZM968.76,912.7V860.44H918.13V912.7ZM589.44,840.39V787.76H540.16v52.63Zm3.76-52.72v52.61h49.41V787.67Zm102.61,52.74V787.78H646.22v52.63Zm52.89-52.66H699.22v52.5H748.7Zm326.94,69v-53h-49.37v53Zm-49.49-455.45h49.37V348.94h-49.37Zm0,515.59v52.41h49.48V916.87ZM752.08,840.61c15.46-2.48,38,7.33,45.68-10.22,1.21-2.66,4.78-4.58,5.07-7.72.1-11.6.06-23.21.06-34.91H752.08Zm107.82-326c0-7.1-.25-13.59.1-20,1-8.7-19.28-23.78-25.09-32-4.43-4.49-22.26-1.13-29.6-2.11C806.42,524.9,793.61,513.33,859.9,514.62Zm58.13,0c3.72,0,7.25-.49,10.6.1,8.9,1.56,15.16-2.08,20.55-8.74,5-4.29,13.31-2.16,19.38-2.58V461.75H918ZM806.12,1015.44h53.49V972.93H806.12Zm0-158.55h53.58V803.65c-.9.06-1.75-.14-2.15.19-7.52,6.21-16.24,7.56-25.67,6.94a8.28,8.28,0,0,0-6,2.68c-6.52,7.92-12.67,16.13-18.92,24.26C804.88,843.59,806.62,850.37,806.07,856.89Zm108.44,158.57V972.87H863.19v42.59ZM786.62,843.92H752.23V914.5c6.87-2.58,12.21-6.73,17.13-11.78,7.35-7.83,18-13.9,22.35-24C797,866.24,788.21,856.38,786.62,843.92Zm76.29-382.67c-3.09,27.65,15.48,17.3,24.23,50.35.83,5.72,21.85,2,27.35,3V461.25Zm159.64,554.23V972.91H972.28v42.57Zm-53.94,0V973.06H918.14v42.41Zm57.49-.05h49.4V973h-49.4Zm-3.5-512V461.92H972.22v41.54Zm53,.05V462h-49.25v41.52Zm-539,378.16V843.93H484.19v37.74Zm378-81.42V746.6c-43.76-1.64-13.18,2-52.25,53.65Zm-112-16V746.33H752.2v37.93Zm-54,.07V746.4H699.2v37.93Zm365.69,15.95V747h-35.06v53.29Zm0-341.79V405h-35v53.52Zm.2,401.78h-35.21v53h35.21Zm-35.17-56.69v53.1h35v-53.1Zm35.11-454.66h-35.1v52.3h35.1Zm-35.16,567.87v52.57h35.07V916.79ZM593,881.61h49.85V844H593Zm-3.48.07V844h-49.3v37.72Zm109.52-.19h49.54V843.93H699.07ZM695.86,844H646.25v37.54h49.61ZM484.17,729.64v54.63h52.36V767.55c-13,.48-25.34,1.12-28.51-14.62,0-7.73,0-15.47,0-23.29Zm630.18-267.78h-35.44c0,12.18,0,24.12,0,36.06,0,3-1.14,6.54,3.72,7.21,1.84,1.74,1.17,7,1.26,9.34h30.44Zm0,281.47V689.45h-30.4c-1.24,9.68,3.72,25.89-4.47,32.18-1.33,6.86-.11,14.52-.51,21.7ZM588.54,522.54V487.36H540.2v35.18Zm109.4-151.08c0,10.53.08,20.17,0,29.82,0,3.54,1.48,4.48,4.85,4.42,15.27-.21,30.51.06,45.8,0V371.46ZM695.75,409H645.21v33.3h50.54Zm105.86-3.51V371.29H752.27v34.16Zm312.75,166.07V518.13h-30.09v53.39Zm-630.1-45.77v29.47H536.6V525.75Zm630,489.85V973.09H1079.3v42.51ZM695.88,632H668.21v54.19h27.67Zm-27.75,110.9h27.71V689.8H668.13Zm250-53.59v54h50.46V731.52c-41.17-.73-28,8.32-30.45-42.23ZM588.73,526H540.17v29.36h48.56Zm57.43,258.27h49.62V746.17H667.91c0,26,3.48,21.06-21.75,21.43ZM893.9,573.87c.83,19.13-5.12,36.65-10.2,54.32h30.87V573.87ZM484.3,671v55.16h23.63V671Zm430.24,14.75V632H881.81c6,18.36,11.66,36,17.44,53.81Zm-429.69-73v54.66h23.37V612.81ZM863.27,689.5v54c6.17-1.4,16.15,3.71,17.68-4.59,2.88-16.23,10.81-32.81,6.56-49.4ZM889.9,517.81c1.72,17.89,3.39,35.26,5.06,52.52h19.5V517.81Zm47.72,110.56V573.92H918.14v54.45Zm-19.47,3.32v54h19.46v-54Zm0-113.85v52.39h19.35V517.84ZM897.93,689.26c1.92,18.81-3.45,36.27-7.12,54h23.67v-54ZM883.84,570.42a173.33,173.33,0,0,0-6.21-52.54H863.19v52.54Zm-20.52,3.33v54.87c3.62-.06,8.54,1.09,10.4-2.71,5.57-16.95,10.86-34,10-52.16ZM888.14,686c-2.4-8.37-4.25-16.06-6.82-23.51-3.46-10.05-9.59-19.28-8.45-30.53h-9.63v54ZM540,784.34h49.42V768H540Zm102.63-16.4H593v16.41h49.63Zm383.39-24.66h49.5V724.43c-4.81,8.08-12.55,6.66-19.78,6.72-9.94.06-19.76.15-29.72.13Zm-53.88,0h50.36V731.72H972.18ZM802.75,912.33V882.72c-2.83,3.58-6,8.27-9.9,12.29-6.69,5.84-12.55,9.12-17.7,17.32Zm60.64-165.79v33.57l1.4.37c4.69-11,9.37-22,14.43-33.94ZM877,514.47c-2.27-9.13-7.16-16-13.77-22.57v22.57Zm-31.54-53.61,14.14,14.62V460.86ZM802.75,845.75c-8.23,4.77-.68,11.25,0,19Z"/><path class="cls-1" d="M859.6,460.86v14.62"/><path class="cls-1" d="M517.14,1045.53H511.3c-.58-10-1.16-19.92-1.74-29.81l-.68-.22c-3.29,9.89-2.66,21.67-8.17,30.47-5.83-6.08-5.66-22.39-8.56-31.85-.92,10.79-1.77,20.86-2.65,31.23l-5.64.32c1.46-15.81,2.88-31.24,4.31-46.66,4.31-1.29,6.33-.69,7,4.42,1.23,9.31,3.57,18.47,5.51,28.05,1.72-9.19,3.37-18.18,5.12-27.31,1.13-6,1.14-6,7.74-5.27C514.74,1014.31,515.93,1029.8,517.14,1045.53Z"/><path class="cls-1" d="M552.5,948c5.18-3.37,13.83-4.92,13.37,3.77.07,8.62,0,17.25,0,26.16h-6c0-7.08.07-14,0-21,0-2.6,1.1-6.54-3.2-6.46-6.79-1.32-2.73,22.23-3.76,27.48h-6c-1-5.69,2.53-25.26-2.38-27.39-8.22.21-3.4,20.87-4.61,27.28h-5.71V945.14l7.2,2.09C545.17,944,548.59,944,552.5,948Z"/><path class="cls-1" d="M548.17,1012.72l7.16,2.25c13.79-8.94,12.4,15.75,11.12,23.86-1.13,7.5-5.62,9.07-12.53,4.74v15.49h-5.75Zm5.3,16.88.42.05c-.45,4.43-.31,8.29,3.23,11.46,6.35-4.51,3.15-12.83,3.59-19.48-.6-3.49-4.36-3.94-5.78-.72A62.54,62.54,0,0,0,553.47,1029.6Z"/><path class="cls-1" d="M486.06,976.51V970c8.72,6.17,15.76-1.31,10.41-9.6-5.59-6-13.23-11.32-11.73-20.71.63-6.49,5.05-10.6,11.54-10.37,5.94.21,6.58,1,5.91,7.51-6.37-2.79-12.76.15-10.66,7.47,3.58,6.42,11.25,12,13.05,19.32C506.69,975.06,497.82,981.09,486.06,976.51Z"/><path class="cls-1" d="M591.57,945v33.62l-7.34-2c-5.17,3.74-10.24,2.17-11.28-5.45-1.26-8.08-2.43-34.53,11.43-23.76Zm-5.33,17.25c-.84-4.57,0-9.47-4.85-11.82-5.07,4.61-1.89,13.56-2.45,19.84C583.46,978.59,586.1,966.23,586.24,962.2Z"/><path class="cls-1" d="M533.2,1014.83l7.44-1.68V1046l-6.23-.87c-7.13,3.18-11.94.79-12.5-8C521,1029.16,520.18,1006.11,533.2,1014.83Zm2.27,14.8-.34-.06c-.18-2.63,0-5.35-.68-7.86-1.25-3.82-5.16-3.94-6.34-.14a143.88,143.88,0,0,0,0,16.22c.72,3.41,4.6,3.73,5.92.48A63.64,63.64,0,0,0,535.47,1029.63Z"/><path class="cls-1" d="M598.47,945l6,1.69-.43,1c4.78-2.64,13.33-5,13.1,3.37,0,8.79,0,17.59,0,26.74h-6c-1.08-8.54,2.75-20.79-2.6-27.52-7.89,4-3.41,19.46-4.5,27.62h-5.5Z"/><path class="cls-1" d="M529,963.3H513.71c.51,3.92.65,8.56,4.7,9.72,2.9-1.79,5.24-4.8,9.18-6.92,1.12,14.83-16.38,16.9-17.93,4.28-.05-8.21-3.33-20.89,6.25-24.91C526.5,942.23,526.41,955.67,529,963.3Zm-7.22-5c-.12-3.63.57-7.89-4-7.62-1.65.1-3.06,4.37-5.15,7.62Z"/><path class="cls-1" d="M625.24,936.29l5.59.25c-1,5.25,1.9,8.65,2.53,13.57-3.83.62-2.41,3.65-2.46,5.77-.14,7.29,0,14.58,0,22.11h-6c0-7.35.08-14.77-.05-22.2,0-2.14,1.39-5.23-2.7-5.74C619.61,946.05,625.64,943.6,625.24,936.29Z"/><path class="cls-1" d="M663.55,950.83c-9.41-3-6.55,9.51-6.91,15.15.37,6.36,1.53,7.15,9.13,5.34-1.54,2.86-2.15,5.89-3.72,6.51-13.8,4.29-14.21-19.55-10.06-27.71C654,945.38,666.58,941.52,663.55,950.83Z"/><path class="cls-1" d="M644.15,978l-5.11.24v-32.3h5.11Z"/><path class="cls-1" d="M728.63,459.62c12.42-5,7.76,14.64,7.13,22.29-4.38-2.46-2.32-6.89-2.94-10.89-.42-2.92,2-8.25-2.52-8.14-4.35.11-1.95,5.42-2.31,8.41a80.29,80.29,0,0,0-.08,9.58c-8.54,4.4-.42-15-6.55-18.38-4.59,5-1.75,12.39-2.45,18.54-3.08,1.16-4.39.53-4.34-2.58.1-6.32,0-12.64,0-19.67Z"/><path class="cls-1" d="M650.63,537.11c4.63,4.26,2,10.95,2.61,16.49,12.28-4.85,9.85,11.38,8.49,18.6-1.37,3.52-6.87,4.87-10.47,4-4.74-1.63-1.3-31.35-2.29-37.93Zm5.67,36c2.24-4.13,3.76-14.63-.77-16.34C650.5,558.36,653,569.21,656.3,573.09Z"/><path class="cls-1" d="M683.08,575.14v-37c7-3.48,2.86,12.21,3.92,16,7.53-3,9.79-1.51,9.82,6.37-.16,5,.4,9.89-.28,14.92l-4.49.48c-.7-6.71,2-13.52-2.18-19.16-6.34,5.12.22,14-5.18,19.55Z"/><path class="cls-1" d="M734.53,528.17c-13.67,3.41-14.82-6.47-13.42-17.19.54-7.91,8-3.12,13.42-5.27Zm-9.89-10.79.36,0c-.62,2.93.74,5.08,2.42,7.33.86-1.19,2.31-2.31,2.45-3.58-.07-3.85,1.5-8.81-2-11.56C724.9,511.22,725.26,514.48,724.64,517.38Z"/><path class="cls-1" d="M714.3,553v22.28c-15.51,4.77-13.84-6.84-13-18C702.82,549,708.09,555,714.3,553Zm-6.85,19.47c2.49-2.57,3.95-11.37,2-14.24C702.29,555.26,704.51,569.14,707.45,572.42Z"/><path class="cls-1" d="M756.87,563.64c.91,16.11-14.66,17.42-14.7,1.66C740.59,550.63,756.56,548.51,756.87,563.64Zm-7.4,9.16c2.1-3.22,4.81-14.69.19-16C744.23,557.81,747.21,569.48,749.47,572.8Z"/><path class="cls-1" d="M642.12,517.13c1.15,8.07-10.79,17.84-13.9,7a54.82,54.82,0,0,1-.14-13.18c.32-3.14,2.41-5.21,6.08-5.33C640.85,505.21,641.27,512.26,642.12,517.13Zm-7.77,8.29c2.53-2.77,3.77-12.07,1.74-14.44C628.87,507.9,632,522,634.35,525.42Z"/><path class="cls-1" d="M761.21,552.36c6,5.09-.53,13.31,5.76,20,4.54-6.06-.26-14.07,4.37-19.62,4.69,4.16,1.49,12.08,1.92,17.76-.34,4.33-3.4,6-7.33,5.7-10.3-1.36-4.64-15.82-6-23Z"/><path class="cls-1" d="M740.54,469.46c-.66-8.09,8.12-15.39,13-6.52a46.15,46.15,0,0,1,.28,13.64c-.34,3.19-2.67,5.06-6.32,5.13C740.58,481.62,741.08,474.75,740.54,469.46Zm6.39,8.64c3.1-2.37,4.36-13.22,1.94-14.87C742.92,463.23,744.51,474.09,746.93,478.1Z"/><path class="cls-1" d="M785.81,521.88c-.37,9.7-13.4,9-13.73-.28,0-5.13-1-17,6.89-15.78,5.5,1.82,7,6.77,7.3,12.55H775.8c1,9.68,3.44,7.43,9,2.32ZM783,515.07l-4.32-5.51-3.91,5.09Z"/><path class="cls-1" d="M654.9,528.16c-.29-6.3,1.47-13-2.39-18.49-4.25,5.34-2.25,12-2.6,18.36-2.78,1.08-4.34.86-4.3-2.39.06-6.44,0-12.89,0-19.23,4.94-.39,11.58-2.69,13.15,3.45-.36,5.57,2.53,15.88-2.58,19.21Z"/><path class="cls-1" d="M762.49,529.55,756,506.25c5.38-.74,5.74,0,7.29,14,3.61-4.35.74-11.68,6-14.67l1.59.74q-3.12,11.69-6.25,23.37Z"/><path class="cls-1" d="M712.33,519.8c2.48-4.72.86-10.78,4.94-14.45l1.86.6c-6,29.82-7.77,30.49-14.45.37C708.54,505.86,708.54,505.86,712.33,519.8Z"/><path class="cls-1" d="M717.07,553.29c5.14-1.87,4.52,2.14,5.15,4.77.69,2.87,1.32,5.76,2.07,9,3.6-13.73,3.6-13.73,7-14.13C724.36,583.08,723.9,584.31,717.07,553.29Z"/><path class="cls-1" d="M672.25,508.25l-6.26,3c2.33,4.67,9.88,8.07,6.54,13.75-2,3.07-12.1,6.87-10.25-.74,3.89,1.71,8.13.7,5.62-3.92-1.12-1.57-3.65-2.41-4.2-4-.86-2.51-1.68-6.24-.45-7.93s5-1.94,7.77-2.54C671.28,505.79,672,507.66,672.25,508.25Z"/><path class="cls-1" d="M739.86,499.34c2.74-.36,4.79-.91,4.54,2.75-.18,1.89,2,4.28,1.76,6.17-4.33,6.18-.48,13.34-2.58,20.06-7.29,2.38-1.35-11.7-3.92-15.14C738,508.38,740.36,504.28,739.86,499.34Z"/><path class="cls-1" d="M692.16,506.63h9.55c-.22.57-.46,2.63-1.18,2.82-6.69,1.89-2.63,13.1-3.69,18.56-3,1.15-4.81,1.06-4.72-2.81C692.28,518.94,692.16,512.67,692.16,506.63Z"/><path class="cls-1" d="M625.32,525.72c-.93,1-2,3-2.78,2.89-2.08-.25-5.16-.86-5.88-2.3-4.09-6.39-2.85-24.89,8.07-19.16-4.69,4.05-6.4,5.37-5.4,11.62C619.48,522.05,619.49,525.9,625.32,525.72Z"/><path class="cls-1" d="M778.11,575.11V552.56l5.38,1.65,3.51-1.85,1,.75c-.47,1.15-.7,3.09-1.44,3.31-9.26,3.35.12,14.87-7,19.89Z"/><path class="cls-1" d="M759.05,480.88V459c2.84-.91,5.73,2.95,9.06.05-.44,1.17-.62,3.12-1.36,3.37-8.52,3.58.25,14.71-6.28,19.72Z"/><path class="cls-1" d="M749.17,506.14c3-1,4.27-.41,4.15,2.8-1.35,4,3.15,23-4.15,19.23Z"/><path class="cls-1" d="M733.87,575.11c.93-6.47-2.52-18.71,2.59-22.85l1.44.84c-.93,6.5,2.5,19.17-2.57,23.28Z"/><path class="cls-1" d="M755.08,500.83c-3.24,2.91-5.05,3.62-6.26-.36C750.51,496.66,752.15,497.58,755.08,500.83Z"/><path class="cls-1" d="M740.15,547.11c-3.84,2.71-4.69,3.25-7.1-.3C735.68,543.57,736.55,544.64,740.15,547.11Z"/><path class="cls-1" d="M1002,661q-2.21,10.29-4.42,20.58c-3.37-.9-3.37-.9-7.19-21.14-1.13,6.69-1.76,11.34-1.46,17.66.12,3.25-1.22,4.17-4.53,3,.88-11.1,1.75-22.13,2.63-33.29,3.85-1.81,5.35-.15,5.89,3.59a191.19,191.19,0,0,0,3.56,19l3.79-22.91c2.33-.46,5.12-1.8,5.48,2.28.93,10.38,1.66,20.79,2.48,31.3-3,1.07-4.28.64-4.4-2.5-.22-5.8-.79-11.58-1.22-17.36Z"/><path class="cls-1" d="M992,615.67c4-3.27,2.76-10.19,10.87-9.63-7.49,8.05-6.2,15.69.71,23.21-8.86,1.53-7.35-6.73-11.37-9.78v9.38c-2.67,1.17-4.3,1.34-4.28-2.14.06-11.14-.06-22.29.14-33.44,0-1.07,1.72-2.11,2.64-3.17L992,591Z"/><path class="cls-1" d="M1083.28,618.14c.25,9-9,16.18-14,6.5-1-4.35-.69-9.1-.18-13.6.38-3.35,2.75-5.47,6.54-5.46C1082.58,605.5,1082.24,613,1083.28,618.14Zm-7.85,8.14c2.53-3.13,5.44-18.7-1.8-15.48C1071.6,613,1072.88,623.52,1075.43,626.28Z"/><path class="cls-1" d="M1022.27,563.69h-10.84c-.15,3.5.53,5.6,3,7.86,2-1.71,3.53-3.89,6.21-4.72,1.88,10.24-12.58,11-12.86,1.36a56.55,56.55,0,0,1,.19-11.71c.46-3.27,2.48-5.79,6.32-5.85C1021.46,550.8,1021.06,558.09,1022.27,563.69Zm-5.64-3.33c.42-.44.85-.87,1.28-1.31-1.27-1.48-2.53-3-3.8-4.46l-3.27,5.77Z"/><path class="cls-1" d="M1010.63,669.86c-.36-8.51,8.87-17.1,13.73-6.9a45.35,45.35,0,0,1,0,14.1c-.41,3.13-2.91,5-6.54,4.69C1011.36,681.49,1011.74,674.71,1010.63,669.86Zm7.88-8.28c-3.79,4-3.65,13.68,0,16.66C1021.83,674.1,1021.94,666.51,1018.51,661.58Z"/><path class="cls-1" d="M1020.22,618.62h-10.66c.06,3.28-.18,6.23,3.24,7.4,1.8-1.5,3.31-3.49,6-5.57,2.23,10.31-11.54,12.89-12.75,3.77a47,47,0,0,1,.52-14C1012.18,600.16,1020.41,610.22,1020.22,618.62Zm-5.87-3.23,1.37-1.12-3.51-4.64-3.6,5.76Z"/><path class="cls-1" d="M1032.09,638.5c7.41-11.4-.11-21.67-1.65-32.43,5.28-1.71,4.74,2.45,5.48,5.18s1.4,5.68,2.09,8.49c3.3-4.38.28-11.59,7.83-13.64-3.19,7.81-5.58,30.24-11.82,33.54Z"/><path class="cls-1" d="M997,539.5v30.23c2.3,2.43,7.77-1.73,7.71,4.67H992.33V539.5Z"/><path class="cls-1" d="M963.26,594.55l4.43-.2v31.32c3.41.13,6.06-1.07,7.78,2.22-3,3.37-7.89,1.11-12.21,1.71Z"/><path class="cls-1" d="M1058.44,670.76H1049c-.34,3.54-.3,5.51,2.63,7.48,1.78-1.71,3.24-3.76,5.7-4.6.33,4.43-.5,7.68-5.33,8-10.73,1.42-9.31-21.77-.92-23.62C1057.62,657,1058,665.71,1058.44,670.76Zm-6.21-9.07-1.94-.27-1.78,5.94h5.83Z"/><path class="cls-1" d="M1022.71,590.72h4.11c0,12.16.07,24.11-.12,36,0,1.1-1.73,2.18-2.66,3.26l-1.33-.92Z"/><path class="cls-1" d="M1059.25,599.33c9.7-2.69,2,21.72,4.1,27,.17,1.13-1.73,2.59-2.68,3.9l-1.77-.81c0-7,.66-13.9-1.53-20.6A51.17,51.17,0,0,0,1059.25,599.33Z"/><path class="cls-1" d="M1038.52,571.19c6.06.66,11.85-1.12,6.52-6.21-4.16-2.77-9.42-8.9-3.74-12.62,2-1.38,5.21-1.13,7.9-1.3.28,0,.69,2,1.18,3.55-3.84-.45-9.34.29-5.87,4.58,3.38,3.34,9.14,6.53,6.08,12C1047.9,576.65,1042,576.15,1038.52,571.19Z"/><path class="cls-1" d="M1035.3,673.9c2.74-14.85,2.74-14.85,6.87-14.75-7,30-7.47,29.73-14.51,0,5.13-1.41,4.83,2,5.34,4.86S1034.32,669.7,1035.3,673.9Z"/><path class="cls-1" d="M1024.46,571.46l7-1.43a34.45,34.45,0,0,0-2.56-5.73c-1.16-1.75-3.77-2.95-4.12-4.71-1.52-7.42,3.67-8.46,9.73-8.56,2.24,3.31-4,4-6.08,5.29a26.42,26.42,0,0,0,2.38,4c1,1.26,3.25,2.07,3.52,3.37.58,2.82,1.39,6.74,0,8.51s-5.42,1.82-8.34,2.17C1025.49,574.44,1024.76,572.08,1024.46,571.46Z"/><path class="cls-1" d="M982.7,606.48V629c-2.56,1.11-4.14,1-4.07-2.63,1-6.94-2.43-15.35,2.44-21Z"/><path class="cls-1" d="M980.8,603.81c-2.64-3-3.92-5.1-.36-6.62C984.62,598.66,983.83,600.35,980.8,603.81Z"/><path class="cls-1" d="M563.78,720c-2.82,7.49-2.22,15.38-5.71,22l-1.7-.26c-1.6-6.93-3.2-13.86-5.14-22.23-.61,8.27-1.12,15-1.63,22l-4.07.21c.91-11.21,1.81-22.19,2.72-33.4,3.64-1.32,5.35-.7,5.8,3.64.64,6.22,2.1,12.35,3.4,19.55,1.26-7.08,2.65-13.14,3.33-19.28.44-4,1.89-5.32,6.08-4,1,10.92,2,21.91,3,33.21h-4.34C564.94,734.36,564.38,727.45,563.78,720Z"/><path class="cls-1" d="M567.18,605c1,10.94,1.94,21.83,2.93,32.88-2.53,1.1-4.15,1.47-4.31-2a116.81,116.81,0,0,0-2-17.13c-1.48,6.57-3,13.14-4.73,20.92-6.88-5.11-3.64-14.81-7.9-21.6-1.42,6.88,1.31,15.7-3.93,21l-1.62-.92c.9-10,1.75-20.11,2.72-30.15.27-2.75,1.56-4.43,5.2-2.7,1.27,7.07,2.63,14.62,4,22.18l.68,0c1.21-6.49,2.75-12.94,3.48-19.49C562.13,604.48,563.68,604.32,567.18,605Z"/><path class="cls-1" d="M551.82,675.56c4-3.27,3-10.07,10.79-9-7.66,7.81-6.53,15.37.73,22.67-8.82,1.67-7.44-6.21-11.44-9.48-.69,3.64,2.37,11.61-4.07,9.48,1-8.24-2.55-35.55,2.42-39.21l1.57.74Z"/><path class="cls-1" d="M643.38,677.85c.59,9.36-8.26,17.3-14,7.29-6-24.37,15.32-25.3,13.52-7.35ZM636,686.48c3.13-3.18,5.52-18.67-2-15.66C631.43,673.46,633,684.2,636,686.48Z"/><path class="cls-1" d="M579.44,682.59c-.05,10.43-14.09,9.69-14.22-.12-3-17.36,12.82-24.34,15.24-3.67H568.73c1.49,9.91,3.73,9,9.47,2.43C578.61,681.69,579,682.14,579.44,682.59Zm-11.53-7.27h8.64l-4.21-5.66C571.11,671.22,569.89,672.79,567.91,675.32Z"/><path class="cls-1" d="M618,627.46H606.9c.3,3.2-.07,6.95,3.3,7.93,2.39-1.25,3.63-3.39,6.64-5.42,1.52,10.32-11.43,12.49-13,3.78-.14-6.28-2.58-17.51,6-18.79C615.69,616,617.48,621.75,618,627.46Zm-3.73-3.08c-1.7-2.49-2.81-4.12-3.93-5.74l-4,4.72,1.09,1Z"/><path class="cls-1" d="M620.17,730.8H609.26c.22,3.54.48,5.54,3.07,7.71a78.47,78.47,0,0,1,6.3-5.7c2.7,9.69-10.8,12.8-12.4,4.35-.44-6.36-2.83-17.45,5.84-19C618,718.94,619.33,725.2,620.17,730.8Zm-3.75-3.42-4.15-5.66-3.59,5.66Z"/><path class="cls-1" d="M590.34,665.35c8.66,2.62,4.84,10.47,8.15,14.33,3.22-3.59.75-10.66,6-13.47l1.71.77c-2.87,10.22-5.66,20.47-8.76,30.63-.33,1.09-2.42,1.63-4.45,2C599.37,687.81,592.68,677.46,590.34,665.35Z"/><path class="cls-1" d="M522.3,654.85h4.53V685c2.51,2.63,7.43-1.47,8.21,4.32H522.3Z"/><path class="cls-1" d="M583.12,689.28V651l4.14-.42c1.43,11.59-.12,23.68.41,35.46C587.68,689.18,586.68,690.38,583.12,689.28Z"/><path class="cls-1" d="M623.26,659.31c3.12,10.39-1,20,1,29.92l-4.7.59C619.2,683.47,613.92,659,623.26,659.31Z"/><path class="cls-1" d="M589,718.29c9.09,1.45,4.64,9.86,8.28,14,2.13-4.49,0-10.94,5-13.83l1.47.66c-2.65,7.36-2.06,16.78-7.09,22.8C592.06,735.19,592,726.61,589,718.29Z"/><path class="cls-1" d="M592.12,614.52l4.69,2.12,3.1-2.22,1.17.55c-.4,1.21-.53,3.26-1.26,3.5-8.65,3.74.21,15.3-6.41,20.63l-1.29-.84Z"/><path class="cls-1" d="M541.26,690.14c-4.84-5.93-1.41-16-2.36-23.49,2.76-1.15,4.08-.64,4.05,2.49-.07,6.61,0,13.22,0,19.83Z"/><path class="cls-1" d="M545.4,660.41c-4.07,2.11-4.91,3.12-7.43-.25C540.8,656.82,541.53,657.33,545.4,660.41Z"/><path class="cls-1" d="M628.39,668.66c-4.06,2.11-4.91,3.12-7.43-.24C623.79,665.07,624.53,665.58,628.39,668.66Z"/><path class="cls-1" d="M621.71,668.4c-4.07,2.11-4.91,3.12-7.43-.25C617.11,664.81,617.84,665.32,621.71,668.4Z"/><path class="cls-1" d="M587.46,728c.91,16.11-14.66,17.41-14.7,1.66C571.18,715,587.15,712.88,587.46,728Zm-7.39,9.16c2.09-3.22,4.8-14.69.18-16C574.82,722.18,577.8,733.85,580.07,737.17Z"/><path class="cls-1" d="M587.35,626c.91,16.11-14.65,17.42-14.7,1.66C571.07,613,587,610.85,587.35,626ZM580,635.14c2.09-3.22,4.81-14.69.18-16C574.72,620.15,577.69,631.82,580,635.14Z"/><path class="cls-1" d="M784.23,470.67H773.14c.3,3.2-.07,6.95,3.3,7.93,2.38-1.24,3.62-3.38,6.64-5.42,1.51,10.32-11.43,12.49-13,3.78-.15-6.27-2.58-17.51,6-18.79C781.92,459.17,783.72,465,784.23,470.67Zm-3.74-3.08-3.92-5.74c-1.34,1.57-2.69,3.14-4,4.72l1.09,1Z"/><path class="cls-1" d="M690.54,517.49H679.45c.3,3.2-.07,7,3.29,7.93,2.39-1.25,3.63-3.39,6.65-5.42,1.51,10.32-11.44,12.49-13,3.78-.15-6.28-2.58-17.51,6-18.79C688.23,506,690,511.78,690.54,517.49Zm-3.74-3.08-3.92-5.74c-1.34,1.57-2.69,3.14-4,4.72l1.09,1Z"/><path class="cls-1" d="M679.73,564.84H668.64c.3,3.21-.07,6.95,3.3,7.94,2.39-1.25,3.62-3.39,6.64-5.43,1.51,10.32-11.43,12.5-13,3.78-.14-6.27-2.58-17.51,6-18.79C677.43,553.35,679.22,559.14,679.73,564.84ZM676,561.76,672.07,556c-1.34,1.57-2.68,3.15-4,4.72l1.09,1Z"/><path class="cls-1" d="M295,867.08c15,.58,15,.58,16.26,9.77,10-5.18,21.3-2.77,32.11-2.33,5.87,2.87,5.14,12.63,6.36,18.37.76,4.71-5.56,12.18-10.81,12.35a188.86,188.86,0,0,1-20.47-.07c-1.8-.13-3.39-3-4.77-5.18-5.41-1.55-2.66,8.08.72,8.07,20.31.52,40.65-.07,61,.07,2.71,0,6.62-1.67,7.25,2.87,1.08,15.39-19.46,9-27.66,10.24-2.84,5.9-5.35,10.9-7.6,16,1.59,11.63,9.05,22.67,10.59,34.42,8.82,44.55-17.32,87.19-61,104.3-1.95,10.17-7.78,16.16-18,17.91-10.74,2-21.58,0-28.24-9.56-1.37-5.8-5.53-6.64-10.79-7.71-54.83-8.38-88-69.28-69.87-120.45,3.08-7,4.75-13.39,4.12-20.92-11.46.07-29.19,2.73-25.06-14.83,1.25-2.93,1.72-6.19,2.56-9.35-8.77-1.81-12.19-11.37-7.06-17.92,2.48-3.16,3.8-6,2.72-9.91-1.52-8,9.61-6.46,14.57-6.76,5.46,3.39,2,12.6,2.9,18.56h27.7c.66,3.46,1.23,6.5,1.87,9.87h12.48c-1.37-32.11-11.23-27.75,20.14-31.19-.19-4.12-.32-8.93,5.26-8.71,14.64-.52,29.27-1.17,43.91-1.75C281.11,864.34,296.08,859.1,295,867.08ZM170,974.41c-2.49,53.25,67,81.33,112,72.58,38.22-4.82,75.2-42.27,69-81.71-2.46,6.85-2,14.83-6.87,19.69-6.12,2.78-15.41-1.64-17.67-8.12-3.24-9.7-7.27-19.82-8.05-30-2.06-13.41-10.51-2.81-8.74-28.31-3.43,1.72-6.32,4.29-9.38,4.51-20.23,1.6-40.17,1.42-60.42,3.63.15,16.8.39,25-19.13,24.36-2.78,0-6.69.62-8.11-.9-6-6.68-13.76-9.7-13.5-20.13-.7,1.77-1.4,2.65-1.27,3.37,1.38,7.48-2.18,14.62.55,22.72,3.16,9.35,2.4,20,3.34,30.09.43,9.26-12.8,5.88-18.68,8.37C176.86,997,173.57,979.74,170,974.41ZM295.83,871.47c.28,8,.65,16.07-9.59,15.8-16.78.88-33.54,1.87-50.31,2.88-8.26,1.58-7.36-4.77-8.44-10.67H208.82c1.49,14.64,2.93,28.78,4.36,42.78,27.69,0,55-2,82.58-3.08,8.67-.43,11.24-3.74,11-11.86-.27-9.16-.77-18.31-.95-27.46C305.64,870.89,305.75,870.89,295.83,871.47ZM173.09,1007.73c7,35.36,46.53,69.64,73.73,65.29,1.25-8.43,4.33-14.63,10.49-20.46C223.25,1050.92,194.44,1034.07,173.09,1007.73Zm124.07,61.54c32.3-7.43,60-46.08,57.34-79.92-11.92,33.69-35.69,54.24-71,62.37C290.37,1056.34,295.72,1061.14,297.16,1069.27ZM232.52,885.78c15.87-.89,30.6-2,45.35-2.45s15.32-.68,12.75-15.41c-.05-.27-.38-.49-.91-1.15l-58.43,2.72C231.7,875.08,232.09,880.11,232.52,885.78ZM343,981.07c1-13.2,9.33-29.38-1.33-40.31-8.63-4.44-22.64-.12-18.16,12.28,2.23,7.25,5,14.38,6.62,21.76C331.63,981.94,336.87,981.11,343,981.07Zm-146.24-4.48c-.4-3.91-1.25-11.31-1.92-18.73-.38-4.28-2.64-5.2-6.45-4.35-6,2.34-11.29-4.29-13.43,4.2-3.62,9.57.73,18.35,4.22,27.18,1.72,5.1,4.87,6.06,9.91,4.8C196.74,987.79,196.81,988.09,196.77,976.59Zm121.71-75.35c24,.09,30.15,3.55,23.63-23.92C314.62,876.87,320.69,875,318.48,901.24ZM151.21,881.51c1.52,10.81,3.19,21.25,4.35,31.75.38,3.42,1.75,4,4.73,4,16.07-.13,31.62,0,47.78,0-.49-3.27-.88-5.84-1.41-9.38-19.74.63-12.49,8.8-36.77,6.4-9.16-.06-9.93-.82-9.68-10,.59-8.08.14-15.8.27-24.34ZM257,1060c-14.62,16,2.4,32.44,19.82,29.56,15.25-.85,21.66-19.09,10.38-29.88C295.37,1088.93,247.88,1089,257,1060Zm15.13,17.25c15.13.84,15.33-23.5.27-23C257,1054.29,255,1077.48,272.14,1077.27ZM205.37,921.54c-16.29,0-32.2-.09-48.1.18-3.89,1.11-5.54,9.77.71,9.51C174.58,930.72,192.15,934.07,205.37,921.54Zm30.41,4.72c-21.43.08-3.32,6.81-20.78,11.17-5.34.79-3.65,9.67,1.72,8.85,2-.19,4,0,6,0C237.31,947.83,235.81,937.89,235.78,926.26Zm90.22,1.3c-.73,10.75,17.36,8.77,20,3.71,1.45-6.1,2.23-12.36,3.37-19a47.73,47.73,0,0,0-8.28.37C340.1,925.28,340.1,925.28,326,927.56ZM165,910.39c5.55,0,10.69.11,15.81,0,9.42-.24,9.83-.76,8.75-10,0-.28-.36-.53-.8-1.14H165Zm148.17,2.1c-.55,7,5.24,10.82,14.1,10.77,8.27,0,10.09-2.07,9.11-10.77ZM220.3,926.26c-5.48.13-12.64-.94-16.12,2.09-.57,3,.37,6.23.71,9.38l1.82.33C209.43,932.37,218.94,935.36,220.3,926.26Zm132-10.26.9,1.24c8.35-1,18.51,3,25.1-3.41l-.75-1.55c-7.23,0-14.46-.18-21.67.17C354.58,912.5,353.44,914.76,352.25,916ZM178.86,943.42c-.82,12.14,20.67,5,13-10.32C189.36,942.77,189.36,942.77,178.86,943.42Zm140.78-16.77-5.45-1.18C311.21,939.18,331,945.81,319.64,926.65Zm-8.61-31,1.93.55c3.75-4.5,1-10.43,2.76-15.93l-4.69.23ZM178.87,935.33c1.2,6.12,6.47,4.73,9.19,0Zm-30.14-38.92-2,.24c.41,3.15.81,6.29,1.22,9.44l2.08-.29C149.6,902.67,149.17,899.54,148.73,896.41Z"/><path class="cls-1" d="M221.76,896.65l2-.24"/><path class="cls-1" d="M225.07,905.8l-2.08.29"/><path class="cls-1" d="M487.53,261.26c-26.81,0-53.62-.08-80.43.1-3.35,0-4.58-1.43-5.4-4.12q-8.81-28.8-17.66-57.59c-1.88-6.1-4.44-12.05-5.69-18.27-.83-4.07,0-8.52.35-12.77,1.22-13.25,2.58-26.48,3.92-39.72,1-9.64,2.05-19.26,3-28.9s1.73-19.53,2.65-29.29c.31-3.36,1-6.69,1.23-10.05s2.21-4.5,5.37-4.5c20.71,0,41.43-.2,62.14-.09,23.64.12,47.27.51,70.91.72,9.24.09,18.49,0,27.73,0,2.06,0,3.39.28,4.72,2.44a197.17,197.17,0,0,0,11.42,16.21c12.43,16.23,25,32.37,37.49,48.54a46.62,46.62,0,0,0,3.58,4.32c3.18,3.19,3,7.07,1.79,10.75q-16.14,48.78-32.54,97.47c-2.55,7.59-5,15.21-7.76,22.75a3.82,3.82,0,0,1-2.89,1.95q-18.6.36-37.2.4c-15.57.06-31.14,0-46.71,0ZM611.37,138.55c-3.12,0-6.16,0-9.2,0q-72.7.24-145.43.5c-7.83,0-15.67.42-23.5.53-2.08,0-2.84.86-3,2.88a80.9,80.9,0,0,1-1.36,8.62q-9.66,46.06-19.37,92.1c-1,4.73-1.67,9.51-2.57,14.73,1.88,0,3.15,0,4.41,0,15.11.11,30.21.28,45.32.3,37.12.06,74.24,0,111.35.07,2.11,0,3.15-.43,3.89-2.77,3.82-12,7.92-24,12-36C593,192.6,602.15,165.68,611.37,138.55Zm.12-3.09.51-1.23a32.11,32.11,0,0,0-2.12-3.71q-26.08-34.08-52.3-68.07a6.25,6.25,0,0,0-4.27-2.11c-8.42-.18-16.86.07-25.28-.05-28.67-.39-57.34-1-86-1.3-16-.18-31.92,0-48.7,0,3.47,6.78,6.4,12.44,9.28,18.12,9.31,18.36,18.66,36.7,27.81,55.14,1.43,2.89,3,4.1,6.3,4.05q35.1-.56,70.22-.73c30.44-.12,60.87-.07,91.31-.08C602.66,135.45,607.08,135.46,611.49,135.46ZM392.68,65.63l-.86.19q-1.1,13.2-2.19,26.4c-.52,6.17-1,12.34-1.61,18.5-1,10-2.23,19.93-3.28,29.9-.94,8.82-1.87,17.64-2.61,26.47-.39,4.73-1.54,9.83-.31,14.18,4.79,17,10.4,33.7,15.69,50.53,2.18,7,4.3,13.95,6.45,20.93a9.77,9.77,0,0,0,1.48-4.08c3.4-17.09,6.76-34.19,10.21-51.26,3.73-18.46,7.31-36.95,11.5-55.3a17,17,0,0,0-1.56-12.58c-4.8-9.18-9.41-18.45-14.15-27.66Q402.1,83.73,392.68,65.63Z"/><path class="cls-1" d="M194.15,380.48c4.64,4.72,5.06,12.31,1.27,16.81-3.34,4-10.26,4.7-15.08,1.61-5.8-3.72-6.63-9.57-2.52-17.64-5-1.41-90.37-2.18-102.36-.9,3.41,6.46,4.86,12.85-1.52,18.32-3.3,2.83-10,2.92-13.52.22-6.62-5.08-5.37-11.43-2.08-18.37-3.56,0-6.66-.11-9.74,0s-4.39-1.24-4.77-4.24Q40.34,349.13,36.66,322c-1.52-11.3-3.17-22.59-4.74-33.9s-3.27-22.36-4.55-33.59A158.43,158.43,0,0,1,26.43,235c0-2.26,1.32-4.7,2.58-6.71,9.26-14.82,18.66-29.56,28-44.32.32-.49.91-.93,1-1.44C58.78,176,63.74,177,68,177q71,0,141.92,0c7.22,0,7.4,0,7.91,7.19.5,7,.67,14,.87,21.05.76,26.91,1.42,53.82,2.23,80.73.29,9.56,1.32,19.12,1.25,28.68,0,4.66-1.79,9.32-2.78,14-3.25,15.22-6.53,30.43-9.74,45.65-1.17,5.56-1.31,5.84-6.92,6.2C200,380.63,197.26,380.48,194.15,380.48Zm10.45-3.23c-1.41-47.21-2.8-94.07-4.2-141.25H33.85c-5.12,0-5.22.16-4.56,5.49,1.33,10.64,2.6,21.28,4,31.91,2.11,16.06,4.23,32.11,6.47,48.15,2.47,17.64,5.09,35.26,7.6,52.89.28,2,.92,3.07,3.29,3,8.52-.21,17.05-.25,25.57-.26q51.61,0,103.24.05ZM29.75,232.83H200.27c4.16-17.57,8.31-35.11,12.56-53H209q-40.38,0-80.75,0c-19.77,0-39.54.28-59.32.2-4,0-6.55,1.15-8.46,4.67s-4.34,6.63-6.47,10C46.08,207.11,38.18,219.58,29.75,232.83ZM216,187.11l-1.23.06a5.1,5.1,0,0,0-.64,1.19c-2.43,10.28-4.92,20.54-7.21,30.84-1.26,5.66-3.07,11.38-3.1,17.08-.11,15.56.54,31.12,1,46.67.64,22.1,1.41,44.2,2,66.3.17,5.82,0,11.65,0,17.48l1.09.06c.12-.4.27-.78.35-1.18,1.77-8.77,3.73-17.5,5.26-26.31,2-11.71,5.68-22.94,4.91-35.37-1.72-27.54-1.84-55.19-2.44-82.8C215.8,209.8,216,198.45,216,187.11ZM67.17,397.6c4.83,0,8.26-3.3,8.28-8s-3.56-8.17-8.58-8.15-8.2,3.24-8.25,8S62.14,397.58,67.17,397.6Zm119.8,0a7.52,7.52,0,0,0,7.95-7.77c.07-4.9-3.44-8.6-8.13-8.58a8,8,0,0,0-8.2,8.14C178.58,394.27,182,397.6,187,397.61Z"/><path class="cls-1" d="M93,463.18q-1.62-11-3.24-21.92l-.56,0c-1.19,7.32-2.38,14.65-3.59,22.08H82.18c-2.17-11.54-4.33-23-6.52-34.72H80.1c1.31,7.67,2.62,15.39,4.06,23.86,1.17-8.49,2.23-16.16,3.3-23.89h3.7l3.67,23.84c1.33-8.42,2.54-16.08,3.77-23.82h4.12c-1.85,10.78-3.68,21.4-5.49,32C96.86,462.83,95.94,464.14,93,463.18Z"/><path class="cls-1" d="M566.21,362.15a10.37,10.37,0,0,1,3.34,12.77c-2.75,6.4-8.47,4.83-13.83,5V346c7.54-1.27,11.49-.16,13.31,3.74A10.11,10.11,0,0,1,566.21,362.15Zm-6,2v11.43c3.32.21,4.74-.82,5.08-3.64C565.93,366.62,564.77,364.77,560.22,364.11Zm.09-3.95c3.48,0,4.88-1.3,5-4.67.12-4-1.27-5.79-5-6Z"/><path class="cls-1" d="M157.68,478.54H162v6.19c0,6.79,0,13.58-.08,20.36-.09,4.7-2.64,7.47-6.83,7.73-5.08.33-8.38-1.66-8.61-6.49-.44-9.18-.13-18.39-.13-27.75h4.25c0,8.08-.05,16,0,23.94,0,2.64-.88,6.34,3.45,6.26,4-.08,3.57-3.6,3.59-6.34C157.72,494.61,157.68,486.78,157.68,478.54Z"/><path class="cls-1" d="M470.36,333h3.7l-.39.55c1.17.94,2.26,2.52,3.53,2.67,1.92.23,2.57-2.15,2.22-7.1-5.72,2.9-9.35.87-9.61-5.71A48,48,0,0,1,470.5,312c1.05-5.18,4.32-6,7.82-2.83l4.94-1.89c0,9.52.22,18.26-.09,27-.16,4.33-3.14,6.53-7.16,6.32C472.17,340.37,470.51,338.26,470.36,333Zm9.5-13.79a46.91,46.91,0,0,0-1.16-6.14,3.76,3.76,0,0,0-2.27-1.81c-.39-.13-1.66.82-1.68,1.3-.14,4.22-.16,8.45,0,12.66,0,.52,1.35,1.38,2.06,1.36a2.65,2.65,0,0,0,1.93-1.54A52.76,52.76,0,0,0,479.86,319.24Z"/><path class="cls-1" d="M526.66,297.12h4.19c0,9.1.19,18.08-.08,27-.12,4.37-2.77,6.54-7,6.78-4.94.29-7.39-1.3-8.43-5.91a34.12,34.12,0,0,1-.64-6.93c-.08-6.89,0-13.77,0-20.88H519v16.69c0,2.7,0,5.39,0,8.08,0,2.47.45,4.91,3.39,5.25,3.46.4,4-2.47,4.15-4.87.25-5.49.12-11,.13-16.5C526.67,303,526.66,300.06,526.66,297.12Z"/><path class="cls-1" d="M101.81,514.38l3.36-.15-.38.81c1.3.91,2.88,2.83,3.84,2.55,3.7-1.05,2.3-4.43,2.63-7.14-6.3,3.23-9.21,1.86-9.84-5.15a39.68,39.68,0,0,1,.78-12.4c1.1-4.67,4.47-5.17,7.44-2.27l5.21-1.36c0,9.57.17,18.56-.09,27.53-.1,3.55-3.54,5.57-7.43,5.13S101.46,518.79,101.81,514.38Zm2.89-13.48a38.27,38.27,0,0,0,1.44,6.18c.87,2.15,3.49,2.16,3.75.05.51-4.12.14-8.36-.07-12.54,0-.52-1.36-1.37-2-1.33a2.66,2.66,0,0,0-1.91,1.57A56.51,56.51,0,0,0,104.7,500.9Z"/><path class="cls-1" d="M192.89,442V426.32h4v37.24l-4.39-.64c-5.26,2.31-8.35.72-8.79-5.82a68.51,68.51,0,0,1,0-11.46C184.32,440.07,187.82,438.61,192.89,442Zm.09,10.29c-.12-2.3.07-4.25-.43-6a4,4,0,0,0-2.66-2.11c-.46-.11-1.87,1.4-1.92,2.23a87.62,87.62,0,0,0,.05,11.11c.07.92,1.49,1.75,2.29,2.62.79-.9,2-1.68,2.29-2.71A25.79,25.79,0,0,0,193,452.25Z"/><path class="cls-1" d="M109.76,442.21a25.3,25.3,0,0,1,4.06-2c2.74-.76,5.07.76,5.15,3.63.18,6.4,0,12.82,0,19.4h-4.17c0-5.31,0-10.42,0-15.53,0-1.59.27-3.86-2.09-3.49-1.1.17-2.64,2.2-2.72,3.46-.31,5.1-.13,10.24-.13,15.57h-4V426.47h3.89Z"/><path class="cls-1" d="M399,372.5c.93-5.06,1.83-9.14,2.39-13.27.3-2.22,1.21-2.83,3.56-2.13.63,4.64,1.28,9.44,1.93,14.25l.38.14c1-4.79,1.94-9.59,2.94-14.5h3.93c-1.64,7.63-3.24,15.1-4.9,22.81L406,380l-2.58-14.45-.41-.13-2.43,14.19c-2.16.67-3.46.75-4.05-2.23-1.32-6.8-3.14-13.5-4.77-20.34,2.83-.54,4.86-.76,5.1,3.09S398.13,367.82,399,372.5Z"/><path class="cls-1" d="M441.29,379.79h-4v-36.9l3.75-.18v16.36c1-.72,1.59-1.15,2.2-1.55,3.35-2.16,7-.46,7.46,3.47.11,1,0,2.1,0,3.16v15.59h-4.25c0-4.58,0-9.11,0-13.63a9.16,9.16,0,0,0-.26-3.46c-.39-.91-1.49-2.09-2.28-2.1a3.11,3.11,0,0,0-2.25,2.07,78.89,78.89,0,0,0-.42,8.71C441.25,374.11,441.29,376.9,441.29,379.79Z"/><path class="cls-1" d="M588.11,380.36l-5.24-1.49c-3.5,2.66-6.85,1.86-7.68-3a45.54,45.54,0,0,1-.35-14.17c.8-5.43,4.29-6.41,8.23-3.67l5-1.62Zm-9.72-11.86a59.11,59.11,0,0,0,1,6.21,2.78,2.78,0,0,0,1.83,1.64,2.18,2.18,0,0,0,1.7-1.3c.16-4.35.21-8.71.08-13.06,0-.55-1.31-1.52-2-1.47s-1.48,1.08-1.66,1.82C578.86,364.35,578.69,366.43,578.39,368.5Z"/><path class="cls-1" d="M394,324.85c.36,0,.51-.05.59,0,2.41,1.69,4.94,3.07,7.49.44,2-2.06,1.1-5.86-1.56-8.7-2.13-2.27-4.54-4.49-5.93-7.19-3.45-6.68.41-13.24,7.31-13,4.42.14,4.79.58,4.42,5.28-.19.06-.46.24-.58.17-2.34-1.39-4.89-2.44-6.8.28s-1.16,5.33.94,7.62a43.2,43.2,0,0,0,3.77,3.64c3.43,2.95,4.48,6.61,3.6,11-.92,4.58-3.37,6.63-8,6.5S393.75,329.84,394,324.85Z"/><path class="cls-1" d="M531.14,356.09v24.16l-5.07-1.3c-3.67,2.61-7.4,1.72-8.13-3.43a47.52,47.52,0,0,1,.25-14.53c.89-5.07,4.52-5.74,8-2.5ZM521.47,368a36.57,36.57,0,0,0,.43,5.93,3.42,3.42,0,0,0,2,2.35c.74.12,2.39-1.09,2.43-1.78a115.07,115.07,0,0,0,0-12.32c0-.64-1.5-1.7-2.26-1.66s-1.75,1.19-2,2A38.61,38.61,0,0,0,521.47,368Z"/><path class="cls-1" d="M477.94,380.39l-5.09-1.53c-4,2.93-7.45,1.88-8.27-4-.63-4.54-.23-9.27.16-13.87a4.67,4.67,0,0,1,8.13-2.93l5.07-1.73Zm-9.88-11.77a60.48,60.48,0,0,0,1,6.1c.17.69,1.26,1.69,1.83,1.62.83-.08,2.22-1,2.25-1.57.15-4.22.12-8.46-.13-12.68,0-.59-1.49-1.43-2.37-1.53-.48-.06-1.45,1.09-1.63,1.83C468.52,364.4,468.36,366.48,468.06,368.62Z"/><path class="cls-1" d="M26.62,506.73a5.26,5.26,0,0,1,.94.37c2.17,1.43,4.51,2.6,6.53.11a6,6,0,0,0,0-7.78,27.31,27.31,0,0,0-4.29-4.09c-3.61-3.1-5-7.47-3.61-11.58,1.68-4.94,5.81-7.18,10.48-5.1,1.19.53,1.47,3.07,2.55,5.55-3.67-1.64-6.47-3.1-8.32,0-1.71,2.89-.43,5.53,1.94,7.77,2.11,2,4.4,4,5.92,6.37,3.74,5.93-.41,14.24-7,14.45C27.28,512.94,25.94,511.37,26.62,506.73Z"/><path class="cls-1" d="M91.67,490.48l5.3-1.14v23l-5.17-1.16c-4,2.84-7.13,1.9-8.1-4.25A40.27,40.27,0,0,1,84,493.83C85,488.45,88.17,487.66,91.67,490.48Zm-4.42,10.43a41.08,41.08,0,0,0,.7,5.69,2.93,2.93,0,0,0,2,1.85c.74,0,2.12-1,2.16-1.69a113.75,113.75,0,0,0,.06-11.68c0-.69-1.41-1.93-2-1.83a3.5,3.5,0,0,0-2.38,1.95A31.5,31.5,0,0,0,87.25,500.91Z"/><path class="cls-1" d="M549.75,330.58h-4.4V320.24a29,29,0,0,0-.07-5.6c-.25-1.24-1.37-2.32-2.1-3.47-.92,1.13-2.58,2.21-2.64,3.38-.29,5.23-.13,10.48-.13,15.95h-4.12v-23l4.29,1.24c2.13-.25,4.89-1.41,6.62-.53,1.47.75,2.31,3.81,2.44,5.91C550,319.43,549.75,324.81,549.75,330.58Z"/><path class="cls-1" d="M464.81,331.06l-5-1.64c-3.43,3-6.77,2.17-7.61-3.31a45.44,45.44,0,0,1,0-14.16c.85-5.1,4.24-5.88,8-3l4.6-1.76Zm-3.37-11.24a54,54,0,0,0-1.08-6.52,4,4,0,0,0-2.16-2c-.37-.17-1.73.71-1.74,1.15-.14,4.44-.47,8.94,0,13.33.25,2.14,2.46,2.14,3.37.06A34.42,34.42,0,0,0,461.44,319.82Z"/><path class="cls-1" d="M180.87,512h-4.22c0-4.95,0-9.94,0-14.93,0-1.64.64-3.93-2.06-4s-2.83,2.23-2.84,4.26c0,4.78,0,9.56,0,14.58h-4V489.39l3.92.94c2.46-.31,4.94-1.31,6.77-.61,1.28.48,2.27,3.26,2.36,5.07C181.06,500.48,180.87,506.18,180.87,512Z"/><path class="cls-1" d="M137.78,453.15h-10.3c0,1.25-.31,2.39.07,3.24A23.59,23.59,0,0,0,130,460.1a40.35,40.35,0,0,1,3.08-2.63c1.1-.78,2.35-1.35,4.1-2.33-1.07,6.88-2.61,8.47-6.92,8.53-3.41.05-5.68-1.95-6-4.76a71,71,0,0,1,.11-14.43c.27-2.79,2.6-4.36,5.5-4.45a5.58,5.58,0,0,1,5.66,3.9A86.21,86.21,0,0,1,137.78,453.15ZM133,449.54c0-2.67-.16-5.55-3.15-5.36-2.79.17-2.43,3-2.28,5.36Z"/><path class="cls-1" d="M180.63,453H170.57c-.37,2.83-.54,5.61,2.12,6.75.89.38,2.89-1.8,4.38-2.81l-.51-.87h3.77c-.53,1.56-.91,2.88-1.4,4.15-1,2.5-2.89,3.41-5.51,3.43a5.62,5.62,0,0,1-5.75-3.74,22.61,22.61,0,0,1-.39-15.41c.86-2.74,2.6-4.47,5.51-4.56a5.72,5.72,0,0,1,5.94,4A87.77,87.77,0,0,1,180.63,453Zm-4.77-3.59c.11-2.45.47-5.22-2.54-5.34-3.46-.14-2.45,3.09-3.06,5.34Z"/><path class="cls-1" d="M152.87,455.48c-.55,6.89-1.94,8.2-6.3,8.2-3.07,0-5.28-1.66-5.54-4.29a77,77,0,0,1-.05-14.8A5.32,5.32,0,0,1,146.4,440a5.45,5.45,0,0,1,5.67,3.88c.9,2.81,1.32,5.78,2.07,9.22H144c.08,1.46-.16,2.63.26,3.49a23.12,23.12,0,0,0,2.6,3.56c.9-.85,1.75-1.77,2.73-2.53S151.77,456.18,152.87,455.48Zm-3.62-6c0-2.44.35-5.29-2.65-5.24-1.11,0-2.19,2.92-3.78,5.24Z"/><path class="cls-1" d="M67.38,502.05a40.64,40.64,0,0,1-1.27,6.51,6.12,6.12,0,0,1-6.26,4.18c-3-.06-5.5-1.77-5.87-4.59a52.29,52.29,0,0,1-.2-13.4c.55-4.16,3.35-5.94,6.74-5.67s5.92,2.84,6.47,6.72C67.23,497.52,67.21,499.29,67.38,502.05Zm-4.61-.83h.3a52.55,52.55,0,0,0-.74-6.54c-.18-.81-1.44-2-2-1.95-.91.14-2.33,1.21-2.38,2a95.47,95.47,0,0,0-.12,12.08c.05.85,1.66,1.62,2.54,2.42.81-.91,2.08-1.71,2.32-2.75A23.25,23.25,0,0,0,62.77,501.22Z"/><path class="cls-1" d="M420.85,318.94a52.83,52.83,0,0,1,1.3-7.16,5.86,5.86,0,0,1,6.05-4.31c3.09,0,5.23,1.37,6.14,4.2a22.85,22.85,0,0,1-.19,15c-1.07,2.9-3.29,4.32-6.51,4.19a5.54,5.54,0,0,1-5.66-4.68C421.42,323.85,421.22,321.41,420.85,318.94Zm4.67.2h-.23a28.44,28.44,0,0,0,.43,5.57,3.73,3.73,0,0,0,2.39,2.41,3.29,3.29,0,0,0,2.43-2.2,80.46,80.46,0,0,0,0-11.41c-.06-.84-1.54-1.59-2.37-2.39-.88.92-2.24,1.72-2.53,2.8C425.2,315.55,425.52,317.39,425.52,319.14Z"/><path class="cls-1" d="M492.81,345.68H504.3v3.59h-6.9v10.66l6.56.3c.07,1.13.14,2.12.23,3.52h-7v16.09h-4.37Z"/><path class="cls-1" d="M619.36,373c-.71,2.89-1.21,6-4.75,6.94-4,1.06-7.66-.78-8.25-4.86a53.49,53.49,0,0,1-.05-13.44,5.38,5.38,0,0,1,5.75-5c3.5,0,5.5,2,6.45,4.89.78,2.35.77,5,1.16,7.88h-10c0,1.61-.37,3,.1,4.08a5.76,5.76,0,0,0,2.82,2.89c.48.2,1.69-1.56,2.66-2.31s2.22-1.51,3.33-2.25Zm-10.49-6.63h6.86a55.06,55.06,0,0,0-2.29-5.65,2.54,2.54,0,0,0-2.13-.13C610.42,362.3,609.79,364.13,608.87,366.4Z"/><path class="cls-1" d="M133.62,501.63H123.37c0,2.92-1.14,6.07,2.28,7.31.87.31,2.65-1.87,4-2.91l-.54-.87h3.37c-.19,4.5-2.15,7.21-5.48,7.62-3.68.46-6.65-1.63-7.27-6.31a48.85,48.85,0,0,1,.24-12.72,6,6,0,0,1,11.41-1A79,79,0,0,1,133.62,501.63ZM122.4,497.8l1.1.81h5.27c0-2.65,0-5.59-3-5.77C124.73,492.78,123.52,496.05,122.4,497.8Z"/><path class="cls-1" d="M501.76,319.86H491.5c.11,1.81-.14,3.32.36,4.52a4.79,4.79,0,0,0,2.68,2.71c.7.16,1.78-1.49,2.75-2.24s2.22-1.52,3.9-2.66c-.39,6.13-2.27,8.48-6,8.65-4.07.18-6.64-2.07-7.11-6.87a54.75,54.75,0,0,1,0-10.4c.34-3.61,2.71-5.86,5.67-6.1,3.36-.28,5.74,1.39,6.83,5.17A63.88,63.88,0,0,1,501.76,319.86Zm-4.57-3.13c-.16-2.5.43-5.54-2.9-5.42-3.11.12-2.47,3.1-2.67,5.42Z"/><path class="cls-1" d="M513,379.75h-4.21V342.87H513Z"/><path class="cls-1" d="M161.72,463.24h-3.85v-37h3.85Z"/><path class="cls-1" d="M592.71,375.93c1,.2,2.08.71,3,.51a4.91,4.91,0,0,0,3-1.78c.39-.68-.15-2.28-.78-3a31,31,0,0,0-4-3.43c-2.79-2.37-3.54-5.44-2-8.39a6.42,6.42,0,0,1,8.15-2.81c1,.38,1.4,2.18,1.86,3-2.65.62-5.47.47-6.17,1.62-1.62,2.66,1.25,3.87,3,5.35,2.47,2.12,5.16,4.18,4,8.17-1.29,4.24-4.92,6.36-8.94,4.72-.94-.38-1.32-2.14-2-3.27Z"/><path class="cls-1" d="M412.32,301.45H416c1.16,2.24-1.11,5.52,2.34,6.94a4.15,4.15,0,0,1-.28,2.43c-2.55.5-1.66,2.43-1.68,3.84-.08,5.13,0,10.25,0,15.73l-4.22.32c0-5.86.08-11.43-.07-17,0-.89-1.12-1.73-1.56-2.66a20.16,20.16,0,0,1-.83-2.67C413.47,307.36,411.59,304,412.32,301.45Z"/><path class="cls-1" d="M540.72,379.85h-4.24c0-5.45.06-10.8,0-16.15,0-1.26,1-3.18-1.55-3.57a4.09,4.09,0,0,1-.39-2.43c3.45-1.62,1.27-4.89,2.27-7.33h3.81c0,.9.11,1.71.13,2.51a12.36,12.36,0,0,0,0,2.11c.43,2.08,4.65,3.51.3,6.56-1.45,1-.3,5.77-.32,8.81S540.72,376.43,540.72,379.85Z"/><path class="cls-1" d="M431.18,379.81h-4.3c0-5.59.09-11-.07-16.46,0-1.05-1.08-2-1.48-3.12-.3-.81-.65-2.39-.43-2.5,3.37-1.61,1.36-4.84,2.27-7.33h4a21.79,21.79,0,0,0,.06,3.9c.17.91,1,1.69,1.27,2.6s.61,2.88.41,3c-2.74,1-1.64,3.24-1.68,5C431.1,369.7,431.18,374.59,431.18,379.81Z"/><path class="cls-1" d="M567.75,301.27c1.14,2.54-1,5.73,2.36,7.21a3.23,3.23,0,0,1-.12,2.19c-3,.94-1.73,3.39-1.79,5.18-.16,4.77-.06,9.54-.06,14.57H564c0-5.57.07-11-.07-16.47,0-1-1-1.87-1.4-2.88a9.06,9.06,0,0,1-.6-2.66c3.61-1.33,1.35-4.61,2.38-7Z"/><path class="cls-1" d="M224,383.86c6.6,1.91,11.84,16.65,10.94,29.41-.82,11.74-11,30.51-18.34,31.9,8.39-8.93,14.39-18.3,15.94-29.87S231.45,393.16,224,383.86Z"/><path class="cls-1" d="M196,483.36h3.81a25.35,25.35,0,0,0,.06,4c.13.82.94,1.51,1.17,2.34a21.93,21.93,0,0,1,.46,3.25c-2.62.33-1.62,2.39-1.65,3.78-.1,5,0,10,0,15.21h-4.22c0-5.33.08-10.66-.06-16,0-1-1-1.87-1.37-2.87a8.11,8.11,0,0,1-.55-2.74C197.24,489,194.75,485.61,196,483.36Z"/><path class="cls-1" d="M45,483.11l3.5.18c.83,2.5-.93,5.71,2.3,7.31.24.11.29,1.42,0,1.63-4,3.1-1.41,7.37-2,11-.4,2.73-.08,5.57-.08,8.69l-4.23.21c0-5.54.07-10.88-.06-16.21,0-1-1-1.89-1.36-2.89a8.82,8.82,0,0,1-.61-2.7C46.05,489,43.82,485.72,45,483.11Z"/><path class="cls-1" d="M382.36,249.55c-18.58,18-19.09,38.58-9.14,60.87-7.05-9.38-9.07-20.07-8.05-31.26C366.3,266.87,371.79,256.71,382.36,249.55Z"/><path class="cls-1" d="M448.54,306.74v4.46c-4.49.32-5,3.3-4.84,6.93.16,4.05,0,8.12,0,12.41l-3.95.21v-23c1.64.3,4.16-1.6,4,2.08Z"/><path class="cls-1" d="M71.42,512v-22.7l4.44,1.06-.23.94,4.51-2.76.3,4.32c-4.28.28-5.16,2.91-5,6.5.17,4.17,0,8.34,0,12.64Z"/><path class="cls-1" d="M554.94,307.85h3.68v22.56h-3.68Z"/><path class="cls-1" d="M417.47,357h3.69v22.8h-3.69Z"/><path class="cls-1" d="M189.79,512.05H186v-22.2h3.78Z"/><path class="cls-1" d="M419.22,354.29c-1.28-1.86-2.62-3-2.62-4.07,0-.84,1.89-2.49,2.61-2.32a4.11,4.11,0,0,1,2.56,2.77C421.92,351.5,420.48,352.61,419.22,354.29Z"/><path class="cls-1" d="M192,482.86c-2,1.38-3.08,2.65-4.22,2.72-.85.05-1.79-1.46-2.7-2.28.91-.93,1.7-2.38,2.77-2.63C188.74,480.47,190,481.7,192,482.86Z"/><path class="cls-1" d="M555.7,304.49c-.61-1-1.84-2.23-1.64-3.1a3.77,3.77,0,0,1,2.74-2.15c.64-.08,2.09,1.52,2.08,2.36s-1.18,2-1.85,3Z"/><rect class="cls-2" width="1153.11" height="1153.11"/></g></g></svg>