<svg xmlns="http://www.w3.org/2000/svg" viewBox="0 0 1025 1025"><defs><style>.cls-1{fill:none;stroke:#333;stroke-linecap:round;stroke-linejoin:round;stroke-width:2px;}</style></defs><g id="Layer_2" data-name="Layer 2"><g id="Layer_1-2" data-name="Layer 1"><path class="cls-1" d="M1024,71.5c-22.5.17-45,0-67.5.6-24.84.69-49.67,0-74.5.42-42,.71-84,.49-126,1.24-32.17.57-64.35-.2-96.49.94-23.18.82-46.38-.23-69.5,1-26.35,1.39-52.69,0-79,.86-36.83,1.16-73.69.1-110.49,1.23-24.52.75-49-.4-73.5.88-22,1.15-44,.46-66,.85-6,.11-12,.32-18,.49"/><path class="cls-1" d="M1024,87.5c-61.67,0-123.35-.83-185,.26-51.67.91-103.35-.47-155,.94-46.35,1.26-92.68-.07-139,.87-75.16,1.52-150.33.5-225.5,1-17.83.13-35.68-.1-53.49.56-9.62.35-17.35-3.39-25-8.16"/><path class="cls-1" d="M214,928c.68.93,1.67.47,2.5.48,25.83.36,51.67.43,77.5,1.1,22.33.57,44.67.66,67,1,19.83.32,39.67.54,59.5,1,23.83.56,47.67.56,71.5,1,24.17.44,48.33.67,72.5,1,17.16.25,34.33.95,51.5.91a24.73,24.73,0,0,1,3.5.48"/><path class="cls-1" d="M195,64.5c1,43-.06,86,.63,129,.4,24.84-.15,49.67.42,74.5.94,40.33-.54,80.69.71,121,.73,23.52.2,47,.74,70.51"/><path class="cls-1" d="M238,65c-2.55,1.49-1.45,4-1.45,6q-.09,170-.05,340v48"/><path class="cls-1" d="M254.5,91V528.5"/><path class="cls-1" d="M674,835c1.58,1.06,3.34.46,5,.47,28.17,0,56.34-.39,84.5.15,25.67.5,51.34-.23,77,.49,20,.55,40-.2,60,.48,17.34.6,34.68-.15,52,.49,19.34.73,38.67.12,58,.43,4.5.08,9,.32,13.5.49"/><path class="cls-1" d="M163.5,122v16.5c0,13.83.29,27.67-.06,41.5-1,39-.65,78-.3,117,.37,40-.11,80,.49,120,.22,14.33.13,28.67.37,43"/><path class="cls-1" d="M621.5,934.5c23.67.33,47.34.38,71,1.1,16.83.51,33.68.4,50.49,1,18.51.72,37,.34,55.51,1s37,.51,55.5,1c19.83.5,39.67.65,59.5,1,16.83.29,33.67.57,50.5,1,16.5.43,33,.95,49.5.92,3.5,0,7,.3,10.5.47"/><path class="cls-1" d="M1,73q38.51,15.25,76.9,30.75c19.93,8.06,40,15.92,59.61,24.73,2.52,1.13,4.6,3.19,8,3.68,0,1.5,0,3.17,0,4.84.31,23.67-.21,47.33.38,71,.56,23-.28,46,.21,69,.78,36-.21,72,.52,108,.46,22.5.12,45,.41,67.5,0,2,.31,4,.48,6"/><path class="cls-1" d="M139.5,133q.25,163,.5,326"/><path class="cls-1" d="M707,773c1.58,1.06,3.34.47,5,.47q156,0,312,0"/><path class="cls-1" d="M219,1c6.19,2.66,11.37,6.94,17,10.51,9.36,6,18.84,11.75,27.95,18.08a175.6,175.6,0,0,1,16.49,13.48,9.6,9.6,0,0,0,7.07,2.46c13.33-.07,26.68.41,40-.11,53.66-2.06,107.34-.06,161-1.15,10.3-.2,20.69-.35,32-1L481,1"/><path class="cls-1" d="M299.5,774.5c-3.83,3.8-9,5.49-13.57,7.85-29.69,15.29-59.58,30.18-89.43,45.14-33.65,16.87-67.42,33.51-101,50.57q-34,17.28-67.47,35.55c-7.28,4-15,7.09-22,11.46-1.48.92-4-.89-4.55,1.93"/><path class="cls-1" d="M735,721c1.58,1.06,3.34.47,5,.47q142,0,284,0"/><path class="cls-1" d="M432,773c1.58,1.06,3.34.47,5,.47q131.5,0,263,0c1.84,0,3.73-.35,5.5.49"/><path class="cls-1" d="M275,530.5a226.69,226.69,0,0,0-25-1c-30.5.16-61-1.5-91.5-1.05-11.33.16-22.67-1-34-.79a278.77,278.77,0,0,0-31,2.76c-11.27,1.48-22.66,2.06-34,3.13-9.84.92-19.78,1.38-29.47,3.15-9,1.65-18,1.73-27,1.86-1.24,0-1.87-.31-2-1.53"/><path class="cls-1" d="M257.5,572.5c-85.48,3.81-171,1.26-256.5,2"/><path class="cls-1" d="M240.5,617.5c-16.33-.33-32.67-.8-49-1-27.33-.28-54.67,0-82-.65-17.84-.42-35.68.21-53.5-.47-18.34-.7-36.67-.13-55-.41"/><path class="cls-1" d="M319,702.5c3.14-2.43,7-3.32,10.51-5,2.48-1.17,4.35-2.46,2-5.61-6.44,2.76-13.18,5.83-20.05,8.56C294,707.4,276.49,714.15,259,721c-5.35,2.1-10.58,4.58-16,6.39a29.54,29.54,0,0,1-9,1.06c-19.83.08-39.68.5-59.5-.07-28.5-.82-57-.44-85.5-1-25.33-.51-50.66-.88-76-.89-4,0-8-.31-12-.48"/><path class="cls-1" d="M336.5,596.5c0,6.83.21,13.68-.14,20.49-.09,1.81-.24,3.68-.34,5.51-.28,5.16-1.55,6.74-6.52,8-15.67,4-31.35,7.94-47,12C270,645.77,257.45,649,245,652.59c-4.22,1.22-8.34.92-12.53.89q-24.75-.18-49.5-.49c-19.67-.28-39.33-.67-59-1-22.33-.35-44.68-.37-67-1.1-17-.55-34-.14-51-.42-1.67,0-3.33-.31-5-.48"/><path class="cls-1" d="M1,799.5c26.68.2,53.32,1.67,80,2.23,15.16.32,30.33.66,45.5.76,31.67.21,63.34.08,95,.67a58.09,58.09,0,0,0,27-6.07c14.47-7,28.57-14.55,42.48-22.56,14.09-8.12,28.32-16,42.32-23.91q-7.79-24.17-15.51-48.09c-21.62,9.23-43.14,18-64.25,27.65-8.66,4-17.22,5.3-26.58,5.45-42.66.7-85.33.61-128,1-24.33.23-48.67.12-73,.3-8.33.07-16.67-.29-25-.46"/><path class="cls-1" d="M236,688.5c-5,1.63-10,0-15,0-14.5-.11-29,.39-43.5-.51-16.66-1-33.37.37-50-.65-17.52-1.07-35-.07-52.5-1-15.18-.8-30.34-.69-45.51-.86-9.5-.11-19-.32-28.5-.49"/><path class="cls-1" d="M329.5,668a28.11,28.11,0,0,0-.88,11c1.08,7.41-3.71,9.87-9.12,12-24.56,9.69-49.32,18.89-73.49,29.53a58.47,58.47,0,0,1-30.53,4.66c-10.91-1.16-22-.86-33-1.18-23.33-.67-46.67-1.11-70-1.7-37.17-.93-74.33-.58-111.5-.8"/><path class="cls-1" d="M350,832c.5.82,1.32.48,2,.49q31.25.27,62.5.51c20.5.17,41,.07,61.5.56,30.16.72,60.34.56,90.5,1.07,26.17.45,52.33,0,78.5.4,9.17.13,18.33.64,27.5,1"/><path class="cls-1" d="M506,721c1.58,1.06,3.34.47,5,.47q108.5.06,217,.06c1.66,0,3.42-.59,5,.47"/><path class="cls-1" d="M259,575l-1.17-2.86,78-12.49c1.42-10.29.37-20.48.78-31.37-3.92.55-7.28,1-10.56,1.34-15.64,1.62-31.44.8-47,2.68-8.83,1.07-17.89,1.51-26.56,4.12-2.68.81-5.74.53-8.47.42-13.7-.56-27.36.49-41,.83-55.33,1.38-110.67.56-166,.78-3,0-6,1.56-9,0"/><path class="cls-1" d="M253.5,506c-17.33,1.5-34.66,3.08-52,4.48-17.83,1.43-35.67,2.6-53.5,4-14.84,1.2-29.65,2.89-44.51,3.89-11.32.76-22.66,1.45-34,2-22.81,1-45.66,1.44-68.49,2.11"/><path class="cls-1" d="M209.5,929a19.5,19.5,0,0,0-3-.48c-14.83-.2-29.68-.08-44.5-.59-18.33-.63-36.67,0-55-.48q-36.5-.87-73-1c-9,0-18-.62-27-1"/><path class="cls-1" d="M966,178.5c-14.83,0-29.67.18-44.5-.05-16.68-.25-33.36.62-50,1.34-22.85,1-45.7.93-68.5.41-12.15-.28-24.38.14-36.51-1.2"/><path class="cls-1" d="M1,469.5H252"/><path class="cls-1" d="M909,616.5c-.5.82-1.32.48-2,.49q-55.5.27-111,.52c-19.5.11-39,0-58.5.58-22.34.71-44.67.18-67,.39-25.67.24-51.34,0-77,.62-25.17.63-50.33.15-75.5.39-30.67.3-61.33-.07-92,.38-29,.43-58-.2-87-.37"/><path class="cls-1" d="M343,565c-.72,1.89-2.37,1.79-4,2-30.5,4.46-61,9.18-91.52,13.32-7.36,1-15,.26-22.48.13-15.33-.26-30.67-.72-46-1-16-.25-32,0-48-.63-12.67-.5-25.34,0-38-.43-21.83-.78-43.67-.06-65.5-.58-8.83-.21-17.67-.22-26.5-.38"/><path class="cls-1" d="M407.5,720.5c8.62-5.54,17.81-10,27-14.58,16.8-8.39,33.56-16.93,49.92-26.14,4.36-2.45,8.31-2.26,12.62-2.27q28.5,0,57,0H751c1.84,0,3.73-.35,5.5.49"/><path class="cls-1" d="M1,32c4.5,3.49,9.92,5.18,15,7.48C53.47,56.38,89.56,76,126.52,94c18.57,9,37.31,17.7,56,26.53"/><path class="cls-1" d="M1,829c20.33.87,40.68,0,61,.62,15.34.46,30.68-.18,46,.46,17.67.73,35.34.09,53,.45,8.34.17,16.67.64,25,1"/><path class="cls-1" d="M1.5,42.5q26,12.49,52,25c9.53,4.61,19,9.36,28.51,14q48,23.28,96,46.47c.56.27,1,.33,1,1"/><path class="cls-1" d="M912,645.5c-1-1.07-2.35-.47-3.5-.47q-65-.06-130,0-79.5,0-159,0c-1.15,0-2.46.6-3.5-.47"/><path class="cls-1" d="M486,678c-1.58-1.06-3.34-.46-5-.47q-75.75-.06-151.5,0"/><path class="cls-1" d="M548,645.5c-1.58-1.06-3.34-.46-5-.47Q472,645,401,645c-1.66,0-3.42.59-5-.47"/><path class="cls-1" d="M345,833a45.88,45.88,0,0,0-10-1q-54.25-.18-108.5-.51c-11.17-.08-22.33-.63-33.5-1"/><path class="cls-1" d="M758.5,677.5H909"/><path class="cls-1" d="M879,326c-.33-7.67,1.18-15.33.2-23.53-17.21.47-34.17-1.61-51.45-.81V327.5c10.58,0,21,.53,31.24-.19,6.68-.47,13.4.67,20-.81"/><path class="cls-1" d="M749.5,197c1.25,12.64.57,25.34,1.1,38,.67,15.67.66,31.35.26,47-.45,17.34-.08,34.67-.37,52-.07,4.67,1.42,9.33,0,14"/><path class="cls-1" d="M898.5,354c-31.17-.17-62.35.13-93.49-.71-14-.38-28-.61-42-.78-1.67,0-3.4-.31-5,.49"/><path class="cls-1" d="M253.5,462c-1.83-.17-3.67-.47-5.5-.48-16.68-.06-33.37.23-50-1.47-2-.2-4,.48-6,.42-44.83-1.34-89.67-.52-134.5-1.15-18.83-.26-37.66-.78-56.5-.82"/><path class="cls-1" d="M135,427q-32.25-1.25-64.5-2.51c-23.17-.95-46.33-2-69.5-3"/><path class="cls-1" d="M973.5,187c.06,12.67-.07,25.34.88,38a227.32,227.32,0,0,1,.08,24.49c-.76,23.9,1.73,47.67,2.54,71.5"/><path class="cls-1" d="M279,881c-67.8,47.48-134.87,96-203,143"/><path class="cls-1" d="M454.5,620.5c-4.49,3.84-10.31,4.81-15.55,6.87-14.77,5.82-29.55,11.76-44.55,16.85-21.48,7.29-42.43,16-64.12,23.33-1.73-3,0-6.51-1.28-9.55"/><path class="cls-1" d="M1.5,398.5c10.67,1,21.34,2,32,3q30.75,3,61.5,6c12.66,1.22,25.33,2.34,38,3.51"/><path class="cls-1" d="M132,325c-8.33-2.17-16.61-4.57-25-6.45q-31-7-62-13.52C30.38,302,15.82,298.54,1,296.5"/><path class="cls-1" d="M132,394q-42.49-5.5-85-11c-15.32-1.94-30.67-3.69-46-5.52"/><path class="cls-1" d="M1,275c6.69,3,14,3.81,21,5.45,26.47,6.13,53,11.83,79.46,18.16,10,2.39,20,4.47,30,6.89"/><path class="cls-1" d="M1,316l131,25"/><path class="cls-1" d="M1,131c4.4,4,10.31,4.47,15.54,6.39C45.29,148,74.18,158.13,103,168.52c9.38,3.38,18.68,7,28,10.48"/><path class="cls-1" d="M1,253c9.16,3.86,19,5.47,28.51,8Q79.73,274.1,130,287a4.18,4.18,0,0,0,1,0"/><path class="cls-1" d="M1,152c4.63,3.38,10.28,4.19,15.52,5.95Q71,176.34,125.5,194.5c1.65.55,3.38,1,4.5,2.5"/><path class="cls-1" d="M131,376c-13.5-2-27-4-40.5-6-22.16-3.2-44.34-6.33-66.5-9.52-7.67-1.11-15.33-2.32-23-3.49"/><path class="cls-1" d="M1,214l49.5,14.5c17.67,5.17,35.34,10.3,53,15.51,8.84,2.62,18,4.38,26.5,8"/><path class="cls-1" d="M1,192c5.24,3.22,11.3,4.12,17,5.94,19,6,38,11.65,57,17.58,18.37,5.74,36.68,11.65,55,17.48"/><path class="cls-1" d="M1.5,173.5c28.33,9.17,56.69,18.27,85,27.52,14.88,4.87,29.68,10,44.51,15"/><path class="cls-1" d="M1,234c9.69,4,20,6,30,8.92,16.58,4.81,33.4,8.8,50,13.66,15.13,4.45,30.25,8.95,45.51,12.94A26.14,26.14,0,0,1,130,271"/><path class="cls-1" d="M130,444,1,441"/><path class="cls-1" d="M1.5,336.5q28.76,5,57.5,10,24.75,4.28,49.5,8.49c7.32,1.24,14.67,2.34,22,3.51"/><path class="cls-1" d="M1.5,111.5q33.26,13,66.5,26Q98.48,149.32,129,161"/><path class="cls-1" d="M242.5,583v33.23c4.79.92,8.93-.62,13-1.35,17-3.09,33.8-7,50.53-11.34,8.61-2.21,17.28-4.24,26-5.94,3.22-.62,5.63-3,9-3.22a2.54,2.54,0,0,0,2-2.38c-.25-8.5,1.46-17,0-25.5"/><path class="cls-1" d="M236.5,654.5v33.37c2.44,1.14,4.14.29,6-.32,17.8-5.75,35.72-11.17,53.45-17.13,10.65-3.57,21-7.86,31.52-11.95,3.5-1.37,5.22-4.05,5-8-.31-6.66.52-13.36-.53-20"/><path class="cls-1" d="M886,198.5,763,198"/><path class="cls-1" d="M1,92c7,3.72,14.64,6.08,22,9q40.11,15.67,79.53,32.94c6.43,2.8,13.07,5.17,19.46,8.1"/><path class="cls-1" d="M500.5,722.5c-7.92,7.49-17.44,12.86-26.1,19.37-13.29,10-27.39,18.92-40.79,28.78-3.33,2.45-6.17,3-10.11,3-37.83-.22-75.67-.11-113.5-.2-1.67,0-3.33,1.59-5,.07"/><path class="cls-1" d="M869.5,214.5H829v17.83c13.51.67,27-.4,41-.47V215"/><path class="cls-1" d="M118,1c9.21,3.16,17,9,25.46,13.57,18,9.76,35.75,19.86,53.52,30q13.65,7.76,27,16.07c1.12.71,3.27,1.19,3.06,3.4"/><path class="cls-1" d="M136,1c8.09,3.1,15.06,8.23,22.49,12.51q39.78,23,79.51,46c1.81,1,3.67,2,5.5,3"/><path class="cls-1" d="M88,4l79,44.5c8.32,4.68,16.68,9.3,25,14A12.81,12.81,0,0,0,198.5,64c11.5.08,23,.28,34.5.48a36.07,36.07,0,0,1,4,.48"/><path class="cls-1" d="M400.5,722.5c-4.56,3.94-10.29,5.75-15.52,8.46-25.62,13.26-51.35,26.31-77,39.61-4.19,2.18-8.07,4.64-13,2.93"/><path class="cls-1" d="M5,763.5a25.42,25.42,0,0,0,.44,11.85l38.31,1.27V763.71c-12.89-1.1-25.58-.61-38.25-.71"/><path class="cls-1" d="M1024,423.5l-100,1"/><path class="cls-1" d="M1024,370.5q-47.5,0-95,0c-1.66,0-3.42-.59-5,.47"/><path class="cls-1" d="M1024,527.5c-33,0-66-.23-99,.56-1.72.63-1,2.42-1,3.94-.06,13.17,0,26.33-.07,39.5,0,1.49.66,3.11-.46,4.5"/><path class="cls-1" d="M1024,474.5c-26.5,0-53-.06-79.5,0-7.17,0-14.33,1.06-21.5,0"/><path class="cls-1" d="M1024,667.5c-31.32,1.42-62.66.92-94,1a13,13,0,0,1-2.5-.48"/><path class="cls-1" d="M183,2c21.86,13.09,43.12,27.15,64.51,41,10.63,6.89,21.32,13.68,32,20.51"/><path class="cls-1" d="M327,721.5H495a13.55,13.55,0,0,1,3,0c3.67.87,6.06-.31,9.18-2.81,8.67-7,18.3-12.7,27.29-19.27,9.64-7,20-13.08,29-21"/><path class="cls-1" d="M1024,576.5c-20.33,0-40.67-.11-61,0-10.67.09-21.33.63-32,1"/><path class="cls-1" d="M1024,625.5c-5.83,0-11.67,0-17.5,0-19-.07-38-.1-57,1.1a53,53,0,0,1-30-6.55,93.59,93.59,0,0,0-9.47-4"/><path class="cls-1" d="M929,279.5c-10.64-1.8-21.33-.62-32.25-1.09V300.5h32.44c.95-7.17-.29-13.83-.19-20.5"/><path class="cls-1" d="M530,553c1.86,3.24,2.1,5.79-.8,9.17-2.76,3.21-3.82,7.85-5.71,11.82-2.79,5.86-5.87,11.59-8.39,17.55-1.08,2.56-2.73,3.43-5.09,4-3,.72-6,1.71-9,2.45-2.45.59-4.16,1.71-3.46,4.51.77,3.07,3.09,2,5,1.49,8.52-2.12,17-4.39,25.52-6.43a9.11,9.11,0,0,0,5.49-3.07c-.56-1.37-.71-3-2-4-3,.75-5.9,1.56-9.08,1Q527,581.73,531.5,572"/><path class="cls-1" d="M768.5,281h24.11c1.12,6-.83,11.49.06,17.25H767.5V281.5"/><path class="cls-1" d="M898.5,422c-60.83,1.75-121.67-1.55-183-.29V497c0,18.5.38,37-.11,55.5-.45,16.5-.15,33-.38,49.5-.07,4.67,0,9.33,0,14"/><path class="cls-1" d="M427,774.5c-9.89,8.65-21.07,15.57-31.57,23.4-14.38,10.73-29.46,20.51-43.87,31.18-11,8.19-22.35,16-33.56,23.92"/><path class="cls-1" d="M922.5,370c.18-9.84-.16-19.67.87-29.51.68-6.44.13-13,.13-20.45-8,4.8-15.22,9.2-22.54,13.39A2.37,2.37,0,0,0,899.5,336c.7,14.33-1.56,28.69.31,43.7,7.67-3.33,15.32-5.56,22.45-9.63,2.15.55,1.2,2.51,1.2,3.93.06,21.83.67,43.69-.21,65.49-.47,11.5-.24,23-.94,35-7.95.7-15.63,1.34-23.31,2.07a37.22,37.22,0,0,0-4.5,1"/><path class="cls-1" d="M964,308.5l-68,1"/><path class="cls-1" d="M583.5,559c-.65-3-2.06-4.9-5.5-5.07-2.78-.14-2.74,2.33-4,3.62-.33.35-.2,1.32,0,1.94,3.28,11.85,6.07,23.86,11.62,35.3-5.33,1.84-11.17,1.88-16.11,4.44a6.82,6.82,0,0,0,1.24,4.26c9.72-1.69,19.23-3.33,28.73-5a11.33,11.33,0,0,0,3.47-1,2.71,2.71,0,0,0,1.48-3.43c-.46-1.16-1.48-1.64-3-1.58-3.24.13-6.36.41-9,2.56"/><path class="cls-1" d="M964,220l-68,1"/><path class="cls-1" d="M963,199l-67-.5"/><path class="cls-1" d="M963,206.5c-22.34.21-44.65,1.51-67,1"/><path class="cls-1" d="M291,49c.11,5.5-.37,11,.76,17.5-6.06,0-11.91.16-17.76,0C263.5,66.1,253,65,242.5,66c-1.12.1-2.46.62-3.5-.45"/><path class="cls-1" d="M930,578c-9.72-1.13-17.91-6.58-27-9.65-5.33-1.8-10.45-3.22-16.55-2.66V598.5c0,7.39,0,7.39,7,10,5.33,2,10.66,3.94,15.5,7"/><path class="cls-1" d="M571,551c-8.15,1.16-16.34.2-24.5.48-3,.11-6.13-.52-9,.17-3,.73-3-.59-3.06-2.65-.09-2.84-.32-5.67-.48-8.35l-21-3.18c-3.19,2.91-2.38,6.93-2.57,10.89C489,546.09,468.28,540.8,447,541"/><path class="cls-1" d="M610,645.5c-3.46-1.1-7-.38-10.5-.47-15-.38-30,.56-45-.47a9.24,9.24,0,0,0-5,1c-18.49,10.67-37.61,20.12-56.53,30-.27.14-.34.65-.51,1"/><path class="cls-1" d="M234,736.5c-1,8,1.74,15.16,4.36,22.55,4.17,11.77,7,24,12.14,35.45"/><path class="cls-1" d="M881,338c-18,1-36,.27-54,.5"/><path class="cls-1" d="M333.5,645c16.17,0,32.33,0,48.5,0,1.66,0,3.42-.6,5,.46"/><path class="cls-1" d="M817,220c-16.16.93-32.33.32-48.5.52-1.5,0-3,.31-4.5.48"/><path class="cls-1" d="M762,317a19.5,19.5,0,0,0,3,.48q25,.28,50,.52"/><path class="cls-1" d="M815,324l-53,.5"/><path class="cls-1" d="M511.5,539c-8.89-2-18-1.41-27-2.49-8.5-1-17-2-25.5-3"/><path class="cls-1" d="M1024,321.5,924,321"/><path class="cls-1" d="M926.5,475.5q0,23.5,0,47c0,1.67.31,3.4-.49,5"/><path class="cls-1" d="M878,289.5c-17,.18-34-.45-51,.5"/><path class="cls-1" d="M814,272c-1.6-.8-3.33-.49-5-.49q-23,0-46,0"/><path class="cls-1" d="M814,309H763"/><path class="cls-1" d="M773.5,646c-7.28,15.71-16,30.68-24,46-14.36,27.24-29,54.35-43.46,81.52"/><path class="cls-1" d="M38,470.5V521"/><path class="cls-1" d="M234.5,752c-.33,12.17-.7,24.33-1,36.5-.11,4.5,0,9,0,13.5"/><path class="cls-1" d="M814,228l-50,1"/><path class="cls-1" d="M876,258c-16.65,1.39-33.33.94-50,1"/><path class="cls-1" d="M875,243l-49,.5"/><path class="cls-1" d="M876,269l-49,1.5"/><path class="cls-1" d="M812,333l-49,2"/><path class="cls-1" d="M814,210.5q-22.75.25-45.5.52a19.5,19.5,0,0,0-3,.48"/><path class="cls-1" d="M934,578c1,15.82.25,31.67.5,47.5"/><path class="cls-1" d="M873,253c-14.66.81-29.33.4-44,.52a19.5,19.5,0,0,0-3,.48"/><path class="cls-1" d="M963,230c-2.7,0-5.44-.22-8.25,1v14.63c2.7.92,5.76.14,9.39.52-.51-5.11.51-10.11-.64-15.11"/><path class="cls-1" d="M618,519.5a6.27,6.27,0,0,1,1-4.48c.81-1.12,2.16-2.5,3.42-1,5.73,7,13.67,3.49,20.58,4.2,3.05.31,6.3-2.21,8.29,2.23.52,1.17,2.14.61,3.17.49,9.67-1.17,9.7,3.46,8.54,10.86-5.47,1.32-11.06.89-16.63,1.59-2.35-2.32-.58-5.73-2-8.18,1-2.89,4-2.22,5.62-3.73"/><path class="cls-1" d="M446,540.5c-1.14-1.59-3.13-.51-4.52-1.48-1.63-1.13-2.72-2.84-1.89-4.47,2.2-4.34-.47-9.33,2.31-13.62,1.1-1.7-1.34-2.33-2.42-2.6A135.33,135.33,0,0,0,424,515.08c-9-1.12-18-1.75-27-2.58"/><path class="cls-1" d="M928.5,625a5.45,5.45,0,0,0-.48,1.5c-.19,12,1.48,24.39-1,35.91-3.5,16.6-.4,33.16-2.56,49.59"/><path class="cls-1" d="M876,279.5c-13.33.25-26.68-.52-40,.45-1.3.1-2.78.61-4-.45"/><path class="cls-1" d="M610.5,647c-14.29,9.66-28.85,18.93-42.5,29.5"/><path class="cls-1" d="M766.5,165.5c-11.93,10-23.09,20.88-34.55,31.92,2.15,2.75,4,5.2,6.55,8.41l34.86-34.48-5.86-5.85"/><path class="cls-1" d="M899.5,380c-1.12,10.48-.53,21-.37,31.5.09,5.66.25,11.33.37,17"/><path class="cls-1" d="M645,533.5a40.76,40.76,0,0,1-14.53,1.27c-5.7-.67-11.69.38-17.46,1.3a445,445,0,0,1-45,4.75c-1.53.08-4.36,1-5.52-1.81-1-2.54-4.33.56-5.47-2"/><path class="cls-1" d="M923,424.5l-30,6c-.21,29.35,2.15,58.66,1.49,88"/><path class="cls-1" d="M650.5,619.5c-7,6.31-15.33,10.68-23,15.92-5.39,3.66-10.37,8-16.45,10.58"/><path class="cls-1" d="M794,423a30,30,0,0,0-.48,3.5c-.06,3.17,0,6.33,0,9.5-.16,24.83,0,49.68-.62,74.5-.48,18.34-.07,36.67-.39,55-.29,17-.66,34-1,51"/><path class="cls-1" d="M756,422.5q-.5,59.75-1,119.5"/><path class="cls-1" d="M628.5,542.5c-18.06-.28-35.44,3.42-52.5,9-2.79.91-4.46.17-4.49-3,0-2.5,0-5,0-7.5"/><path class="cls-1" d="M828.5,462.5c.17,19.17,0,38.34.57,57.5.86,30.67.14,61.33.41,92a47,47,0,0,1-.48,5"/><path class="cls-1" d="M866,423.5c-1.07,11.83-.42,23.67,0,35.5,0,.67,0,1.33,0,2q.25,49.76.51,99.5c.11,18.67.32,37.33.49,56"/><path class="cls-1" d="M793,462q-36,0-72,0c-1.66,0-3.42-.59-5,.47"/><path class="cls-1" d="M937.5,231c-1.49,5.39.88,10.65-.2,16.25h10.45V230H938"/><path class="cls-1" d="M593,624q-19.56,9.39-38.5,20"/><path class="cls-1" d="M755,502.5H716.5"/><path class="cls-1" d="M827.5,423c1,12.82.39,25.67.5,38.5"/><path class="cls-1" d="M889.5,541.5c-57.67-.66-115.33,1-173,1"/><path class="cls-1" d="M791.5,580.5H716"/><path class="cls-1" d="M782,237H766.5c0,5.82.09,11.66,0,17.5-.06,3.14,1.87,3.33,4,3,4.83-.81,9.68-.3,14.51-.46"/><path class="cls-1" d="M755,543c-.17,20-.3,40-.52,60-.05,4.67-1.19,9.33,0,14"/><path class="cls-1" d="M865.5,461.5,794,462"/><path class="cls-1" d="M892,501.5H829"/><path class="cls-1" d="M883,579.5c-1.58,1.06-3.34.46-5,.47-24.67,0-49.33,0-74,0-3.83,0-7.67.31-11.5.48"/><path class="cls-1" d="M792.5,502.5H756"/><path class="cls-1" d="M242.5,617c-1.83,1.37-1,3.33-1,5,.08,10.33.29,20.67.46,31"/><path class="cls-1" d="M529,532.5c-2.66-.62-3.79-2-3.58-5,.38-5.49-.12-11,.91-16.52.55-3,1.6-3.51,4.17-3.5,15.67.06,31.33.13,47-.05,3.66,0,4.6,1.72,3.92,4.56-.9,3.78.61,4.75,4.07,5.08,10.71,1,21.35-.14,32-.56"/><path class="cls-1" d="M828,501c-9.61,1.84-19.33.66-29,1-1.84.06-3.73-.35-5.5.49"/><path class="cls-1" d="M257.5,536.5c1.05,3,.21,6,0,9-.5,8.55.59,17,1.46,25.5"/><path class="cls-1" d="M248.5,537.5c-.25,11.52.48,23,1,34.5"/><path class="cls-1" d="M231.5,690v34.5"/><path class="cls-1" d="M540,1c8.31,8.14,15,17.63,22.5,26.5,2,2.35,4,4.67,6,7"/><path class="cls-1" d="M960.5,166.5c2.11,5.54,7,9.08,10.08,13.95,3.85,6,8.29,11.69,12.63,17.73,3.2-1.89,5.27-5,8.29-7.57L969,160.31a32.14,32.14,0,0,0-9,5.69"/><path class="cls-1" d="M594.5,570.5c0-2.17,0-4.33,0-6.5s1.06-3.4,3-3.43c2.27,0,2,1.9,2,3.43.23,6.11-.12,6.19-6.51,7.46-2.79.55-5.82-.69-8.82,1,3.05,7,3.33,14.78,7.83,21.07"/><path class="cls-1" d="M689,512c-7.57,1.68-15.33,1.66-23,2.48-2.49.27-5,.35-7.5.52"/><path class="cls-1" d="M890.5,565V518.1l34,9.4"/><path class="cls-1" d="M768.5,368l-27-25.21c-3.14,1.2-4.68,5.93-8.68,8.77l28.69,25.33c3.27-3,5.32-7.12,9.44-8.89"/><path class="cls-1" d="M913,618c-1.11,8.31-.15,16.67-.54,25-.12,2.7,1.09,5.72-1.46,8"/><path class="cls-1" d="M459,523c-1.26,3.24,0,6.74-.69,10.18-5.9,1-11.36-.06-16.81-1.18"/><path class="cls-1" d="M686,515c-8.59,3-17.67,2.31-26.5,3.5"/><path class="cls-1" d="M892.5,461c-8.65,1.09-17.34.21-26,.5"/><path class="cls-1" d="M788.5,618.5l-13.5,26"/><path class="cls-1" d="M590,520c6.64,1.08,13.34.19,20,.52,2,.1,4.07-.57,6,.48"/><path class="cls-1" d="M8,597.5c1.5,2,3.57,2.62,6,2.53,1.71-.06,3.36-.64,3.89-2.07s.56-3.44-.94-4.38-2.79-2.38-5-1.14c-2,1.12-3.64,2.38-4.46,4.56"/><path class="cls-1" d="M566.5,554v7.08c-9.08,2-17.81,1.36-26.5,1.36-2.49,0-5.31,1.75-7.5-.94"/><path class="cls-1" d="M177,557.5a20,20,0,0,0,3,2.46c2,1,4.08.83,5.42-1a3.31,3.31,0,0,0-.4-4.48,4.44,4.44,0,0,0-6-.88c-1.13.66-1.72,2.24-2.55,3.41"/><path class="cls-1" d="M480,513.5c7,3.84,14.44,3.81,22,2"/><path class="cls-1" d="M502,513.5c-9-1.78-18-.83-27-.5"/><path class="cls-1" d="M527.5,563.5c-2.93-.55-6.25-.42-6.07-5,.11-2.65.82-4.38,3.57-5,3.18-.75,6.33-1.65,9.5-2.48"/><path class="cls-1" d="M527,514.5c2-.28,3.86-1.08,6-1.06,15.67.12,31.33.06,47,.06"/><path class="cls-1" d="M568,1c3.67,5.17,7.36,10.31,11,15.52.71,1,1.87,1.95,1.52,3.48"/><path class="cls-1" d="M646.5,540.5c-.32,2.64.37,4.11,3.5,4.08,2.91,0,5.51-1.58,8.52-1.22,1.08.14,1.05-1.73,1-2.86"/><path class="cls-1" d="M543,540c4.89-1.44,9.61,1.5,14.51.54,1.63-.32,3.39.26,5-.54"/><path class="cls-1" d="M537,514.5q.25,8.5.5,17"/><path class="cls-1" d="M548.5,514.5v17"/><path class="cls-1" d="M663.5,533c1.61,4.67,0,7.57-4.49,6.91-9.16-1.36-18,1-27,1.57-1.72.1-2.52.41-2.64,2.51-.09,1.8-2,2.55-3.86,2.52-2.83,0-5.67,0-8.5,0-1.72,0-2.74-.61-1.5-2.49"/><path class="cls-1" d="M560,514.5q.25,8.5.5,17"/><path class="cls-1" d="M528,551.5c-4.82-1.91-10-1.54-15-2.5-.68-.13-1.5.32-2-.5"/><path class="cls-1" d="M235,470.5q-.5,8.25-1,16.5"/><path class="cls-1" d="M541,507a6,6,0,0,0-.43-2c-1-2.09-1.17-4.83-4.57-4.47s-2,3.33-3,5a9,9,0,0,0-.51,1.49"/><path class="cls-1" d="M912,651.5c4.72,5.15,10.57,9.34,13.5,16"/><path class="cls-1" d="M310,859l-16,11"/><path class="cls-1" d="M582,517c-.12,3.35-1.17,7.07-.65,9.94,1,5.41-2.33,6.11-5.34,5.9-8.68-.63-17.34-.24-26-.33-6.67-.06-13.34,0-20.06,0a9.23,9.23,0,0,0,12.06,8"/><path class="cls-1" d="M576,570.5c-13.39,3-27,1.8-40.82,2-.79,2.89-3,5.68-.68,9"/><path class="cls-1" d="M524.5,522c-6.45-1.16-13.09.32-19.51-1.46a1.89,1.89,0,0,0-2.4,1.94c.69,3.93-1.67,7.63-1,11.42l10.4,2.6"/><path class="cls-1" d="M442.5,520.5c3.19,1.74,6.66.72,10,1,2,.17,4.07-.52,6,.49"/><path class="cls-1" d="M503.5,528.5c5,.5,10,.89,15,1.53,5.6.71,6.37,2.9,3,8"/><path class="cls-1" d="M637,519a8.37,8.37,0,0,1-9,4.52,7.83,7.83,0,0,0-3.48,0c-3.89,1.47-8.15.52-12,1.83,0,3.52-.38,7,1.48,10.11"/><path class="cls-1" d="M572,507a9.38,9.38,0,0,0-.55-3c-1-1.72-1.94-3.76-4.45-3.51-2.68.28-3,2.33-3,4.48"/><path class="cls-1" d="M342,564.5c-4.14-1.9-8.84-.2-13-2"/><path class="cls-1" d="M286,48l-9.5,13"/><path class="cls-1" d="M530,562.5c1.24,3.37,0,7.72,4,10"/><path class="cls-1" d="M584.5,571c-1.71-3.11-1.82-6.63-2.56-10.23.89-1.44,2.63-3.2,4-2.6,3.13,1.38,7-1.65,9.57,1.83"/><path class="cls-1" d="M575.5,533.5c.25,1.61-.37,3-2,2.93-3.49-.2-2.48,1.75-2,3.57"/><path class="cls-1" d="M536.5,552.5c.5,3.15-1.07,6.52,1,9.5"/><path class="cls-1" d="M630,524.5c0,3.17,1.41,6.33,0,9.5"/><path class="cls-1" d="M548.5,554v7.5"/><path class="cls-1" d="M519,522.5c-.33,2.33-.67,4.67-1,7"/><path class="cls-1" d="M586,551c-.17,2.17-.33,4.33-.5,6.5"/><path class="cls-1" d="M625,519.5l-8.48.92c-.35,1.25-.69,2.41-1,3.58"/><path class="cls-1" d="M503.25,514a3.36,3.36,0,0,0,3.23,1.38c6.14-1.27,11.95,2,18,1.12"/><path class="cls-1" d="M656,513c-3.39-.81-4,2.17-5.5,4"/><path class="cls-1" d="M581.5,561l-6,1"/><path class="cls-1" d="M241,728.5c.33,1.83.67,3.67,1,5.5"/><path class="cls-1" d="M656,515c3.86.67,1.67,3.54,2,5.5"/><path class="cls-1" d="M506,516v4"/><path class="cls-1" d="M582.5,519H586"/><path class="cls-1" d="M560,573.5V577"/><path class="cls-1" d="M551,573.5V577"/><path class="cls-1" d="M944.5,254.5c-2.07,1-4.4.2-6.75.64V272.5H959c1.68,0,2.54-.7,2.52-2.5-.06-5,0-10,0-15.5H945"/><path class="cls-1" d="M943.5,278.5c-1.94.91-4,.32-6,.52v20.23h26V278.5H944"/><path class="cls-1" d="M897.5,254.5c-2.17.45-1.45,2.19-1.48,3.5-.06,3.84,0,7.68,0,12h33.25V254.5H898"/><path class="cls-1" d="M916,229.5a66.06,66.06,0,0,1-15.5.93c-3.61-.23-4.71,1.18-4.54,4.57.19,4,0,8,0,12.55,12-.2,23.52.34,35.16-.78-1.28-5.55-.21-11-.88-16.54l-13.78-.73"/><path class="cls-1" d="M472,580.5c-5,2-7.48,5.31-7.65,11-.16,5.06,3,8.88,8.67,9.9,6.19,1.11,9.52-1.75,11.4-6.93a10.54,10.54,0,0,0-5.91-13,12.2,12.2,0,0,0-6-1"/><path class="cls-1" d="M804.5,281.5c-1.09.5-2.11.84-2,2.5.18,4.68-.23,9.4.92,14.25h11.47c-.09-5.25,1.15-10.71.4-16.75H805"/><path class="cls-1" d="M539,580.5c-4.12,3.92-4.45,6.31-2.08,10,1.11,1.73,2.32,2,4.08,2,7.33-.07,14.67-.17,22,0,4.24.11,4.54-2.4,4.52-5.55s.29-6.55-4.52-6.52c-7.83.06-15.67,0-23.5,0"/><path class="cls-1" d="M292.5,738.5c-3.73,4.17-3.84,9.17.06,11.4,1.57.91,4,1.62,4.95-1.4,1.17-3.63-.67-7.81-4.51-10"/></g></g></svg>