<svg xmlns="http://www.w3.org/2000/svg" viewBox="0 0 1025.22 989"><defs><style>.cls-1{fill:none;stroke:#333;stroke-linecap:round;stroke-linejoin:round;stroke-width:2px;}</style></defs><g id="Layer_2" data-name="Layer 2"><g id="Layer_1-2" data-name="Layer 1"><path class="cls-1" d="M489,13c-.8,1.6-.49,3.33-.49,5,0,13.33-.19,26.67,0,40,.31,18.71-.8,37.38-2.23,56A519.4,519.4,0,0,1,477.69,177c-4.42,22-10.18,43.55-16.67,65-4.75,15.67-9.64,31.36-12.36,47.52-2.12,12.55-2.54,25.39,2.89,37.45s15,19.87,26.48,25.47c8.68,4.22,18.41,5.37,27.5,8.47,2.81,1,6,.36,9,.42,17.66.39,35.26,1.78,53,.42,19.58-1.49,39.36-2.62,59-1,22.33,1.79,44.56,4.47,67,3.93,3.14-.08,6.33-2.91,9.5-.15"/><path class="cls-1" d="M643.5,689.5c2.21-.17,2.9,1.25,4.11,2.92,24.85,34.31,48.94,69.15,72.88,104.08,8.55,12.47,17.16,24.9,25.36,37.59a4.46,4.46,0,0,0,4.65,2.41c10.17-.33,20.33-.92,30.5-1,38.5-.12,77,0,115.5-.1,14.83-.05,29.67-.61,44.5-1a20.8,20.8,0,0,0,3-.48"/><path class="cls-1" d="M314.5,9c.53,9.55,1.91,19,2.82,28.52,1,10.89,2.89,21.64,4.27,32.47,1.24,9.72,3,19.39,5,29q6.13,30.69,13.91,61a736.41,736.41,0,0,0,30.26,92.41c9.63,23.79,20.66,47.07,35.79,68.08"/><path class="cls-1" d="M645,643.5c-5,2.15-7.4,7-10.89,10.6-12.8,13.26-26.15,25.87-40,38-7.68,6.72-15.68,13-23.54,19.46-5.5,4.53-11.81,6.27-18.56,6.89-10.12.92-20.24-.44-30-2.66-20.25-4.63-40.49-9.35-60.58-14.67-18.54-4.9-37-10.12-55.53-14.91-19.59-5.06-38.77-11.51-58.43-16.26-.74-.18-1.34-1-2-1.46"/><path class="cls-1" d="M280.5,14c-.82,34-.95,68-1.1,102-.07,15-.72,30.05-2,45s-2.67,30-4.65,45c-1.64,12.34-3.09,24.72-5.31,36.95-5.12,28.14-10.18,56.37-23.92,82-6.2,11.57-13.66,22.18-24.48,30"/><path class="cls-1" d="M428,419.5c-9.23-.42-18-3.24-27-5-7-1.39-14-3.1-21-4.39-1.55-.28-3.38.39-5,1-3.49,1.21-5.87,4.38-9.49,5.53-1.31.42-1.43,1.95-1.59,3.42-1.55,14.35-3.69,28.64-4.79,43-.84,11-2,22-3.26,33-1.27,11.5-2.32,23-3.66,34.54-.92,7.94-1.41,16-2.37,24-1.36,11.17-2.06,22.39-3.6,33.55-1.14,8.23-1.67,16.63-2.22,25-.63,9.67-2.21,19.27-2.09,29,.05,3.82-2.28,6.58-5.45,8.48-3.82,2.27-4.69,5.34-3.55,9.54,1.33,4.9,5.65,7.4,10.57,7.11,8.06-.47,13.74-4.56,19.05-10.08,4.63-4.82,10.64-8,15.94-12"/><path class="cls-1" d="M798,360.5c6.12,1.31,12.17,2.91,18.5,3A56.55,56.55,0,0,1,834,366.62a14.31,14.31,0,0,1,7.73,5.76c4,6.09,10.46,8.32,17.79,9.26,14.56,1.88,29-1.23,43.52-.19,9.86.71,19.71,1.3,29,5.08,7.2,2.93,9.65,6.44,9.61,12,0,2.4-1.5,4-2.24,5.95s-2.66,3.3-3.84,5.07c-4.33,6.52-3.12,10.79,4,15,6.19,3.67,13.27,4.24,20,6,15.37,3.92,31,7.26,42.45,19.56a46,46,0,0,1,6.46,8.52c2.39,4.23,5.31,7.55,10.08,8.95"/><path class="cls-1" d="M520,449.5c.75,7.09-1,14-1.54,21-.67,8-1.59,16-2.47,24q-1.46,13.26-2.78,26.52c-.73,7.49-1.52,15-2.17,22.48-.88,10.18-1.7,20.36-2.94,30.51-1.13,9.28-1.09,18.7-2.19,28-1.21,10.15-1.22,20.4-2.8,30.53-.71,4.58-.47,9.31-1,14C501,657.63,501,668.87,499.88,680A149.69,149.69,0,0,0,499,700.5"/><path class="cls-1" d="M566,574.5c80.66,1.82,161.33.7,242,1,2,0,4.22.67,6-1"/><path class="cls-1" d="M334.75,664.5c-5.11,5.37-4.36,13.51,1.75,18.5,8.1,6.59,17.92,9.79,27.55,12.85,23.54,7.49,47.55,13.41,71.43,19.73,15.76,4.18,31.6,8.1,47.57,11.18A353,353,0,0,0,520,732.22a146.43,146.43,0,0,0,21,.64,76,76,0,0,0,26.57-6.22c3.4-1.51,4.94-5.08,8.44-6.14"/><path class="cls-1" d="M694.5,118.5c0,10,0,20,0,30,0,14.9,1.58,29.69,2.85,44.51.87,10,2,20,3.3,30,1.71,12.92,4,25.8,7,38.49,3.23,14,7.1,27.82,12.88,41,9,20.56,20.85,38.62,42.47,48.05a14.49,14.49,0,0,1,3,2.46"/><path class="cls-1" d="M926.5,22.5c-.83,8.5-9.69,113-10.49,121.5-.87,9.16-1.63,18.34-2.52,27.5-.77,7.84-1.71,15.66-2.48,23.5-.89,9.16-1.68,18.33-2.51,27.5-1.17,12.83-2.3,25.67-3.51,38.5-1.12,11.84-2.36,23.66-3.48,35.5-1.21,12.66-2.28,25.34-3.54,38-.48,4.85-1.31,9.67-2,14.5-.36,2.63-1.68,3.73-4.48,4.12-3.7.53-7.35.29-11,.35-7.67.11-15.36-.38-23,.14-9,.61-16.7-1.48-23.59-7.51-4-3.51-6-6.92-6.14-12.6-.24-12.43,2.16-24.61,2.43-37,.19-8.47,1.26-17,1.92-25.49,1-12.83,2-25.66,3-38.5.94-12.67,2.22-25.31,3-38,.52-8.17,1.38-16.33,2-24.5.93-12.34,1.93-24.68,3.08-37,.45-4.86,8.55-105.68,8.79-110.52"/><path class="cls-1" d="M797.87,26.15c-.57,14.89-1.54,30.49-3,46.74-1.45,15.92-3.27,31.14-5.35,45.61-.8,6.16-2.13,15.74-4.08,27.48s-2.63,15.61-6.68,36.57c-1.91,9.92-3.53,20-5.33,29.93q-3.27,18-6.7,36.06-2.85,14.91-5.21,30C760,288,758.12,297.38,757.33,307c-.36,4.48-2.66,8.48-2.1,13.54.92,8.35,2.95,16.37,4.93,24.43a4.29,4.29,0,0,1,.1,1.15,5,5,0,0,1-.76,2.39"/><path class="cls-1" d="M430.5,594c2.55-4.32,2.6-9.37,3.3-14,1.6-10.72,4.06-21.27,5.82-32.28-5-2.75-10.77-3.19-16.15-4.56-15.28-3.89-30.77-6.91-46-11.09-2.19-.6-3.07.27-3.63,2.93-3,14-6.46,28-9.89,42.44,12.44,3.27,24.48,6.44,36.53,9.59q13.5,3.53,27,7a10.34,10.34,0,0,0,2.49,0"/><path class="cls-1" d="M813,174c-1.33,14.33-2.61,28.67-4,43-2.12,21.67-4.35,43.33-6.48,65-1.87,19-3.76,38-5.48,57-1.16,12.82-2.08,25.66-3,38.5-.25,3.52-1.55,6.92-1,10.5"/><path class="cls-1" d="M501.5,332.5c6.47,6.59,15,9,23.53,10.87a308.43,308.43,0,0,0,31,5c12.62,1.42,25.34,1.91,38,3.15s25.33,1.86,38,2.47c.17,0,.34.46.5.46,19.66-.56,39.33,1,59-.81A107.81,107.81,0,0,0,715,348.5"/><path class="cls-1" d="M806,172c-2.17,19.83-4.39,39.66-6.49,59.5q-4.32,41-8.49,82c-2.28,22.82-4.36,45.67-6.51,68.5-.09,1,0,2,0,3"/><path class="cls-1" d="M845.36,24.64C844.69,31.14,836.7,131.5,836,138c-1,9-2.12,18-2.93,27-.36,4-.51,8-.93,12-1.35,12.8-2,25.67-3.17,38.49-1.51,16.34-3.4,32.66-4.92,49-.89,9.65-1,19.37-2.14,29-1,8.33-.61,16.84-2.92,25-.51,1.8.73,2.95,1.59,3.95A69.47,69.47,0,0,0,826.5,328"/><path class="cls-1" d="M628.5,118.5c-.41,7-3,13.41-5,20A599,599,0,0,1,601.59,199c-10.67,25.27-24.12,48.74-41.53,70A406.66,406.66,0,0,1,515.5,315.5"/><path class="cls-1" d="M331,723.5a17.62,17.62,0,0,0,4.54,22c6,4.89,12.92,8.44,20,11.49,22.47,9.7,45.9,16.75,69.52,22.87q29.68,7.7,59.93,13.32c12.48,2.32,24.89,5.26,37.53,6.24,17.75,1.39,33.89-1.83,47.13-15.74,20-21,40.75-41.25,61.42-61.57,7-6.89,10.23-14.68,10.64-24.55.51-12.54,2.92-25,3.59-37.52.31-5.6,2.37-11.42.07-16.93-.75-1.79.31-2.59.73-3.52,3.28-7.27,2.11-11.6-5.11-15.49-10.1-5.44-21.11-8.53-31.94-12.16-13.49-4.53-26.7-9.91-40-14.86a17.28,17.28,0,0,0-3.49-.53"/><path class="cls-1" d="M369,522c9.23-.41,17.69,3.29,26.47,5.15,16.44,3.48,32.7,7.85,49,11.85,1.33.33,2.7.58,4,1,1.85.64,3.08,2,2.47,4-2.49,8.18-3,16.73-5,25-2.11,8.82-3.27,17.82-5.7,26.59-.53,1.93-.41,4.28-1.17,6.45-1.58,4.53-2.41,5.2-7.07,4q-21.51-5.7-43-11.49c-10.66-2.84-21.31-5.76-32-8.4a9.66,9.66,0,0,1-3.87-2c5-19.91,10-39.74,14.82-59.62.77-3.2-.29-6.53.32-10,1.44-8.2,1.37-16.65,2.3-25,1.11-9.86,3.07-19.64,3.79-29.52.47-6.38,2-12.6,2.24-19,.15-3.25,1.12-6.46,1.71-9.63,32,9.11,64.22,13.66,95.73,21.54,10.2,2.56,20.63,4.16,31,6,2.78.51,3.78,1.83,3.51,4.55-1.54,15.16-3,30.34-4.57,45.49-.34,3.21-1.63,6.32-1.89,9.51-1.14,14.33-1.64,28.71-3.22,43-1,8.84-1.91,17.74-2.94,26.57-.83,7.21-1.34,14.62-1.95,22q-.72,8.81-2.07,17.56c-.68,4.42-.57,9.27-.83,13.94-1,17.85-1.71,35.71-3.51,53.5-.62,6.12,2.33,8.8,8.43,7.39,4-.91,7.75-2.77,11.51-4.44,1.72-.78,1.85-2.75,2-4.45q.79-8.25,1.5-16.5c.1-1.25-.2-2.58,1-3.5"/><path class="cls-1" d="M757,130c-.5,4-1.1,8-1.48,12-4.38,45.91-4.45,91.95-3.94,138,.11,10.17,1.93,20.29,2,30.5,0,.33.63.67,1,1"/><path class="cls-1" d="M49.5,10.5c-.67,6.33-1.08,12.71-2,19-1.81,11.7-3.94,23.35-6,35-2.66,15.34-4.89,30.76-8.1,46-5.3,25.08-11.23,50-16.91,75-.27,1.18-.66,2.33-1,3.5"/><path class="cls-1" d="M173,184.5c1.1,5.16-1.06,10-1.56,15-1.2,12-6.22,22.37-13.94,31.51-.74.87-1.47,2-.95,3,2.14,3.94,1.33,8.44,2.76,12.6s1.37,8.58,1.66,12.93c.85,13.21-.84,26.2-4,39S152.21,324,150.87,337c-1.22,11.84-2.08,23.72-3.67,35.54C146.06,381,144.75,389.47,144,398c-.66,7.09-6.89,11.44-13.4,9.78-1.91-.49-3.74-.39-5.56-.78"/><path class="cls-1" d="M809.5,494c-5.29,19.7-9.66,39.45-5,60a43.45,43.45,0,0,0,16.63,25.36A170.7,170.7,0,0,0,855,599.91c10.42,4.61,21.38,5.12,32.47,2.12,3.27-.88,6.66-1.36,10-2"/><path class="cls-1" d="M1008.5,559.5c1.76,5.89-.39,11.7-.76,17.48-.54,8.67-2,17.32-2.72,26-.53,6.88-2.62,9-12,11-19.76,4.29-39.46,8.81-59,13.89-4.43,1.15-9,.75-13-2.8-4.7-4.17-9.59-8.35-15-11.42-5.89-3.31-6.92-8.87-7.69-14.19-.81-5.57-2-11-3.08-16.5-.64-3.33-2.07-5.05-5.13-6-7.61-2.35-10.18-7.86-10.1-15.48A79.91,79.91,0,0,1,883,540"/><path class="cls-1" d="M818,143c-.61,10.16-2.26,20.24-1.1,30.51.77,6.77.41,13.67.44,20.49.07,19.2,2.42,38.32,2.06,57.5A313.7,313.7,0,0,1,816.64,287c-1.24,9.35-2,18.81-4.27,28-2.53,10.24-3.67,20.62-4.91,31-.62,5.19-1.63,10.33-2.46,15.5"/><path class="cls-1" d="M895.5,353c3.31,3.53,8,3.25,12,3.34,12.81.31,23.65,5.62,34.54,11.58,26,14.24,52.31,28.05,78.41,42.17,1.4.76,4.3.9,3.55,3.91"/><path class="cls-1" d="M76,671c-6.32.93-12.85.15-19,2.47-3.88,1.46-7.85,2.7-11,5.55-5.61,5.11-5,11.51,1.49,15.46C58.75,701.3,70.79,701,83,698c4.43-1.1,8.89-2.4,12.5-5.46,7.41-6.26,6.63-12-2-17-5.32-3.13-11.21-3.54-17-4.45"/><path class="cls-1" d="M143,301c-1.41-1.64-1-3.62-1-5.5q-.27-23-.52-46a13,13,0,0,0-.44-2c-3.87,0-7.72-.17-11.55,0-18.34.94-36.66,2.14-55,2.81-3.25.12-7.68,2.57-10-2.34"/><path class="cls-1" d="M943.5,564.5c10-1.06,19.66-4,29.49-6.06,11.08-2.29,22.07-5,33-7.54.31-2.35-1-3.09-2.43-3.93-7-4.11-14.18-8.07-20.93-12.6-2.39-1.6-4.28-1.49-6.59-.87-11.25,3-22.76,5-34.1,7.53-10.17,2.23-20.52,4.37-30.88,6.06-4.92.8-10,1.55-15.21,3.8,6.58,5.89,14.25,9.13,20.66,14.15,5,3.91,10.18,4.47,16,2.51,3.4-1.13,7-1.72,10.48-2.55"/><path class="cls-1" d="M746.5,384.5c-2.17-1.9-2.08-4.45-2-7,.26-8.41-3.76-14.84-10.59-18.85-7.2-4.22-14.73-3.22-22,1.26-3.81,2.35-7.7,4.58-10.38,8.14-4.49,6-11.65,7.6-17.66,10.76C655.13,393.91,626,408.34,597,423c-3.66,1.85-7.48,3.42-11,5.56-5.61,3.43-11.83,3.6-18,3.9-6.51.31-12,3.69-18,5.69-3,1-6.43,2-8.55,4.85"/><path class="cls-1" d="M892,557.5c7.5,5,15.45,9.46,22.36,15.17,5.81,4.79,11.69,5,18.13,3.29,23.71-6.21,47.87-10.49,71.55-16.82,2.93-.78,6-1.21,9-2a6.19,6.19,0,0,0,5-5.59,5.37,5.37,0,0,0-3-6.06c-9.75-5.69-19.36-11.61-29-17.44-4-2.4-8.31-1.79-12.49-1-11.16,2.23-22.37,4.35-33.44,6.77-16.16,3.55-32.47,6.39-48.57,10.19-5.61,1.33-7.18,5.79-3.49,10,1.09,1.24,2.32,2.34,3.49,3.51"/><path class="cls-1" d="M696.5,408.5C684.7,415.4,672.21,420.91,660,427c-18.58,9.34-37,19-55.53,28.45-4.22,2.16-8.74,3.57-12.1,7.41-2.21,2.52-1.79,6.48-5.35,8.19-2.54,1.22-4.71,3.23-7,4.91l-14.5,10.5c-.67.49-1.75.88-1.94,1.52-1.79,6-3.87,12.75-1.16,18.28,1.9,3.88,2.27,7.31,2.65,11.19.68,6.91,0,12.85-8,15"/><path class="cls-1" d="M463.5,114c-2.15,5.15-1.09,10.7-1.75,16A319.14,319.14,0,0,1,455,166c-4.66,19-11.85,37.28-17.51,56"/><path class="cls-1" d="M721,138c-1.06,16.82-.53,33.67-.4,50.5A259.76,259.76,0,0,0,723.34,224c.83,5.67,1.12,11.42,2.66,17"/><path class="cls-1" d="M437,350.5c-4.69,2.54-10,2.41-15,2.81-13.28,1.07-26.58,2-40,.4-7.62-.89-15.36-1-23-2.19-7.37-1.17-14.81-1.89-22-4-.57-.16-1.32.29-2,.46"/><path class="cls-1" d="M30.5,1a539.81,539.81,0,0,1-15,55C11.19,69.18,7,82.38,2.34,95.44,1.67,97.33,1.94,99.29,1,101"/><path class="cls-1" d="M117,99.5c2.29,1.13,3.58,2.74,3,5.5-.6,3-.84,6-1.57,9-.93,3.77-3.32,5.76-7.44,6.08-8.62.67-16.9,3.14-25,6-5,1.79-8.27,5.55-10.14,10.86-3.22,9.11-6.26,18.25-9,27.52-.6,2-.48,3.54,1,5,2.89,2.86,5.74,5.65,10,6.56,1.77.37,3.35,1.59,5,2.42"/><path class="cls-1" d="M67,169c-3.76,5.6-3.74,12.25-4.93,18.51C59.71,199.89,62,212,64.91,224c1.38,5.75,2.32,11.87-3.9,16a5.57,5.57,0,0,0-1,1c-5,5.69-4.88,9.69,0,15.53,1.56,1.89,3.73,1.23,5.54,2"/><path class="cls-1" d="M970.5,164.5c-2,1.52-3.38-.45-5-1s-3-1.1-4.8-1.78c-2.24,8.6-2.12,17.33-3.86,26.12,6,3.51,12.75,5.52,19.17,8.13,15.79,6.45,31.66,12.71,47.49,19"/><path class="cls-1" d="M757,396.5c-.23,2.4,1.79,3.83,3.09,4.89,15.31,12.51,28.27,27.42,42.37,41.15Q822.47,462,842,482c7.87,8,17.17,14.23,26.13,20.84,2.77,2.05,5.51,4.21,8.57,6.23A51.59,51.59,0,0,0,872.38,525c-1,11.12-12.17,18.46-22.88,15.51-6-1.65-12.64-12.32-10.82-18.45a12.81,12.81,0,0,0-.18-7.55"/><path class="cls-1" d="M577,647c6.52,4.33,10.94,10.46,15.08,17,2.08,3.27.17,5.28-1.64,7-6.88,6.49-15.45,7.91-24.43,7a33.51,33.51,0,0,1-11-3c-11.9-5.75-13.87-15.76-5.72-26.19,9.27,1.78,15.78,10.83,26.31,9.14,1.6-1.72.92-3.86.31-5.83-.54-1.75-1.9-3.35,0-5"/><path class="cls-1" d="M446.5,598c2.67,10.5,5.51,21,7.86,31.53.54,2.42-1.55,4.44-3.82,6-8.77,6.18-17.39,12.58-26,19C420.3,657.62,416.28,661,412,664c-11.26,7.79-24,3.91-28.34-9-1.63-4.85-4.6-9.1-5.41-14.41-.45-2.92-4.15-4.93-6.71-7.07-3.87-3.23-7-6.65-4.64-12.52,1.11-2.71,1.06-6.34.77-8.91-1-8.87,5.06-11.6,10.81-15.11,1.13-.69,2.73-1.24,3-2.93"/><path class="cls-1" d="M82.5,354c-1.6-.8-3.33-.49-5-.49-17.5,0-35,.09-52.5-.06-8-.06-16-.62-24-.95"/><path class="cls-1" d="M142,118.5c.56,3.4,3.15,4.63,6,5.49,6.71,2,12.79,5.43,19,8.55,6.85,3.46,9.67,9.76,9.92,17,.32,9.16,1.82,18.28.69,27.51-.63,5.13-1.5,6.66-6.59,7.49a28.7,28.7,0,0,1-13-.5"/><path class="cls-1" d="M1024,834.5q-36,0-72,0c-1.84,0-3.73-.35-5.5.49"/><path class="cls-1" d="M359,587.5c-.5,4.67-1.25,9.32-1.45,14-.38,9.36-1.52,18.67-2.32,28s-.9,18.77-2.66,28a9.61,9.61,0,0,0,.93,7"/><path class="cls-1" d="M721,413c1.53,6,7.19,8.25,11.13,11.86C745.8,437.39,760,449.29,774,461.51c11.9,10.42,23.91,20.72,35.69,31.29,7.1,6.36,14.57,12.44,21.84,18.68,3.52,3,9.74,3.22,12.9-.05,4.24-4.39,16.45-3.78,21.05.1,2.28,1.93,4.2,4.26,7,5.47"/><path class="cls-1" d="M383,448a85.41,85.41,0,0,1-.84,19c-.81,5.07-.56,10.31-1,15.49-1.19,13.21-2.71,26.37-4.64,39.49"/><path class="cls-1" d="M124.5,82c3.72,5,8.84,4.54,14,3.44a20.75,20.75,0,0,0,6-2.48c5.67-3.33,11-2,16.56.45,1.75.78,3.73,3.14,6,.59.24-2.09-1.21-3.28-2.51-4.49a28.66,28.66,0,0,1-8.66-14C152.78,54.24,143.17,49.09,132,52c-13.28,3.48-20.91,14.56-20.11,25A51.21,51.21,0,0,1,111,88.49c-1.2,7.83,1.67,10.78,9,9"/><path class="cls-1" d="M456.5,425.5c14.17,3.17,28.31,6.42,42.51,9.47,8.62,1.85,17.31,3.41,26,5,1.7.31,2.89.91,3.49,2.54"/><path class="cls-1" d="M449,433.5c3.72,2.76,8.34,2.42,12.52,3.4,14.26,3.33,28.74,5.63,43,8.92,4.72,1.08,9.63,1.83,14.45,2.75,3.59.69,5.52-1.87,7.4-3.69,3.06-3,5.56-3.92,8.62-.31-2.25,7.26-2.4,14.93-2.85,22.44-.65,10.72-2.73,21.25-3.31,32-.68,12.37-2.57,24.67-3.83,37-1.24,12.16-2.37,24.33-3.52,36.5-1.51,16-3,32-4.51,48-.79,8.34-1.43,16.7-2.63,25-.34,2.33-.13,4,1.68,4.94a10.21,10.21,0,0,1,4.39,5.11c3.21,7.15,9.8,12,12.63,19.45,1.92,5,.26,8.76-6.06,12-3.9,2-7.39.88-10-3.53-1-1.8-2.3-3.6-2.1-6,.16-1.9.64-4.23-2.44-4.56-.22,0-.49-.94-.49-1.44.08-7.13-.18-14.31,3-21"/><path class="cls-1" d="M560,758c2.59-2.7,2.16-6.28,2.4-9.51.29-3.8-3.07-3.64-5.39-3.37s-4.66,1.61-7,2.37c-9.2,3-18.63,2-28,1.37-1.47-.1-3-.26-4.51-.32-3.35-.14-5,1.61-5,5s0,7,0,10.5c0,6.69,1.11,9.1,7.51,9.3,10.51.32,21.22,1.6,31.5-2.29,6.65-2.51,9-5.9,8.49-12.51"/><path class="cls-1" d="M150.5,352.5c18,.33,36,.74,54,1,6.84.09,13.39,1.72,20,3.09,11.14,2.31,22.21,2.22,33.53,1.19,8.11-.75,15.09-4.86,23-5.74,11.65-1.29,23.16-3.88,35-3.58,5.32.14,10.67-.59,16-.92"/><path class="cls-1" d="M423.5,339.5c11.33,10.68,25,16.88,40,19.88A147.1,147.1,0,0,0,499,362.5c1.71-.08,3.56.46,5-1"/><path class="cls-1" d="M87,307c-.83,12-1.54,24-2.54,36S82.22,367,81,379c-.72,7-1.71,14-2.42,21-.14,1.29-1.3,2.62-.07,4,3.12,3.47.73,6.68-.46,10-1.61,4.46-3.21,8.94-4.48,13.5-1.41,5,.78,7.87,6,8.51,3.6.46,7.1-.33,10.47-1.15,3.15-.77,4.75-3.53,5-6.87s.47-6.7,1-10c.64-3.64.65-7.38,3.3-10.63,1.35-1.64,1.49-4.53,1.59-6.88.41-10,2.94-19.69,4.61-29.49,3-17.37,6.31-34.67,9.43-52,.78-4.32,1.35-8.67,2-13"/><path class="cls-1" d="M126.5,305.5c-.17,14,.25,28-.68,42-.8,12-1.08,24.05-2.61,36a106,106,0,0,0-1.21,16c0,.67-.26,1.49,0,2,4.13,6.64-.13,13-.53,19.52-.06,1,0,2,0,3,0,6.87.54,7.82,6,10A12.36,12.36,0,0,0,141,431.53a6.18,6.18,0,0,0,1.93-6c-1.42-6-2.3-12.09-5.46-17.51"/><path class="cls-1" d="M542,535c0,10.52-.44,21.07,1.51,31.5,1.78,9.51,3.73,19,5.47,28.5,1.45,8,1.55,16.1,3.48,24,2.5,10.29,4.72,20.65,7,31,.13.6-.29,1.32-.46,2"/><path class="cls-1" d="M88.5,158c-.44,6.69.73,13.42-1.72,20.1-.71,1.94.28,5.2.37,7.89.29,8.39-1.1,16.66-1.25,25-.18,10.5-1.31,21-.9,31.5"/><path class="cls-1" d="M369,416.5c4.22,2.88,9.33,3.33,14,4.33,14.79,3.17,29.63,6.2,44.51,8.87,5,.9,10.18,2.15,15.44,2.46,5.57.33,8.92-2.06,12.1-6.09,1.77-2.26,1.08-4.59.74-6.54-.7-4,1.59-9.38-4.33-11.54-6.35-2.32-12.69-4.05-19,0-3.86,2.5-3.7,6.71.51,8.43,7.22,2.94,14.5,3.37,21.48-.94"/><path class="cls-1" d="M382,766c3.47-7,2.06-11.14-5-14.5-7.67-3.66-15.28-7.44-23-10.94-2.5-1.13-4.92-2.23-6.85-4.49-4.54,4.09-1.19,9.76-3.62,13.93"/><path class="cls-1" d="M66,251c1.33,13.33,2.49,26.69,4.12,40,.41,3.35.57,6.69,1,10,.48,4.2,5.21,7,10.9,5.89,6.83-1.39,13.7-.69,20.53-1.26,11.46-.95,23-1.11,34.49-1.62a11.42,11.42,0,0,0,10.53-10c1-9.33.19-18.67.45-28,.1-3.34.15-6.19,3.93-8.16,3.52-1.84,3.33-6.41,4.52-9.86.3-.87.13-1.89,1.07-2.48"/><path class="cls-1" d="M937.5,616.5c5.17,1.14,9.52-2.27,14.48-2.73,2.13-.19,3-3.59,4-5.77,1.79-3.74-.89-15.49-4-18a2.3,2.3,0,0,0-2-.43c-6.52,1-13.2.43-19.61,3.21-2.74,1.19-3.29,3.17-3.73,4.8-1.47,5.56-.8,11.34,0,16.94.54,4,2.79,4.78,6.88,3.52,1.16-.35,2.33-.67,3.5-1"/><path class="cls-1" d="M144.5,240c-15.66,1-31.38,1.32-47,3-5.15.55-10.38.43-15.52.66-6.32.28-11.52,2.57-17,4.86"/><path class="cls-1" d="M97,282.5c.08-2.14.09-4.05-3-4a91.51,91.51,0,0,0-15.51,1c-1.68.29-2.92,1.24-2.9,2.55.11,5.67-1,11.45.94,17,1,3,3.46,4.13,6.46,3.48,9.24-2,18.68-2,28-3,.17,0,.34,0,.5,0,3-.53,4-5.73,3.06-13-.47-3.52-2.83-3.06-5.06-3-4,.18-8,2-12-.48-1.8-1.14-3.22,1.11-5,1.2"/><path class="cls-1" d="M575.5,715c2.68,7.73,1.51,15.7.87,23.49-1,12-2.87,24-4.37,36a7.24,7.24,0,0,0,1,4.5"/><path class="cls-1" d="M877,574c-18,1.18-36-.35-54,1.47a5,5,0,0,0-3,1"/><path class="cls-1" d="M975,123.5a1.5,1.5,0,0,0-1.5,1.5c-.84,12.33-1.73,24.66-2.46,37-.26,4.34,2.23,7.41,6.45,9,14.85,5.63,29.66,11.36,44.54,16.92,1.21.45,2.06.65,2,2.07"/><path class="cls-1" d="M637.5,658c-1,14.17-2,28.33-3,42.5-.23,3.52.28,7.09-1,10.5"/><path class="cls-1" d="M797,378.5l24.45,13.07c-.26,2.61-.49,4.79-.69,6.82-5.66,1.7-11.35.87-16.73,1.81-8.34,1.45-16.76-.18-25.06,1.66a13.54,13.54,0,0,1-10.06-1.71c-3.57-2.11-7.21-4.07-11.88-4.47s-7-5.44-9-9.68"/><path class="cls-1" d="M940,533a29.59,29.59,0,0,0-6-11c-4.84-5.39-10.6-7.09-17.55-5.48-4.78,1.11-9.71,1.36-14.55,2.25-6.12,1.12-12.09,3.44-18.45,3.27"/><path class="cls-1" d="M86,178c-1.22.06-2.29-.23-3.09,1.46-1.4,2.95-3.73,5.36-5,8.5-1.09,2.7-1.81,4.91-1.1,8.08,1.24,5.57-.34,11.39-1.1,16.92-1,7.38-2.56,14.61-1.16,22,.54,2.85-1,5.75.45,8.51"/><path class="cls-1" d="M731.5,400.5c-.9-3.45.19-6.91-.83-10.55-3.21-11.38-16-17.73-27.67-12.95-7.6,3.12-11,9.37-11.37,17-.39,7.48,3.62,13,9.86,17,9,5.81,18.71,4.29,25.55-4a30.61,30.61,0,0,0,4-6"/><path class="cls-1" d="M559.5,758c-2.16-1.69-4.19.13-6,.64-10.25,3-20.51,3.94-31,1.92-2.93-.56-6-.39-9-.56"/><path class="cls-1" d="M820.5,393.5c-13.67.5-27.35.78-41,1.65-3.62.23-6.56.22-9.58-2.06-2.15-1.63-5.11-2.15-7.4-3.64-6.82-4.47-14-5-21.53-2.45"/><path class="cls-1" d="M853.5,491c2.92-5.76,10.55-8.09,18-5.5,9.16,3.19,13,9.88,12,21a140.81,140.81,0,0,0-.89,20c.17,3.87-1.15,7.19-4.15,8.88-8.5,4.78-7.89,12.22-7,20.13.36,3.32,2.68,6.46,1.08,10"/><path class="cls-1" d="M161,153c1.19,2.59-.05,5-.49,7.5-1.32,7.63-3.72,15.09-3.09,23,.13,1.65-1.42,3.11-1.45,5-.26,17.66-6,34.19-10.31,51-1.35,5.24-1,11-1.06,16.46a4.44,4.44,0,0,0,3.9,4.5"/><path class="cls-1" d="M533,594c-4.25,3.5-2.87,8.72-3.26,13-.82,8.81-2.59,17.57-2.29,26.48,0,.66-.62,1.33-1,2"/><path class="cls-1" d="M822.75,26.91c.18,13.68-15,126.4-14.25,140.09"/><path class="cls-1" d="M11,260c-1.33,1.17-2.48,2.89-4,3.4C2,265,2.1,269,2,273c-.26,8.33-.65,16.67-1,25"/><path class="cls-1" d="M529,534.5c7.54.5,15-.56,22.49-1.15a25,25,0,0,0,5-.51c-.54,8.83,2.47,17.06,3.28,25.64.42,4.43,4.43,8.11,4.83,13s1.3,9.74-.58,14.49a13.59,13.59,0,0,0-.42,6.5c1.51,15.66,4.43,31.1,7.57,46.48.6,2.93,1.34,6.26,3.87,8.53"/><path class="cls-1" d="M116.5,122c1.5,5.24,2.88,10.52,7,14.5s8.63,3.95,13,0c3.71-3.29,5-7.84,7-12"/><path class="cls-1" d="M356.5,727.5c1.82.09,3.14-.09,3.58-2.48.76-4.1.64-8-1.64-11.48-.93-1.43-2.23-3.27-4.42-2.49a5.58,5.58,0,0,0-3.51,4.45c-1.13,5.45.6,9.36,5.49,12.5"/><path class="cls-1" d="M535.5,445c8.63-2.09,16.51-.07,23.46,5.06,9.46,7,7.83,20.22-2.89,26.07-7.91,4.31-15.52,4.25-23.57,1.37"/><path class="cls-1" d="M491,627.5c-10.33-2.5-20.63-5.16-31-7.38-2.41-.51-4.7-2.78-7.47-1.12"/><path class="cls-1" d="M497,573l-49-11"/><path class="cls-1" d="M966.5,124c-.83,7.83-1.36,15.72-2.62,23.48-.71,4.34.83,8.88-1.38,13"/><path class="cls-1" d="M570,433.5c-.81,12.68,5.54,22.05,14,30.53,1.89,1.89,4.11.16,6,1"/><path class="cls-1" d="M705,623c11.66,3.88,22.71,9.23,34,14.07a7.31,7.31,0,0,0,2,.43"/><path class="cls-1" d="M450,554c7.44.22,14.3,3.16,21.5,4.48,4.83.88,9.47,2.85,14.5,2.52"/><path class="cls-1" d="M157.5,83c-1.33,6-2.56,12-4,18-1.7,6.94-5.85,12.26-11.48,16.5-1.53,1.16-3.46.74-5,.41a42.73,42.73,0,0,1-12-4.9"/><path class="cls-1" d="M500,527.5c-5.82,2.65-7.8,8.32-9.87,13.55-1.95,4.93-2.72,10.3-4.18,15.44-.43,1.53,1.9,2.49.55,4"/><path class="cls-1" d="M561.5,507c-4.87,8.22-21.44,10.53-30.5,7l-2.5-1"/><path class="cls-1" d="M157,71.5a9.66,9.66,0,0,1-2.5.47c-11.17-.84-20.55,3.94-30.09,8.85-3.91,2-8.3,3.38-12.41,5.18"/><path class="cls-1" d="M849,541c-1.46,7.78.47,12.68,7,15.94s12.54,8.26,20,10.06"/><path class="cls-1" d="M483.5,587.5c-3.17,6.33-6.19,12.75-9.58,19a19.08,19.08,0,0,1-4.84,5.64c-3,2.42-6.19,3.43-9.53,1.8s-4.32-5.79-3-10.4c.42-1.52,1-3,1.49-4.5"/><path class="cls-1" d="M784,357.5a17,17,0,0,1-8.49-2c-5.37-2.93-11-1.38-16.5-.9-6.87.61-13.68,1.88-20.5,3a13.74,13.74,0,0,0-3,1.21"/><path class="cls-1" d="M570,608c2.86,4.27,7,7.32,10.55,11,2.8,2.88,3.05,5.68.41,8.5-2.81,3-4.25,7.51-9,8.54"/><path class="cls-1" d="M759.5,402A79.68,79.68,0,0,0,737,428"/><path class="cls-1" d="M779,377.5A158.85,158.85,0,0,1,756.5,380c-1.65.09-3.47-.39-4.5,1.51"/><path class="cls-1" d="M984,900l7.5,27"/><path class="cls-1" d="M366.5,630c-3.36,2.7-1.82,6.94-2.08,10-.4,4.86-3.2,10-.42,15"/><path class="cls-1" d="M560,562.5c-1.53,5.61.4,11.06,1.22,16.47.37,2.42-1.45,6,2.28,7.53"/><path class="cls-1" d="M306.5,333.5a67.38,67.38,0,0,1-20.51,15c-1.24.61-3,.44-3,2.52"/><path class="cls-1" d="M546,586.5c-6.88,1.47-13.41-.6-20-2A45.69,45.69,0,0,1,521.5,583"/><path class="cls-1" d="M445.5,576.5c7.83,2,15.63,4.18,23.51,6,8.52,1.92,16.77,5,25.49,6"/><path class="cls-1" d="M880.5,494c-7,1.5-13.7-.63-20.49-1.59-1.39-.2-2.48-.56-3.51.59"/><path class="cls-1" d="M1.5,370c1,2.83,3.94,4.05,5.57,6.45C9.88,380.56,9.88,382.3,6,386c-2.43-.79-3-3.06-4-5"/><path class="cls-1" d="M931,593.5c5.61,6.51,6.23,14.45,6.5,22.5"/><path class="cls-1" d="M942,542a169.06,169.06,0,0,1,1,22.5"/><path class="cls-1" d="M851,491.5a109.58,109.58,0,0,1-8.45,13c-2,2.66-4.31,5.33-4.55,9"/><path class="cls-1" d="M913,691c-7.31,1.07-14.67.23-22,.5"/><path class="cls-1" d="M938,692a98.09,98.09,0,0,0-22,0"/><path class="cls-1" d="M331.5,679c-2.6,4.85-1.43,10-.86,15,.33,2.83,3.75,4.06,5.93,4.82,5.33,1.86,4.56,5.86,4.35,9.7-.11,2,0,4.22-1.42,6"/><path class="cls-1" d="M996,968c-.5.33-1.46.71-1.43,1,.65,6.4-1.55,12.63-1.07,19"/><path class="cls-1" d="M547.5,618c-4.87,7.08-11.76,12.25-17.53,18.47-1.12,1.21-2.6.31-4,.07-3.24-.57-6.08-2.65-9.49-2.54"/><path class="cls-1" d="M1019.5,118.5c-1,5.7-3.8,10.74-6,16-.61,1.45-1,3-1.52,4.49"/><path class="cls-1" d="M891.5,558c-2.11,4,1,7.64,1,11.5,0,2.84,2.41,5.54.49,8.5"/><path class="cls-1" d="M895.5,521c5,5.73,7,12.74,8.5,20"/><path class="cls-1" d="M1023.5,466.5c-2.12-.11-4.22.07-5.47,2-2.43,3.77-4.72,7.63-7,11.49-1.13,1.88-.35,3.94,1.48,3.82,3.35-.21,4.72,2.42,7.16,3.75,3.44-.8,4.86-3,4.35-6.58"/><path class="cls-1" d="M30,895.5H11"/><path class="cls-1" d="M917,576.5c-2,1.93-4.62,2.76-7,4-6,3.1-6.65,3-11-1.49"/><path class="cls-1" d="M340,648.5c1.84,2.48,1,5.35.91,8-.19,3.94.41,7.37,3.59,10"/><path class="cls-1" d="M470,584c-1.5,3-2.73,6.18-4.57,9-2.28,3.45-4.76,6.56-10,4.16-4.66-2.15-9.4-.17-13.95,1.39"/><path class="cls-1" d="M70,930c-5.64-1.13-11.34-.21-17-.5"/><path class="cls-1" d="M72,755.5c-5.66.29-11.36-.63-17,.5"/><path class="cls-1" d="M1024,458c1,7.71-1.61,14.34-6,20.53-1.13,1.62-2.5,3.28-2.55,5.47"/><path class="cls-1" d="M331,696.5c-2,3.75-1.57,8-.23,11.4,1,2.52,4.3,4.23,6.75,6.07,3,2.27,3.41,8.73.48,11-2,1.6-7.74-1.34-7.88-4.51s-1-6.81.88-10"/><path class="cls-1" d="M563,530.5c2.49,6-.14,11.23-2.5,16.5"/><path class="cls-1" d="M745.5,388c-2.78,6.36-7.77,10.35-14,13"/><path class="cls-1" d="M810.5,672.5c5.68,3.93,10.45,9.06,16.5,12.5"/><path class="cls-1" d="M61,837.5c-5.33.27-10.69-.57-16,.5"/><path class="cls-1" d="M936,823a166.22,166.22,0,0,1,20,28"/><path class="cls-1" d="M81,408c5,1.72,10.29,1.91,15.5,2.5"/><path class="cls-1" d="M234,755.5H203"/><path class="cls-1" d="M110,351.5c4.83,1.36,9.67-.61,14.5,0"/><path class="cls-1" d="M562.5,473c3.28,2.86.65,6.38.75,9.51A22.28,22.28,0,0,0,564,487"/><path class="cls-1" d="M226,838c-4.63,1.07-9.34.23-14,.5"/><path class="cls-1" d="M92.5,285c-3,4.67-1.48,9.33,0,14"/><path class="cls-1" d="M245,933.5c-4.66.27-9.37-.57-14,.5"/><path class="cls-1" d="M893,765l12.5,12.5"/><path class="cls-1" d="M520.5,589c5.14,1.61,10.07,3.9,15.5,4.5"/><path class="cls-1" d="M850.5,714.5l13,13"/><path class="cls-1" d="M370,590c-.62,4.15-2.15,8.26-.5,12.5"/><path class="cls-1" d="M150,246c1.28,3.95-.11,8,.5,12"/><path class="cls-1" d="M240,839a29.93,29.93,0,0,0-12,0"/><path class="cls-1" d="M498.5,555c-4.6-.38-7.61,2.73-11,5"/><path class="cls-1" d="M393,436.5c-2.83,3.17-5.78,6.24-8.47,9.53s-5,.45-7.53,0"/><path class="cls-1" d="M73,838a26.15,26.15,0,0,0-11,0"/><path class="cls-1" d="M904.5,680.5,924,703"/><path class="cls-1" d="M1.5,256c.57.61-.12,2.29,1.5,2,2.71-.53,4.8.9,7,2"/><path class="cls-1" d="M430,416c-3.11,4.75-1.16,8.92,1.5,13"/><path class="cls-1" d="M218,750q.5,7,1,14"/><path class="cls-1" d="M61.5,830c-.61,5.06,1.07,10,1,15"/><path class="cls-1" d="M224.5,830.5c2.3,4.61,2.32,10,5,14.5"/><path class="cls-1" d="M807,173c3-.09,6,.46,9-.5"/><path class="cls-1" d="M69.5,240.5c.11,2.82-3,3.1-4,5"/><path class="cls-1" d="M486.5,745c-5.18,4.71-5.39,11.34-.5,15.5a5,5,0,0,0,7-1,9.23,9.23,0,0,0-6-14.5"/></g></g></svg>