<svg xmlns="http://www.w3.org/2000/svg" viewBox="0 0 1066.01 1066.01"><defs><style>.cls-1,.cls-2,.cls-3,.cls-4,.cls-7{fill:none;}.cls-1,.cls-2{stroke:#333;}.cls-1,.cls-2,.cls-3{stroke-linecap:round;stroke-linejoin:round;}.cls-1,.cls-3,.cls-4{stroke-width:2px;}.cls-2{stroke-width:1.25px;}.cls-3,.cls-4{stroke:#666;}.cls-4{stroke-miterlimit:10;}.cls-5{fill:#666;}.cls-6{fill:#333;}</style></defs><g id="Layer_2" data-name="Layer 2"><g id="Layer_1-2" data-name="Layer 1"><path class="cls-1" d="M38.92,1014.15H788q126.49,0,253,0c1.67,0,3.33-.15,5-.24"/><path class="cls-1" d="M504.87,978.41c-14.84-11.87-22-29.57-33.38-44.09-6.58-8.39-13.15-16.28-23.61-19.93-13.87-4.84-25.8-.1-37,7.56C394.72,933,384,949.18,372.43,964.45c-5.32,7-10.15,14.36-16.56,20.46-11.87,11.31-21.58,9.09-31.46.46C315,977.16,308,966.76,299.8,957.48c-7.63-8.62-15-17.54-26.88-21.21-13.88-4.28-26.45-1.84-38.53,5.17-11.09,6.42-20.45,15-29.54,23.95-8.74,8.59-16.91,17.78-26.47,25.53-5.57,4.51-11.39,8.71-18,11.39-3.33,1.34-4.81,3.92-6.46,6.6"/><path class="cls-1" d="M963.87,354.91c-2.16,9.17-4.26,18.35-6.51,27.5-5.75,23.39-11,46.9-17.89,70-7.32,24.67-15.38,49.09-23.55,73.49-8.7,26-19,51.35-28.56,77-2.57,6.86-5.32,13.67-8,20.5"/><path class="cls-1" d="M33.37,1013.66q24.51.12,49,.24c9.17,0,18.34-.24,27.5.07,13.54.45,26.74-2,40-4.09,2.42-.38,4.81-1,7,.55,1.73,1.2,3.63,1,5.51,1,62.34,0,118.86.17,181.19-.15,6.65,0,16.82.79,29-2.76,12-2.31,8.28-1.23,13.73-2.62,10.87-1.42,19.28-3.52,30.11-5.24,9.86-1.57,19.66-3.38,29.46-5.24a454.24,454.24,0,0,0,52.4-13.3,46.89,46.89,0,0,1,17.11-2.36c7.88.37,15-3.14,21.46-7.37,17.47-11.38,36-20.27,56.54-24.42,6.86-1.39,12.12-5.81,18-9.09,8.14-4.58,15.95-9.75,24.09-14.34a19.39,19.39,0,0,0,5.18-4.07c-4.71-3.85-10.46-4-15.76-4.91-9.83-1.76-14.3,1.25-19.48,11.88"/><path class="cls-1" d="M871.37,641.41c-2.94,9.73-8.12,18.43-12.5,27.5a831.91,831.91,0,0,1-40.52,75,667.12,667.12,0,0,1-40.48,58c-1.67,2.16-3.33,4.33-5,6.5"/><path class="cls-1" d="M775.87,842.41c.77-5.75,0-10.67-2.54-14.47a5.24,5.24,0,0,0-3.92-2.77c-2.46-.4-5.14-.38-7.61-1.61-1.53-.77-3.47-.09-5,1.79-16.2,20-34.95,37.39-54.85,53.66-6.25,5.12-12.74,9.91-19,15-3,2.42-6.49,5.09-3.64,10,.47.8,0,2.36-.44,3.44-2.06,5.35-3.22,10.78-2,16.51"/><path class="cls-1" d="M982.37,262.41q-5,25.24-10,50.5c-1.47,7.51-4.24,14.75-4.51,22.5"/><path class="cls-1" d="M646.87,912.41a9.74,9.74,0,0,1-1-1.51c-1.33-3.09-.75-7.34-4.55-8.92a39.57,39.57,0,0,0-16-3.44c-3.11.07-5.85,1.53-5.08,5.88.52,3-1.54,5.88-.92,9"/><path class="cls-1" d="M975.37,343.91c10.48,1.62,20.9,3.74,31.5,4.5"/><path class="cls-1" d="M917.87,337.41c0-1.11-.29-2.32.63-2.79,10.64,3,21.29,3.93,31.87,5.29"/><path class="cls-1" d="M775.87,816.41c10.12,2.24,20,5.59,30.5,6"/><path class="cls-1" d="M883.37,632.41c10.16,2.06,20.1,5.17,30.5,6"/><path class="cls-1" d="M119.37,995.91c.22-2.72-.2-5.33,1.34-8.09,1.8-3.24-1.47-7.26-5.34-7.41s-7.67-.51-11.5-.46c-5.63.08-7.34,2.38-6.53,8,.36,2.47.37,5,.53,7.49"/><path class="cls-1" d="M828.87,618.41c7.27,3.54,15.38,3.84,23,6,2.13.61,4.33,1,6.49,1.52"/><path class="cls-1" d="M721.37,801.91c6.43,3.35,13.73,3.44,20.5,5.5,2.83.85,5.67,1.67,8.5,2.5"/><path class="cls-1" d="M590.37,895.41c7.36,3.88,15.73,3.75,23.5,6,1.83.52,3.67,1,5.5,1.5"/><path class="cls-1" d="M1033.87,340.91c.49-1.76-1-2.33-2-2.43-7.48-.77-14.85-2.93-22.49-2.07"/><path class="cls-1" d="M154.37,975.41c-8.13-1.65-16.31-1.14-24.5-.5"/><path class="cls-1" d="M89.87,969.91a94.28,94.28,0,0,0-25,.5"/><path class="cls-1" d="M179.87,973.91l-24.5,1-2.5,12.5c-10.33-.33-20.68.67-31-.5"/><path class="cls-1" d="M852.37,608.41c-8-1.31-16.15-2.13-23.91-3.9s-15.7-3.19-23.59-4.6"/><path class="cls-1" d="M834.87,814.91c-5.5-1-11.08-1.69-16.47-3.12-3-.8-5.69.5-8.53.12"/><path class="cls-1" d="M744.87,794.91c.38-2-1.27-2.17-2.5-2.47-3.65-.91-7.34-2.42-11-2.39-8.86.08-16.73-4.71-25.5-4.62-2.24,0-4.17-1.73-6.5-1"/><path class="cls-1" d="M703.37,907.41c-7.86-1-15.48-3.59-23.5-3.5"/><path class="cls-1" d="M940.87,630.41c-7.77-2.7-15.67-4.6-24-3.5"/><path class="cls-1" d="M808.87,811.41c-6.35-3.62-13.71-3.14-20.5-5-.82-.23-1.66-.34-2.5-.51"/><path class="cls-1" d="M770.87,824.91c1.84-2.65,1.89-6.08,4.37-8.63,1.74-1.78-1.5-7.13-4.37-7.86-4-1-8-2.1-12-3-4.68-1-7.42,1.52-7.55,6.48-.08,2.67-1.43,5.23-1,8"/><path class="cls-1" d="M613.87,885.91c-5-1.17-10.09-1.88-15-3.37-2.09-.63-4.62.2-7,.37"/><path class="cls-1" d="M942.37,323.41c-5.16-.83-10.34-2.41-15.49-2.32-7.06.13-13.58-2.68-20.51-2.65-3.06,0-5.89-1.7-9-1"/><path class="cls-1" d="M878.87,640.41c.3-4.1,4.72-6.67,3.68-11.54-.78-3.59-2.44-5.33-5.68-5.38-3.61,0-7-1-10.49-1.63-4.57-.8-7.65,1.54-6.92,6,.48,3-2.26,5.57-.59,8.51"/><path class="cls-1" d="M569.37,877.41c1.9,0,3.72.74,5.46,1.17,5.33,1.33,11.16.68,16,3.83"/><path class="cls-1" d="M86.87,1012.41c-.08-5.15,2.39-9.25,5.54-13,2.29-2.71,4.88-3.88,9-3.26,5.86.9,12,.23,18.34.23,5.72,3.38,8.24,9.07,9.62,15.5"/><path class="cls-1" d="M987.87,330.91c-.26,2.83,1.77,2.4,3.5,2.52,4.17.28,8.33.73,12.5.95,2.1.1,3.72,1.23,5.5,2"/><path class="cls-1" d="M757.37,823.91c-3.68-3-7.6-4.51-12-1.49-4.74,3.27-8.94,6.93-8.51,13.49"/><path class="cls-1" d="M939.37,365.41a20.89,20.89,0,0,1,5-10c2.44-2.8,5.37-3.49,9.46-3.38,5.07.14,9.72,2.71,15,1.52,4-.9,8,3.34,9.28,9.86.49,2.43,3.08,5.29.18,8"/><path class="cls-1" d="M844.37,650.41c2.17-3,4.09-6.22,6.56-8.95,4.24-4.69,11.22-5.31,18-2.06,1.72.83,3.24,1.63,5.52,1.15a6.84,6.84,0,0,1,8.42,4.88c1.5,4.51,4.21,9,1.55,14"/><path class="cls-1" d="M971.87,353.41c1.3-2,.08-4.33,1.38-6.57,3.16-5.42.09-11.81-5.83-11-3.78.5-7-.57-10.55-.56-4,0-6.87,2.71-6.14,5.05,1.16,3.71-1,7.24.64,10.61"/><path class="cls-1" d="M675.37,915.41c-4.34-.78-9-.89-12.42-4.08-1.89-1.77-3.42-.15-5.09-.33-1.11-.13-2.35,1-3.48.85-6.42-.58-10.41,2.57-13,8.5,3,4.29,6.89,8.75,5,15.06"/><path class="cls-1" d="M677.37,901.41c-7.08-.3-12.33,2.56-15.5,9"/><path class="cls-1" d="M830.87,604.51q-1.74,9-3.5,17.9"/><line class="cls-1" x1="595" y1="882.8" x2="590.87" y2="899.16"/><line class="cls-1" x1="810.94" y1="812.58" x2="806.81" y2="828.94"/><line class="cls-1" x1="723.44" y1="790.36" x2="719.31" y2="806.73"/><line class="cls-1" x1="918" y1="625.91" x2="913.87" y2="642.27"/><path class="cls-1" d="M916.87,626.59c-6.35-3.62-13.71-3.14-20.5-5-.82-.22-1.66-.34-2.5-.51"/><path class="cls-1" d="M920.37,320.33q-1.74,9-3.5,17.9"/><path class="cls-1" d="M1008.62,334.62q-1.74,9-3.5,17.9"/><path class="cls-2" d="M31.64,1021.81H434.51a17.21,17.21,0,0,0,2-.24"/><path class="cls-1" d="M41.56,969.86a94.27,94.27,0,0,1,25-.5l-.69,13.55,30,2"/><path class="cls-2" d="M433.17,1027.88H836a15.3,15.3,0,0,0,2-.24"/><path class="cls-2" d="M628.43,1021.68H1031.3a17.21,17.21,0,0,0,2-.24"/><path class="cls-2" d="M71.43,1031.75H474.29a17.21,17.21,0,0,0,2-.24"/><g id="QfSehA.tif"><path class="cls-3" d="M119.48,216.66c-.66,0-3.69,2.31-3.89,2.47-2.61,2-3.15,3-5.07,3.69a10.07,10.07,0,0,1-2.92.63c-2.09.14-3.53,1.08-3.93,4.16C103,232.86,101.89,238,98.55,242a8,8,0,0,0-1.14,3.73c-2,13.52-4.2,27-6.19,40.52-.32,2.19-.46,4.69.67,6.71,2.21,4,1,8.28.54,12.23-.82,7-1.14,14.1-2,21.11-1.14,9.52-.92,19.14-1.54,28.67-1,15.26-.29,30.39.48,45.57.13,2.49.21,4.88-1.29,7.24-2.48,3.87-.92,8.5-.31,12.55,1.81,12,3.54,24.1,4.38,36.31a4,4,0,0,0,1.13,2.87c1.78,1.29,3.58,7.42,10.19,12.92,3.16,2.63,8.14,6.77,10.5,6.54C131.76,477.28,126.37,216.78,119.48,216.66Z"/><path class="cls-3" d="M531.38,366c2.92.3,5.89-.85,8.71,1.63,2.12,1.87,2.67,5.11,2.26,8-1.49,10.64-3.05,21.26-5.08,31.71s-3.52,21-4.76,31.61c-1.32,11.27-3.8,22.05-5.06,33.3-.89,8-3.51,15.14-4.24,23.19-.2,2.13-.65,4.21-.75,6.33a19.4,19.4,0,0,1-1.81,7.24,108.3,108.3,0,0,0-8.22,33.67c-.18,2.12-.5,4.08-1.59,5.49"/><path class="cls-3" d="M439,370.61a243.4,243.4,0,0,1-.34,33.3,4.62,4.62,0,0,0,.61,3.39c1.11,1.58,1.41,3.66,1.58,5.91.77,10.2,2.59,20.05,4.25,29.92,2.79,16.62,4.25,33.72,7.32,50.22.78,4.21,1.41,8.56,3.44,11.78s2.58,7.69,3.4,11.84c1.36,6.95,2.13,14.11,4.93,20.33s4.37,13.44,7.42,19.36a13.69,13.69,0,0,0,1.88,2.9"/><path class="cls-3" d="M438.69,406.88c-3.67,2.08-3.54,7.5-4.21,12.23-1.22,8.69-1.8,17.79-3.62,26-2.63,12-3.4,24.57-6.1,36.4a81.63,81.63,0,0,1-2.09,8.46c-3.06,8.91-4,19.14-6.86,28.24-1,3.14-1.77,6.32-3.4,8.91a24.21,24.21,0,0,0-3.2,7.52c-.81,3.6-2.64,5.85-4.22,8.43q-3.14,5.1-6.32,10.12c-2.18,3.43-2.53,3.29-5,.49-1.43-1.61-2.71-3.46-4.69-4-4.09-1.13-4.8-.75-5.55,5.64"/><path class="cls-3" d="M356.81,372.3c-.44,7.87-.75,15.77-1.4,23.6-.19,2.3-.1,3.87.85,5.52a17.18,17.18,0,0,1,1.91,7.56c.86,12.18,2.4,24.2,3.54,36.31.88,9.35,1.76,18.67,3.28,27.8,1.38,8.2,3,16.32,4.46,24.47.77,4.23,1.66,8.4,2.34,12.67a50.44,50.44,0,0,0,3.1,11.88c1.36,3.23,2.08,7.19,3,10.89a84,84,0,0,0,6.07,17.28"/><path class="cls-3" d="M209.62,398.45c3.28,5,3.43,11.75,3.6,18.14.28,10.48,1.7,20.59,3,30.79.69,5.59,1.23,11.24,1.85,16.86.52,4.62,1.06,9.38,2.45,13.43,2.47,7.22,3.69,15,4.88,22.86.59,3.91,1.55,7.1,3.72,9.28a25.6,25.6,0,0,1,5.34,8.78c.64,1.61,1.34,3.81,3.1,3.57.4-.06.79,1.75,1.33,2.37,3.83,4.38,3.3,11.09,3.67,17.32"/><path class="cls-3" d="M242.27,529.2c.52-1,1.39-1.86,1.52-3,1.23-9.79,6.79-13.91,10.33-20.65.24-.45.49-1.14.79-1.22,3.65-1,3.77-5.85,4.49-10.16A139,139,0,0,1,263,477.71a146.19,146.19,0,0,0,4.54-21,22,22,0,0,1,1.33-5.45c2-4.64,2-10.08,2.25-15.24a216.17,216.17,0,0,1,2.91-24.48c.66-4,.69-8.23,2.71-11.35,0-.07.17,0,.38,0,1.48,2.4,2.07,5.4,2.6,8.82,1.58,10.16,1.95,20.5,2.54,30.83a4.91,4.91,0,0,0,.24,1.71c2.6,6.39,2.51,14,3.72,21.06,1.63,9.58,3.37,19.11,5,28.7.52,3.16.67,6.47,1.09,9.68.34,2.55.13,5.71,1.85,7.12,2.76,2.27,3.27,6.57,4.2,10.6,1.19,5.1,2.39,10.18,4.71,14.38.9,1.63,1.64,2.84,3.15,3.52,3.83,1.7,6.09,7,7.77,12.18.75,2.32-.19,6-.37,9.15"/><path class="cls-3" d="M151.43,349.52c-.36,6.19-.07,12.7-1.21,18.48-1.74,8.85-.6,17.88-1.68,26.65a7.41,7.41,0,0,0,1,5.07c1.93,3,2.31,7,2.6,11,.69,9.6,1.31,19.23,2.69,28.66,1.68,11.56,3.53,23,5.2,34.61a4.57,4.57,0,0,0,1.65,3.27c2.85,1.82,4.42,5.6,6,9.38.86,2,1.82,3.79,3.43,4.2"/><path class="cls-3" d="M209.09,398.45c-2.13,2.54-2.4,6.2-2.68,10.11-.85,12-3.36,23.46-5.48,35-.64,3.5-1.31,7-1.82,10.55a29.68,29.68,0,0,1-2.18,8.36c-1.85,3.89-4,7.43-5.85,11.32A48.74,48.74,0,0,0,186.93,484c-1,4-2.3,7.84-5.75,6.81-.41-.12-.9.17-1.31.4-4.48,2.48-6.62.52-7.38-6.76-.09-.85-.18-1.69-.26-2.53"/><path class="cls-3" d="M355,400.13c-1.33,1.58-1.86,4-2,6.34q-.71,8.77-2.17,17.28c-.93,5.39-1.12,10.95-1.62,16.44-.26,2.87-1.06,5.61-1.52,8.45-1.93,12-3.21,24.17-4.85,36.23-.53,3.91-.67,7.21.63,10.58"/><path class="cls-3" d="M104.16,422.49c-.83,6.32-1.48,12.73-2.55,18.95-1,5.88-.2,10.62,2.42,14.79"/><path class="cls-3" d="M338.37,485.33c1.69,3.09.27,5.9-.24,8.87-1.2,7-2.42,14-3.4,21.09-.76,5.42-3,7.9-6.1,8.3-2.64.34-4,2.21-4.76,6a10.41,10.41,0,0,1-1.06,3.34C320.3,537,317.74,541,316,546c-.3.84-1.19,1.16-1.8,1.72"/><path class="cls-3" d="M105.61,273.6c0,1.83,0,3.65-.21,5.5-.17,1.55-.3,3.25.71,4.68,1.27,1.81,1.61,4.37,1.64,7.11a24.42,24.42,0,0,0,.55,6.28,22.86,22.86,0,0,1-.32,14"/><path class="cls-3" d="M148.53,398.45c-1.31,1.58-1.87,3.65-2.16,6.31-1,9-1.35,18.28-4,26.53A63.49,63.49,0,0,0,139.31,447a6.27,6.27,0,0,1-.78,3c-1.61,2.71-3.13,2.24-4-1.28-.24-1-.52-2-.79-3"/><path class="cls-3" d="M124.31,313.25c1.62,2.22,1.87,5.28,2.12,8.43.85,10.95.67,21.95.44,32.9-.32,15.47-.48,31-1.48,46.4-.19,2.92.07,5.91-.06,8.85s-.47,6-2.08,8"/><path class="cls-3" d="M106.4,272.34c.61-1,1.29-1.89,1.83-3,2.3-4.53,3.42-4.48,5.24.47a7.89,7.89,0,0,1,.61,2.06c1,8.77,4,16.63,4.55,25.72.28,4.39,3.61,12.2,5.68,15.63"/><path class="cls-3" d="M114.27,412.82c1.4,3.43,3.25,5.4,5.82,5.91,2.38.47,3.16,3.18,3.45,6.7a88.53,88.53,0,0,1-.61,16.79c-.59,5.48-.84,11.09-1.62,16.5-.47,3.28-1.19,6.91-3.83,8.15-1.31.61-2.18,2.69-2.9,4.56-1.53,4-3.84,5.37-6.6,5.47"/><path class="cls-3" d="M89.55,406.46c2.87,4.53,3.35,10.9,4.62,16.52,1.65,7.28,1.28,7.5,5.91,8.36l2.37.43"/><path class="cls-3" d="M95.34,289.07c-1.24,1.64.19,38,0,40.58s6.18,73.42,5.38,76a7.56,7.56,0,0,0,0,3.72c1.28,4.27,1.71,9.1,3.38,13.11"/><path class="cls-3" d="M209.35,347.83c.57,4.48.2,9,.22,13.5a11,11,0,0,0,.31,3.79c.16.44.56,1,.5,1.26-1.79,8.9-.35,18-.77,27-.06,1.41-.17,2.82-.26,4.22"/><path class="cls-3" d="M210.67,366H229.1"/><path class="cls-3" d="M99.82,267.28c-2,1.86-2.7,5.09-3.15,8.44-.68,5.06-1.85,9.94-2.16,15.17a7.92,7.92,0,0,1-1.8,4.22"/><path class="cls-3" d="M116.67,417.85c.26,3.65-.24,7.26-.11,11,.25,6.57-2.71,10.16-6,13.07"/><path class="cls-3" d="M557.45,389.17a11.44,11.44,0,0,0-1.51-6.87c-3.05-4.94-6.75-9-8.84-15.42-.42-1.29-1.86-1.74-3-2.73-.86,1.38-1.78,2.87-2.71,4.35"/><path class="cls-3" d="M175.91,366H159.06"/><path class="cls-3" d="M282.29,366H265.44"/><path class="cls-3" d="M335.48,366H318.63"/><path class="cls-3" d="M69.54,366H52.69"/><path class="cls-3" d="M388.14,366H371.81"/><path class="cls-3" d="M441.33,366H425"/><path class="cls-3" d="M494.52,366H478.19"/><path class="cls-3" d="M506.36,541c-.25,1.67.55,3,.61,4.5-4.57,7.88-7.71,17.49-13,24.18"/><path class="cls-3" d="M486.35,568.42c-1.94-1.76-2.88-5-4.2-7.61s-6.88-3.63-8.43-1.23c-.91,1.42-.42,3.34-.53,5"/><path class="cls-3" d="M557.45,337.71a10.66,10.66,0,0,1-1.8,7.24c-3.76,6.06-7.9,11.57-11.11,18.49"/><path class="cls-3" d="M530.59,337.71a10.55,10.55,0,0,0,1.8,7.24c3.76,6.06,7.9,11.57,11.1,18.49"/><path class="cls-3" d="M595.36,366H584.57"/><path class="cls-3" d="M539.81,370.19c-2.46,3.93-4.84,8-7.41,11.75a10,10,0,0,0-1.81,7.23"/><path class="cls-3" d="M133.39,455c-.33-2.49-1.84-.47-2.5-1.68-1.4-2.55-3.68-3.61-4.31-7.56-.29-1.89-1.41-3.73-3.06-3.41"/><path class="cls-3" d="M101.94,269.34a22.31,22.31,0,0,1,3.14,3.84"/><path class="cls-3" d="M485.83,573.9c.36-2.39-.23-5.72,2.11-6.29s4.49.12,6.05,3.34"/><path class="cls-3" d="M128.25,450.75l-1.31,5.06"/><path class="cls-3" d="M257.54,504.31l1,4.64"/><path class="cls-3" d="M439.75,424.17l-.27,3.8"/></g><path class="cls-4" d="M653.7,43.64c-305.7,0-553.51,142.88-553.51,319.13S348,681.9,653.7,681.9"/><ellipse class="cls-3" cx="107.71" cy="353.12" rx="9.04" ry="117.94"/><ellipse class="cls-3" cx="108.41" cy="356.26" rx="3.13" ry="90.38"/><ellipse class="cls-3" cx="98.69" cy="352.66" rx="9.72" ry="117.49"/><path class="cls-5" d="M64.35,826.82a9.46,9.46,0,0,1-5.92-1.57,7.66,7.66,0,0,1-2.69-4.42,28.64,28.64,0,0,1-.69-6.66v-7.31a28.17,28.17,0,0,1,.72-6.85,7.5,7.5,0,0,1,2.72-4.35,9.69,9.69,0,0,1,5.86-1.51,10.58,10.58,0,0,1,5.36,1.13,5.84,5.84,0,0,1,2.61,3.36,18.12,18.12,0,0,1,.72,5.52V806H67.7v-1.92a15.77,15.77,0,0,0-.27-3.3,3,3,0,0,0-1-1.76,4,4,0,0,0-4.24.11,3.61,3.61,0,0,0-1,2.23,29.49,29.49,0,0,0-.24,4.26v10c0,2.71.25,4.53.77,5.44a2.87,2.87,0,0,0,2.75,1.38,3,3,0,0,0,2.17-.69,3.41,3.41,0,0,0,.88-1.95A19,19,0,0,0,67.7,817v-2.59H73v2.2a17.88,17.88,0,0,1-.75,5.5,6.24,6.24,0,0,1-2.64,3.52A9.79,9.79,0,0,1,64.35,826.82Z"/><path class="cls-5" d="M78.43,826.38V781.83h5.88v16.06a17.44,17.44,0,0,1,3.58-2.64,8.92,8.92,0,0,1,4.4-1.1,4,4,0,0,1,2.88,1,5.35,5.35,0,0,1,1.43,2.48,11.06,11.06,0,0,1,.42,3v25.74H91.13v-24a5.72,5.72,0,0,0-.49-2.64,2.08,2.08,0,0,0-2-.94,4.5,4.5,0,0,0-2.17.61,11.23,11.23,0,0,0-2.12,1.48v25.52Z"/><path class="cls-5" d="M107.52,826.82a5.37,5.37,0,0,1-3.3-1.07A7.48,7.48,0,0,1,102,823a7.81,7.81,0,0,1-.83-3.55,11.34,11.34,0,0,1,1-5,10,10,0,0,1,2.72-3.44,18.89,18.89,0,0,1,4-2.45q2.28-1,4.81-2v-2.26a18.87,18.87,0,0,0-.22-3.19,3.3,3.3,0,0,0-.91-1.9,3,3,0,0,0-2.06-.63,3.22,3.22,0,0,0-1.95.55,3,3,0,0,0-1.07,1.57,7.5,7.5,0,0,0-.33,2.39v1.6l-5.83-.22q.1-5.28,2.41-7.79c1.54-1.66,3.93-2.5,7.15-2.5s5.39.86,6.71,2.59,2,4.21,2,7.48v14.52c0,1,0,1.94.09,2.86s.13,1.77.22,2.55.17,1.54.25,2.23h-5.4c-.1-.58-.24-1.33-.41-2.23s-.28-1.71-.36-2.44a8.45,8.45,0,0,1-2.11,3.49A5.75,5.75,0,0,1,107.52,826.82Zm2.31-5.06a3,3,0,0,0,1.65-.49,7.57,7.57,0,0,0,1.37-1.13,5.59,5.59,0,0,0,.83-1v-9c-.92.52-1.78,1-2.58,1.54a14.9,14.9,0,0,0-2.12,1.62,6.5,6.5,0,0,0-1.43,1.93,6.33,6.33,0,0,0,.19,5.47A2.32,2.32,0,0,0,109.83,821.76Z"/><path class="cls-5" d="M133.64,826.82a7.52,7.52,0,0,1-4-.93,5.44,5.44,0,0,1-2.2-2.64,10.71,10.71,0,0,1-.69-4V798.5h-3.36v-3.91h3.36V785.3h5.89v9.29h5.11v3.91h-5.11v20.35a4.52,4.52,0,0,0,.6,2.66,2.73,2.73,0,0,0,2.31.8c.29,0,.63,0,1,0l1.12-.11v4.34c-.73.11-1.41.19-2,.25S134.38,826.82,133.64,826.82Z"/><path class="cls-5" d="M150.58,826.82a7.52,7.52,0,0,1-4-.93,5.44,5.44,0,0,1-2.2-2.64,10.71,10.71,0,0,1-.69-4V798.5h-3.36v-3.91h3.36V785.3h5.89v9.29h5.11v3.91H149.6v20.35a4.52,4.52,0,0,0,.6,2.66,2.73,2.73,0,0,0,2.31.8c.29,0,.63,0,1,0l1.12-.11v4.34c-.73.11-1.41.19-2,.25S151.32,826.82,150.58,826.82Z"/><path class="cls-5" d="M167.85,826.82a9.75,9.75,0,0,1-5.77-1.46,7.55,7.55,0,0,1-2.83-4.29,26,26,0,0,1-.8-7v-7.26a25.37,25.37,0,0,1,.82-7,7.63,7.63,0,0,1,2.89-4.24,9.89,9.89,0,0,1,5.69-1.43q4,0,5.92,1.65a8.14,8.14,0,0,1,2.5,4.76,39.92,39.92,0,0,1,.6,7.45v2.59H164.33V817a11.21,11.21,0,0,0,.36,3.13,3.29,3.29,0,0,0,1.16,1.79,3.46,3.46,0,0,0,2.06.58,2.88,2.88,0,0,0,2-.63,3.3,3.3,0,0,0,.93-1.82,13.33,13.33,0,0,0,.25-2.78v-1.92h5.72v1.21a12.44,12.44,0,0,1-2,7.53C173.43,825.91,171.12,826.82,167.85,826.82Zm-3.52-19.41h6.77v-2.86a20.79,20.79,0,0,0-.22-3.33,3.65,3.65,0,0,0-.91-2,3,3,0,0,0-2.17-.68,3.16,3.16,0,0,0-2.17.66,3.72,3.72,0,0,0-1,2.23,26.49,26.49,0,0,0-.28,4.31Z"/><path class="cls-5" d="M182.37,826.38V794.59h5.89v4.51a10.7,10.7,0,0,1,3.52-3.9,7.12,7.12,0,0,1,3.52-1h.41a4.21,4.21,0,0,1,.52,0v6.49a9.64,9.64,0,0,0-1.51-.47,8.34,8.34,0,0,0-1.73-.19,5,5,0,0,0-2.5.63,6.69,6.69,0,0,0-2.23,2.45v23.21Z"/><path class="cls-5" d="M200,826.38V794.59h5.88v4.51a10.78,10.78,0,0,1,3.52-3.9,7.15,7.15,0,0,1,3.52-1h.42a4.39,4.39,0,0,1,.52,0v6.49a10,10,0,0,0-1.51-.47,8.43,8.43,0,0,0-1.74-.19,5,5,0,0,0-2.5.63,6.86,6.86,0,0,0-2.23,2.45v23.21Z"/><path class="cls-5" d="M217.9,789.86V783.7h5.89v6.16Zm0,36.52V794.59h5.89v31.79Z"/><path class="cls-5" d="M230.11,826.38V794.59H236v3.14a16.65,16.65,0,0,1,3.52-2.53,8.67,8.67,0,0,1,4.23-1.05,4.06,4.06,0,0,1,2.95,1,5.53,5.53,0,0,1,1.43,2.48,11.45,11.45,0,0,1,.41,3v25.74h-5.89v-24a5.72,5.72,0,0,0-.49-2.64,2.08,2.08,0,0,0-2-.94,4.3,4.3,0,0,0-2.06.58,12.29,12.29,0,0,0-2.06,1.4v25.63Z"/><path class="cls-5" d="M262.67,836.34a19.77,19.77,0,0,1-5.25-.64,8.22,8.22,0,0,1-3.69-2,4.65,4.65,0,0,1-1.34-3.46,5.29,5.29,0,0,1,.77-2.89,7.39,7.39,0,0,1,2-2.12,10.74,10.74,0,0,1,2.53-1.37l2.75.38q-.72.66-1.38,1.35a8,8,0,0,0-1.1,1.43,3.13,3.13,0,0,0-.44,1.62,2.33,2.33,0,0,0,1.24,2.15,9.72,9.72,0,0,0,4.43.71,10.91,10.91,0,0,0,4.64-.74,2.46,2.46,0,0,0,1.52-2.34,3,3,0,0,0-.39-1.62,2.63,2.63,0,0,0-1.32-1,10,10,0,0,0-2.69-.55L258,824.4a5.14,5.14,0,0,1-3.19-1.37,3.45,3.45,0,0,1-1.05-2.42,5.15,5.15,0,0,1,1.13-3.36,29,29,0,0,1,3.05-3.08l2,1.54c-.22.3-.49.71-.82,1.24a3,3,0,0,0-.5,1.57,1.14,1.14,0,0,0,.63,1,4.88,4.88,0,0,0,2,.49l5.34.5a8.37,8.37,0,0,1,5.55,2.25,9,9,0,0,1,.58,10,7.4,7.4,0,0,1-3.71,2.72A18.77,18.77,0,0,1,262.67,836.34Zm.22-19.75a9,9,0,0,1-5.28-1.43,8.29,8.29,0,0,1-3-4,18.21,18.21,0,0,1,.08-12,7.91,7.91,0,0,1,3.11-3.8,9.39,9.39,0,0,1,5.08-1.29,8,8,0,0,1,5.12,1.57,9.06,9.06,0,0,1,2.91,4.15,16.58,16.58,0,0,1,.94,5.72,17.74,17.74,0,0,1-.86,5.75,7.53,7.53,0,0,1-2.8,3.88A9.12,9.12,0,0,1,262.89,816.59Zm0-4.23a3.51,3.51,0,0,0,1.93-.47,2.86,2.86,0,0,0,1.07-1.35,8.28,8.28,0,0,0,.5-2.17,28.64,28.64,0,0,0,.13-2.94c0-1.1,0-2.09-.11-3a7.37,7.37,0,0,0-.49-2.23,3.18,3.18,0,0,0-1.1-1.4,3.23,3.23,0,0,0-1.87-.5,3.67,3.67,0,0,0-2,.47,3.11,3.11,0,0,0-1.15,1.38,6.94,6.94,0,0,0-.55,2.22,30,30,0,0,0-.14,3,26,26,0,0,0,.14,2.75,8.36,8.36,0,0,0,.52,2.2,3.25,3.25,0,0,0,1.13,1.45A3.31,3.31,0,0,0,262.89,812.36Zm7.87-12.43-1.38-2.2a7.67,7.67,0,0,1,2-1.93,16.52,16.52,0,0,1,3.3-1.92l1.54,3.85a20.12,20.12,0,0,0-2.06.6c-.86.3-1.64.6-2.34.91S270.76,799.78,270.76,799.93Z"/><path class="cls-5" d="M299.8,826.82a9.46,9.46,0,0,1-5.92-1.57,7.71,7.71,0,0,1-2.69-4.42,28.64,28.64,0,0,1-.69-6.66v-7.31a28.17,28.17,0,0,1,.72-6.85,7.5,7.5,0,0,1,2.72-4.35,9.69,9.69,0,0,1,5.86-1.51,10.58,10.58,0,0,1,5.36,1.13,5.84,5.84,0,0,1,2.61,3.36,18.12,18.12,0,0,1,.72,5.52V806h-5.34v-1.92a15.77,15.77,0,0,0-.27-3.3,3,3,0,0,0-1-1.76,4,4,0,0,0-4.24.11,3.61,3.61,0,0,0-1,2.23,29.49,29.49,0,0,0-.24,4.26v10c0,2.71.25,4.53.77,5.44a2.87,2.87,0,0,0,2.75,1.38,3,3,0,0,0,2.17-.69,3.41,3.41,0,0,0,.88-1.95,19,19,0,0,0,.19-2.86v-2.59h5.34v2.2a17.88,17.88,0,0,1-.75,5.5,6.24,6.24,0,0,1-2.64,3.52A9.79,9.79,0,0,1,299.8,826.82Z"/><path class="cls-5" d="M314.26,826.38V781.83h5.89v44.55Z"/><path class="cls-5" d="M335.05,826.82a9.43,9.43,0,0,1-5.55-1.43,7.66,7.66,0,0,1-2.89-4.07,20.22,20.22,0,0,1-.85-6.21v-9.24a20.25,20.25,0,0,1,.85-6.22,7.7,7.7,0,0,1,2.89-4.07,11.45,11.45,0,0,1,11.08,0,7.76,7.76,0,0,1,2.86,4.07,20.25,20.25,0,0,1,.85,6.22v9.24a20.22,20.22,0,0,1-.85,6.21,7.73,7.73,0,0,1-2.86,4.07A9.34,9.34,0,0,1,335.05,826.82Zm0-4.34a2.7,2.7,0,0,0,2.39-1,5.27,5.27,0,0,0,.83-2.62c.09-1.08.14-2.2.14-3.38v-10c0-1.21-.05-2.35-.14-3.41a5.41,5.41,0,0,0-.83-2.62,2.69,2.69,0,0,0-2.39-1,2.77,2.77,0,0,0-2.42,1,5.22,5.22,0,0,0-.85,2.62c-.09,1.06-.14,2.2-.14,3.41v10c0,1.18.05,2.3.14,3.38a5.09,5.09,0,0,0,.85,2.62A2.78,2.78,0,0,0,335.05,822.48Z"/><path class="cls-5" d="M357.05,826.82a8.3,8.3,0,0,1-6.27-2.45,10.13,10.13,0,0,1-2.69-6.46l4.89-1.48a10.7,10.7,0,0,0,1.49,4.53,3.49,3.49,0,0,0,3.08,1.52,3.09,3.09,0,0,0,2.42-.91,3.51,3.51,0,0,0,.82-2.45,5.07,5.07,0,0,0-.6-2.47,8.45,8.45,0,0,0-2-2.26l-5.45-4.67a14.93,14.93,0,0,1-2.78-3.19,8.39,8.39,0,0,1-1.12-4.57,8.27,8.27,0,0,1,1-4.26,6.58,6.58,0,0,1,2.86-2.64,9.61,9.61,0,0,1,4.32-.91,7.52,7.52,0,0,1,6.05,2.45,10.39,10.39,0,0,1,2.42,5.91L361.34,804a14.72,14.72,0,0,0-.66-2.89,4.28,4.28,0,0,0-1.26-1.93,3.3,3.3,0,0,0-2.15-.68,2.9,2.9,0,0,0-2.28,1,3.31,3.31,0,0,0-.85,2.28,3.88,3.88,0,0,0,.35,1.62,4.58,4.58,0,0,0,1.24,1.57l5.61,5.17a23.22,23.22,0,0,1,2.17,2.26,10.72,10.72,0,0,1,1.68,2.75,9,9,0,0,1,.66,3.57,8.59,8.59,0,0,1-1.1,4.51,6.8,6.8,0,0,1-3.08,2.72A10.91,10.91,0,0,1,357.05,826.82Z"/><path class="cls-5" d="M379.05,826.82a9.72,9.72,0,0,1-5.77-1.46,7.56,7.56,0,0,1-2.84-4.29,26,26,0,0,1-.79-7v-7.26a25.37,25.37,0,0,1,.82-7,7.54,7.54,0,0,1,2.89-4.24,9.87,9.87,0,0,1,5.69-1.43q4,0,5.91,1.65a8.15,8.15,0,0,1,2.51,4.76,39.92,39.92,0,0,1,.6,7.45v2.59H375.53V817a11.21,11.21,0,0,0,.36,3.13A3.28,3.28,0,0,0,377,821.9a3.47,3.47,0,0,0,2.07.58,2.86,2.86,0,0,0,2-.63,3.37,3.37,0,0,0,.94-1.82,14,14,0,0,0,.25-2.78v-1.92H388v1.21a12.38,12.38,0,0,1-2,7.53C384.62,825.91,382.31,826.82,379.05,826.82Zm-3.52-19.41h6.77v-2.86a22,22,0,0,0-.22-3.33,3.65,3.65,0,0,0-.91-2,3,3,0,0,0-2.18-.68,3.18,3.18,0,0,0-2.17.66,3.78,3.78,0,0,0-1,2.23,25.4,25.4,0,0,0-.28,4.31Z"/><path class="cls-5" d="M414.47,826.82a7.55,7.55,0,0,1-4-.93,5.44,5.44,0,0,1-2.2-2.64,10.71,10.71,0,0,1-.69-4V798.5h-3.35v-3.91h3.35V785.3h5.89v9.29h5.11v3.91h-5.11v20.35a4.52,4.52,0,0,0,.6,2.66,2.75,2.75,0,0,0,2.31.8c.3,0,.64,0,1,0l1.13-.11v4.34c-.74.11-1.41.19-2,.25S415.2,826.82,414.47,826.82Z"/><path class="cls-5" d="M431.68,826.82a9.45,9.45,0,0,1-5.55-1.43,7.66,7.66,0,0,1-2.89-4.07,20.22,20.22,0,0,1-.85-6.21v-9.24a20.25,20.25,0,0,1,.85-6.22,7.7,7.7,0,0,1,2.89-4.07,9.52,9.52,0,0,1,5.55-1.43,9.41,9.41,0,0,1,5.53,1.43,7.76,7.76,0,0,1,2.86,4.07,20.25,20.25,0,0,1,.85,6.22v9.24a20.22,20.22,0,0,1-.85,6.21,7.73,7.73,0,0,1-2.86,4.07A9.34,9.34,0,0,1,431.68,826.82Zm0-4.34a2.72,2.72,0,0,0,2.4-1,5.38,5.38,0,0,0,.82-2.62c.09-1.08.14-2.2.14-3.38v-10c0-1.21-.05-2.35-.14-3.41a5.52,5.52,0,0,0-.82-2.62,2.7,2.7,0,0,0-2.4-1,2.78,2.78,0,0,0-2.42,1,5.32,5.32,0,0,0-.85,2.62c-.09,1.06-.14,2.2-.14,3.41v10c0,1.18.05,2.3.14,3.38a5.18,5.18,0,0,0,.85,2.62A2.8,2.8,0,0,0,431.68,822.48Z"/><path class="cls-5" d="M467.38,826.82a7.55,7.55,0,0,1-4-.93,5.44,5.44,0,0,1-2.2-2.64,10.71,10.71,0,0,1-.69-4V798.5h-3.35v-3.91h3.35V785.3h5.89v9.29h5.11v3.91h-5.11v20.35a4.52,4.52,0,0,0,.6,2.66,2.75,2.75,0,0,0,2.31.8c.3,0,.63,0,1,0l1.13-.11v4.34c-.74.11-1.41.19-2,.25S468.11,826.82,467.38,826.82Z"/><path class="cls-5" d="M476,826.38V781.83h5.89v16.06a17.38,17.38,0,0,1,3.57-2.64,9,9,0,0,1,4.4-1.1,4,4,0,0,1,2.89,1,5.44,5.44,0,0,1,1.43,2.48,11.45,11.45,0,0,1,.41,3v25.74h-5.88v-24a5.71,5.71,0,0,0-.5-2.64,2.07,2.07,0,0,0-2-.94,4.57,4.57,0,0,0-2.18.61,11.16,11.16,0,0,0-2.11,1.48v25.52Z"/><path class="cls-5" d="M509.12,826.82a9.72,9.72,0,0,1-5.77-1.46,7.61,7.61,0,0,1-2.84-4.29,26,26,0,0,1-.79-7v-7.26a25.37,25.37,0,0,1,.82-7,7.54,7.54,0,0,1,2.89-4.24,9.87,9.87,0,0,1,5.69-1.43q4,0,5.91,1.65a8.15,8.15,0,0,1,2.51,4.76,39.92,39.92,0,0,1,.6,7.45v2.59H505.6V817a11.21,11.21,0,0,0,.36,3.13,3.28,3.28,0,0,0,1.15,1.79,3.5,3.5,0,0,0,2.07.58,2.84,2.84,0,0,0,2-.63,3.37,3.37,0,0,0,.94-1.82,14,14,0,0,0,.25-2.78v-1.92h5.72v1.21a12.38,12.38,0,0,1-2,7.53C514.7,825.91,512.39,826.82,509.12,826.82Zm-3.52-19.41h6.77v-2.86a22,22,0,0,0-.22-3.33,3.65,3.65,0,0,0-.91-2,3,3,0,0,0-2.17-.68,3.19,3.19,0,0,0-2.18.66,3.78,3.78,0,0,0-1,2.23,25.4,25.4,0,0,0-.28,4.31Z"/><path class="cls-5" d="M63,892.82a8.27,8.27,0,0,1-6.27-2.45,10.14,10.14,0,0,1-2.7-6.46l4.9-1.48A10.71,10.71,0,0,0,60.44,887a3.5,3.5,0,0,0,3.08,1.52,3.09,3.09,0,0,0,2.42-.91,3.51,3.51,0,0,0,.83-2.45,5.08,5.08,0,0,0-.61-2.47,8.11,8.11,0,0,0-2-2.26l-5.44-4.67A14.93,14.93,0,0,1,56,872.53,8.39,8.39,0,0,1,54.83,868a8.27,8.27,0,0,1,1-4.26,6.58,6.58,0,0,1,2.86-2.64,9.61,9.61,0,0,1,4.32-.91,7.53,7.53,0,0,1,6,2.45,10.39,10.39,0,0,1,2.42,5.91L67.32,870a14.72,14.72,0,0,0-.66-2.89,4.38,4.38,0,0,0-1.27-1.93,3.27,3.27,0,0,0-2.14-.68,2.91,2.91,0,0,0-2.29,1,3.31,3.31,0,0,0-.85,2.28,3.89,3.89,0,0,0,.36,1.62,4.58,4.58,0,0,0,1.24,1.57l5.61,5.17a23.22,23.22,0,0,1,2.17,2.26,10.72,10.72,0,0,1,1.68,2.75,9,9,0,0,1,.66,3.57,8.59,8.59,0,0,1-1.1,4.51,6.85,6.85,0,0,1-3.08,2.72A10.91,10.91,0,0,1,63,892.82Z"/><path class="cls-5" d="M81,892.82a5.37,5.37,0,0,1-3.3-1.07A7.58,7.58,0,0,1,75.46,889a8,8,0,0,1-.83-3.55,11.34,11.34,0,0,1,1-5A10,10,0,0,1,78.34,877a18.89,18.89,0,0,1,4-2.45q2.28-1,4.81-2v-2.26a18.87,18.87,0,0,0-.22-3.19,3.3,3.3,0,0,0-.91-1.9,3,3,0,0,0-2.06-.63,3.22,3.22,0,0,0-2,.55A3,3,0,0,0,81,866.67a7.8,7.8,0,0,0-.33,2.39v1.6l-5.83-.22q.11-5.28,2.42-7.79c1.54-1.66,3.92-2.5,7.15-2.5s5.39.86,6.71,2.59,2,4.21,2,7.48v14.52c0,1,0,1.94.08,2.86s.13,1.77.22,2.55.17,1.54.25,2.23H88.22l-.42-2.23c-.16-.89-.28-1.71-.35-2.44a8.59,8.59,0,0,1-2.12,3.49A5.75,5.75,0,0,1,81,892.82Zm2.31-5.06a3,3,0,0,0,1.65-.49,8,8,0,0,0,1.38-1.13,5.9,5.9,0,0,0,.82-1v-9c-.92.52-1.78,1-2.58,1.54a14.9,14.9,0,0,0-2.12,1.62A6.5,6.5,0,0,0,81,881.19a6.33,6.33,0,0,0,.19,5.47A2.32,2.32,0,0,0,83.32,887.76Z"/><path class="cls-5" d="M100.59,892.38V864.94h-3.8v-4.35h3.8v-1.65a24.1,24.1,0,0,1,.47-5.09,5.46,5.46,0,0,1,2-3.27,7.17,7.17,0,0,1,4.45-1.15,19.11,19.11,0,0,1,2,.08,17.39,17.39,0,0,1,1.89.3v4.29c-.33-.07-.69-.14-1.1-.19a7.36,7.36,0,0,0-1.09-.08c-1.14,0-1.87.37-2.18,1.12a8.06,8.06,0,0,0-.47,3v2.64h4.84v4.35h-4.84v27.44Z"/><path class="cls-5" d="M122.2,892.82a9.75,9.75,0,0,1-5.77-1.46,7.55,7.55,0,0,1-2.83-4.29,25.58,25.58,0,0,1-.8-7v-7.26a25.37,25.37,0,0,1,.82-7,7.59,7.59,0,0,1,2.89-4.24,9.89,9.89,0,0,1,5.69-1.43q4,0,5.92,1.65a8.14,8.14,0,0,1,2.5,4.76,39.92,39.92,0,0,1,.6,7.45v2.59H118.68V883a11.21,11.21,0,0,0,.36,3.13,3.24,3.24,0,0,0,1.16,1.79,3.46,3.46,0,0,0,2.06.58,2.88,2.88,0,0,0,2-.63,3.36,3.36,0,0,0,.93-1.82,13.33,13.33,0,0,0,.25-2.78v-1.92h5.72v1.21a12.38,12.38,0,0,1-2,7.53C127.78,891.91,125.47,892.82,122.2,892.82Zm-3.52-19.41h6.77v-2.86a20.79,20.79,0,0,0-.22-3.33,3.65,3.65,0,0,0-.91-2,3,3,0,0,0-2.17-.68,3.16,3.16,0,0,0-2.17.66,3.72,3.72,0,0,0-1,2.23,26.49,26.49,0,0,0-.28,4.31Z"/><path class="cls-5" d="M145,892.82a7.55,7.55,0,0,1-4-.93,5.44,5.44,0,0,1-2.2-2.64,10.71,10.71,0,0,1-.69-4V864.5H134.8v-3.91h3.35V851.3H144v9.29h5.11v3.91H144v20.35a4.52,4.52,0,0,0,.6,2.66,2.75,2.75,0,0,0,2.31.8c.3,0,.64,0,1,0l1.13-.11v4.34c-.74.11-1.41.19-2,.25S145.76,892.82,145,892.82Z"/><path class="cls-5" d="M153,900.36v-4.51a23.32,23.32,0,0,0,3.41-.2,3.28,3.28,0,0,0,1.82-.71,2,2,0,0,0,.55-1.46,13.38,13.38,0,0,0-.39-2.2c-.25-1.13-.53-2.34-.82-3.63l-6.38-27.06h5.94l4.29,23.76,4.12-23.76h5.94l-7.59,33.55a7.28,7.28,0,0,1-1.81,3.66,7.61,7.61,0,0,1-3.38,2,17.65,17.65,0,0,1-5,.61Z"/><path class="cls-5" d="M199,892.82a5.54,5.54,0,0,1-3-.85,12,12,0,0,1-2.34-1.9v2.31h-5.89V847.83h5.89v15.29a10.45,10.45,0,0,1,2.5-2.09,6.7,6.7,0,0,1,3.49-.88,5.75,5.75,0,0,1,3.94,1.29,8,8,0,0,1,2.17,3.25,16.75,16.75,0,0,1,.93,4,31.37,31.37,0,0,1,.22,3.44v7.7a29.52,29.52,0,0,1-.66,6.35,10.24,10.24,0,0,1-2.36,4.84A6.26,6.26,0,0,1,199,892.82Zm-1.21-4.62a2.34,2.34,0,0,0,2.2-1.13,7.26,7.26,0,0,0,.82-3.05c.11-1.28.17-2.69.17-4.23v-7.7a29.51,29.51,0,0,0-.22-3.66,5.8,5.8,0,0,0-.94-2.67,2.58,2.58,0,0,0-2.25-1,4.87,4.87,0,0,0-2.17.5,9.38,9.38,0,0,0-1.79,1.1v20.4a7,7,0,0,0,1.84,1A6.57,6.57,0,0,0,197.83,888.2Z"/><path class="cls-5" d="M221,892.82a9.45,9.45,0,0,1-5.55-1.43,7.66,7.66,0,0,1-2.89-4.07,20.22,20.22,0,0,1-.85-6.21v-9.24a20.25,20.25,0,0,1,.85-6.22,7.7,7.7,0,0,1,2.89-4.07,9.52,9.52,0,0,1,5.55-1.43,9.41,9.41,0,0,1,5.53,1.43,7.76,7.76,0,0,1,2.86,4.07,20.25,20.25,0,0,1,.85,6.22v9.24a20.22,20.22,0,0,1-.85,6.21,7.73,7.73,0,0,1-2.86,4.07A9.34,9.34,0,0,1,221,892.82Zm0-4.34a2.69,2.69,0,0,0,2.39-1,5.27,5.27,0,0,0,.83-2.62c.09-1.08.14-2.2.14-3.38v-10c0-1.21-.05-2.35-.14-3.41a5.41,5.41,0,0,0-.83-2.62,2.67,2.67,0,0,0-2.39-1,2.78,2.78,0,0,0-2.42,1,5.32,5.32,0,0,0-.85,2.62c-.09,1.06-.14,2.2-.14,3.41v10c0,1.18.05,2.3.14,3.38a5.18,5.18,0,0,0,.85,2.62A2.8,2.8,0,0,0,221,888.48Z"/><path class="cls-5" d="M240.18,892.82a4.08,4.08,0,0,1-2.92-1,5.28,5.28,0,0,1-1.46-2.47,11.47,11.47,0,0,1-.41-3V860.59h5.89v24a5.92,5.92,0,0,0,.49,2.67,2.07,2.07,0,0,0,2,1,4.3,4.3,0,0,0,2.06-.58,12.29,12.29,0,0,0,2.06-1.4V860.59h5.89v31.79h-5.89v-3.13a15.59,15.59,0,0,1-3.49,2.53A9,9,0,0,1,240.18,892.82Z"/><path class="cls-5" d="M259.81,892.38V860.59h5.89v3.14a16.65,16.65,0,0,1,3.52-2.53,8.67,8.67,0,0,1,4.23-1.05,4.05,4.05,0,0,1,2.94,1,5.35,5.35,0,0,1,1.43,2.48,11.06,11.06,0,0,1,.42,3v25.74h-5.89v-24a5.72,5.72,0,0,0-.49-2.64,2.08,2.08,0,0,0-2-.94,4.27,4.27,0,0,0-2.06.58,11.89,11.89,0,0,0-2.06,1.4v25.63Z"/><path class="cls-5" d="M291.33,892.82a6.74,6.74,0,0,1-6-2.94q-2-2.94-2-10v-6.16A34.75,34.75,0,0,1,284,867a10.19,10.19,0,0,1,2.28-5,6.3,6.3,0,0,1,4.92-1.87,6,6,0,0,1,2.92.72,10,10,0,0,1,2.36,1.76v-14.8h5.89v44.55h-5.89v-2a9.83,9.83,0,0,1-2.28,1.79A5.83,5.83,0,0,1,291.33,892.82Zm1.48-4.62a5.76,5.76,0,0,0,1.76-.3,7.66,7.66,0,0,0,1.87-.91V866.15a9.65,9.65,0,0,0-1.7-1,5.13,5.13,0,0,0-2-.41,2.71,2.71,0,0,0-2.75,2,13.7,13.7,0,0,0-.71,4.71v9a30.13,30.13,0,0,0,.24,4,6,6,0,0,0,1,2.8A2.7,2.7,0,0,0,292.81,888.2Z"/><path class="cls-5" d="M313.05,892.82a5.37,5.37,0,0,1-3.3-1.07,7.61,7.61,0,0,1-2.26-2.75,7.94,7.94,0,0,1-.82-3.55,11.34,11.34,0,0,1,1-5,10,10,0,0,1,2.72-3.44,18.89,18.89,0,0,1,4-2.45q2.28-1,4.81-2v-2.26a18.87,18.87,0,0,0-.22-3.19,3.3,3.3,0,0,0-.91-1.9,3,3,0,0,0-2.06-.63,3.22,3.22,0,0,0-1.95.55,3.05,3.05,0,0,0-1.08,1.57,7.8,7.8,0,0,0-.33,2.39v1.6l-5.83-.22c.08-3.52.88-6.12,2.42-7.79s3.93-2.5,7.15-2.5,5.39.86,6.71,2.59,2,4.21,2,7.48v14.52c0,1,0,1.94.09,2.86s.13,1.77.22,2.55.17,1.54.24,2.23h-5.39c-.11-.58-.24-1.33-.41-2.23s-.28-1.71-.36-2.44a8.45,8.45,0,0,1-2.11,3.49A5.75,5.75,0,0,1,313.05,892.82Zm2.31-5.06a3,3,0,0,0,1.65-.49,7.57,7.57,0,0,0,1.37-1.13,5.59,5.59,0,0,0,.83-1v-9c-.92.52-1.78,1-2.59,1.54a15.37,15.37,0,0,0-2.11,1.62,6.5,6.5,0,0,0-1.43,1.93,6.33,6.33,0,0,0,.19,5.47A2.32,2.32,0,0,0,315.36,887.76Z"/><path class="cls-5" d="M330.92,892.38V860.59h5.89v4.51a10.7,10.7,0,0,1,3.52-3.9,7.12,7.12,0,0,1,3.52-1h.41a4.21,4.21,0,0,1,.52,0v6.49a9.64,9.64,0,0,0-1.51-.47,8.34,8.34,0,0,0-1.73-.19,5,5,0,0,0-2.5.63,6.77,6.77,0,0,0-2.23,2.45v23.21Z"/><path class="cls-5" d="M347.92,900.36v-4.51a23.32,23.32,0,0,0,3.41-.2,3.25,3.25,0,0,0,1.81-.71,1.92,1.92,0,0,0,.55-1.46,12.94,12.94,0,0,0-.38-2.2c-.26-1.13-.53-2.34-.83-3.63l-6.38-27.06H352l4.29,23.76,4.13-23.76h5.94l-7.59,33.55A7.28,7.28,0,0,1,357,897.8a7.55,7.55,0,0,1-3.38,2,17.56,17.56,0,0,1-5,.61Z"/><path class="cls-5" d="M424.34,232a8.3,8.3,0,0,1-6.27-2.44,10.16,10.16,0,0,1-2.7-6.47l4.9-1.48a10.91,10.91,0,0,0,1.48,4.54,3.51,3.51,0,0,0,3.08,1.51,3.08,3.08,0,0,0,2.42-.91,3.49,3.49,0,0,0,.83-2.45,5,5,0,0,0-.61-2.47,8.25,8.25,0,0,0-2-2.26l-5.44-4.67a14.69,14.69,0,0,1-2.78-3.19,9.61,9.61,0,0,1-.11-8.83A6.7,6.7,0,0,1,420,200.2a9.75,9.75,0,0,1,4.32-.91,7.53,7.53,0,0,1,6.05,2.45,10.39,10.39,0,0,1,2.42,5.91l-4.18,1.49a14.89,14.89,0,0,0-.66-2.89,4.4,4.4,0,0,0-1.27-1.92,3.22,3.22,0,0,0-2.14-.69,2.87,2.87,0,0,0-2.28,1,3.32,3.32,0,0,0-.86,2.28,4,4,0,0,0,.36,1.63,4.65,4.65,0,0,0,1.24,1.56l5.61,5.17a23.22,23.22,0,0,1,2.17,2.26,10.89,10.89,0,0,1,1.68,2.75,9,9,0,0,1,.66,3.57,8.59,8.59,0,0,1-1.1,4.51,6.93,6.93,0,0,1-3.08,2.73A11.07,11.07,0,0,1,424.34,232Z"/><path class="cls-5" d="M442.1,232a4.06,4.06,0,0,1-2.91-1,5.28,5.28,0,0,1-1.46-2.47,11.47,11.47,0,0,1-.41-3V199.73h5.88v24a5.9,5.9,0,0,0,.5,2.67,2.07,2.07,0,0,0,2,1,4.44,4.44,0,0,0,2.07-.57,13,13,0,0,0,2.06-1.41V199.73h5.88v31.79h-5.88v-3.13a15.82,15.82,0,0,1-3.49,2.53A9,9,0,0,1,442.1,232Z"/><path class="cls-5" d="M473.12,232a5.58,5.58,0,0,1-3.05-.85,12,12,0,0,1-2.34-1.9v2.31h-5.88V187h5.88v15.29a10.65,10.65,0,0,1,2.5-2.09,6.74,6.74,0,0,1,3.5-.88,5.67,5.67,0,0,1,3.93,1.3,7.89,7.89,0,0,1,2.17,3.24,16.78,16.78,0,0,1,.94,4,34.26,34.26,0,0,1,.22,3.44v7.7a29.45,29.45,0,0,1-.66,6.35,10.16,10.16,0,0,1-2.37,4.84A6.25,6.25,0,0,1,473.12,232Zm-1.21-4.62a2.34,2.34,0,0,0,2.2-1.12,7.3,7.3,0,0,0,.83-3.06c.11-1.28.16-2.69.16-4.23v-7.7a27.7,27.7,0,0,0-.22-3.66,5.8,5.8,0,0,0-.93-2.67,2.6,2.6,0,0,0-2.26-1,4.9,4.9,0,0,0-2.17.5,9.91,9.91,0,0,0-1.79,1.1v20.4a6.76,6.76,0,0,0,1.84,1A6.4,6.4,0,0,0,471.91,227.34Z"/><path class="cls-5" d="M493.69,232a8.33,8.33,0,0,1-6.27-2.44,10.16,10.16,0,0,1-2.69-6.47l4.89-1.48a10.76,10.76,0,0,0,1.49,4.54,3.49,3.49,0,0,0,3.08,1.51,3.09,3.09,0,0,0,2.42-.91,3.49,3.49,0,0,0,.82-2.45,5.07,5.07,0,0,0-.6-2.47,8.6,8.6,0,0,0-2-2.26l-5.45-4.67a14.69,14.69,0,0,1-2.78-3.19,9.69,9.69,0,0,1-.11-8.83,6.7,6.7,0,0,1,2.86-2.64,9.75,9.75,0,0,1,4.32-.91,7.52,7.52,0,0,1,6.05,2.45,10.39,10.39,0,0,1,2.42,5.91L498,209.14a14.89,14.89,0,0,0-.66-2.89,4.3,4.3,0,0,0-1.26-1.92,3.25,3.25,0,0,0-2.15-.69,2.9,2.9,0,0,0-2.28,1,3.31,3.31,0,0,0-.85,2.28,4,4,0,0,0,.35,1.63,4.65,4.65,0,0,0,1.24,1.56l5.61,5.17a23.22,23.22,0,0,1,2.17,2.26,10.89,10.89,0,0,1,1.68,2.75,9,9,0,0,1,.66,3.57,8.59,8.59,0,0,1-1.1,4.51,6.88,6.88,0,0,1-3.08,2.73A11.07,11.07,0,0,1,493.69,232Z"/><path class="cls-5" d="M506.89,242V199.73h5.89v2.53a10.23,10.23,0,0,1,2.53-2.09,6.84,6.84,0,0,1,3.52-.88,5.67,5.67,0,0,1,3.93,1.3,7.89,7.89,0,0,1,2.17,3.24,16.78,16.78,0,0,1,.94,4,34.26,34.26,0,0,1,.22,3.44v7.7a29.45,29.45,0,0,1-.66,6.35,10,10,0,0,1-2.4,4.84,6.32,6.32,0,0,1-4.86,1.84,5.45,5.45,0,0,1-3-.85,12.83,12.83,0,0,1-2.36-2V242ZM517,227.34a2.34,2.34,0,0,0,2.2-1.12,7.3,7.3,0,0,0,.83-3.06c.11-1.28.16-2.69.16-4.23v-7.7a27.7,27.7,0,0,0-.22-3.66,5.92,5.92,0,0,0-.93-2.67,2.6,2.6,0,0,0-2.26-1,5.09,5.09,0,0,0-2.2.5,7.9,7.9,0,0,0-1.81,1.15v20.35a7.8,7.8,0,0,0,1.87,1A6.25,6.25,0,0,0,517,227.34Z"/><path class="cls-5" d="M536.21,232a5.3,5.3,0,0,1-3.3-1.07,7.43,7.43,0,0,1-2.26-2.75,7.94,7.94,0,0,1-.82-3.55,11.37,11.37,0,0,1,1-5,9.94,9.94,0,0,1,2.72-3.44,19,19,0,0,1,4-2.45q2.28-1,4.82-2v-2.26a20,20,0,0,0-.22-3.19,3.24,3.24,0,0,0-.91-1.89,3,3,0,0,0-2.06-.64,3.27,3.27,0,0,0-2,.55,3.1,3.1,0,0,0-1.07,1.57,7.8,7.8,0,0,0-.33,2.39v1.6l-5.83-.22q.1-5.28,2.42-7.78t7.15-2.51c3.15,0,5.39.87,6.71,2.59s2,4.22,2,7.48v14.52c0,1,0,1.94.08,2.86s.13,1.77.22,2.56.18,1.53.25,2.22h-5.39c-.11-.58-.25-1.32-.41-2.22s-.29-1.72-.36-2.45a8.42,8.42,0,0,1-2.12,3.49A5.71,5.71,0,0,1,536.21,232Zm2.31-5.06a3,3,0,0,0,1.65-.49,7.57,7.57,0,0,0,1.37-1.13,6.06,6.06,0,0,0,.83-1v-9c-.92.52-1.78,1-2.59,1.54a14.77,14.77,0,0,0-2.12,1.63,6.64,6.64,0,0,0-1.43,1.92,6.38,6.38,0,0,0,.2,5.47A2.31,2.31,0,0,0,538.52,226.9Z"/><path class="cls-5" d="M562.61,232a9.52,9.52,0,0,1-5.92-1.56A7.68,7.68,0,0,1,554,226a28.64,28.64,0,0,1-.69-6.66V212a28.17,28.17,0,0,1,.72-6.85,7.44,7.44,0,0,1,2.72-4.34,9.62,9.62,0,0,1,5.86-1.52,10.58,10.58,0,0,1,5.36,1.13,5.84,5.84,0,0,1,2.61,3.36,18.12,18.12,0,0,1,.72,5.52v1.87H566v-1.92a15.9,15.9,0,0,0-.27-3.3,3,3,0,0,0-1-1.76,4,4,0,0,0-4.24.11,3.61,3.61,0,0,0-1,2.23,29.49,29.49,0,0,0-.24,4.26v10c0,2.71.25,4.53.77,5.44a2.87,2.87,0,0,0,2.75,1.38,3,3,0,0,0,2.17-.69,3.41,3.41,0,0,0,.88-2,19,19,0,0,0,.19-2.86v-2.59h5.34v2.2a17.88,17.88,0,0,1-.75,5.5,6.24,6.24,0,0,1-2.64,3.52A9.79,9.79,0,0,1,562.61,232Z"/><path class="cls-5" d="M585.05,232a9.83,9.83,0,0,1-5.78-1.45,7.58,7.58,0,0,1-2.83-4.29,26.12,26.12,0,0,1-.8-7V212a25.38,25.38,0,0,1,.83-7,7.57,7.57,0,0,1,2.88-4.24,9.93,9.93,0,0,1,5.7-1.43q4,0,5.91,1.65a8.14,8.14,0,0,1,2.5,4.76,39.84,39.84,0,0,1,.61,7.45v2.59H581.53v6.38a11.25,11.25,0,0,0,.35,3.13A3.25,3.25,0,0,0,583,227a3.39,3.39,0,0,0,2.06.58,2.88,2.88,0,0,0,2-.63,3.3,3.3,0,0,0,.93-1.82,13.33,13.33,0,0,0,.25-2.78v-1.92H594v1.21a12.44,12.44,0,0,1-2,7.53C590.62,231.05,588.31,232,585.05,232Zm-3.52-19.41h6.76v-2.86a20.79,20.79,0,0,0-.22-3.33,3.62,3.62,0,0,0-.91-2,3,3,0,0,0-2.17-.69,3.16,3.16,0,0,0-2.17.66,3.72,3.72,0,0,0-1,2.23,26.69,26.69,0,0,0-.27,4.31Z"/><path class="cls-5" d="M615.68,231.52l-5.12-31.79h4.84l3.3,23.43,4.24-23.43h4.51l4.23,23.32,3.3-23.32h4.84l-5.28,31.79h-4.95l-4.34-22.44L621,231.52Z"/><path class="cls-5" d="M644.72,195v-6.16h5.88V195Zm0,36.52V199.73h5.88v31.79Z"/><path class="cls-5" d="M665.4,232a7.55,7.55,0,0,1-4-.93,5.35,5.35,0,0,1-2.2-2.64,10.71,10.71,0,0,1-.69-4V203.64h-3.35v-3.91h3.35v-9.29h5.89v9.29h5.11v3.91h-5.11V224a4.53,4.53,0,0,0,.6,2.67,2.78,2.78,0,0,0,2.31.79,9.62,9.62,0,0,0,1,0l1.13-.11v4.34c-.74.11-1.41.2-2,.25S666.13,232,665.4,232Z"/><path class="cls-5" d="M674,231.52V187h5.89V203a17.38,17.38,0,0,1,3.57-2.64,9,9,0,0,1,4.4-1.1,4,4,0,0,1,2.89,1,5.35,5.35,0,0,1,1.43,2.48,11.05,11.05,0,0,1,.41,3v25.74h-5.88v-24a5.71,5.71,0,0,0-.5-2.64,2.09,2.09,0,0,0-2-.94,4.62,4.62,0,0,0-2.17.61,10.92,10.92,0,0,0-2.12,1.48v25.52Z"/><path class="cls-5" d="M711.32,195v-6.16h5.89V195Zm0,36.52V199.73h5.89v31.79Z"/><path class="cls-5" d="M723.53,231.52V199.73h5.89v3.14a17,17,0,0,1,3.52-2.53,8.67,8.67,0,0,1,4.23-1.05,4,4,0,0,1,2.94,1,5.35,5.35,0,0,1,1.43,2.48,11.06,11.06,0,0,1,.42,3v25.74h-5.89v-24a5.72,5.72,0,0,0-.49-2.64,2.1,2.1,0,0,0-2-.94,4.39,4.39,0,0,0-2.06.58,12.48,12.48,0,0,0-2.06,1.4v25.63Z"/><path class="cls-5" d="M756.37,232a9.52,9.52,0,0,1-5.92-1.56,7.74,7.74,0,0,1-2.69-4.43,28.64,28.64,0,0,1-.69-6.66V212a28.17,28.17,0,0,1,.72-6.85,7.44,7.44,0,0,1,2.72-4.34,9.62,9.62,0,0,1,5.86-1.52,10.58,10.58,0,0,1,5.36,1.13,5.84,5.84,0,0,1,2.61,3.36,18.12,18.12,0,0,1,.72,5.52v1.87h-5.34v-1.92a15.9,15.9,0,0,0-.27-3.3,3,3,0,0,0-1-1.76,4,4,0,0,0-4.24.11,3.61,3.61,0,0,0-1,2.23,29.49,29.49,0,0,0-.24,4.26v10c0,2.71.25,4.53.77,5.44a2.87,2.87,0,0,0,2.75,1.38,3,3,0,0,0,2.17-.69,3.41,3.41,0,0,0,.88-2,19,19,0,0,0,.19-2.86v-2.59h5.34v2.2a17.88,17.88,0,0,1-.75,5.5,6.24,6.24,0,0,1-2.64,3.52A9.79,9.79,0,0,1,756.37,232Z"/><path class="cls-5" d="M778.75,232a9.45,9.45,0,0,1-5.55-1.43,7.66,7.66,0,0,1-2.89-4.07,20.22,20.22,0,0,1-.85-6.21V211a20.29,20.29,0,0,1,.85-6.22,7.7,7.7,0,0,1,2.89-4.07,9.52,9.52,0,0,1,5.55-1.43,9.41,9.41,0,0,1,5.53,1.43,7.76,7.76,0,0,1,2.86,4.07A20.29,20.29,0,0,1,788,211v9.24a20.22,20.22,0,0,1-.85,6.21,7.73,7.73,0,0,1-2.86,4.07A9.34,9.34,0,0,1,778.75,232Zm0-4.34a2.69,2.69,0,0,0,2.39-1A5.27,5.27,0,0,0,782,224c.09-1.09.14-2.21.14-3.39v-9.95c0-1.21-.05-2.35-.14-3.41a5.41,5.41,0,0,0-.83-2.61,2.65,2.65,0,0,0-2.39-1,2.76,2.76,0,0,0-2.42,1,5.21,5.21,0,0,0-.85,2.61c-.09,1.06-.14,2.2-.14,3.41v9.95c0,1.18,0,2.3.14,3.39a5.08,5.08,0,0,0,.85,2.61A2.8,2.8,0,0,0,778.75,227.62Z"/><path class="cls-5" d="M793.55,231.52V199.73h5.88v4.51a10.7,10.7,0,0,1,3.52-3.9,7.12,7.12,0,0,1,3.52-1h.41a4.34,4.34,0,0,1,.53.05v6.49a9.82,9.82,0,0,0-1.52-.46,7.65,7.65,0,0,0-1.73-.2,5,5,0,0,0-2.5.64,6.64,6.64,0,0,0-2.23,2.44v23.21Z"/><path class="cls-5" d="M811.2,231.52V199.73h5.89v4.51a10.61,10.61,0,0,1,3.52-3.9,7.1,7.1,0,0,1,3.52-1h.41a4.21,4.21,0,0,1,.52.05v6.49a9.68,9.68,0,0,0-1.51-.46,7.78,7.78,0,0,0-1.73-.2,5.06,5.06,0,0,0-2.51.64,6.63,6.63,0,0,0-2.22,2.44v23.21Z"/><path class="cls-5" d="M837.33,232a9.83,9.83,0,0,1-5.78-1.45,7.58,7.58,0,0,1-2.83-4.29,26.12,26.12,0,0,1-.8-7V212a25.38,25.38,0,0,1,.83-7,7.57,7.57,0,0,1,2.88-4.24,9.93,9.93,0,0,1,5.7-1.43q4,0,5.91,1.65a8.14,8.14,0,0,1,2.5,4.76,39.84,39.84,0,0,1,.61,7.45v2.59H833.81v6.38a11.65,11.65,0,0,0,.35,3.13,3.25,3.25,0,0,0,1.16,1.79,3.39,3.39,0,0,0,2.06.58,2.88,2.88,0,0,0,2-.63,3.3,3.3,0,0,0,.93-1.82,13.33,13.33,0,0,0,.25-2.78v-1.92h5.72v1.21a12.44,12.44,0,0,1-2,7.53C842.9,231.05,840.59,232,837.33,232Zm-3.52-19.41h6.76v-2.86a20.79,20.79,0,0,0-.22-3.33,3.62,3.62,0,0,0-.91-2,2.94,2.94,0,0,0-2.17-.69,3.16,3.16,0,0,0-2.17.66,3.72,3.72,0,0,0-1,2.23,26.69,26.69,0,0,0-.27,4.31Z"/><path class="cls-5" d="M860.37,232a9.51,9.51,0,0,1-5.91-1.56,7.7,7.7,0,0,1-2.7-4.43,28.68,28.68,0,0,1-.68-6.66V212a28.21,28.21,0,0,1,.71-6.85,7.49,7.49,0,0,1,2.72-4.34,9.62,9.62,0,0,1,5.86-1.52,10.56,10.56,0,0,1,5.36,1.13,5.81,5.81,0,0,1,2.62,3.36,18.47,18.47,0,0,1,.71,5.52v1.87h-5.33v-1.92a15.79,15.79,0,0,0-.28-3.3,2.92,2.92,0,0,0-1-1.76,4,4,0,0,0-4.23.11,3.51,3.51,0,0,0-1,2.23,27.88,27.88,0,0,0-.25,4.26v10c0,2.71.26,4.53.77,5.44a2.87,2.87,0,0,0,2.75,1.38,3,3,0,0,0,2.17-.69,3.41,3.41,0,0,0,.88-2,18.86,18.86,0,0,0,.2-2.86v-2.59h5.33v2.2a18.21,18.21,0,0,1-.74,5.5,6.33,6.33,0,0,1-2.64,3.52A9.85,9.85,0,0,1,860.37,232Z"/><path class="cls-5" d="M882.76,232a7.55,7.55,0,0,1-4-.93,5.35,5.35,0,0,1-2.2-2.64,10.71,10.71,0,0,1-.69-4V203.64h-3.35v-3.91h3.35v-9.29h5.89v9.29h5.11v3.91h-5.11V224a4.53,4.53,0,0,0,.6,2.67,2.76,2.76,0,0,0,2.31.79,9.87,9.87,0,0,0,1,0l1.13-.11v4.34c-.74.11-1.42.2-2,.25S883.49,232,882.76,232Z"/><path class="cls-5" d="M417.13,297.52V265.73H423v4.51a10.61,10.61,0,0,1,3.52-3.9,7.1,7.1,0,0,1,3.52-1h.41a4.21,4.21,0,0,1,.52,0v6.49a9.68,9.68,0,0,0-1.51-.46,7.78,7.78,0,0,0-1.73-.2,5,5,0,0,0-2.5.64,6.56,6.56,0,0,0-2.23,2.44v23.21Z"/><path class="cls-5" d="M443.26,298a9.83,9.83,0,0,1-5.78-1.45,7.63,7.63,0,0,1-2.83-4.29,26.12,26.12,0,0,1-.8-7V278a25.38,25.38,0,0,1,.83-7,7.54,7.54,0,0,1,2.89-4.24,9.87,9.87,0,0,1,5.69-1.43c2.67,0,4.65.55,5.91,1.65a8.09,8.09,0,0,1,2.5,4.76,39,39,0,0,1,.61,7.45v2.59H439.74v6.38a11.21,11.21,0,0,0,.36,3.13,3.19,3.19,0,0,0,1.15,1.79,3.39,3.39,0,0,0,2.06.58,2.88,2.88,0,0,0,2-.63,3.37,3.37,0,0,0,.94-1.82,14.11,14.11,0,0,0,.24-2.78v-1.92h5.72v1.21a12.44,12.44,0,0,1-2,7.53C448.83,297.05,446.52,298,443.26,298Zm-3.52-19.41h6.76v-2.86a20.79,20.79,0,0,0-.22-3.33,3.62,3.62,0,0,0-.9-2,3,3,0,0,0-2.18-.69,3.18,3.18,0,0,0-2.17.66,3.84,3.84,0,0,0-1,2.23,26.69,26.69,0,0,0-.27,4.31Z"/><path class="cls-5" d="M458.16,297.52V253h5.89v44.55Z"/><path class="cls-5" d="M475,298a5.3,5.3,0,0,1-3.3-1.07,7.5,7.5,0,0,1-2.25-2.75,8,8,0,0,1-.83-3.55,11.37,11.37,0,0,1,1-5,10.06,10.06,0,0,1,2.72-3.44,19.31,19.31,0,0,1,4-2.45q2.28-1,4.81-2v-2.26a18.87,18.87,0,0,0-.22-3.19,3.24,3.24,0,0,0-.91-1.89,2.94,2.94,0,0,0-2.06-.64,3.22,3.22,0,0,0-1.95.55,3,3,0,0,0-1.07,1.57,7.8,7.8,0,0,0-.33,2.39v1.6l-5.83-.22q.11-5.28,2.42-7.78t7.15-2.51c3.15,0,5.39.87,6.71,2.59s2,4.22,2,7.48v14.52c0,1,0,1.94.08,2.86s.13,1.77.22,2.56.17,1.53.25,2.22H482.2l-.42-2.22c-.16-.9-.28-1.72-.35-2.45a8.52,8.52,0,0,1-2.12,3.49A5.75,5.75,0,0,1,475,298Zm2.31-5.06a3,3,0,0,0,1.65-.49,8,8,0,0,0,1.38-1.13,5.9,5.9,0,0,0,.82-1v-9c-.92.52-1.78,1-2.58,1.54a14.23,14.23,0,0,0-2.12,1.63,6.46,6.46,0,0,0-1.43,1.92,6.42,6.42,0,0,0,.19,5.47A2.32,2.32,0,0,0,477.3,292.9Z"/><path class="cls-5" d="M501.12,298a7.55,7.55,0,0,1-4-.93,5.35,5.35,0,0,1-2.2-2.64,10.71,10.71,0,0,1-.69-4V269.64h-3.35v-3.91h3.35v-9.29h5.89v9.29h5.11v3.91h-5.11V290a4.53,4.53,0,0,0,.6,2.67,2.76,2.76,0,0,0,2.31.79,9.87,9.87,0,0,0,1-.05l1.13-.11v4.34c-.74.11-1.42.2-2,.25S501.85,298,501.12,298Z"/><path class="cls-5" d="M510,261v-6.16h5.89V261Zm0,36.52V265.73h5.89v31.79Z"/><path class="cls-5" d="M526.31,297.52,520,265.73H526l3.9,25.58,4-25.58h5.72l-6,31.79Z"/><path class="cls-5" d="M552.16,298a9.83,9.83,0,0,1-5.78-1.45,7.58,7.58,0,0,1-2.83-4.29,26.12,26.12,0,0,1-.8-7V278a25.38,25.38,0,0,1,.83-7,7.57,7.57,0,0,1,2.88-4.24,9.93,9.93,0,0,1,5.7-1.43q4,0,5.91,1.65a8.14,8.14,0,0,1,2.5,4.76,39.84,39.84,0,0,1,.61,7.45v2.59H548.64v6.38a11.25,11.25,0,0,0,.35,3.13,3.25,3.25,0,0,0,1.16,1.79,3.39,3.39,0,0,0,2.06.58,2.88,2.88,0,0,0,2-.63,3.3,3.3,0,0,0,.93-1.82,13.33,13.33,0,0,0,.25-2.78v-1.92h5.72v1.21a12.44,12.44,0,0,1-2,7.53C557.73,297.05,555.42,298,552.16,298Zm-3.52-19.41h6.76v-2.86a20.79,20.79,0,0,0-.22-3.33,3.62,3.62,0,0,0-.91-2,3,3,0,0,0-2.17-.69,3.16,3.16,0,0,0-2.17.66,3.72,3.72,0,0,0-1,2.23,26.69,26.69,0,0,0-.27,4.31Z"/><path class="cls-5" d="M586.47,298a6.74,6.74,0,0,1-6-2.94q-2-2.94-2-10v-6.16a35.58,35.58,0,0,1,.6-6.74,10.29,10.29,0,0,1,2.29-5,6.28,6.28,0,0,1,4.92-1.87,6,6,0,0,1,2.91.72,10.28,10.28,0,0,1,2.37,1.76V253h5.88v44.55h-5.88v-2a9.83,9.83,0,0,1-2.28,1.79A5.85,5.85,0,0,1,586.47,298Zm1.49-4.62a5.76,5.76,0,0,0,1.76-.3,7.66,7.66,0,0,0,1.87-.91V271.29a8.81,8.81,0,0,0-1.71-1,4.89,4.89,0,0,0-2-.42,2.71,2.71,0,0,0-2.75,2,13.62,13.62,0,0,0-.72,4.7v9a30,30,0,0,0,.25,4,6.08,6.08,0,0,0,1,2.81A2.7,2.7,0,0,0,588,293.34Z"/><path class="cls-5" d="M612.21,298a9.8,9.8,0,0,1-5.77-1.45,7.58,7.58,0,0,1-2.83-4.29,25.71,25.71,0,0,1-.8-7V278a25.42,25.42,0,0,1,.82-7,7.59,7.59,0,0,1,2.89-4.24,9.89,9.89,0,0,1,5.69-1.43q4,0,5.92,1.65a8.2,8.2,0,0,1,2.5,4.76,39.92,39.92,0,0,1,.6,7.45v2.59H608.69v6.38a11.21,11.21,0,0,0,.36,3.13,3.2,3.2,0,0,0,1.16,1.79,3.37,3.37,0,0,0,2.06.58,2.88,2.88,0,0,0,2-.63,3.36,3.36,0,0,0,.93-1.82,13.33,13.33,0,0,0,.25-2.78v-1.92h5.72v1.21a12.38,12.38,0,0,1-2,7.53C617.79,297.05,615.48,298,612.21,298Zm-3.52-19.41h6.77v-2.86a22,22,0,0,0-.22-3.33,3.62,3.62,0,0,0-.91-2,3,3,0,0,0-2.17-.69,3.15,3.15,0,0,0-2.17.66,3.72,3.72,0,0,0-1,2.23,25.4,25.4,0,0,0-.28,4.31Z"/><path class="cls-5" d="M635,307.48a20.2,20.2,0,0,1-5.25-.63,8.33,8.33,0,0,1-3.69-2,4.65,4.65,0,0,1-1.34-3.46,5.32,5.32,0,0,1,.77-2.89,7.53,7.53,0,0,1,2-2.12,10.74,10.74,0,0,1,2.53-1.37l2.75.38q-.72.66-1.38,1.35a8.41,8.41,0,0,0-1.1,1.43,3.18,3.18,0,0,0-.44,1.62,2.32,2.32,0,0,0,1.24,2.15,9.72,9.72,0,0,0,4.43.71,10.91,10.91,0,0,0,4.64-.74,2.45,2.45,0,0,0,1.52-2.34,3,3,0,0,0-.39-1.62,2.63,2.63,0,0,0-1.32-1,10,10,0,0,0-2.69-.55l-6.93-.88a5.14,5.14,0,0,1-3.19-1.37,3.43,3.43,0,0,1-1-2.42,5.15,5.15,0,0,1,1.13-3.36,29,29,0,0,1,3-3.08l2,1.54c-.22.3-.49.71-.82,1.24a3,3,0,0,0-.5,1.57,1.14,1.14,0,0,0,.63,1,4.73,4.73,0,0,0,2,.49l5.34.5a8.37,8.37,0,0,1,5.55,2.25,9,9,0,0,1,.58,10,7.35,7.35,0,0,1-3.71,2.72A18.52,18.52,0,0,1,635,307.48Zm.22-19.75a9,9,0,0,1-5.28-1.43,8.29,8.29,0,0,1-3-4,18.21,18.21,0,0,1,.08-12,7.84,7.84,0,0,1,3.11-3.79,9.31,9.31,0,0,1,5.08-1.3,8,8,0,0,1,5.12,1.57,9.12,9.12,0,0,1,2.91,4.15,16.58,16.58,0,0,1,.94,5.72,17.74,17.74,0,0,1-.86,5.75,7.53,7.53,0,0,1-2.8,3.88A9,9,0,0,1,635.2,287.73Zm0-4.23a3.51,3.51,0,0,0,1.93-.47,2.86,2.86,0,0,0,1.07-1.35,8.28,8.28,0,0,0,.5-2.17,28.64,28.64,0,0,0,.13-2.94c0-1.1,0-2.09-.11-3a7.44,7.44,0,0,0-.49-2.23,2.94,2.94,0,0,0-3-1.9,3.61,3.61,0,0,0-2,.47,3.06,3.06,0,0,0-1.16,1.38,6.94,6.94,0,0,0-.55,2.22,30,30,0,0,0-.14,3,25.9,25.9,0,0,0,.14,2.75,8.27,8.27,0,0,0,.52,2.2,3,3,0,0,0,3.08,2Zm7.87-12.43-1.38-2.2a7.83,7.83,0,0,1,2-1.93A16.52,16.52,0,0,1,647,265l1.54,3.85a20.12,20.12,0,0,0-2.06.6c-.86.3-1.64.6-2.34.91S643.07,270.92,643.07,271.07Z"/><path class="cls-5" d="M651,297.52V265.73h5.88v4.51a10.78,10.78,0,0,1,3.52-3.9,7.15,7.15,0,0,1,3.52-1h.42a4.39,4.39,0,0,1,.52,0v6.49a9.82,9.82,0,0,0-1.52-.46,7.65,7.65,0,0,0-1.73-.2,5.05,5.05,0,0,0-2.5.64,6.73,6.73,0,0,0-2.23,2.44v23.21Z"/><path class="cls-5" d="M677.11,298a9.8,9.8,0,0,1-5.77-1.45,7.58,7.58,0,0,1-2.83-4.29,25.71,25.71,0,0,1-.8-7V278a25.42,25.42,0,0,1,.82-7,7.59,7.59,0,0,1,2.89-4.24,9.89,9.89,0,0,1,5.69-1.43q4,0,5.92,1.65a8.2,8.2,0,0,1,2.5,4.76,39.92,39.92,0,0,1,.6,7.45v2.59H673.59v6.38a11.21,11.21,0,0,0,.36,3.13,3.2,3.2,0,0,0,1.16,1.79,3.37,3.37,0,0,0,2.06.58,2.88,2.88,0,0,0,2-.63,3.36,3.36,0,0,0,.93-1.82,13.33,13.33,0,0,0,.25-2.78v-1.92h5.72v1.21a12.38,12.38,0,0,1-2,7.53C682.69,297.05,680.38,298,677.11,298Zm-3.52-19.41h6.77v-2.86a22,22,0,0,0-.22-3.33,3.62,3.62,0,0,0-.91-2,3,3,0,0,0-2.17-.69,3.15,3.15,0,0,0-2.17.66,3.72,3.72,0,0,0-1,2.23,25.4,25.4,0,0,0-.28,4.31Z"/><path class="cls-5" d="M700.27,298a9.83,9.83,0,0,1-5.78-1.45,7.63,7.63,0,0,1-2.83-4.29,26.12,26.12,0,0,1-.8-7V278a25.38,25.38,0,0,1,.83-7,7.54,7.54,0,0,1,2.89-4.24,9.87,9.87,0,0,1,5.69-1.43q4,0,5.91,1.65a8.14,8.14,0,0,1,2.5,4.76,39,39,0,0,1,.61,7.45v2.59H696.75v6.38a11.65,11.65,0,0,0,.35,3.13,3.25,3.25,0,0,0,1.16,1.79,3.39,3.39,0,0,0,2.06.58,2.88,2.88,0,0,0,2-.63,3.3,3.3,0,0,0,.93-1.82,13.33,13.33,0,0,0,.25-2.78v-1.92h5.72v1.21a12.44,12.44,0,0,1-2,7.53C705.84,297.05,703.53,298,700.27,298Zm-3.52-19.41h6.76v-2.86a20.79,20.79,0,0,0-.22-3.33,3.62,3.62,0,0,0-.9-2,3,3,0,0,0-2.18-.69,3.18,3.18,0,0,0-2.17.66,3.78,3.78,0,0,0-1,2.23,26.69,26.69,0,0,0-.27,4.31Z"/><path class="cls-6" d="M393.54,286.34c-25.75,2.64-38.89,18.46-44.88,42.13.28-11.73,5.31-21.38,13-29.53C370.2,290,380.8,285.41,393.54,286.34Z"/><path class="cls-6" d="M450.71,944c17.73-18.85,17.3-39.41,6.33-61.22,7.48,9,10,19.63,9.48,30.85C466,926,461,936.39,450.71,944Z"/><rect class="cls-7" width="1066.01" height="1066.01"/><path class="cls-1" d="M586.15,596c.16,1.45-.94,2.39-1.54,3.47-3.51,6.27-4,13.06-3.57,20,.24,4.27.89,8.44,3.08,12.25a27.17,27.17,0,0,0,3.17,4.84c1.66,1.79,4.54,1.94,7.1,1.88a24.32,24.32,0,0,0,17.73-8.11"/><path class="cls-1" d="M610.37,607.69c-.08-1.08-.08-2.18-.26-3.24-.58-3.29-1.43-6.29-5.21-7.55-3.12-1-5.87-3-9.26-3.48a11.13,11.13,0,0,0-6.5.78,21.14,21.14,0,0,1-5,1.36c-3.71.77-6.38,3.29-8.52,6.38-4.13,6-4.62,12.55-3.52,19.49,1,6.62,4.68,11.34,10.28,14.71a5.15,5.15,0,0,0,4.48.52"/></g></g></svg>