<svg xmlns="http://www.w3.org/2000/svg" viewBox="0 0 1066.01 1066.01"><defs><style>.cls-1,.cls-2,.cls-3,.cls-4,.cls-6{fill:none;}.cls-1,.cls-2,.cls-3,.cls-4{stroke:#333;}.cls-1,.cls-2,.cls-3{stroke-linecap:round;stroke-linejoin:round;}.cls-1{stroke-width:7px;}.cls-2{stroke-width:2px;}.cls-3{stroke-width:2.3px;}.cls-4{stroke-miterlimit:10;stroke-width:2.34px;}.cls-5{fill:#333;}</style></defs><g id="Layer_2" data-name="Layer 2"><g id="Layer_1-2" data-name="Layer 1"><path class="cls-1" d="M45.14,1002.38h1002c1.67,0,3.34-.16,5-.24"/><path class="cls-2" d="M511.1,966.65c-14.84-11.88-22-29.58-33.39-44.09-6.57-8.39-13.15-16.29-23.6-19.94-13.87-4.83-25.8-.09-37,7.57-16.18,11.07-26.89,27.23-38.48,42.5-5.31,7-10.15,14.35-16.55,20.46-11.88,11.3-21.59,9.08-31.46.45-9.4-8.21-16.4-18.6-24.62-27.89-7.63-8.62-15-17.54-26.88-21.21-13.87-4.28-26.44-1.84-38.53,5.17-11.08,6.43-20.45,15-29.53,24-8.74,8.6-16.91,17.79-26.47,25.54-5.58,4.51-11.4,8.7-18.05,11.39-3.33,1.34-4.81,3.91-6.46,6.6"/><path class="cls-2" d="M970.1,343.15c-2.17,9.16-4.27,18.35-6.52,27.49-5.75,23.4-11,46.91-17.88,70-7.32,24.67-15.38,49.09-23.55,73.48-8.7,26-19,51.35-28.57,77-2.57,6.87-5.32,13.67-8,20.51"/><path class="cls-2" d="M39.6,1001.9q24.49.12,49,.24c9.16,0,18.34-.24,27.5.06,13.54.45,26.74-2,40-4.09,2.43-.38,4.81-.94,7,.56,1.74,1.19,3.63,1,5.52,1,62.33,0,118.86.17,181.19-.16,6.64,0,16.82.8,29-2.75,12-2.32,8.28-1.24,13.73-2.62,10.87-1.43,19.27-3.53,30.1-5.25,9.86-1.56,19.67-3.37,29.46-5.23a454.44,454.44,0,0,0,52.41-13.31A46.85,46.85,0,0,1,521.61,968c7.87.36,15-3.15,21.46-7.37,17.47-11.38,36-20.27,56.53-24.43,6.86-1.38,12.12-5.8,18-9.09,8.14-4.58,16-9.75,24.1-14.33a19.59,19.59,0,0,0,5.18-4.08c-4.71-3.85-10.46-4-15.76-4.91-9.84-1.75-14.3,1.26-19.48,11.89"/><path class="cls-2" d="M877.6,629.65c-2.94,9.72-8.13,18.42-12.51,27.49a831.82,831.82,0,0,1-40.51,75,669.46,669.46,0,0,1-40.48,58q-2.51,3.24-5,6.5"/><path class="cls-2" d="M782.1,830.65c.76-5.76,0-10.67-2.54-14.48a5.27,5.27,0,0,0-3.92-2.76c-2.47-.4-5.14-.39-7.61-1.62-1.54-.76-3.47-.09-5,1.8-16.21,20-35,37.38-54.85,53.66-6.26,5.11-12.74,9.91-19,15-3,2.42-6.5,5.08-3.64,10,.46.8,0,2.36-.45,3.43-2.06,5.35-3.21,10.78-2,16.52"/><path class="cls-2" d="M988.6,250.65q-5,25.25-10,50.5c-1.47,7.5-4.24,14.75-4.51,22.5"/><path class="cls-2" d="M653.1,900.65a9.56,9.56,0,0,1-1-1.51c-1.32-3.09-.75-7.35-4.54-8.93a39.59,39.59,0,0,0-16-3.43c-3.12.07-5.85,1.53-5.08,5.88.52,3-1.54,5.88-.92,9"/><path class="cls-2" d="M981.6,332.15c10.48,1.62,20.89,3.74,31.5,4.5"/><path class="cls-2" d="M924.1,325.65c0-1.12-.29-2.32.62-2.79,10.64,2.95,21.3,3.92,31.88,5.29"/><path class="cls-2" d="M128.1,975.15c10.31,1.16,20.67.16,31,.5"/><path class="cls-2" d="M782.1,804.65c10.12,2.24,20,5.58,30.5,6"/><path class="cls-2" d="M889.6,620.65c10.15,2.06,20.1,5.17,30.5,6"/><path class="cls-2" d="M72.1,971.15l30,2"/><path class="cls-2" d="M125.6,984.15c.21-2.72-.2-5.33,1.33-8.1,1.81-3.24-1.46-7.26-5.33-7.41s-7.67-.51-11.5-.45c-5.63.08-7.34,2.37-6.53,8,.35,2.47.36,5,.53,7.5"/><path class="cls-2" d="M835.1,606.65c7.26,3.54,15.37,3.84,23,6,2.14.6,4.33,1,6.5,1.52"/><path class="cls-2" d="M727.6,790.15c6.43,3.34,13.72,3.44,20.5,5.49,2.83.86,5.66,1.67,8.5,2.51"/><path class="cls-2" d="M596.6,883.65c7.35,3.87,15.73,3.74,23.5,6,1.82.53,3.66,1,5.5,1.51"/><path class="cls-2" d="M1040.1,329.15c.48-1.76-1-2.33-2-2.44-7.49-.77-14.86-2.92-22.49-2.06"/><path class="cls-2" d="M160.6,963.65c-8.14-1.66-16.32-1.15-24.5-.5"/><path class="cls-2" d="M96.1,958.15a93.44,93.44,0,0,0-25,.5"/><path class="cls-2" d="M186.1,962.15l-24.5,1"/><path class="cls-2" d="M858.6,596.65c-8-1.31-16.15-2.14-23.91-3.91s-15.7-3.19-23.59-4.59"/><path class="cls-2" d="M841.1,803.15c-5.5-1-11.08-1.7-16.47-3.12-3-.8-5.7.49-8.53.12"/><path class="cls-2" d="M751.1,783.15c.38-2-1.27-2.17-2.51-2.48-3.65-.9-7.33-2.41-11-2.38-8.86.07-16.73-4.72-25.5-4.63-2.24,0-4.17-1.73-6.5-1"/><path class="cls-2" d="M709.6,895.65c-7.86-1-15.48-3.59-23.5-3.5"/><path class="cls-2" d="M947.1,618.65c-7.78-2.71-15.67-4.61-24-3.5"/><path class="cls-2" d="M815.1,799.65c-6.36-3.63-13.72-3.15-20.5-5-.82-.22-1.67-.34-2.5-.5"/><path class="cls-2" d="M777.1,813.15c1.84-2.66,1.89-6.09,4.37-8.63,1.73-1.79-1.5-7.13-4.37-7.87-4-1-8-2.09-12-3-4.67-1-7.41,1.52-7.55,6.47-.07,2.67-1.42,5.24-.94,8"/><path class="cls-2" d="M620.1,874.15c-5-1.18-10.09-1.88-15-3.37-2.1-.63-4.63.2-7,.37"/><path class="cls-2" d="M948.6,311.65c-5.17-.84-10.35-2.42-15.5-2.32-7.05.12-13.58-2.69-20.5-2.65-3.06,0-5.89-1.71-9-1"/><path class="cls-2" d="M885.1,628.65c.3-4.1,4.72-6.67,3.67-11.54-.77-3.59-2.43-5.33-5.67-5.38-3.61-.06-7-1-10.49-1.64-4.57-.8-7.66,1.54-6.93,6,.48,3-2.25,5.57-.58,8.52"/><path class="cls-2" d="M597.1,870.65c-4.88-3.15-10.71-2.5-16.05-3.83-1.74-.44-3.55-1.22-5.45-1.17"/><path class="cls-2" d="M93.1,1000.65c-.09-5.15,2.39-9.26,5.53-13,2.3-2.71,4.89-3.89,9-3.26,5.87.89,12,.23,18.35.23,5.72,3.38,8.24,9.07,9.62,15.5"/><path class="cls-2" d="M994.1,319.15c-.27,2.83,1.76,2.39,3.5,2.51,4.17.29,8.33.74,12.5.95,2.1.11,3.71,1.24,5.5,2"/><path class="cls-2" d="M763.6,812.15c-3.68-3.06-7.6-4.51-12-1.49-4.75,3.26-9,6.93-8.51,13.49"/><path class="cls-2" d="M945.6,353.65a20.75,20.75,0,0,1,5-10c2.45-2.8,5.37-3.5,9.47-3.38,5.07.14,9.71,2.71,15,1.52,4-.91,8,3.33,9.27,9.85.49,2.44,3.08,5.3.19,8"/><path class="cls-2" d="M850.6,638.65c2.16-3,4.09-6.23,6.55-8.95,4.24-4.69,11.23-5.31,18-2.06,1.73.83,3.25,1.63,5.53,1.14a6.86,6.86,0,0,1,8.42,4.88c1.5,4.51,4.21,9,1.55,14"/><path class="cls-2" d="M978.1,341.65c1.29-2,.07-4.34,1.38-6.57,3.16-5.43.09-11.81-5.83-11-3.78.5-7-.58-10.55-.56-4,0-6.87,2.71-6.14,5,1.16,3.72-1,7.24.64,10.62"/><path class="cls-2" d="M681.6,903.65c-4.34-.79-9-.9-12.43-4.09-1.88-1.77-3.41-.14-5.08-.33-1.12-.12-2.36,1-3.49.85-6.41-.57-10.4,2.58-13,8.51,3,4.29,6.89,8.74,5,15.06"/><path class="cls-2" d="M683.6,889.65c-7.09-.31-12.33,2.55-15.5,9"/><path class="cls-2" d="M837.1,587.15q-1.76,11.75-3.5,23.5"/><g id="QfSehA.tif"><path class="cls-3" d="M132.55,154a20.67,20.67,0,0,0-3.7,1.46c-2.47,1.18-3,1.76-4.8,2.18a14.34,14.34,0,0,1-2.77.38c-2,.08-3.35.64-3.73,2.46-.65,3.11-1.68,6.16-4.85,8.53a3.64,3.64,0,0,0-1.09,2.21c-1.91,8-4,16-5.87,24a4.17,4.17,0,0,0,.64,4c2.1,2.35,1,4.9.51,7.24-.78,4.16-1.08,8.35-1.88,12.5-1.08,5.63-.87,11.33-1.46,17-.93,9-.28,18,.46,27,.12,1.48.19,2.89-1.23,4.29-2.35,2.29-.87,5-.29,7.43a173.67,173.67,0,0,1,4.15,21.49,2.11,2.11,0,0,0,1.07,1.71c1.7.76,3.4,4.39,9.67,7.64,3,1.56,7.72,4,10,3.88C144.19,308.26,139.09,154,132.55,154Z"/><path class="cls-2" d="M523.26,242.36c2.77.18,5.59-.5,8.26,1a4.17,4.17,0,0,1,2.15,4.76c-1.41,6.3-2.89,12.58-4.82,18.77a164.4,164.4,0,0,0-4.52,18.71c-1.25,6.68-3.6,13.06-4.79,19.72-.85,4.74-3.33,9-4,13.73-.19,1.26-.62,2.49-.71,3.75a8.25,8.25,0,0,1-1.72,4.29A45.63,45.63,0,0,0,505.29,347a4.67,4.67,0,0,1-1.51,3.25"/><path class="cls-2" d="M435.59,245.11a89.67,89.67,0,0,1-.32,19.72,2,2,0,0,0,.58,2,5.16,5.16,0,0,1,1.5,3.5c.73,6,2.46,11.87,4,17.72,2.65,9.83,4,20,6.94,29.73.75,2.49,1.34,5.07,3.27,7s2.44,4.55,3.22,7c1.3,4.11,2,8.35,4.68,12s4.15,8,7,11.46a9,9,0,0,0,1.78,1.72"/><path class="cls-2" d="M435.34,266.58c-3.48,1.23-3.36,4.44-4,7.25-1.16,5.14-1.71,10.52-3.43,15.41-2.5,7.07-3.23,14.55-5.79,21.55a36.21,36.21,0,0,1-2,5c-2.91,5.27-3.83,11.33-6.51,16.72a18.52,18.52,0,0,1-3.23,5.27,12.4,12.4,0,0,0-3,4.46c-.77,2.13-2.51,3.46-4,5q-3,3-6,6c-2.07,2-2.41,1.95-4.77.29-1.36-1-2.57-2-4.46-2.38-3.87-.66-4.55-.44-5.26,3.34"/><path class="cls-2" d="M357.67,246.11c-.42,4.66-.71,9.34-1.33,14a3.53,3.53,0,0,0,.81,3.27,7.45,7.45,0,0,1,1.81,4.48c.81,7.21,2.28,14.32,3.36,21.49a149.68,149.68,0,0,0,3.11,16.46c1.31,4.86,2.8,9.66,4.23,14.49.73,2.5,1.58,5,2.22,7.5a21.82,21.82,0,0,0,2.94,7,31.48,31.48,0,0,1,2.81,6.44,39.67,39.67,0,0,0,5.76,10.23"/><path class="cls-2" d="M218.05,261.59c3.11,3,3.25,7,3.41,10.74.27,6.21,1.62,12.19,2.82,18.23.66,3.31,1.17,6.66,1.76,10a25.86,25.86,0,0,0,2.32,8c2.35,4.27,3.5,8.89,4.63,13.53a8.21,8.21,0,0,0,3.53,5.49,16,16,0,0,1,5.06,5.2c.61,1,1.28,2.25,2.95,2.11.37,0,.74,1,1.26,1.4,3.63,2.6,3.13,6.57,3.48,10.26"/><path class="cls-2" d="M249,339c.5-.58,1.32-1.1,1.45-1.76,1.16-5.79,6.43-8.23,9.79-12.22.23-.27.47-.68.75-.73,3.47-.58,3.58-3.46,4.26-6a56.57,56.57,0,0,1,3.44-9.76A59.93,59.93,0,0,0,273,296.05a9.3,9.3,0,0,1,1.26-3.22c1.94-2.75,1.89-6,2.14-9a83.75,83.75,0,0,1,2.75-14.5c.63-2.36.66-4.87,2.57-6.72.05,0,.16,0,.37,0a10.53,10.53,0,0,1,2.46,5.22c1.5,6,1.85,12.14,2.42,18.25a1.86,1.86,0,0,0,.22,1c2.47,3.78,2.39,8.29,3.53,12.46,1.55,5.67,3.2,11.31,4.71,17,.5,1.87.64,3.83,1,5.74.32,1.5.12,3.37,1.75,4.21,2.62,1.34,3.1,3.89,4,6.27,1.12,3,2.26,6,4.46,8.52a5.77,5.77,0,0,0,3,2.08c3.64,1,5.78,4.11,7.38,7.21.71,1.38-.19,3.59-.35,5.42"/><path class="cls-2" d="M162.85,232.62c-.33,3.67-.06,7.52-1.14,10.95-1.65,5.23-.58,10.58-1.6,15.77a3.11,3.11,0,0,0,1,3c1.83,1.77,2.19,4.18,2.46,6.5a151.66,151.66,0,0,0,2.55,17c1.6,6.84,3.35,13.64,4.94,20.49a2.68,2.68,0,0,0,1.56,1.93c2.71,1.08,4.2,3.32,5.72,5.55a4.9,4.9,0,0,0,3.25,2.5"/><path class="cls-2" d="M217.55,261.59c-2,1.5-2.28,3.67-2.54,6-.81,7.13-3.19,13.89-5.2,20.73-.61,2.07-1.25,4.14-1.73,6.25a12.91,12.91,0,0,1-2.07,4.95c-1.75,2.3-3.76,4.39-5.55,6.7a24.35,24.35,0,0,0-3.93,6.06c-.93,2.4-2.18,4.64-5.46,4a2.49,2.49,0,0,0-1.24.23c-4.25,1.47-6.27.31-7-4-.08-.5-.17-1-.25-1.5"/><path class="cls-2" d="M355.92,262.59a5.33,5.33,0,0,0-1.95,3.75,75.33,75.33,0,0,1-2.06,10.23,78.12,78.12,0,0,0-1.53,9.73,47.55,47.55,0,0,1-1.45,5c-1.83,7.08-3.05,14.3-4.6,21.45-.5,2.31-.63,4.27.6,6.26"/><path class="cls-2" d="M118,275.82c-.79,3.75-1.41,7.54-2.43,11.23a8.31,8.31,0,0,0,2.3,8.75"/><path class="cls-2" d="M397.13,164c.17,1.45-.93,2.39-1.54,3.47-3.51,6.27-4,13.06-3.57,20,.24,4.26.9,8.44,3.08,12.25a27.57,27.57,0,0,0,3.18,4.84c1.66,1.79,4.53,1.93,7.09,1.88a24.38,24.38,0,0,0,17.74-8.11"/><path class="cls-2" d="M340.18,313c1.61,1.83.25,3.49-.23,5.25-1.14,4.14-2.29,8.29-3.23,12.49a5.91,5.91,0,0,1-5.78,4.91,4.54,4.54,0,0,0-4.51,3.56,4.9,4.9,0,0,1-1,2c-2.38,2.41-4.81,4.75-6.51,7.74-.28.5-1.12.69-1.71,1"/><path class="cls-2" d="M119.39,187.68a23.73,23.73,0,0,1-.2,3.25,2.65,2.65,0,0,0,.67,2.77,5.42,5.42,0,0,1,1.56,4.21,9.11,9.11,0,0,0,.53,3.72,8.78,8.78,0,0,1-.31,8.27"/><path class="cls-2" d="M160.1,261.59a5.44,5.44,0,0,0-2,3.74c-.92,5.31-1.29,10.82-3.77,15.7a25.62,25.62,0,0,0-2.93,9.28,2.73,2.73,0,0,1-.74,1.75c-1.53,1.61-3,1.33-3.76-.75-.22-.6-.49-1.17-.74-1.75"/><path class="cls-2" d="M137.12,211.15c1.55,1.31,1.78,3.13,2,5a124.29,124.29,0,0,1,.42,19.48c-.31,9.16-.46,18.34-1.41,27.47-.18,1.73.07,3.5-.05,5.24s-.45,3.53-2,4.75"/><path class="cls-2" d="M120.14,186.93a24.08,24.08,0,0,0,1.74-1.76c2.18-2.68,3.24-2.65,5,.28a3.64,3.64,0,0,1,.58,1.22c1,5.19,3.76,9.85,4.31,15.23.27,2.6,3.43,7.22,5.38,9.25"/><path class="cls-2" d="M421.36,175.69c-.09-1.08-.08-2.18-.27-3.24-.58-3.3-1.43-6.29-5.21-7.55-3.12-1-5.86-3-9.25-3.48a11.16,11.16,0,0,0-6.51.78,21,21,0,0,1-5,1.36c-3.71.77-6.38,3.28-8.52,6.38-4.13,6-4.62,12.55-3.52,19.49,1.06,6.62,4.69,11.34,10.28,14.71a5.21,5.21,0,0,0,4.49.52"/><path class="cls-2" d="M127.61,270.1a7.3,7.3,0,0,0,5.52,3.5c2.26.28,3,1.88,3.27,4a33.13,33.13,0,0,1-.58,9.94c-.56,3.24-.8,6.56-1.53,9.77-.45,1.94-1.14,4.09-3.64,4.82-1.25.36-2.07,1.59-2.75,2.7-1.45,2.37-3.65,3.18-6.26,3.24"/><path class="cls-2" d="M104.16,266.33c2.72,2.69,3.17,6.46,4.38,9.78,1.56,4.32,1.21,4.44,5.61,5l2.24.25"/><path class="cls-2" d="M109.65,196.84c-1.17,1,.18,22.47,0,24s5.86,43.46,5.11,45a2.84,2.84,0,0,0,0,2.2c1.21,2.53,1.62,5.39,3.2,7.76"/><path class="cls-2" d="M217.8,231.63c.53,2.64.19,5.32.2,8a4.17,4.17,0,0,0,.3,2.24c.15.26.53.57.47.74-1.7,5.27-.33,10.67-.72,16-.07.84-.17,1.67-.25,2.5"/><path class="cls-2" d="M219.05,242.36h17.48"/><path class="cls-2" d="M113.9,183.93c-1.93,1.11-2.56,3-3,5-.65,3-1.75,5.89-2,9a4.07,4.07,0,0,1-1.71,2.5"/><path class="cls-2" d="M129.88,273.08c.25,2.16-.23,4.3-.1,6.49.23,3.89-2.58,6-5.64,7.74"/><path class="cls-2" d="M548,256.1a4.83,4.83,0,0,0-1.43-4.07c-2.89-2.93-6.4-5.31-8.39-9.13-.4-.76-1.76-1-2.86-1.62l-2.56,2.58"/><path class="cls-2" d="M186.08,242.36h-16"/><path class="cls-2" d="M287,242.36H271"/><path class="cls-2" d="M337.44,242.36h-16"/><path class="cls-2" d="M85.17,242.36h-16"/><path class="cls-2" d="M387.39,242.36H371.9"/><path class="cls-2" d="M437.84,242.36H422.36"/><path class="cls-2" d="M488.29,242.36H472.81"/><path class="cls-2" d="M499.53,346c-.24,1,.52,1.8.58,2.67-4.34,4.66-7.32,10.35-12.32,14.31"/><path class="cls-2" d="M480.55,362.22c-1.84-1-2.73-2.94-4-4.5s-6.54-2.16-8-.73c-.86.84-.4,2-.51,3"/><path class="cls-2" d="M548,225.63c.3,1.78-.44,3-1.71,4.29-3.57,3.59-7.49,6.85-10.53,10.94"/><path class="cls-2" d="M522.51,225.63c-.3,1.78.44,3,1.71,4.29,3.57,3.59,7.49,6.85,10.53,10.94"/><path class="cls-2" d="M584,242.36H573.71"/><path class="cls-2" d="M531.25,244.86c-2.33,2.33-4.58,4.75-7,7a4.4,4.4,0,0,0-1.72,4.28"/><path class="cls-2" d="M145.74,295.05c-.31-1.48-1.74-.28-2.37-1-1.33-1.5-3.49-2.14-4.08-4.47a2.65,2.65,0,0,0-2.91-2"/><path class="cls-2" d="M115.91,185.16a16.88,16.88,0,0,1,3,2.27"/><path class="cls-2" d="M480.05,365.47c.35-1.42-.21-3.39,2-3.73s4.26.07,5.74,2"/><path class="cls-2" d="M140.87,292.55l-1.25,3"/><path class="cls-2" d="M263.51,324.27l1,2.74"/><path class="cls-2" d="M436.34,276.82c-.08.75-.16,1.5-.25,2.25"/></g><path class="cls-4" d="M639.29,51.53c-290,0-525,84.59-525,188.94s235.07,188.94,525,188.94"/><ellipse class="cls-3" cx="121.38" cy="234.75" rx="8.57" ry="69.83"/><ellipse class="cls-3" cx="122.05" cy="236.62" rx="2.97" ry="53.51"/><ellipse class="cls-3" cx="112.83" cy="234.48" rx="9.22" ry="69.56"/><path class="cls-5" d="M75.55,872.61a5.18,5.18,0,0,1-3.23-.86,4.17,4.17,0,0,1-1.47-2.41,15.66,15.66,0,0,1-.37-3.63v-4a15.5,15.5,0,0,1,.39-3.74,4.1,4.1,0,0,1,1.48-2.37,5.27,5.27,0,0,1,3.2-.82,5.75,5.75,0,0,1,2.92.61,3.18,3.18,0,0,1,1.43,1.83,10,10,0,0,1,.39,3v1H77.38v-1a8.5,8.5,0,0,0-.15-1.8,1.61,1.61,0,0,0-.54-1,2.19,2.19,0,0,0-2.31.06,1.94,1.94,0,0,0-.56,1.21,15.86,15.86,0,0,0-.13,2.33v5.46a6.93,6.93,0,0,0,.42,3,1.57,1.57,0,0,0,1.5.75,1.61,1.61,0,0,0,1.18-.38,1.84,1.84,0,0,0,.48-1.06,10.4,10.4,0,0,0,.11-1.56v-1.41h2.91V867a9.84,9.84,0,0,1-.41,3A3.44,3.44,0,0,1,78.44,872,5.35,5.35,0,0,1,75.55,872.61Z"/><path class="cls-5" d="M83.23,872.37v-24.3h3.21v8.76a9.28,9.28,0,0,1,2-1.44,4.86,4.86,0,0,1,2.4-.6,2.15,2.15,0,0,1,1.57.54,2.94,2.94,0,0,1,.78,1.35,6.14,6.14,0,0,1,.23,1.65v14H90.16V859.26a3.13,3.13,0,0,0-.27-1.44,1.14,1.14,0,0,0-1.11-.51,2.52,2.52,0,0,0-1.19.33,6,6,0,0,0-1.15.81v13.92Z"/><path class="cls-5" d="M99.1,872.61a2.92,2.92,0,0,1-1.8-.59,4.11,4.11,0,0,1-1.23-1.5,4.31,4.31,0,0,1-.45-1.93,6.21,6.21,0,0,1,.54-2.73A5.45,5.45,0,0,1,97.64,864a10.21,10.21,0,0,1,2.19-1.33c.83-.38,1.71-.75,2.63-1.11v-1.23a10.44,10.44,0,0,0-.12-1.74,1.79,1.79,0,0,0-.5-1,1.6,1.6,0,0,0-1.12-.34,1.76,1.76,0,0,0-1.07.3,1.65,1.65,0,0,0-.58.85,4.28,4.28,0,0,0-.18,1.31v.87l-3.18-.12A6.32,6.32,0,0,1,97,856.15a5.06,5.06,0,0,1,3.9-1.36,4.33,4.33,0,0,1,3.66,1.41,6.61,6.61,0,0,1,1.08,4.08v7.92c0,.54,0,1.06,0,1.56s.07,1,.12,1.39.1.84.14,1.22H103c-.06-.32-.14-.73-.23-1.22s-.15-.93-.19-1.33a4.62,4.62,0,0,1-1.16,1.9A3.11,3.11,0,0,1,99.1,872.61Zm1.26-2.76a1.63,1.63,0,0,0,.9-.27A4.13,4.13,0,0,0,102,869a3.2,3.2,0,0,0,.45-.55v-4.92q-.75.42-1.41.84a7.83,7.83,0,0,0-1.16.88,3.59,3.59,0,0,0-.78,1,3.53,3.53,0,0,0,.11,3A1.27,1.27,0,0,0,100.36,869.85Z"/><path class="cls-5" d="M113.35,872.61a4.11,4.11,0,0,1-2.18-.51,2.94,2.94,0,0,1-1.2-1.44,5.84,5.84,0,0,1-.37-2.19V857.16h-1.83V855h1.83V850h3.21V855h2.79v2.13h-2.79v11.1a2.44,2.44,0,0,0,.33,1.45,1.51,1.51,0,0,0,1.26.44l.55,0,.62-.06v2.37c-.4.06-.77.1-1.11.13S113.75,872.61,113.35,872.61Z"/><path class="cls-5" d="M122.59,872.61a4.11,4.11,0,0,1-2.18-.51,2.94,2.94,0,0,1-1.2-1.44,5.84,5.84,0,0,1-.37-2.19V857.16H117V855h1.83V850h3.21V855h2.79v2.13h-2.79v11.1a2.44,2.44,0,0,0,.33,1.45,1.51,1.51,0,0,0,1.26.44l.55,0,.62-.06v2.37c-.4.06-.77.1-1.11.13S123,872.61,122.59,872.61Z"/><path class="cls-5" d="M132,872.61a5.35,5.35,0,0,1-3.15-.8,4.15,4.15,0,0,1-1.55-2.34,14.18,14.18,0,0,1-.43-3.79v-4a13.85,13.85,0,0,1,.45-3.84,4.1,4.1,0,0,1,1.57-2.31,5.4,5.4,0,0,1,3.11-.78,4.82,4.82,0,0,1,3.22.9,4.42,4.42,0,0,1,1.37,2.59,21.65,21.65,0,0,1,.33,4.07v1.41h-6.84v3.48a6.21,6.21,0,0,0,.19,1.71,1.76,1.76,0,0,0,.63,1,1.89,1.89,0,0,0,1.13.32,1.55,1.55,0,0,0,1.09-.35,1.8,1.8,0,0,0,.51-1,7.39,7.39,0,0,0,.14-1.51v-1h3.12V867a6.78,6.78,0,0,1-1.11,4.11A4.4,4.4,0,0,1,132,872.61ZM130.09,862h3.69v-1.56a11.6,11.6,0,0,0-.12-1.82,2,2,0,0,0-.5-1.11,1.61,1.61,0,0,0-1.18-.37,1.75,1.75,0,0,0-1.19.36,2,2,0,0,0-.55,1.21,14.43,14.43,0,0,0-.15,2.36Z"/><path class="cls-5" d="M139.93,872.37V855h3.21v2.46a5.83,5.83,0,0,1,1.92-2.13,3.89,3.89,0,0,1,1.92-.54h.22l.29,0v3.54a5.09,5.09,0,0,0-.83-.26,4.23,4.23,0,0,0-.94-.1,2.76,2.76,0,0,0-1.37.34,3.67,3.67,0,0,0-1.21,1.34v12.66Z"/><path class="cls-5" d="M149.56,872.37V855h3.21v2.46a5.83,5.83,0,0,1,1.92-2.13,3.89,3.89,0,0,1,1.92-.54h.22l.29,0v3.54a5.09,5.09,0,0,0-.83-.26,4.23,4.23,0,0,0-.94-.1,2.76,2.76,0,0,0-1.37.34,3.67,3.67,0,0,0-1.21,1.34v12.66Z"/><path class="cls-5" d="M159.31,852.45v-3.36h3.21v3.36Zm0,19.92V855h3.21v17.34Z"/><path class="cls-5" d="M166,872.37V855h3.21v1.71a9.36,9.36,0,0,1,1.92-1.38,4.76,4.76,0,0,1,2.31-.57,2.2,2.2,0,0,1,1.6.54,2.94,2.94,0,0,1,.78,1.35,6.14,6.14,0,0,1,.23,1.65v14h-3.21V859.26a3.13,3.13,0,0,0-.27-1.44,1.14,1.14,0,0,0-1.11-.51,2.38,2.38,0,0,0-1.13.31,6.77,6.77,0,0,0-1.12.77v14Z"/><path class="cls-5" d="M183.73,877.8a11,11,0,0,1-2.87-.35,4.48,4.48,0,0,1-2-1.06,2.52,2.52,0,0,1-.73-1.89,2.94,2.94,0,0,1,.42-1.58,4.07,4.07,0,0,1,1.08-1.15A5.81,5.81,0,0,1,181,871l1.5.21c-.26.24-.51.48-.75.73a4.28,4.28,0,0,0-.6.78,1.72,1.72,0,0,0-.24.89,1.26,1.26,0,0,0,.67,1.17,5.27,5.27,0,0,0,2.42.39,6,6,0,0,0,2.53-.41,1.34,1.34,0,0,0,.83-1.27,1.7,1.7,0,0,0-.21-.89,1.44,1.44,0,0,0-.72-.55,5.34,5.34,0,0,0-1.47-.3l-3.78-.48a2.81,2.81,0,0,1-1.74-.75,1.88,1.88,0,0,1-.57-1.32,2.79,2.79,0,0,1,.61-1.83,15.34,15.34,0,0,1,1.67-1.68l1.08.84c-.12.16-.27.38-.45.67a1.63,1.63,0,0,0-.27.86.61.61,0,0,0,.34.54,2.61,2.61,0,0,0,1.1.27l2.91.27a4.56,4.56,0,0,1,3,1.23,4.88,4.88,0,0,1,.31,5.43,4,4,0,0,1-2,1.48A10.15,10.15,0,0,1,183.73,877.8Zm.12-10.77a4.9,4.9,0,0,1-2.88-.78,4.54,4.54,0,0,1-1.64-2.16,10.06,10.06,0,0,1,0-6.53,4.32,4.32,0,0,1,1.69-2.07,5.15,5.15,0,0,1,2.78-.7,4.36,4.36,0,0,1,2.79.85,5,5,0,0,1,1.59,2.27,9.12,9.12,0,0,1,.51,3.12,9.67,9.67,0,0,1-.47,3.13,4.14,4.14,0,0,1-1.53,2.12A4.93,4.93,0,0,1,183.85,867Zm0-2.31a1.9,1.9,0,0,0,1.05-.26,1.52,1.52,0,0,0,.58-.73,4.46,4.46,0,0,0,.27-1.19,15.12,15.12,0,0,0,.08-1.6q0-.9-.06-1.62a4,4,0,0,0-.27-1.22,1.7,1.7,0,0,0-.6-.76,1.76,1.76,0,0,0-1-.27,2,2,0,0,0-1.07.25,1.68,1.68,0,0,0-.63.75,4,4,0,0,0-.3,1.22,16.21,16.21,0,0,0-.07,1.65,14,14,0,0,0,.07,1.5,4.4,4.4,0,0,0,.29,1.2,1.74,1.74,0,0,0,.61.79A1.83,1.83,0,0,0,183.85,864.72Zm4.29-6.78-.75-1.2a4.12,4.12,0,0,1,1.08-1,9,9,0,0,1,1.8-1.05l.84,2.1a10.62,10.62,0,0,0-1.13.33c-.47.16-.89.32-1.27.49S188.14,857.86,188.14,857.94Z"/><path class="cls-5" d="M204,872.61a5.18,5.18,0,0,1-3.23-.86,4.17,4.17,0,0,1-1.47-2.41,15.66,15.66,0,0,1-.37-3.63v-4a15.5,15.5,0,0,1,.39-3.74,4.1,4.1,0,0,1,1.48-2.37,5.27,5.27,0,0,1,3.2-.82,5.75,5.75,0,0,1,2.92.61,3.18,3.18,0,0,1,1.43,1.83,10,10,0,0,1,.39,3v1h-2.91v-1a8.5,8.5,0,0,0-.15-1.8,1.61,1.61,0,0,0-.54-1,2.19,2.19,0,0,0-2.31.06,1.94,1.94,0,0,0-.56,1.21,15.86,15.86,0,0,0-.13,2.33v5.46a6.93,6.93,0,0,0,.42,3,1.57,1.57,0,0,0,1.5.75,1.61,1.61,0,0,0,1.18-.38,1.84,1.84,0,0,0,.48-1.06,10.4,10.4,0,0,0,.11-1.56v-1.41h2.91V867a9.84,9.84,0,0,1-.41,3,3.44,3.44,0,0,1-1.44,1.92A5.35,5.35,0,0,1,204,872.61Z"/><path class="cls-5" d="M211.87,872.37v-24.3h3.21v24.3Z"/><path class="cls-5" d="M223.21,872.61a5.19,5.19,0,0,1-3-.78,4.2,4.2,0,0,1-1.58-2.22,11.08,11.08,0,0,1-.46-3.39v-5a11.08,11.08,0,0,1,.46-3.39,4.2,4.2,0,0,1,1.58-2.22,5.19,5.19,0,0,1,3-.78,5.1,5.1,0,0,1,3,.78,4.22,4.22,0,0,1,1.56,2.22,11.06,11.06,0,0,1,.47,3.39v5a11.06,11.06,0,0,1-.47,3.39,4.22,4.22,0,0,1-1.56,2.22A5.1,5.1,0,0,1,223.21,872.61Zm0-2.37a1.47,1.47,0,0,0,1.3-.54,2.91,2.91,0,0,0,.45-1.43c0-.59.08-1.2.08-1.84V861c0-.66,0-1.28-.08-1.86a3,3,0,0,0-.45-1.43,1.45,1.45,0,0,0-1.3-.55,1.5,1.5,0,0,0-1.32.55,2.89,2.89,0,0,0-.47,1.43c0,.58-.07,1.2-.07,1.86v5.43c0,.64,0,1.25.07,1.84a2.82,2.82,0,0,0,.47,1.43A1.52,1.52,0,0,0,223.21,870.24Z"/><path class="cls-5" d="M235.21,872.61a4.54,4.54,0,0,1-3.42-1.34,5.53,5.53,0,0,1-1.47-3.52l2.67-.81a5.89,5.89,0,0,0,.81,2.47,1.91,1.91,0,0,0,1.68.83,1.7,1.7,0,0,0,1.32-.5,1.9,1.9,0,0,0,.45-1.33,2.75,2.75,0,0,0-.33-1.35,4.53,4.53,0,0,0-1.08-1.23l-3-2.55a8.05,8.05,0,0,1-1.52-1.74,5.3,5.3,0,0,1-.06-4.82,3.62,3.62,0,0,1,1.56-1.44,5.29,5.29,0,0,1,2.36-.49,4.1,4.1,0,0,1,3.3,1.33,5.68,5.68,0,0,1,1.32,3.23l-2.28.81a7.86,7.86,0,0,0-.36-1.58,2.36,2.36,0,0,0-.69-1.05,1.76,1.76,0,0,0-1.17-.37,1.59,1.59,0,0,0-1.25.52,1.82,1.82,0,0,0-.46,1.25,2.12,2.12,0,0,0,.19.88,2.6,2.6,0,0,0,.68.86l3.06,2.82a12.49,12.49,0,0,1,1.18,1.23,6,6,0,0,1,.92,1.5,4.92,4.92,0,0,1,.36,1.95,4.67,4.67,0,0,1-.6,2.46,3.73,3.73,0,0,1-1.68,1.48A6,6,0,0,1,235.21,872.61Z"/><path class="cls-5" d="M247.21,872.61a5.35,5.35,0,0,1-3.15-.8,4.15,4.15,0,0,1-1.55-2.34,14.18,14.18,0,0,1-.43-3.79v-4a13.85,13.85,0,0,1,.45-3.84,4.1,4.1,0,0,1,1.57-2.31,5.4,5.4,0,0,1,3.11-.78,4.82,4.82,0,0,1,3.22.9,4.42,4.42,0,0,1,1.37,2.59,21.65,21.65,0,0,1,.33,4.07v1.41h-6.84v3.48a6.21,6.21,0,0,0,.19,1.71,1.76,1.76,0,0,0,.63,1,1.89,1.89,0,0,0,1.13.32,1.55,1.55,0,0,0,1.09-.35,1.8,1.8,0,0,0,.51-1,7.39,7.39,0,0,0,.14-1.51v-1h3.12V867a6.78,6.78,0,0,1-1.11,4.11A4.4,4.4,0,0,1,247.21,872.61ZM245.29,862H249v-1.56a11.6,11.6,0,0,0-.12-1.82,2,2,0,0,0-.5-1.11,1.61,1.61,0,0,0-1.18-.37,1.75,1.75,0,0,0-1.19.36,2,2,0,0,0-.55,1.21,14.43,14.43,0,0,0-.15,2.36Z"/><path class="cls-5" d="M266.53,872.61a4.11,4.11,0,0,1-2.18-.51,2.94,2.94,0,0,1-1.2-1.44,5.84,5.84,0,0,1-.37-2.19V857.16H261V855h1.83V850H266V855h2.79v2.13H266v11.1a2.37,2.37,0,0,0,.33,1.45,1.51,1.51,0,0,0,1.26.44l.55,0,.62-.06v2.37c-.41.06-.77.1-1.11.13S266.93,872.61,266.53,872.61Z"/><path class="cls-5" d="M275.92,872.61a5.17,5.17,0,0,1-3-.78,4.15,4.15,0,0,1-1.58-2.22,11.06,11.06,0,0,1-.47-3.39v-5a11.06,11.06,0,0,1,.47-3.39,4.15,4.15,0,0,1,1.58-2.22,5.17,5.17,0,0,1,3-.78,5.1,5.1,0,0,1,3,.78,4.22,4.22,0,0,1,1.56,2.22,11.06,11.06,0,0,1,.47,3.39v5a11.06,11.06,0,0,1-.47,3.39,4.22,4.22,0,0,1-1.56,2.22A5.1,5.1,0,0,1,275.92,872.61Zm0-2.37a1.48,1.48,0,0,0,1.3-.54,2.91,2.91,0,0,0,.45-1.43c.05-.59.08-1.2.08-1.84V861c0-.66,0-1.28-.08-1.86a3,3,0,0,0-.45-1.43,1.46,1.46,0,0,0-1.3-.55,1.52,1.52,0,0,0-1.33.55,3,3,0,0,0-.46,1.43c-.05.58-.08,1.2-.08,1.86v5.43c0,.64,0,1.25.08,1.84a2.92,2.92,0,0,0,.46,1.43A1.54,1.54,0,0,0,275.92,870.24Z"/><path class="cls-5" d="M294.78,872.61a4.54,4.54,0,0,1-3.42-1.34,5.53,5.53,0,0,1-1.47-3.52l2.67-.81a5.89,5.89,0,0,0,.81,2.47,1.91,1.91,0,0,0,1.68.83,1.7,1.7,0,0,0,1.32-.5,1.9,1.9,0,0,0,.45-1.33,2.75,2.75,0,0,0-.33-1.35,4.53,4.53,0,0,0-1.08-1.23l-3-2.55a8,8,0,0,1-1.51-1.74,5.22,5.22,0,0,1-.06-4.82,3.62,3.62,0,0,1,1.56-1.44,5.25,5.25,0,0,1,2.35-.49,4.1,4.1,0,0,1,3.3,1.33,5.68,5.68,0,0,1,1.32,3.23l-2.28.81a7.86,7.86,0,0,0-.36-1.58,2.36,2.36,0,0,0-.69-1.05,1.76,1.76,0,0,0-1.17-.37,1.57,1.57,0,0,0-1.24.52,1.83,1.83,0,0,0-.47,1.25,2.13,2.13,0,0,0,.2.88,2.55,2.55,0,0,0,.67.86l3.06,2.82a12.59,12.59,0,0,1,1.19,1.23,6,6,0,0,1,.91,1.5,4.92,4.92,0,0,1,.36,1.95,4.67,4.67,0,0,1-.6,2.46,3.73,3.73,0,0,1-1.68,1.48A6,6,0,0,1,294.78,872.61Z"/><path class="cls-5" d="M304.59,872.61a2.92,2.92,0,0,1-1.8-.59,4.11,4.11,0,0,1-1.23-1.5,4.31,4.31,0,0,1-.45-1.93,6.21,6.21,0,0,1,.54-2.73,5.48,5.48,0,0,1,1.49-1.88,10.21,10.21,0,0,1,2.19-1.33c.83-.38,1.7-.75,2.62-1.11v-1.23a10.44,10.44,0,0,0-.12-1.74,1.78,1.78,0,0,0-.49-1,1.62,1.62,0,0,0-1.13-.34,1.73,1.73,0,0,0-1.06.3,1.66,1.66,0,0,0-.59.85,4.28,4.28,0,0,0-.18,1.31v.87l-3.18-.12a6.32,6.32,0,0,1,1.32-4.25,5.06,5.06,0,0,1,3.9-1.36,4.33,4.33,0,0,1,3.66,1.41,6.61,6.61,0,0,1,1.08,4.08v7.92c0,.54,0,1.06,0,1.56s.07,1,.12,1.39.09.84.13,1.22h-2.94c-.06-.32-.13-.73-.22-1.22s-.16-.93-.2-1.33a4.59,4.59,0,0,1-1.15,1.9A3.14,3.14,0,0,1,304.59,872.61Zm1.26-2.76a1.63,1.63,0,0,0,.9-.27,4.13,4.13,0,0,0,.75-.62,3.2,3.2,0,0,0,.45-.55v-4.92q-.75.42-1.41.84a7.72,7.72,0,0,0-1.15.88,3.59,3.59,0,0,0-.78,1,3.47,3.47,0,0,0,.1,3A1.27,1.27,0,0,0,305.85,869.85Z"/><path class="cls-5" d="M315.27,872.37v-15H313.2V855h2.07v-.9a13.07,13.07,0,0,1,.26-2.78,3,3,0,0,1,1.06-1.78,3.92,3.92,0,0,1,2.43-.63c.4,0,.76,0,1.07,0a9.55,9.55,0,0,1,1,.17v2.34c-.18,0-.38-.08-.6-.11a4.41,4.41,0,0,0-.6,0c-.62,0-1,.2-1.18.61a4.36,4.36,0,0,0-.26,1.64V855h2.64v2.37h-2.64v15Z"/><path class="cls-5" d="M327.06,872.61a5.35,5.35,0,0,1-3.15-.8,4.13,4.13,0,0,1-1.54-2.34,14.14,14.14,0,0,1-.44-3.79v-4a13.85,13.85,0,0,1,.45-3.84,4.11,4.11,0,0,1,1.58-2.31,5.36,5.36,0,0,1,3.1-.78,4.85,4.85,0,0,1,3.23.9,4.41,4.41,0,0,1,1.36,2.59,21.65,21.65,0,0,1,.33,4.07v1.41h-6.84v3.48a6.16,6.16,0,0,0,.2,1.71,1.76,1.76,0,0,0,.63,1,1.86,1.86,0,0,0,1.12.32,1.58,1.58,0,0,0,1.1-.35,1.8,1.8,0,0,0,.51-1,7.45,7.45,0,0,0,.13-1.51v-1H332V867a6.78,6.78,0,0,1-1.11,4.11A4.4,4.4,0,0,1,327.06,872.61ZM325.14,862h3.69v-1.56a11.6,11.6,0,0,0-.12-1.82,2,2,0,0,0-.49-1.11,1.63,1.63,0,0,0-1.19-.37,1.72,1.72,0,0,0-1.18.36,2,2,0,0,0-.56,1.21,14.43,14.43,0,0,0-.15,2.36Z"/><path class="cls-5" d="M339.51,872.61a4.08,4.08,0,0,1-2.17-.51,2.94,2.94,0,0,1-1.2-1.44,5.83,5.83,0,0,1-.38-2.19V857.16h-1.83V855h1.83V850H339V855h2.79v2.13H339v11.1a2.44,2.44,0,0,0,.33,1.45,1.51,1.51,0,0,0,1.26.44l.56,0,.61-.06v2.37c-.4.06-.77.1-1.11.13S339.91,872.61,339.51,872.61Z"/><path class="cls-5" d="M343.86,876.72v-2.46a12.84,12.84,0,0,0,1.86-.11,1.83,1.83,0,0,0,1-.39,1,1,0,0,0,.3-.79,7.35,7.35,0,0,0-.21-1.2l-.45-2L342.87,855h3.24l2.34,13,2.25-13h3.24l-4.14,18.3a4,4,0,0,1-1,2,4.16,4.16,0,0,1-1.84,1.07,9.78,9.78,0,0,1-2.72.33Z"/><path class="cls-5" d="M369,872.61a3,3,0,0,1-1.66-.47,6.64,6.64,0,0,1-1.28-1v1.26h-3.21v-24.3H366v8.34a5.66,5.66,0,0,1,1.37-1.14,3.6,3.6,0,0,1,1.9-.48,3.13,3.13,0,0,1,2.15.7,4.28,4.28,0,0,1,1.18,1.77,9.17,9.17,0,0,1,.51,2.16,17.68,17.68,0,0,1,.12,1.88v4.2a16,16,0,0,1-.36,3.46,5.56,5.56,0,0,1-1.29,2.64A3.42,3.42,0,0,1,369,872.61Zm-.66-2.52a1.28,1.28,0,0,0,1.2-.62,4,4,0,0,0,.45-1.66q.09-1,.09-2.31v-4.2a15.47,15.47,0,0,0-.12-2,3.14,3.14,0,0,0-.51-1.45,1.41,1.41,0,0,0-1.23-.54,2.65,2.65,0,0,0-1.18.27,5.43,5.43,0,0,0-1,.6v11.13a3.88,3.88,0,0,0,1,.55A3.5,3.5,0,0,0,368.31,870.09Z"/><path class="cls-5" d="M380.94,872.61a5.19,5.19,0,0,1-3-.78,4.18,4.18,0,0,1-1.57-2.22,11.06,11.06,0,0,1-.47-3.39v-5a11.06,11.06,0,0,1,.47-3.39,4.18,4.18,0,0,1,1.57-2.22,5.19,5.19,0,0,1,3-.78,5.13,5.13,0,0,1,3,.78,4.22,4.22,0,0,1,1.56,2.22,11.08,11.08,0,0,1,.46,3.39v5a11.08,11.08,0,0,1-.46,3.39,4.22,4.22,0,0,1-1.56,2.22A5.13,5.13,0,0,1,380.94,872.61Zm0-2.37a1.49,1.49,0,0,0,1.31-.54,2.91,2.91,0,0,0,.45-1.43c.05-.59.07-1.2.07-1.84V861c0-.66,0-1.28-.07-1.86a3,3,0,0,0-.45-1.43,1.47,1.47,0,0,0-1.31-.55,1.5,1.5,0,0,0-1.32.55,2.88,2.88,0,0,0-.46,1.43c-.05.58-.08,1.2-.08,1.86v5.43c0,.64,0,1.25.08,1.84a2.82,2.82,0,0,0,.46,1.43A1.52,1.52,0,0,0,380.94,870.24Z"/><path class="cls-5" d="M391.41,872.61a2.22,2.22,0,0,1-1.59-.54,2.87,2.87,0,0,1-.79-1.35,6.14,6.14,0,0,1-.23-1.65V855H392v13.08a3.2,3.2,0,0,0,.27,1.45,1.13,1.13,0,0,0,1.11.53,2.4,2.4,0,0,0,1.13-.32,6.7,6.7,0,0,0,1.12-.76V855h3.21v17.34h-3.21v-1.71a8.49,8.49,0,0,1-1.9,1.38A4.87,4.87,0,0,1,391.41,872.61Z"/><path class="cls-5" d="M402.12,872.37V855h3.21v1.71a9.36,9.36,0,0,1,1.92-1.38,4.76,4.76,0,0,1,2.31-.57,2.22,2.22,0,0,1,1.61.54,2.94,2.94,0,0,1,.78,1.35,6.13,6.13,0,0,1,.22,1.65v14H409V859.26a3.13,3.13,0,0,0-.27-1.44,1.14,1.14,0,0,0-1.11-.51,2.35,2.35,0,0,0-1.12.31,6.84,6.84,0,0,0-1.13.77v14Z"/><path class="cls-5" d="M419.31,872.61A3.68,3.68,0,0,1,416,871Q415,869.4,415,865.56V862.2a19.3,19.3,0,0,1,.33-3.68,5.55,5.55,0,0,1,1.25-2.71,3.41,3.41,0,0,1,2.68-1,3.28,3.28,0,0,1,1.59.39,5.56,5.56,0,0,1,1.29,1v-8.07h3.21v24.3H422.1v-1.11a5.15,5.15,0,0,1-1.24,1A3.15,3.15,0,0,1,419.31,872.61Zm.81-2.52a3.14,3.14,0,0,0,1-.17,4.32,4.32,0,0,0,1-.49V858.06a5.23,5.23,0,0,0-.93-.53,2.72,2.72,0,0,0-1.11-.22,1.47,1.47,0,0,0-1.5,1.06,7.51,7.51,0,0,0-.39,2.57v4.89a15.83,15.83,0,0,0,.14,2.17,3.25,3.25,0,0,0,.55,1.53A1.48,1.48,0,0,0,420.12,870.09Z"/><path class="cls-5" d="M431.16,872.61a2.92,2.92,0,0,1-1.8-.59,4.11,4.11,0,0,1-1.23-1.5,4.31,4.31,0,0,1-.45-1.93,6.21,6.21,0,0,1,.54-2.73,5.48,5.48,0,0,1,1.49-1.88,10.21,10.21,0,0,1,2.19-1.33c.83-.38,1.7-.75,2.62-1.11v-1.23a10.44,10.44,0,0,0-.12-1.74,1.78,1.78,0,0,0-.49-1,1.62,1.62,0,0,0-1.13-.34,1.73,1.73,0,0,0-1.06.3,1.66,1.66,0,0,0-.59.85,4.28,4.28,0,0,0-.18,1.31v.87l-3.18-.12a6.32,6.32,0,0,1,1.32-4.25,5.06,5.06,0,0,1,3.9-1.36,4.33,4.33,0,0,1,3.66,1.41,6.61,6.61,0,0,1,1.08,4.08v7.92c0,.54,0,1.06,0,1.56s.07,1,.12,1.39.09.84.13,1.22h-2.94c-.06-.32-.13-.73-.22-1.22s-.16-.93-.2-1.33a4.59,4.59,0,0,1-1.15,1.9A3.14,3.14,0,0,1,431.16,872.61Zm1.26-2.76a1.63,1.63,0,0,0,.9-.27,4.13,4.13,0,0,0,.75-.62,3.2,3.2,0,0,0,.45-.55v-4.92q-.75.42-1.41.84a7.72,7.72,0,0,0-1.15.88,3.59,3.59,0,0,0-.78,1,3.47,3.47,0,0,0,.1,3A1.27,1.27,0,0,0,432.42,869.85Z"/><path class="cls-5" d="M440.91,872.37V855h3.21v2.46a5.83,5.83,0,0,1,1.92-2.13,3.89,3.89,0,0,1,1.92-.54h.23l.28,0v3.54a5,5,0,0,0-.82-.26,4.32,4.32,0,0,0-.95-.1,2.72,2.72,0,0,0-1.36.34,3.68,3.68,0,0,0-1.22,1.34v12.66Z"/><path class="cls-5" d="M450.18,876.72v-2.46a12.84,12.84,0,0,0,1.86-.11,1.83,1.83,0,0,0,1-.39,1,1,0,0,0,.3-.79,7.35,7.35,0,0,0-.21-1.2l-.45-2L449.19,855h3.24l2.34,13L457,855h3.24l-4.14,18.3a4,4,0,0,1-1,2,4.16,4.16,0,0,1-1.84,1.07,9.78,9.78,0,0,1-2.72.33Z"/><path class="cls-5" d="M635.94,197.22a4.54,4.54,0,0,1-3.42-1.34,5.53,5.53,0,0,1-1.47-3.52l2.67-.81a5.89,5.89,0,0,0,.81,2.47,1.91,1.91,0,0,0,1.68.83,1.7,1.7,0,0,0,1.32-.5A1.9,1.9,0,0,0,638,193a2.75,2.75,0,0,0-.33-1.35,4.53,4.53,0,0,0-1.08-1.23l-3-2.55a8.05,8.05,0,0,1-1.52-1.74,5.3,5.3,0,0,1-.06-4.82,3.62,3.62,0,0,1,1.56-1.44,5.29,5.29,0,0,1,2.36-.49,4.1,4.1,0,0,1,3.3,1.33,5.68,5.68,0,0,1,1.32,3.23l-2.28.81a7.86,7.86,0,0,0-.36-1.58,2.36,2.36,0,0,0-.69-1.05,1.76,1.76,0,0,0-1.17-.37,1.59,1.59,0,0,0-1.25.52,1.82,1.82,0,0,0-.46,1.25,2.12,2.12,0,0,0,.19.88,2.6,2.6,0,0,0,.68.86l3.06,2.82a12.49,12.49,0,0,1,1.18,1.23,6,6,0,0,1,.92,1.5,4.92,4.92,0,0,1,.36,1.95,4.67,4.67,0,0,1-.6,2.46,3.73,3.73,0,0,1-1.68,1.48A6,6,0,0,1,635.94,197.22Z"/><path class="cls-5" d="M645.63,197.22a2.22,2.22,0,0,1-1.59-.54,2.89,2.89,0,0,1-.8-1.35,6.13,6.13,0,0,1-.22-1.65v-14h3.21v13.08a3.2,3.2,0,0,0,.27,1.45,1.13,1.13,0,0,0,1.11.53,2.36,2.36,0,0,0,1.12-.32,6.78,6.78,0,0,0,1.13-.76v-14h3.21V197h-3.21v-1.71a8.55,8.55,0,0,1-1.91,1.38A4.83,4.83,0,0,1,645.63,197.22Z"/><path class="cls-5" d="M662.55,197.22a3.07,3.07,0,0,1-1.67-.47,6.56,6.56,0,0,1-1.27-1V197H656.4v-24.3h3.21V181a5.61,5.61,0,0,1,1.36-1.14,3.64,3.64,0,0,1,1.91-.48,3.1,3.1,0,0,1,2.14.7,4.3,4.3,0,0,1,1.19,1.77,9.17,9.17,0,0,1,.51,2.16,17.68,17.68,0,0,1,.12,1.88v4.2a16,16,0,0,1-.36,3.46,5.56,5.56,0,0,1-1.29,2.64A3.42,3.42,0,0,1,662.55,197.22Zm-.66-2.52a1.28,1.28,0,0,0,1.2-.62,4,4,0,0,0,.45-1.66q.09-1,.09-2.31v-4.2a15.47,15.47,0,0,0-.12-2,3.14,3.14,0,0,0-.51-1.45,1.41,1.41,0,0,0-1.23-.54,2.69,2.69,0,0,0-1.19.27,5.34,5.34,0,0,0-1,.6v11.13a3.81,3.81,0,0,0,1,.55A3.55,3.55,0,0,0,661.89,194.7Z"/><path class="cls-5" d="M673.77,197.22a4.54,4.54,0,0,1-3.42-1.34,5.53,5.53,0,0,1-1.47-3.52l2.67-.81a5.89,5.89,0,0,0,.81,2.47,1.91,1.91,0,0,0,1.68.83,1.7,1.7,0,0,0,1.32-.5,1.9,1.9,0,0,0,.45-1.33,2.75,2.75,0,0,0-.33-1.35,4.53,4.53,0,0,0-1.08-1.23l-3-2.55a8.05,8.05,0,0,1-1.52-1.74,5.3,5.3,0,0,1-.06-4.82,3.62,3.62,0,0,1,1.56-1.44,5.29,5.29,0,0,1,2.36-.49,4.1,4.1,0,0,1,3.3,1.33,5.68,5.68,0,0,1,1.32,3.23l-2.28.81a7.86,7.86,0,0,0-.36-1.58,2.36,2.36,0,0,0-.69-1.05,1.76,1.76,0,0,0-1.17-.37,1.59,1.59,0,0,0-1.25.52,1.82,1.82,0,0,0-.46,1.25,2.12,2.12,0,0,0,.19.88,2.6,2.6,0,0,0,.68.86l3.06,2.82a12.49,12.49,0,0,1,1.18,1.23,6,6,0,0,1,.92,1.5,4.92,4.92,0,0,1,.36,1.95,4.67,4.67,0,0,1-.6,2.46,3.73,3.73,0,0,1-1.68,1.48A6,6,0,0,1,673.77,197.22Z"/><path class="cls-5" d="M681,202.68v-23h3.21V181a5.53,5.53,0,0,1,1.38-1.14,3.7,3.7,0,0,1,1.92-.48,3.1,3.1,0,0,1,2.14.7,4.3,4.3,0,0,1,1.19,1.77,9.17,9.17,0,0,1,.51,2.16,17.68,17.68,0,0,1,.12,1.88v4.2a16,16,0,0,1-.36,3.46,5.49,5.49,0,0,1-1.31,2.64,3.46,3.46,0,0,1-2.65,1,3,3,0,0,1-1.65-.47,7,7,0,0,1-1.29-1.06v7Zm5.52-8a1.28,1.28,0,0,0,1.2-.62,4,4,0,0,0,.45-1.66q.09-1,.09-2.31v-4.2a15.47,15.47,0,0,0-.12-2,3.14,3.14,0,0,0-.51-1.45,1.41,1.41,0,0,0-1.23-.54,2.77,2.77,0,0,0-1.2.27,4.42,4.42,0,0,0-1,.63v11.1a4.51,4.51,0,0,0,1,.55A3.49,3.49,0,0,0,686.49,194.7Z"/><path class="cls-5" d="M697,197.22a2.92,2.92,0,0,1-1.8-.59,4.11,4.11,0,0,1-1.23-1.5,4.31,4.31,0,0,1-.45-1.93,6.21,6.21,0,0,1,.54-2.73,5.45,5.45,0,0,1,1.48-1.88,10.21,10.21,0,0,1,2.19-1.33c.83-.38,1.71-.75,2.63-1.11v-1.23a10.44,10.44,0,0,0-.12-1.74,1.79,1.79,0,0,0-.5-1,1.6,1.6,0,0,0-1.12-.34,1.76,1.76,0,0,0-1.07.3,1.65,1.65,0,0,0-.58.85,4.28,4.28,0,0,0-.18,1.31v.87l-3.18-.12a6.32,6.32,0,0,1,1.32-4.25,5.06,5.06,0,0,1,3.9-1.36,4.33,4.33,0,0,1,3.66,1.41,6.61,6.61,0,0,1,1.08,4.08v7.92c0,.54,0,1.06,0,1.56s.07,1,.12,1.39.1.84.14,1.22h-2.94c-.06-.32-.14-.73-.23-1.22s-.15-.93-.19-1.33a4.62,4.62,0,0,1-1.16,1.9A3.11,3.11,0,0,1,697,197.22Zm1.26-2.76a1.63,1.63,0,0,0,.9-.27,4.13,4.13,0,0,0,.75-.62,3.2,3.2,0,0,0,.45-.55V188.1q-.75.42-1.41.84a7.83,7.83,0,0,0-1.16.88,3.59,3.59,0,0,0-.78,1.05,3.53,3.53,0,0,0,.11,3A1.27,1.27,0,0,0,698.22,194.46Z"/><path class="cls-5" d="M711.36,197.22a5.18,5.18,0,0,1-3.23-.86,4.17,4.17,0,0,1-1.47-2.41,15.66,15.66,0,0,1-.37-3.63v-4a15.5,15.5,0,0,1,.39-3.74,4.1,4.1,0,0,1,1.48-2.37,5.27,5.27,0,0,1,3.2-.82,5.75,5.75,0,0,1,2.92.61,3.18,3.18,0,0,1,1.43,1.83,10,10,0,0,1,.39,3v1h-2.91v-1A8.5,8.5,0,0,0,713,183a1.61,1.61,0,0,0-.54-1,2.19,2.19,0,0,0-2.31.06,1.94,1.94,0,0,0-.56,1.21,15.86,15.86,0,0,0-.13,2.33v5.46a6.93,6.93,0,0,0,.42,3,1.57,1.57,0,0,0,1.5.75,1.61,1.61,0,0,0,1.18-.38,1.84,1.84,0,0,0,.48-1.06,10.4,10.4,0,0,0,.11-1.56v-1.41h2.91v1.2a9.84,9.84,0,0,1-.41,3,3.44,3.44,0,0,1-1.44,1.92A5.35,5.35,0,0,1,711.36,197.22Z"/><path class="cls-5" d="M723.6,197.22a5.35,5.35,0,0,1-3.15-.8,4.15,4.15,0,0,1-1.55-2.34,14.18,14.18,0,0,1-.43-3.79v-4a13.85,13.85,0,0,1,.45-3.84,4.1,4.1,0,0,1,1.57-2.31,5.4,5.4,0,0,1,3.11-.78,4.82,4.82,0,0,1,3.22.9,4.42,4.42,0,0,1,1.37,2.59,21.65,21.65,0,0,1,.33,4.07v1.41h-6.84v3.48a6.21,6.21,0,0,0,.19,1.71,1.76,1.76,0,0,0,.63,1,1.89,1.89,0,0,0,1.13.32,1.55,1.55,0,0,0,1.09-.35,1.8,1.8,0,0,0,.51-1,7.39,7.39,0,0,0,.14-1.51V191h3.12v.66a6.78,6.78,0,0,1-1.11,4.11A4.4,4.4,0,0,1,723.6,197.22Zm-1.92-10.59h3.69v-1.56a11.6,11.6,0,0,0-.12-1.82,2,2,0,0,0-.5-1.11,1.61,1.61,0,0,0-1.18-.37,1.75,1.75,0,0,0-1.19.36,2,2,0,0,0-.55,1.21,14.43,14.43,0,0,0-.15,2.36Z"/><path class="cls-5" d="M740.31,197l-2.79-17.34h2.64l1.8,12.78,2.31-12.78h2.46L749,192.36l1.8-12.72h2.64L750.6,197h-2.7l-2.37-12.24L743.19,197Z"/><path class="cls-5" d="M756.15,177.06V173.7h3.21v3.36Zm0,19.92V179.64h3.21V197Z"/><path class="cls-5" d="M767.43,197.22a4.11,4.11,0,0,1-2.18-.51,2.94,2.94,0,0,1-1.2-1.44,5.84,5.84,0,0,1-.37-2.19V181.77h-1.83v-2.13h1.83v-5.07h3.21v5.07h2.79v2.13h-2.79v11.1a2.44,2.44,0,0,0,.33,1.45,1.51,1.51,0,0,0,1.26.44l.55,0,.62-.06V197c-.4.06-.77.1-1.11.13S767.83,197.22,767.43,197.22Z"/><path class="cls-5" d="M772.14,197v-24.3h3.21v8.76A9.28,9.28,0,0,1,777.3,180a4.86,4.86,0,0,1,2.4-.6,2.15,2.15,0,0,1,1.57.54,2.94,2.94,0,0,1,.78,1.35,6.14,6.14,0,0,1,.23,1.65v14h-3.21V183.87a3.13,3.13,0,0,0-.27-1.44,1.14,1.14,0,0,0-1.11-.51,2.52,2.52,0,0,0-1.19.33,6,6,0,0,0-1.15.81V197Z"/><path class="cls-5" d="M792.48,177.06V173.7h3.21v3.36Zm0,19.92V179.64h3.21V197Z"/><path class="cls-5" d="M799.14,197V179.64h3.21v1.71a9.36,9.36,0,0,1,1.92-1.38,4.76,4.76,0,0,1,2.31-.57,2.2,2.2,0,0,1,1.6.54,2.94,2.94,0,0,1,.78,1.35,6.14,6.14,0,0,1,.23,1.65v14H806V183.87a3.13,3.13,0,0,0-.27-1.44,1.14,1.14,0,0,0-1.11-.51,2.38,2.38,0,0,0-1.13.31,6.77,6.77,0,0,0-1.12.77v14Z"/><path class="cls-5" d="M817.05,197.22a5.18,5.18,0,0,1-3.23-.86,4.17,4.17,0,0,1-1.47-2.41,15.66,15.66,0,0,1-.37-3.63v-4a15.5,15.5,0,0,1,.39-3.74,4.1,4.1,0,0,1,1.48-2.37,5.27,5.27,0,0,1,3.2-.82A5.75,5.75,0,0,1,820,180a3.18,3.18,0,0,1,1.43,1.83,10,10,0,0,1,.39,3v1h-2.91v-1a8.5,8.5,0,0,0-.15-1.8,1.61,1.61,0,0,0-.54-1,2.19,2.19,0,0,0-2.31.06,1.89,1.89,0,0,0-.56,1.21,15.86,15.86,0,0,0-.13,2.33v5.46a6.93,6.93,0,0,0,.42,3,1.57,1.57,0,0,0,1.5.75,1.61,1.61,0,0,0,1.18-.38,1.84,1.84,0,0,0,.48-1.06,10.4,10.4,0,0,0,.11-1.56v-1.41h2.91v1.2a9.84,9.84,0,0,1-.41,3,3.44,3.44,0,0,1-1.44,1.92A5.35,5.35,0,0,1,817.05,197.22Z"/><path class="cls-5" d="M829.26,197.22a5.19,5.19,0,0,1-3-.78,4.2,4.2,0,0,1-1.58-2.22,11.08,11.08,0,0,1-.46-3.39v-5a11.08,11.08,0,0,1,.46-3.39,4.2,4.2,0,0,1,1.58-2.22,5.19,5.19,0,0,1,3-.78,5.1,5.1,0,0,1,3,.78,4.22,4.22,0,0,1,1.56,2.22,11.06,11.06,0,0,1,.47,3.39v5a11.06,11.06,0,0,1-.47,3.39,4.22,4.22,0,0,1-1.56,2.22A5.1,5.1,0,0,1,829.26,197.22Zm0-2.37a1.47,1.47,0,0,0,1.3-.54,2.91,2.91,0,0,0,.45-1.43c0-.59.08-1.2.08-1.84v-5.43c0-.66,0-1.28-.08-1.86a3,3,0,0,0-.45-1.43,1.45,1.45,0,0,0-1.3-.55,1.5,1.5,0,0,0-1.32.55,2.89,2.89,0,0,0-.47,1.43c-.05.58-.07,1.2-.07,1.86V191c0,.64,0,1.25.07,1.84a2.82,2.82,0,0,0,.47,1.43A1.52,1.52,0,0,0,829.26,194.85Z"/><path class="cls-5" d="M837.33,197V179.64h3.21v2.46a5.83,5.83,0,0,1,1.92-2.13,3.89,3.89,0,0,1,1.92-.54h.22l.29,0V183a5.09,5.09,0,0,0-.83-.26,4.23,4.23,0,0,0-.94-.1,2.76,2.76,0,0,0-1.37.34,3.67,3.67,0,0,0-1.21,1.34V197Z"/><path class="cls-5" d="M847,197V179.64h3.21v2.46a5.83,5.83,0,0,1,1.92-2.13,3.89,3.89,0,0,1,1.92-.54h.22l.29,0V183a5.09,5.09,0,0,0-.83-.26,4.23,4.23,0,0,0-.94-.1,2.76,2.76,0,0,0-1.37.34,3.67,3.67,0,0,0-1.21,1.34V197Z"/><path class="cls-5" d="M861.21,197.22a5.33,5.33,0,0,1-3.15-.8,4.15,4.15,0,0,1-1.55-2.34,14.18,14.18,0,0,1-.43-3.79v-4a13.85,13.85,0,0,1,.45-3.84,4.1,4.1,0,0,1,1.57-2.31,5.4,5.4,0,0,1,3.11-.78,4.82,4.82,0,0,1,3.22.9,4.42,4.42,0,0,1,1.37,2.59,21.65,21.65,0,0,1,.33,4.07v1.41h-6.84v3.48a6.21,6.21,0,0,0,.19,1.71,1.76,1.76,0,0,0,.63,1,1.89,1.89,0,0,0,1.13.32,1.55,1.55,0,0,0,1.09-.35,1.8,1.8,0,0,0,.51-1A7.39,7.39,0,0,0,863,192V191h3.12v.66a6.84,6.84,0,0,1-1.11,4.11A4.4,4.4,0,0,1,861.21,197.22Zm-1.92-10.59H863v-1.56a11.6,11.6,0,0,0-.12-1.82,2,2,0,0,0-.5-1.11,1.61,1.61,0,0,0-1.18-.37,1.75,1.75,0,0,0-1.19.36,2,2,0,0,0-.55,1.21,14.43,14.43,0,0,0-.15,2.36Z"/><path class="cls-5" d="M873.78,197.22a5.16,5.16,0,0,1-3.23-.86,4.17,4.17,0,0,1-1.47-2.41,15.66,15.66,0,0,1-.37-3.63v-4a15.5,15.5,0,0,1,.39-3.74,4.05,4.05,0,0,1,1.48-2.37,5.27,5.27,0,0,1,3.2-.82,5.75,5.75,0,0,1,2.92.61,3.18,3.18,0,0,1,1.43,1.83,10,10,0,0,1,.39,3v1h-2.91v-1a9.22,9.22,0,0,0-.15-1.8,1.66,1.66,0,0,0-.54-1,2.19,2.19,0,0,0-2.31.06,1.94,1.94,0,0,0-.56,1.21,15.86,15.86,0,0,0-.13,2.33v5.46a6.77,6.77,0,0,0,.42,3,1.57,1.57,0,0,0,1.5.75,1.61,1.61,0,0,0,1.18-.38,1.84,1.84,0,0,0,.48-1.06,10.4,10.4,0,0,0,.11-1.56v-1.41h2.91v1.2a9.84,9.84,0,0,1-.41,3,3.44,3.44,0,0,1-1.44,1.92A5.38,5.38,0,0,1,873.78,197.22Z"/><path class="cls-5" d="M886,197.22a4.11,4.11,0,0,1-2.18-.51,2.94,2.94,0,0,1-1.2-1.44,5.84,5.84,0,0,1-.37-2.19V181.77h-1.83v-2.13h1.83v-5.07h3.21v5.07h2.79v2.13h-2.79v11.1a2.37,2.37,0,0,0,.33,1.45,1.51,1.51,0,0,0,1.26.44l.55,0,.62-.06V197c-.41.06-.77.1-1.11.13S886.39,197.22,886,197.22Z"/><path class="cls-5" d="M632,233V215.64h3.21v2.46a5.83,5.83,0,0,1,1.92-2.13,3.89,3.89,0,0,1,1.92-.54h.22l.29,0V219a5.09,5.09,0,0,0-.83-.26,4.23,4.23,0,0,0-.94-.1,2.76,2.76,0,0,0-1.37.34,3.67,3.67,0,0,0-1.21,1.34V233Z"/><path class="cls-5" d="M646.26,233.22a5.35,5.35,0,0,1-3.15-.8,4.15,4.15,0,0,1-1.55-2.34,14.18,14.18,0,0,1-.43-3.79v-4a13.85,13.85,0,0,1,.45-3.84,4.1,4.1,0,0,1,1.57-2.31,5.4,5.4,0,0,1,3.11-.78,4.82,4.82,0,0,1,3.22.9,4.42,4.42,0,0,1,1.37,2.59,21.65,21.65,0,0,1,.33,4.07v1.41h-6.84v3.48a6.21,6.21,0,0,0,.19,1.71,1.76,1.76,0,0,0,.63,1,1.89,1.89,0,0,0,1.13.32,1.55,1.55,0,0,0,1.09-.35,1.8,1.8,0,0,0,.51-1A7.39,7.39,0,0,0,648,228V227h3.12v.66a6.78,6.78,0,0,1-1.11,4.11A4.4,4.4,0,0,1,646.26,233.22Zm-1.92-10.59H648v-1.56a11.6,11.6,0,0,0-.12-1.82,2,2,0,0,0-.5-1.11,1.61,1.61,0,0,0-1.18-.37,1.75,1.75,0,0,0-1.19.36,2,2,0,0,0-.55,1.21,14.43,14.43,0,0,0-.15,2.36Z"/><path class="cls-5" d="M654.39,233v-24.3h3.21V233Z"/><path class="cls-5" d="M663.57,233.22a2.92,2.92,0,0,1-1.8-.59,4.11,4.11,0,0,1-1.23-1.5,4.31,4.31,0,0,1-.45-1.93,6.21,6.21,0,0,1,.54-2.73,5.45,5.45,0,0,1,1.48-1.88,10.21,10.21,0,0,1,2.19-1.33c.83-.38,1.71-.75,2.63-1.11v-1.23a10.44,10.44,0,0,0-.12-1.74,1.79,1.79,0,0,0-.5-1,1.6,1.6,0,0,0-1.12-.34,1.76,1.76,0,0,0-1.07.3,1.65,1.65,0,0,0-.58.85,4.28,4.28,0,0,0-.18,1.31v.87l-3.18-.12a6.32,6.32,0,0,1,1.32-4.25,5.06,5.06,0,0,1,3.9-1.36,4.33,4.33,0,0,1,3.66,1.41,6.61,6.61,0,0,1,1.08,4.08v7.92c0,.54,0,1.06,0,1.56s.07,1,.12,1.39.1.84.14,1.22H667.5c-.06-.32-.14-.73-.23-1.22s-.15-.93-.19-1.33a4.62,4.62,0,0,1-1.16,1.9A3.11,3.11,0,0,1,663.57,233.22Zm1.26-2.76a1.63,1.63,0,0,0,.9-.27,4.13,4.13,0,0,0,.75-.62,3.2,3.2,0,0,0,.45-.55V224.1q-.75.42-1.41.84a7.83,7.83,0,0,0-1.16.88,3.59,3.59,0,0,0-.78,1.05,3.53,3.53,0,0,0,.11,3A1.27,1.27,0,0,0,664.83,230.46Z"/><path class="cls-5" d="M677.82,233.22a4.11,4.11,0,0,1-2.18-.51,2.94,2.94,0,0,1-1.2-1.44,5.84,5.84,0,0,1-.37-2.19V217.77h-1.83v-2.13h1.83v-5.07h3.21v5.07h2.79v2.13h-2.79v11.1a2.44,2.44,0,0,0,.33,1.45,1.51,1.51,0,0,0,1.26.44l.55,0,.62-.06V233c-.4.06-.77.1-1.11.13S678.22,233.22,677.82,233.22Z"/><path class="cls-5" d="M682.65,213.06V209.7h3.21v3.36Zm0,19.92V215.64h3.21V233Z"/><path class="cls-5" d="M691.56,233l-3.42-17.34h3.24l2.13,14,2.16-14h3.12L695.49,233Z"/><path class="cls-5" d="M705.66,233.22a5.35,5.35,0,0,1-3.15-.8,4.15,4.15,0,0,1-1.55-2.34,14.18,14.18,0,0,1-.43-3.79v-4a13.85,13.85,0,0,1,.45-3.84,4.1,4.1,0,0,1,1.57-2.31,5.4,5.4,0,0,1,3.11-.78,4.82,4.82,0,0,1,3.22.9,4.42,4.42,0,0,1,1.37,2.59,21.65,21.65,0,0,1,.33,4.07v1.41h-6.84v3.48a6.21,6.21,0,0,0,.19,1.71,1.76,1.76,0,0,0,.63,1,1.89,1.89,0,0,0,1.13.32,1.55,1.55,0,0,0,1.09-.35,1.8,1.8,0,0,0,.51-1,7.39,7.39,0,0,0,.14-1.51V227h3.12v.66a6.78,6.78,0,0,1-1.11,4.11A4.4,4.4,0,0,1,705.66,233.22Zm-1.92-10.59h3.69v-1.56a11.6,11.6,0,0,0-.12-1.82,2,2,0,0,0-.5-1.11,1.61,1.61,0,0,0-1.18-.37,1.75,1.75,0,0,0-1.19.36,2,2,0,0,0-.55,1.21,14.43,14.43,0,0,0-.15,2.36Z"/><path class="cls-5" d="M724.38,233.22a3.68,3.68,0,0,1-3.27-1.61Q720,230,720,226.17v-3.36a19.3,19.3,0,0,1,.33-3.68,5.54,5.54,0,0,1,1.24-2.71,3.43,3.43,0,0,1,2.69-1,3.28,3.28,0,0,1,1.59.39,5.56,5.56,0,0,1,1.29,1v-8.07h3.21V233h-3.21v-1.11a5.2,5.2,0,0,1-1.25,1A3.11,3.11,0,0,1,724.38,233.22Zm.81-2.52a3.14,3.14,0,0,0,1-.17,4.32,4.32,0,0,0,1-.49V218.67a5.23,5.23,0,0,0-.93-.53,2.72,2.72,0,0,0-1.11-.22,1.47,1.47,0,0,0-1.5,1.06,7.51,7.51,0,0,0-.39,2.57v4.89a15.92,15.92,0,0,0,.13,2.17,3.25,3.25,0,0,0,.56,1.53A1.48,1.48,0,0,0,725.19,230.7Z"/><path class="cls-5" d="M738.42,233.22a5.35,5.35,0,0,1-3.15-.8,4.15,4.15,0,0,1-1.55-2.34,14.18,14.18,0,0,1-.43-3.79v-4a13.85,13.85,0,0,1,.45-3.84,4.1,4.1,0,0,1,1.57-2.31,5.4,5.4,0,0,1,3.11-.78,4.82,4.82,0,0,1,3.22.9,4.42,4.42,0,0,1,1.37,2.59,21.65,21.65,0,0,1,.33,4.07v1.41H736.5v3.48a6.21,6.21,0,0,0,.19,1.71,1.76,1.76,0,0,0,.63,1,1.89,1.89,0,0,0,1.13.32,1.55,1.55,0,0,0,1.09-.35,1.8,1.8,0,0,0,.51-1,7.39,7.39,0,0,0,.14-1.51V227h3.12v.66a6.78,6.78,0,0,1-1.11,4.11A4.4,4.4,0,0,1,738.42,233.22Zm-1.92-10.59h3.69v-1.56a11.6,11.6,0,0,0-.12-1.82,2,2,0,0,0-.5-1.11,1.61,1.61,0,0,0-1.18-.37,1.75,1.75,0,0,0-1.19.36,2,2,0,0,0-.55,1.21,14.43,14.43,0,0,0-.15,2.36Z"/><path class="cls-5" d="M750.84,238.41a11,11,0,0,1-2.87-.35,4.48,4.48,0,0,1-2-1.06,2.52,2.52,0,0,1-.73-1.89,2.94,2.94,0,0,1,.42-1.58,4.07,4.07,0,0,1,1.08-1.15,5.81,5.81,0,0,1,1.38-.75l1.5.21c-.26.24-.51.48-.75.73a4.28,4.28,0,0,0-.6.78,1.72,1.72,0,0,0-.24.89,1.26,1.26,0,0,0,.67,1.17,5.27,5.27,0,0,0,2.42.39,6,6,0,0,0,2.53-.41,1.34,1.34,0,0,0,.83-1.27,1.7,1.7,0,0,0-.21-.89,1.44,1.44,0,0,0-.72-.55,5.34,5.34,0,0,0-1.47-.3l-3.78-.48a2.81,2.81,0,0,1-1.74-.75,1.88,1.88,0,0,1-.57-1.32,2.79,2.79,0,0,1,.61-1.83,15.34,15.34,0,0,1,1.67-1.68l1.08.84c-.12.16-.27.38-.45.67a1.63,1.63,0,0,0-.27.86.61.61,0,0,0,.34.54,2.61,2.61,0,0,0,1.1.27l2.91.27a4.56,4.56,0,0,1,3,1.23,4.88,4.88,0,0,1,.31,5.43,4,4,0,0,1-2,1.48A10.15,10.15,0,0,1,750.84,238.41Zm.12-10.77a4.9,4.9,0,0,1-2.88-.78,4.54,4.54,0,0,1-1.64-2.16,10.06,10.06,0,0,1,0-6.53,4.32,4.32,0,0,1,1.69-2.07,5.15,5.15,0,0,1,2.78-.7,4.36,4.36,0,0,1,2.79.85,5,5,0,0,1,1.59,2.27,9.12,9.12,0,0,1,.51,3.12,9.67,9.67,0,0,1-.47,3.13,4.14,4.14,0,0,1-1.53,2.12A4.93,4.93,0,0,1,751,227.64Zm0-2.31a1.9,1.9,0,0,0,1-.26,1.52,1.52,0,0,0,.58-.73,4.46,4.46,0,0,0,.27-1.19,15.12,15.12,0,0,0,.08-1.6q0-.9-.06-1.62a4,4,0,0,0-.27-1.22,1.7,1.7,0,0,0-.6-.76,1.76,1.76,0,0,0-1-.27,2,2,0,0,0-1.07.25,1.68,1.68,0,0,0-.63.75,4,4,0,0,0-.3,1.22,16.21,16.21,0,0,0-.07,1.65,14,14,0,0,0,.07,1.5,4.4,4.4,0,0,0,.29,1.2,1.74,1.74,0,0,0,.61.79A1.83,1.83,0,0,0,751,225.33Zm4.29-6.78-.75-1.2a4.12,4.12,0,0,1,1.08-1,9,9,0,0,1,1.8-1.05l.84,2.1a10.62,10.62,0,0,0-1.13.33c-.47.16-.89.32-1.27.49S755.25,218.47,755.25,218.55Z"/><path class="cls-5" d="M759.57,233V215.64h3.21v2.46A5.83,5.83,0,0,1,764.7,216a3.89,3.89,0,0,1,1.92-.54h.22l.29,0V219a5.09,5.09,0,0,0-.83-.26,4.23,4.23,0,0,0-.94-.1A2.76,2.76,0,0,0,764,219a3.67,3.67,0,0,0-1.21,1.34V233Z"/><path class="cls-5" d="M773.82,233.22a5.35,5.35,0,0,1-3.15-.8,4.15,4.15,0,0,1-1.55-2.34,14.18,14.18,0,0,1-.43-3.79v-4a13.85,13.85,0,0,1,.45-3.84,4.1,4.1,0,0,1,1.57-2.31,5.4,5.4,0,0,1,3.11-.78,4.82,4.82,0,0,1,3.22.9,4.42,4.42,0,0,1,1.37,2.59,21.65,21.65,0,0,1,.33,4.07v1.41H771.9v3.48a6.21,6.21,0,0,0,.19,1.71,1.76,1.76,0,0,0,.63,1,1.89,1.89,0,0,0,1.13.32,1.55,1.55,0,0,0,1.09-.35,1.8,1.8,0,0,0,.51-1,7.39,7.39,0,0,0,.14-1.51V227h3.12v.66a6.78,6.78,0,0,1-1.11,4.11A4.4,4.4,0,0,1,773.82,233.22Zm-1.92-10.59h3.69v-1.56a11.6,11.6,0,0,0-.12-1.82,2,2,0,0,0-.5-1.11,1.61,1.61,0,0,0-1.18-.37,1.75,1.75,0,0,0-1.19.36,2,2,0,0,0-.55,1.21,14.43,14.43,0,0,0-.15,2.36Z"/><path class="cls-5" d="M786.45,233.22a5.35,5.35,0,0,1-3.15-.8,4.15,4.15,0,0,1-1.55-2.34,14.18,14.18,0,0,1-.43-3.79v-4a13.85,13.85,0,0,1,.45-3.84,4.1,4.1,0,0,1,1.57-2.31,5.4,5.4,0,0,1,3.11-.78,4.82,4.82,0,0,1,3.22.9,4.42,4.42,0,0,1,1.37,2.59,21.65,21.65,0,0,1,.33,4.07v1.41h-6.84v3.48a6.21,6.21,0,0,0,.19,1.71,1.76,1.76,0,0,0,.63,1,1.89,1.89,0,0,0,1.13.32,1.55,1.55,0,0,0,1.09-.35,1.8,1.8,0,0,0,.51-1,7.39,7.39,0,0,0,.14-1.51V227h3.12v.66a6.78,6.78,0,0,1-1.11,4.11A4.4,4.4,0,0,1,786.45,233.22Zm-1.92-10.59h3.69v-1.56a11.6,11.6,0,0,0-.12-1.82,2,2,0,0,0-.5-1.11,1.61,1.61,0,0,0-1.18-.37,1.75,1.75,0,0,0-1.19.36,2,2,0,0,0-.55,1.21,14.43,14.43,0,0,0-.15,2.36Z"/><path class="cls-5" d="M620.53,190.14c-25.75,2.65-38.88,18.47-44.87,42.13.27-11.73,5.3-21.38,13-29.53C597.2,193.79,607.8,189.21,620.53,190.14Z"/><path class="cls-5" d="M456.94,932.26c17.73-18.86,17.3-39.42,6.32-61.23,7.48,9.05,10,19.63,9.48,30.86C472.18,914.22,467.17,924.62,456.94,932.26Z"/><rect class="cls-6" width="1066.01" height="1066.01"/></g></g></svg>