<svg xmlns="http://www.w3.org/2000/svg" viewBox="0 0 1025.05 1537"><defs><style>.cls-1{fill:none;stroke:#333;stroke-linecap:round;stroke-linejoin:round;stroke-width:2px;}</style></defs><g id="Layer_2" data-name="Layer 2"><g id="Layer_1-2" data-name="Layer 1"><path class="cls-1" d="M345,777.5c-2.71,2.32-5.75.58-8.49.34-3.64-.33-5.46,1.35-6.47,4.17-10,28-21.1,55.43-31.94,83-16.05,40.85-31.27,82-47.15,122.94-12.07,31.1-24.61,62-37,93a48.09,48.09,0,0,1-2.87,5H1024"/><path class="cls-1" d="M72,1480.5c1.77.84,3.66.49,5.5.49H1024"/><path class="cls-1" d="M312,764.5c-2.36,9.13-6.94,17.37-10.57,26-12.31,29.08-25,58-37.42,87-7.57,17.63-15,35.32-22.51,53q-17.5,41.25-35,82.49-16.67,39-33.48,78c-.41,1-.61,2-1,3-3.43,8-3.44,8,5,8h24c155.83.17,311.67,0,467.5.62,118.5.51,237,.08,355.5.38"/><path class="cls-1" d="M923.5,1201c1.53,5.85-1,11.38-1.72,17-.89,6.67-1.6,13.39-2.8,20-1.56,8.63-2.42,17.37-3.75,26-1,6.57-1.81,13.27-2.2,20-.63,11-5.38,16.9-16,19-18.5,3.66-37,7.43-55.51,11-18.14,3.47-36.35,6.54-54.48,10.07-19.54,3.81-39,8.08-58.52,11.92-17.8,3.51-35.69,6.56-53.48,10.09-15.71,3.11-31.25,7.19-47,9.77-12.73,2.08-25.31,4.83-38,7.23-14.71,2.79-29.44,5.43-44,8.84-11,2.57-22.32,4-33.46,6.14-12.36,2.37-24.67,5-37,7.46-9.49,1.89-19,3.5-28.49,5.55-11.31,2.46-22.7,4.54-34.05,6.74-12.48,2.42-25,4.71-37.46,7.23-13,2.63-26,5.14-39,7.78-11.1,2.24-22.26,4.41-33.46,6.18-8.34,1.32-16.46,4.29-25,4-7.91-.3-15.49-2.15-21-8.46-11.49-13.22-23.28-26.21-33.53-40.47"/><path class="cls-1" d="M924,1194c-5.69-7.53-13.91-11.89-21.52-17-12-8-23.47-16.78-35.92-24.14a42.34,42.34,0,0,0-19.57-5.69,106.78,106.78,0,0,0-27,1.5c-10.7,2.16-21.59,3.73-32.45,5.22-8.86,1.22-17.63,2.93-26.46,4.28-7.5,1.16-15,2.33-22.53,3.78-9.31,1.81-18.7,3.21-28,4.81-8.63,1.47-17.33,2.68-26,4.23-9.65,1.73-19.39,2.84-29,4.83-11,2.28-22.38,3.06-33.45,5.26-10.81,2.14-21.74,3.56-32.57,5.61-8.57,1.63-17.3,2.86-25.94,4.3-11.84,2-23.71,3.78-35.54,5.77-9,1.5-18,3-27,4.25-8.7,1.26-17.34,3-26,4.45-6.83,1.17-13.66,2.41-20.5,3.48-7,1.09-14.09,1.6-21,3.14-7.3,1.63-14.7,2.52-22,3.82-10.63,1.89-21.4,3-32,5.18-9.3,1.9-18.72,3.07-28,4.93-8.82,1.77-17.71,3.14-26.55,4.71s-17.65,2.8-26.45,4.31c-10.69,1.82-21.35,4-32.05,5.66-9,1.37-17.9,3.29-26.94,4.4-5.83.71-11.81,1.4-17.06,4.81-5.55,3.61-5.83,6.51-1.52,11.61,7.56,9,14.71,18.3,22.07,27.45,5,6.18,9.51,12.82,15.11,18.38,7.48,7.42,16.63,9.72,27.42,7.85,8.78-1.52,17.63-2.85,26.46-4.24,10.34-1.63,20.69-3.21,31-5,8.53-1.5,17-3.34,25.51-5,12.49-2.37,25-4.8,37.51-7s25-3.88,37.48-6.08c12-2.13,23.93-5.2,36-6.8,12.89-1.72,25.62-4.33,38.46-6.29,16.25-2.47,32.33-6,48.53-8.83,12.46-2.19,25-3.87,37.48-6.08,17.86-3.17,35.65-6.76,53.52-9.92,12.62-2.23,25.35-3.9,38-6.08,10.37-1.79,20.63-4.31,31-5.85,8.51-1.26,17-2.55,25.48-4.1,12.83-2.36,25.65-4.79,38.51-7,12.64-2.15,25.35-3.85,38-6.07,16-2.82,32-6.23,48-8.87,11.36-1.86,22.71-3.68,34-6,4.26-.88,7.87-2.9,11.49-5.06,2.65-1.57,1.85-4.17,2-6.5"/><path class="cls-1" d="M1002,1015c-.5-9.16-6-14.92-12.94-20.08-11.47-8.45-24.73-12.62-38.09-16.31-23-6.35-46.6-9.23-70.47-10.18-20.87-.83-41.74-1-62.49,1.21-23.83,2.59-47.41,6.85-69.51,16.86-8.32,3.77-16.58,7.86-22.41,15.08-6.07,7.51-7.32,14.11-2,22.86,2.38,3.91,6,6.86,9.84,9.64,13.85,10.07,29.78,15,46.08,18.83a349.18,349.18,0,0,0,65.48,8.68,427.18,427.18,0,0,0,56-1.54c20.24-1.84,40.15-5.32,59.48-11.62,10.33-3.37,20.21-7.75,29.09-14.33,6.5-4.81,11.31-10.24,11.93-18.6"/><path class="cls-1" d="M389,2c0,99,.37,198-.14,297-.32,62,.14,124-.5,186-.22,21.5,0,43-.39,64.5-.15,9.17-.64,18.33-1,27.5"/><path class="cls-1" d="M174,226.5H301V62.5H17.5c0,15.83.19,31.17-.05,46.5-.3,19.5-1,39-1.38,58.5a11,11,0,0,1-1.57,5"/><path class="cls-1" d="M534.5,862c-.5,6.5-.37,13.13-1.64,19.47-2,9.84-3.51,19.75-5.71,29.56-2.87,12.78-7.19,25.05-11.1,37.49C513.89,955.41,512,962.39,509,969a14,14,0,0,1-1.79,2.44c-1.42.47-2.27-1.09-3.16-.87-12.12,3-24-1.66-36-1.2-1.9.08-4-.34-6-.34-22.69,0-45.39-.59-68,2-26.32,3-52.45,6.87-76.48,19-6.42,3.25-12.34,7.25-17.06,12.92-7.52,9-5.67,18.93,1,26.07,7.93,8.49,17.87,13.6,28.54,17.44,22.79,8.2,46.42,12.36,70.49,14.58a454,454,0,0,0,57,1.85,386.71,386.71,0,0,0,57.49-6c14.3-2.64,28.52-5.78,42-11.47,9.57-4,18.85-8.59,26-16.47,7.74-8.5,8.34-17.51.47-27-7.63-9.16-18.36-13.57-29-17.93a10.87,10.87,0,0,1-2.46-1.6"/><path class="cls-1" d="M1024,899c.45-3.5-2-5.85-3.53-8.48-21.12-35.86-42.35-71.66-63.39-107.57-1.9-3.25-4.06-4-7.58-4q-195,.12-390,.07"/><path class="cls-1" d="M943,1c-5.24,2-8.13,6.89-12.38,10.16-6.14,4.72-11.36,10.61-17.17,15.78A7.23,7.23,0,0,0,911,33c-.09,29.33-.13,58.67-.48,88-1,88.33.15,176.67-.59,265-.43,50.67,0,101.33-.52,152-.05,4.44,1.5,7.31,4.06,10.56C927.06,565.89,940.19,583.62,955,600c.17.18,0,.65,0,1"/><path class="cls-1" d="M1024,864c0-5.52-4.16-9.16-6.63-13.43-12.89-22.32-26.18-44.42-39.4-66.55-2.15-3.61-5.1-6.81-6.85-10.57-2.16-4.64-5.33-5.56-10.12-5.55q-200.75.2-401.5.1"/><path class="cls-1" d="M958.5,843.5c.19-8-5.41-12-11-16-12.32-8.78-26.53-12.75-41-16a271.59,271.59,0,0,0-49-6.13c-22.78-.89-45.46-.35-68,3.16-18.45,2.87-36.62,6.89-53,16.49a31.32,31.32,0,0,0-9.66,8.86C722.31,840.16,723.81,848,728,853c7.55,9,17.79,13.66,28.51,17.48,18.92,6.74,38.55,9.52,58.49,11.1a336.64,336.64,0,0,0,80.49-3.23c18.48-3,36.74-7.19,52.56-18.3,5.8-4.07,10.29-8.67,11-16.06"/><path class="cls-1" d="M47,216c2.17.17,4.33.48,6.5.48,79,0,158,0,237.54,0-.3-48.17.53-96.33,1-145-87.9,0-175.24.18-262.94-.75-.21,4.57-.53,8.91-.61,13.26-.38,20.17-.12,40.36-1.23,60.49-.67,12.19-.5,24.34-.77,36.51,0,1.69,0,3.35-1.52,4.5"/><path class="cls-1" d="M68,297.5c-17,7.5-33.73,15.73-51.11,22.2-9,3.33-10.19,9.41-10.32,16.8C6.33,351.07,9.85,365,15,378.5c9.75,25.65,26.76,45.56,47.91,62.62,14.18,11.44,29.51,21.44,42.17,34.81,20.55,21.71,31,47.33,29.22,77.06-1.44,23.61-10.1,44.21-31.29,57.51-7.8,4.88-16.78,5.94-25.47,8.14-10,2.51-18.59-1.36-27.52-4.16-11.46-3.6-20.87-10.54-28.39-19.58A66.38,66.38,0,0,1,7.63,565C5.35,553.23,6.32,541.3,8,529.5a101,101,0,0,0-4.71-48.43C2.25,478,2.59,474.79,1,472"/><path class="cls-1" d="M531,806c-13.18-.54-26.26-2.48-39.5-2.64-11.67-.15-23.32-.32-35,0-10.38.31-20.69,1-31,2.07A279.82,279.82,0,0,0,377,814.52c-9.49,2.67-18.73,5.86-27.07,11.39-2.92,2-5.81,3.93-7.87,6.64-5.34,7-4.46,14.1,1,20.42,6,7,14,11.13,22.44,14.58,20.55,8.38,42.19,11.54,64,14,23.62,2.62,47.32,1.93,71,1.93,4.83,0,9.67-.62,14.5-1"/><path class="cls-1" d="M108.5,688.5c-4.31,16.92-5.36,34.17-4.41,51.5a140,140,0,0,0,10.36,46c9.76,23.64,27.13,41.22,45.59,57.94,8,7.29,16.33,14.41,23.31,22.67A109.61,109.61,0,0,1,201,895.49c1.35,3.28,2.53,6.79,5.88,7.77,1.37,8.83-4,15.53-7.15,22.63-7.72,17.26-16.22,34.2-24.61,51.18-13.8,27.93-27.32,56-40.95,84-12,24.73-23.85,49.58-35.69,74.41-7.32,15.34-14.72,30.64-22,46Q50.71,1236,25,1290.5c-7.54,16-15,32-22.53,48A16.17,16.17,0,0,0,1,1344"/><path class="cls-1" d="M366.5,339c-1.6-.8-3.33-.49-5-.49-35.33,0-70.67-.08-106,0-35,.08-70,0-105,.61-18.34.32-36.67.13-55,.34a9.46,9.46,0,0,0-5,1"/><path class="cls-1" d="M367,2q-.25,285.5-.5,571"/><path class="cls-1" d="M627,535c-.81-6.63-3.84-12.61-5.58-19a545,545,0,0,1-15.86-82,436.27,436.27,0,0,1-3-58.49c.23-11,1-22,1.61-33.5H565.78a60.85,60.85,0,0,0-.74,7c.09,13.33-.63,26.67.43,40,1.14,14.21,2.21,28.4,4.46,42.51,4,25.06,10.51,49.38,23.29,71.36,7.88,13.56,18.36,25.38,33.26,32.17a7.73,7.73,0,0,1,3,2.49c3.12,4.44,7.82,4.86,12.54,4.93,17.33.26,34.67.37,52,.54"/><path class="cls-1" d="M889.5,210.25c-4.16-4.15-10-4.75-15-7.18-6.57-3.21-13.54-4.21-21-4.19-69.67.2-139.33.12-209,.12-9.33,0-18.67,0-28,0-18.17.07-36.32,1.54-54.5,1-4.29-.14-5.79,3-6.41,6-5.45,27-11.69,53.94-14,81.49-.78,9.29-.73,18.66-1.07,28q-.5,13.5-1,27"/><path class="cls-1" d="M366,374.5q-121,0-242,0c-2,0-4.22-.67-6,1"/><path class="cls-1" d="M465,813c-7-.93-14-.52-21,0-15.1,1.06-30.19,2.09-45,5.51-10.11,2.33-20.16,4.74-29,10.51-.43.27-1.08.22-1.48.53-10,7.66-12.82,15.42-.46,24.42,9.65,7,21,10.31,32.45,13.06a288.78,288.78,0,0,0,70.5,7.51c7.33-.07,14.67,0,22,0"/><path class="cls-1" d="M527.5,679.25c.78-2.81,3.54-3.42,5.55-4.67,3-1.84,4-4.18,4-7.58-.13-10.5-.63-21,.08-31.49,1.1-16,.67-32,2.08-48,.51-5.7.08-11.41.87-17,1.55-11,1-22.08,2.83-33,.73-4.43.54-9,.82-13.51.39-6.15,1-12.34,1.5-18.46.69-7.67.61-15.46,2.68-23,2.41-8.79,10.22-11.48,17.1-5.49,4.27,3.72,5.63,8.87,5.87,14,.63,13.24-.91,26.37-2.67,39.52-1,7.25-1.59,14.63-2.3,22s-1.46,14.39-2.71,21.54c-.68,3.87-.85,8-1.17,12-.69,8.38-1.75,16.69-2.95,25-1,7.11-1.18,14.36-2.14,21.48-1.11,8.16-1.36,16.4-2.79,24.54a58.61,58.61,0,0,0-1,11c.13,6.89-1,13.67-1.41,20.48-.41,6.51-.66,13-.68,19.52a6.71,6.71,0,0,1-1.56,4"/><path class="cls-1" d="M619,1c4.17,0,7,2.82,10,5.05,10.13,7.57,21.15,13.78,31.56,20.93,3.77,2.59,8.22,2,12.48,2,49.83,0,99.67-.29,149.5.14,22.33.2,44.67,0,67,.46,7,.14,14-.85,21,.41"/><path class="cls-1" d="M18.5,635.5c-2.56.15-3.29,2.24-4.54,4-9.58,13.22-11.83,28.35-10.81,44,.58,8.84.79,17.68,1.27,26.51C5.81,735.49,6.83,761,8,786.5c.33,7.33.7,14.67,1,22,.69,17.5.82,35,2.19,52.49,1,12.34.77,24.69,1.72,37,1.09,14.13.73,28.4,2.29,42.47,1.71,15.49,1.3,31,2.67,46.53.64,7.29.55,14.66,1.07,22q1,14.75,1.91,29.5c.63,10.88-3.6,20-12.78,26.57-2.35,1.69-5.4,2.83-6.56,5.92"/><path class="cls-1" d="M818.5,536c5.93.91,11.4,3.44,17.48,4.16,17.64,2.07,35.12,2.21,52.51-1.69,2.88-.64,6-1.16,8.44-2.59,3.18-1.81,6-3,4.55-9-2.44-9.9-2.23-20.54-2.4-30.88-.41-25.83-.41-51.67-.58-77.5s-.06-51.67-.59-77.5c-.4-19.5-.79-39-.95-58.5-.17-21.67-.64-43.33-1-65-.09-5.88-2.39-7.91-8-6.41a18.31,18.31,0,0,1-5,.38q-107.5.06-215,.05c-3.83,0-7.74.83-11.48.34-4.07-.54-6.63-4.39-10.41-6.1-2.63-1.19-5.87-2.38-7.61-5.26"/><path class="cls-1" d="M696,394.5c52.33,1.45,104.66.95,157,.94,2.5,0,5,1.46,7.84,0-4.14-8.63-3.43-17.85-3.2-26.94.07-2.52,2.12-4.93,2.81-7.51,1.51-5.65,0-7.74-6-9-9.07-1.91-18.32-2.1-27.5-2.39-24.66-.79-49.32-1.86-74-2.33-11.49-.22-23-.89-34.5-.64-5.54.12-11-2.12-16.91-.74-.49,8.33.74,16.48,1.56,24.6.39,3.94.22,7.26-2.12,10.53a33.26,33.26,0,0,0-6.18,20.48c.31,45.33.25,90.67.1,136-.06,19.17-.65,38.33-.92,57.5a71.68,71.68,0,0,0,.51,9.49c.41,3.39,2,5.46,6,5.58,15.84.49,31.69.94,47.49,2,13.83.95,27.67,1.43,41.5,2.12,6.67.34,13.34.69,20,.7,1.3,0,1.94.94,3,1.08"/><path class="cls-1" d="M657,213c-2.06,12.56-5.93,24.7-9.17,37-7.05,26.71-13.69,53.49-19.41,80.52-3,14.22-4.25,28.58-4.9,43A416.72,416.72,0,0,0,628.1,455,422.92,422.92,0,0,0,640,510.49c3.15,10.72,6.64,21.34,10,32"/><path class="cls-1" d="M317,1014c1.38,7.09,6.33,11.24,12,15,9.5,6.42,20.15,9.92,31,13,22.73,6.33,46,8.76,69.5,9.53,27.95.91,55.68-.56,83-7a15.63,15.63,0,0,1,3.49,0"/><path class="cls-1" d="M537.5,604c-12.5-3.83-25-7.58-37.49-11.52-13.87-4.4-27.73-8.84-41.49-13.54-6.92-2.36-13,.53-18.94,2.77a74.87,74.87,0,0,0-11.1,4.75,5,5,0,0,1-6.94-1.49c-6.82-9.21-18.48-10.33-29-5.29-4.41,2.12-7.59,2.46-12.17.51a39.49,39.49,0,0,0-26.93-1.72c-1.27.37-2.86.88-4,.45-13-5.13-27.09-7.23-39.52-13.95-5.58-3-11-6.33-16.51-9.46-12.82-7.29-25.9-8.56-39-1-17.44,10.13-29.12,25.57-38.5,43a164.41,164.41,0,0,0-17.46,50c-3.46,19.82-4.9,39.68.36,59.51.9,3.39,3.74,6.15,3.08,10"/><path class="cls-1" d="M621,35c-67.67-.31-135.34.63-203-.5"/><path class="cls-1" d="M536,634.5c-8.8,4-16.7,9.6-25,14.49-20.47,12-41.21,23.66-61.41,36.14-12.17,7.52-25.13,13.45-37.67,20.2-9.69,5.2-12.69,13.27-14,23.16-1.65,12.71-2.94,25.5-5.92,38-.47,2,1,4.28-1,6"/><path class="cls-1" d="M439.5,1237a71.37,71.37,0,0,0-31-3.55c-8.42.78-16.55,2.5-24,6.59-8.5,4.67-12.38,14.32-2.56,22.51,7.78,6.5,17.08,9.21,26.56,11.34,6.19,1.39,12.59,2.49,19,2,9.48-.67,19-1.5,27.5-6.44a17.43,17.43,0,0,0,8.19-9.43c1.48-4,.89-7.56-1.31-10.46A25.25,25.25,0,0,0,450.5,1241c-3.51-1.3-7-2.66-10.5-4"/><path class="cls-1" d="M614,161q-85,0-170-.06c-6.33,0-12.67-.81-19,.06"/><path class="cls-1" d="M186,394.5c1.59,2.55,4.4,1.52,6.52,1.86,12.44,2,22.86,8.11,32.44,15.69,21.73,17.2,35.26,40.18,41.71,66.53,6.86,28-1.19,57.83-28.13,77-1.32.94-2-.44-3-.06"/><path class="cls-1" d="M541,1222.5c-4.39-3.62-9.89-3.3-15-3.92-13.76-1.67-27.36-.88-39.95,5.49-11.93,6-11.49,17-1.55,23.94,9.19,6.45,19.48,9.45,30.49,11.11a75.47,75.47,0,0,0,35.53-3.08c6.92-2.27,13.64-9.56,12.62-15.56a12.79,12.79,0,0,0-2.2-5.92c-5-6.24-11.71-10-19.43-12.06"/><path class="cls-1" d="M944,986.5c-20.84-5.3-42-7.66-63.5-8.56A375.54,375.54,0,0,0,817,980.39c-18.22,2.33-36,6.14-53,13.12-1.86.76-3.67,1.66-5.5,2.49"/><path class="cls-1" d="M625.5,5c-.84,1.77-.49,3.66-.49,5.5q0,89.25,0,178.5"/><path class="cls-1" d="M635.5,1205.5c-3.76-3.31-8.77-3-13-3.25-11.77-.69-23.7-1.16-35,3.72-4.08,1.76-8,3.54-11,7-3.66,4.24-3.93,8.94-.47,13.52,5.91,7.82,14.71,10.76,23.51,13.43a79.32,79.32,0,0,0,30,3c9.75-.85,19.48-2.34,26.51-10.41,4.4-5,4-11.43-.44-16.55-5.28-6.06-12.42-8.41-19.56-11"/><path class="cls-1" d="M36,1536c1-.08,1.46.06,2.16-1.43A300.81,300.81,0,0,1,66.05,1486c10-14,20.43-27.67,33-39.49,20.88-19.66,43.77-36.49,69.39-49.67,15.62-8,31.5-15.38,47.59-22.32a14.15,14.15,0,0,1,7-1.24c8.36.66,12.63-5.68,9.9-14.28a22.29,22.29,0,0,0-4-7,4.8,4.8,0,0,0-5.81-.92c-9.58,7.35-21.37,9.4-32.15,13.77-31,12.56-59.93,28.65-85.87,49.7A297.09,297.09,0,0,0,47,1478c-12.14,17.72-21.75,36.74-29.95,56.53a4.36,4.36,0,0,0,0,1.49"/><path class="cls-1" d="M155.5,407.5c.83-.5,1.85-1.6,2.47-1.41,8.5,2.57,17.53,1.31,26.07,4.29a87.86,87.86,0,0,1,46.8,37.72c13.07,21.1,18.42,44.66,17,69.39-.64,11.09-4.39,21.56-9.63,31.61-4,7.73-8.82,14.95-16.34,18.59-7.75,3.74-10.65,12-17.85,15.81-12.34,6.49-24.64,13-37,19.48-9.79,5.09-19.76,9.83-29.46,15.07A67.55,67.55,0,0,1,105,626.53c-9.06,0-18.11.1-27-2-2.35-.56-4.83-.91-6.5-3"/><path class="cls-1" d="M100,685.5C96.61,711.31,93.39,737,99.4,763s17.35,48.63,36.15,67.44C145.62,840.54,156.32,850,166.46,860c14,13.79,24.68,29.76,31,48.47a54.67,54.67,0,0,1,2,8c.27,1.52.61,2.69,2.3,3"/><path class="cls-1" d="M105.5,273a4.33,4.33,0,0,1-3,2.58C91.82,278.92,83.4,286,75,293a17.7,17.7,0,0,1-6.26,3.41c10,24,20.18,47.87,37.19,68.12,12.94,15.39,27.19,29.33,43.6,40.89C170,419.82,188,435.8,200.84,454.61a137.84,137.84,0,0,1,21.85,52.85c2.09,11.05,2,22,1.64,33-.26,8.25-2.72,16.3-5.9,24-.7,1.69-2,3.08-.93,5"/><path class="cls-1" d="M712,1185.5c-6.51.78-13.12.65-19.51,2.47-4.8,1.37-9.46,3-13.49,6-6.73,5.1-7.54,12.77-1.45,18.46,7.69,7.19,17.5,10.15,27.46,12.52a88.23,88.23,0,0,0,27.48,1.93c8.55-.67,17-2.09,24-7.86s7-13.11,1.07-19.14c-5-5.07-11.29-7-17.55-9.52-8.92-3.63-18.21-4.14-27.55-4.88"/><path class="cls-1" d="M696,499.5c54.66,2,109.33.55,164,1"/><path class="cls-1" d="M170.5,865.5c-2.57,1.71-5.35.43-8,.43q-74.74.14-149.5.07"/><path class="cls-1" d="M17,944.5c13.17,3.67,26.36,7.23,39.49,11,25.69,7.43,51.34,15,77,22.47,11.65,3.39,23.33,6.68,35,10"/><path class="cls-1" d="M165,997q-29.75-8.75-59.5-17.49-37-10.8-74-21.5c-4.82-1.4-9.67-2.68-14.5-4"/><path class="cls-1" d="M290.5,552.5c1.17-9.67,2.39-19.33,3.49-29,1.88-16.66,4.25-33.3,5.36-50,1.35-20.23-6-38.22-17.44-54.43-12-17-28.15-28.79-48.44-33.94-15.9-4-31.58-1.72-45.85,6.09-7.5,4.11-15.93,5.72-23.14,10.26-1.94,1.22-4.16,2-5.48,4"/><path class="cls-1" d="M198.5,85v67.9c26.14,1.32,52.32,1.08,78.5,1.1"/><path class="cls-1" d="M269.5,289.5a289.49,289.49,0,0,0-40.49.12,6.43,6.43,0,0,0-5.2,4.22c5,5.82,10.16,11.69,15.16,17.68a9.48,9.48,0,0,0,8,3.48c14.33-.33,28.67-1,43-.93,21.5,0,43-.67,64.5.4,3.83.19,7.67,0,11.5,0"/><path class="cls-1" d="M814,612c-2.47,6.85-1.58,13,3.46,18.54,6,6.67,11.55,13.76,17.58,20.42,5.81,6.41,14.16,7.51,22,8.9A136.86,136.86,0,0,0,889,662c10.76-.63,21.36-2,31.51-6,6.48-2.51,8.3-8.41,10.45-14a58.45,58.45,0,0,0,3-10,12.78,12.78,0,0,0-6.13-13.14c-6.29-3.58-4.72-8.42-4.79-13.35s.08-9.67,0-14.5c-.18-7.28-1.91-9.55-9-11-14.23-2.84-28.62-2.34-43-1.46-1.7.1-3.33,1.25-5,1.92"/><path class="cls-1" d="M947.5,464.5c1.17,7.33,2.36,14.66,3.49,22,3,19.7,7.84,39,12,58.51,3,14.32,6,28.59,4.68,43.5-1.32,14.35-10,22.82-25.13,22.43-6.17-.15-12.33-.94-18.5-1.44"/><path class="cls-1" d="M951.5,431.5c-1.33,6.6.33,13.4-1.43,20A26.92,26.92,0,0,0,949,461c.45,4.57-3.72,2.19-6,3.66a127.54,127.54,0,0,0,2.63,23.81c4.81,24.91,10.48,49.64,15.22,74.56,1.71,9,2.72,18.18.76,27.49-1.88,8.94-8.37,14.67-18.11,15-6.55.24-13-.91-19.5-1"/><path class="cls-1" d="M857,368.5c-46-.59-92,1.57-138-2"/><path class="cls-1" d="M896.5,334.5c-43.83,0-87.67-.39-131.5.13-32.34.38-64.67-.11-97,.5-11.5.21-23,.16-34.5.35-1.67,0-3.4.32-5-.48"/><path class="cls-1" d="M173.5,270c1.39,2.11,3.57,1.47,5.5,1.48,13.5,0,27-.33,40.5.09,29.17.9,58.33.12,87.5.43"/><path class="cls-1" d="M308.5,565c-5.32,4.11-12,5.59-17.58,9.37-14.35,9.71-24.47,22.91-32.9,37.64a162,162,0,0,0-17.82,48c-1.75,8.44-3.07,17.17-2.2,26"/><path class="cls-1" d="M573,212.5c-5.43,25.86-11,51.72-13.86,78-.73,6.59-1.15,13.28-1.27,20-.26,15.34-1.23,30.67-1.85,46-.15,3.66.05,7.34,0,11-.15,6.23-5.26,9.41-11,7-1.75-.73-2.05-1.87-2-3.54.09-4,0-8,0-12"/><path class="cls-1" d="M551.5,762c-1.72,20.67,1.19,40.35,11.87,58.58,1.62,2.77,4.38,3.56,6.34,5.72,7.41,8.16,8.11,18.44,10.19,28.22,2.59,12.23-.17,24.33-1.78,36.5-3.5,26.42-13.64,50.66-23.67,75-1.23,3-1.55,5.69,0,8.52"/><path class="cls-1" d="M405.5,778c1.83,2.26,4,.37,6,.4,14,.19,28,.05,42,.11q40.25.19,80.5.49"/><path class="cls-1" d="M424.5,35.5q0,60,0,120c0,2.5.31,5,.48,7.5"/><path class="cls-1" d="M696,509.5c10,.17,20-.1,30,.6,16,1.13,32,1.31,48,2.15,10.18.53,20.39-.06,30.49,1,4,.41,8.1.09,12,1.26"/><path class="cls-1" d="M193.5,900c-1.6.8-3.33.49-5,.49-34.33,0-68.67.33-103-.1-23.83-.3-47.67-.26-71.5-.39"/><path class="cls-1" d="M827,598.5c-4.34,1-9.22.36-12.54,4.47-1.64,2-2.32,7.1-.42,8.48,7,5.06,12,12,17.78,18.22,4.65,5,10.45,6.26,16.21,7.72a153.3,153.3,0,0,0,53.46,4.05,96.89,96.89,0,0,0,28-7c1.1-.46,2-.17,3-.42"/><path class="cls-1" d="M618.5,35.5c-1.47,3.67.07,7.33.06,11-.1,35.83-.06,71.67-.06,107.5"/><path class="cls-1" d="M956,362.5c-.32,23,.61,46-.44,69-.07,1.66.19,3.62,2.94,3.54,5.34-.15,10.68,0,15.8,0,1.19-1.91.67-3.51.67-5,0-21.33,0-42.67.09-64,0-4.17-1.07-6.9-5-9.13-6.23-3.56-12-8.22-19.09-9.75a25.14,25.14,0,0,0-14.08.59c-3,1-2.9,2.18-2.9,4.29,0,15.5-.07,31,.06,46.5,0,3.5-.08,7.09-.33,10.48-.52,7.3,3.3,10.93,8.76,14,4.48,2.55,7.28,7.47,12.51,9"/><path class="cls-1" d="M859,371c2.65-.3,4.55.33,6.09,2.95,2.86,4.85,6.44,9.27,9.32,14.1a14.43,14.43,0,0,1,1.65,7.45q-.15,44.51,0,89c0,7.67.31,15.33.48,23"/><path class="cls-1" d="M420.5,767c1.61,1.55,3.63,1,5.5,1q54,0,108,0"/><path class="cls-1" d="M281,754.5c-8,16.83-15.94,33.7-24,50.49-3.68,7.65-7,15.48-10.86,23.07-5.44,10.61-9.84,21.74-15.18,32.4-5.78,11.55-11,23.33-16.44,35-1.28,2.75-2.66,5.46-5.49,7-1.94,1.07-1.29-.86-1.75-1.5"/><path class="cls-1" d="M562.5,868a7.73,7.73,0,0,0,1.55,5.46A4.06,4.06,0,0,1,565,877a607.61,607.61,0,0,1-17,78c-1.83,6.22-4.09,12.31-5.89,18.53-.43,1.51-1.28,3.31-.08,5"/><path class="cls-1" d="M153,300c2.93-6.45,7.23-10.48,15-9.06,2.26.41,4.68-.12,7,.12,2,.2,4.19.67,5,2.95.85,2.44,1.36,5-1,7-4.48,3.86-8.58,8.42-13.64,11.24-3.19,1.78-7.85,1.21-11.85,1.23-23.33.09-46.67,0-70,.05-2.21,0-4.48-.28-6.5,1"/><path class="cls-1" d="M578,839c5.52,3.51,5.86,9.61,6.88,15,2.44,13.07.82,26-1.68,39A288,288,0,0,1,569,942.48c-3.57,9.27-7.75,18.3-11.38,27.55-1.33,3.4-4.08,5.75-5.62,9-.49,1-1.61,2.14-2.93,1.48-4.92-2.44-10.62-.17-15.57-2.87A16.79,16.79,0,0,0,524,976a3.63,3.63,0,0,1-3.5-1.54"/><path class="cls-1" d="M516,972.5c-.6-8,2.78-15.18,5.1-22.47a421.54,421.54,0,0,0,16.35-75,57.26,57.26,0,0,0,0-8.49c0-1.25-.1-2.64-2-2.5"/><path class="cls-1" d="M1,839c.33,16.33.33,32.68,1.09,49q1.21,25.74,2.79,51.48,2.1,34,4.23,68c.66,10.67,1.35,21.33,1.93,32,.33,6.23-1.85,11-7,14.55-1,.7-2.67,1.15-2.54,3"/><path class="cls-1" d="M178.5,293c-4.83,4.67-9.84,9.17-14.43,14.06-2.47,2.64-5.58,1.72-8.07,1.75-22.18.3-44.35.29-66.51-1.18-4.64-.31-9-.78-13-3.14a2.94,2.94,0,0,0-3.51,0"/><path class="cls-1" d="M435,42a76.21,76.21,0,0,0,14,.14c6.63-.38,13.32.33,20,.34q66.5.06,133,0"/><path class="cls-1" d="M548.5,870c-3,3.17-1.94,7.52-2.21,11-1.33,16.89-6.46,32.82-10.73,49-3.3,12.51-6.67,25-11.56,37-2.76,6.81-9.08,9-16,5.5"/><path class="cls-1" d="M549,866c.29,3.08,2,5.72,2.12,9,.52,15.38-2.86,30.23-6.29,45a325.42,325.42,0,0,1-15.36,49c-.88,2.18.32,4.39-.47,6.51"/><path class="cls-1" d="M562.5,873.5c-3,3.27-2.74,7.71-3.32,11.53-3,19.71-8.63,38.76-13.63,58-2.65,10.18-7.27,19.7-9.62,30-.33,1.45-1.6,2.69-2.43,4"/><path class="cls-1" d="M924,1212c23.33,6.86,45.09,17.15,66,29.42a345.23,345.23,0,0,1,32,21.5c1.22.92,2.19,1.47,1.94,3.08"/><path class="cls-1" d="M1,152c1.22,7.91,7.32,12.9,11.54,19,14.74,21.16,29.59,42.2,40,66,6.5,14.82,11.81,29.91,14,46,.6,4.36.45,8.9,2.44,13"/><path class="cls-1" d="M1023.5,1239c-14.08-8-27.83-16.6-42.52-23.45-16.48-7.69-33-15.37-50.43-20.7-2.11-.65-4-.54-6-.85"/><path class="cls-1" d="M156,114.5c-32-.94-64-.33-96-.5"/><path class="cls-1" d="M544,504.5c-3.81-.82-7.66-.48-11.5-.49-15.67,0-31.33,0-47.55,0-2,15-9.15,28.94-9,44.5a18.15,18.15,0,0,1-1,5c-2.41,8.58,1.77,15.73,5.1,23,1.22,2.66,4,3.12,6.92,3.1,17.5-.12,35-.06,52.5-.06"/><path class="cls-1" d="M781.5,1186.5c.21,6.17,4.3,9.63,9,12.47a66.78,66.78,0,0,0,26.47,9.09c6.16.78,12.3,2.35,18.5,1.85,8-.65,16.17-1,23.51-4.92s10.12-9.26,8-16c-1.32-4.1-4.75-6.55-8-9-7.69-5.78-16.72-8.24-26-10a82.52,82.52,0,0,0-23-1,54.1,54.1,0,0,0-21.46,6c-4.2,2.28-6.39,6.34-7.54,10.93"/><path class="cls-1" d="M218.5,1261a4.41,4.41,0,0,0-.47,1.5c.63,10.37-1.27,20.66-1,31,.53,18.52-1.26,37-1,55.5,0,1.87-.57,3.89,1,5.5"/><path class="cls-1" d="M27.5,602.5c-5.61,7-7.7,15-8.18,24a42,42,0,0,0,9.16,29,32.36,32.36,0,0,0,15,11c18.31,6.57,37,12.08,55.49,18,21.88,7,43.64,14.43,65.53,21.42,12.62,4,25.29,8,37.91,12,11.7,3.75,23.46,7.45,35,11.66a7.72,7.72,0,0,0,8.05-1.14"/><path class="cls-1" d="M250.5,731.5c.83,1.17,2.07,2.22,2.44,3.52,2.47,8.77,8.84,13,17.05,15.52,17,5.21,34.1,10.37,51,16.07,8.58,2.89,17.14,6.57,25.68,8.86,11.74,3.15,23.25,8.63,35.86,8a47.47,47.47,0,0,0,25.11-8.79c11.32-7.79,21.59-16.9,32.77-24.84,2.57-1.82,4.63-1.2,6.59-.71,7.84,2,15.35,5.28,23.53,5.86,6.33.44,12.69,1.19,19,.91,10.53-.47,21.05.43,31.48,1,7.23.42,14.76,2.18,22.07,3.88,3.2.74,7,1,10.49-.72,1.26-.64,3-.41,4.46-.58"/><path class="cls-1" d="M282.5,681c2.77,3.64,7.3,3.63,11.05,4.86,18.56,6.14,37.29,11.78,55.95,17.65,7.19,2.26,14.33,4.66,21.5,7"/><path class="cls-1" d="M535.5,760.5c-1.24,8.81-.23,17.67-.52,26.5a78.58,78.58,0,0,1-6.89,31,128.58,128.58,0,0,0-11,37c-.8,5.92-.42,12-1,18-1.13,12.87-2.35,25.69-4,38.51-2.42,18.12-5.51,36.06-11.23,53.44-.79,2.41.56,4,.61,6"/><path class="cls-1" d="M134,88c-28-.18-56,.45-84-.5"/><path class="cls-1" d="M140,167H58"/><path class="cls-1" d="M49,104v49H82"/><path class="cls-1" d="M899.5,516.5c-10,5.5-21,6.41-32,6.91-16.7.78-33.33,0-49.5-4.91"/><path class="cls-1" d="M531.5,45q.25,43.5.5,87"/><path class="cls-1" d="M961,606.5q16.5,20.25,33,40.5c9.66,11.84,19.3,23.7,29.07,35.44A3.44,3.44,0,0,1,1024,685"/><path class="cls-1" d="M652.75,210.5a12.67,12.67,0,0,1-5.75,1c-8.17-.05-16.33-.08-24.5,0-15,.13-30,.28-45,.54-2.49,0-4.63-.19-6.52-2-3.57-3.45-8.7-4.38-12.48-7.52"/><path class="cls-1" d="M922,615.5c-7.36,20.64-31.58,25.46-49,21-8.77-2.23-15.35-7.22-20.58-14.48A12.49,12.49,0,0,1,850,615c-.43-9.83-.5-19.68-1.13-29.49-.29-4.54,3.32-4.24,5.63-5.43,1.79-.91,4-1.08,6-1.58"/><path class="cls-1" d="M349,579.5c-.88,2-2.68,3-4.49,4-20.58,11.8-34.06,29.7-43.46,51-2.51,5.69-4.38,11.65-6.55,17.48"/><path class="cls-1" d="M572.5,567c1.77.84,3.66.48,5.5.49q35.5,0,71,0"/><path class="cls-1" d="M352.5,258c-2.08,4.88-.89,10-.91,15,0,9.2-.53,8.15-9.1,8.84-8.94.72-18,.26-27,.1-2.84-.05-5.67,1.52-8.5-.1A42.5,42.5,0,0,1,317,254c6.43-7.62,19.55-10.23,28-6.11,1.87.91,3.53,1.76,4.44,3.6,3.18,6.35,8.26,11.52,10.66,18.44,2.2,6.37,2.11,12.63,1.32,19.05a4.09,4.09,0,0,1-3.46,3.49c-2.49.55-5,1.4-7.5,1.45-14.67.29-29.33.39-44,.56"/><path class="cls-1" d="M276,84.5H201"/><path class="cls-1" d="M571.5,578.5c40.66,1.06,81.33.25,122,.5"/><path class="cls-1" d="M512,52c-1.09,4.13-.43,8.34-.46,12.5-.1,14.83-.14,29.67,0,44.5,0,3.53-1,4.9-4.57,4.54-3.32-.34-6.67-.37-10-.54"/><path class="cls-1" d="M278,88H205"/><path class="cls-1" d="M366,438.5q-33,0-66,0c-2.17,0-4.33.31-6.5.48"/><path class="cls-1" d="M587,864c7-2.15,12.43-6.59,16.93-12.06s3.6-13.94-1.44-19.43c-7.38-8-17-12.36-27-15.92-2.9-1-5.51-3.42-9-2.59"/><path class="cls-1" d="M131,120q-27.25,0-54.5,0c-5.5,0-11-1.29-16.5,0"/><path class="cls-1" d="M556,343H513.25v15H555"/><path class="cls-1" d="M463.5,43.5V111"/><path class="cls-1" d="M365.5,493.5c-18.83,0-37.67,0-56.5,0-3.5,0-7-.31-10.5-.48"/><path class="cls-1" d="M815,533.5c-6,.24-11.56-2.41-17.48-3.13-14.15-1.71-28.16-3.16-42,1.61-11.78,4.06-16.78,11.78-14.35,24,1.14,5.71,2.11,11.49,4.25,17.07,6,15.73,22.8,27,39.61,26,14.79-.92,25.88-7.91,33.44-20.54.63-1.05.49-2.62.54-4,.52-12.36-.58-24.67-1-37,0-.84.42-1.78-.48-2.51-5.55-4.46-1.6-9.61-.93-14.48.14-1,1.44-1.81.91-3-1.65-3.69,1-4.28,3.48-5.58,5.7-3,12-3,18-3.88,12.31-1.71,24.66-.81,37,0,7.77.48,15.34,2.25,23,3.49"/><path class="cls-1" d="M435,46v65"/><path class="cls-1" d="M800,466c-1.39-3.7-4.88-6.14-5.92-10.42,4.22-4.48,8-9.67,7.89-16.58s-3.27-12.51-8.47-17c-8.71-7.53-23.39-6.34-30.53,2-7.31,8.51-9.09,19.16,3.29,30.76L757,464"/><path class="cls-1" d="M300.5,469.5h65"/><path class="cls-1" d="M48,160c1.09,5.33.1,10.66,0,16-.13,10.83,0,21.67,0,33H64"/><path class="cls-1" d="M156,226.5c-.68-.93-1.67-.47-2.5-.48q-50.74-.28-101.5-.52"/><path class="cls-1" d="M477,541.5h64"/><path class="cls-1" d="M278,130H215"/><path class="cls-1" d="M376.5,591c-3.34-1.48-5.87.87-8.47,2.07-20.39,9.43-34.16,25-42.09,45.91-.25.66-.63,1,.06,1.52"/><path class="cls-1" d="M539,568.5c-2.56-1.19-5.29-1-8-1q-24.25,0-48.5,0c-1.67,0-3.4-.31-5,.49"/><path class="cls-1" d="M635,1206c-3.49,7.29-6.08,14.84-6.5,23-.15,2.84-.13,6.14,3,6.8,2.51.53,5.07-1.11,6.48-3.79,1.67-3.15,3-6.37,3-10,0-4.67,0-9.33,0-14"/><path class="cls-1" d="M275,93c-1.6.8-3.33.49-5,.49q-28,0-56,0"/><path class="cls-1" d="M439.5,1237.5c-3,5.57-6.19,11-7.12,17.48a36.38,36.38,0,0,0-.27,8.51c.33,3.56,5.51,5.07,8.35,2.46A13.91,13.91,0,0,0,445,1255.5c.05-5,.3-10,.47-15"/><path class="cls-1" d="M756.5,440c-1.6.8-3.33.49-5,.49q-27.75,0-55.5,0"/><path class="cls-1" d="M568,753c5.63,1.49,9.79-1.72,14-4.56,2.3-1.55,2.94-4.48,2.93-6.94A208.47,208.47,0,0,1,586,720a6.85,6.85,0,0,0-3.48-7c-7.42-4.86-14.7-10-22-15"/><path class="cls-1" d="M860,396.5q.25,38.5.51,77c.09,11,.32,22,.49,33"/><path class="cls-1" d="M738.5,1191c-5.22,7.17-7.07,15.25-6.52,24,.11,1.67-.33,3.78,2,3.92,2,.11,4.3.82,6-1.38a14.4,14.4,0,0,0,2.94-9c.08-5.33,0-10.67,0-16"/><path class="cls-1" d="M540.5,1223c-4.65,7.33-7.83,15.09-7.56,24,.07,2.13.58,3.48,2.53,4.56,2.31,1.29,4.15.06,5.46-1.14,4-3.68,4.45-8.89,5.05-13.92.43-3.65-.64-7.38.52-11"/><path class="cls-1" d="M832,546c-.25,1.69.82,2.58,2,3.51,15.31,12.3,28.34,26.77,40,42.51,1.32,1.8,2.55,3.38,5,3,10.43-1.72,21.16.1,31.53-2.89,3.94-1.13,7.6-2.86,11.47-4.1"/><path class="cls-1" d="M118,179.5c-19.32-1.53-38.68,1-58-.5"/><path class="cls-1" d="M800,817c-9.83,1.83-19.82,3.09-29.46,5.66A87.54,87.54,0,0,0,742,836"/><path class="cls-1" d="M141,153H84"/><path class="cls-1" d="M632,541.5c-.92,1.21-2.24,1-3.5,1q-25,0-50,0A24.73,24.73,0,0,1,575,542"/><path class="cls-1" d="M859.5,440c-1.6.8-3.33.49-5,.49q-25.75,0-51.5,0"/><path class="cls-1" d="M946.5,416c1.3-12.64,1-25.33,1-38a19.06,19.06,0,0,0,.17-3.52c-1.18-7.24-2.16-8.35-9.65-9"/><path class="cls-1" d="M271,123H216"/><path class="cls-1" d="M562,67c6-1.2,12,0,18.25-.74V54.66l-16.36-.74c-1.07,4.41.44,8.25.11,12.08"/><path class="cls-1" d="M845.5,1174c-1.82,5.4-5.06,10.24-6.12,16a27.73,27.73,0,0,0-.34,4c-.09,2.32-.78,5.26,2.48,5.92a6.57,6.57,0,0,0,7.54-3.38c2.29-3.85,1.81-7.94,2-12,.11-2.67-.59-5.39.47-8"/><path class="cls-1" d="M474,610.5c-8.5,4.33-17.26,8.24-25.39,13.18-3.92,2.38-8.27,2.19-12.16,4.22-16.38,8.57-33,16.71-49.42,25.16a9.29,9.29,0,0,1-7.51.37c-5.9-1.95-11.7-4.23-17.52-6.44-3.79-1.45-5.24-4.84-4-9.48.72-2.64,2.68-5.09,1-8"/><path class="cls-1" d="M129,173H75"/><path class="cls-1" d="M252.5,697.5c-3,.57-6.1.25-9,1.48-4.72,2-5.61,4.82-2.49,8.52a19.62,19.62,0,0,0,10,6.37c14.1,3.59,28.2,7.41,43,7.17a11.11,11.11,0,0,1,8.45,3.51c1.53,1.65,1.06,4.17.38,5.88s-2.29,2.8-4.84,2.67c-14.12-.71-28.23-1.37-42-5.08a3.15,3.15,0,0,0-2,0c-6.46,3.09-9.82-.81-13.1-5.47-1-1.38-2.91-2.08-4.42-3.06-4.83-3.11-9.42-6.48-12.51-11.5-2.92-4.75-2.67-8.74,1-13a26.36,26.36,0,0,1,11.49-7.51c6.92-2.44,13.68-5.37,21-6.5"/><path class="cls-1" d="M385.5,654.5c-1.89,3.7-5.69,4.76-9,6.5l-42,22"/><path class="cls-1" d="M134,137H82"/><path class="cls-1" d="M422,586c-7.09,2.4-14,4.63-19.62,10.38-8.19,8.42-13,18.65-17.28,29.16-3.51,8.57-5.65,17.64-7.6,26.71"/><path class="cls-1" d="M298,1258c2.2,5.18,6.63,8.77,9.6,13.44,3.57,5.6,8,10.65,11.82,16.12.93,1.34,1.84,1.71,3.07,1.41,6.45-1.59,13.25-1.47,19.51-4"/><path class="cls-1" d="M440.5,625.5c.33-3.33,1.47-6.84.8-10-.89-4.18-5.36-5.3-8.82-7-.87-.43-2.24,0-2.94-.59a16.79,16.79,0,0,0-16-2.79,31.55,31.55,0,0,0-17.63,13.29c-2.12,3.36-4.41,6.75-7.87,9.12a4.48,4.48,0,0,1-3.05.93"/><path class="cls-1" d="M158.5,269c3.13-5.51,7.28-10.55,7.15-17.5,0-1.2.3-2.68.31-4,.08-6.83,0-13.67,0-21h-8"/><path class="cls-1" d="M265,118c-2.11-.94-4.33-.47-6.5-.48-14.17,0-28.33,0-42.5,0"/><path class="cls-1" d="M270,290c-5,9.42-1,15.75,10,16.06,7.73.22,14.73-1.19,21.05-6,4-3,6-6.66,5.43-11.57s-5-6.67-8.52-7.24c-5.58-.91-11.58-1-16.94,1.78-3.78,1.95-7.35,4.29-11,6.46"/><path class="cls-1" d="M568.5,611.5c3.35,4.07,3.79,9.13,4.43,14,1.11,8.41-2.41,16.09-4.44,24-.6,2.35-1.25,4.69-2,7-.35,1-1.06,2-2.47,1.51"/><path class="cls-1" d="M742.5,567c-1.33-.36-2.07,1.16-4.11.24-7.88-3.57-19.46,4.47-19.88,13.26-.15,3.12,1.15,5.47,4.49,5.44,10-.09,17.87-1.63,22.5-10.94"/><path class="cls-1" d="M535,684c-5.72-1.36-10.12-5.36-15.42-7.69-9.59-4.22-18.42-2.62-27,1.78-7.7,3.92-14.71,9.39-22.66,12.62A133.05,133.05,0,0,1,454,696.36c-3.46.91-5.57,4.37-9.46,4.35-.49,0-1.5,2.82-1.41,4.28.38,6.56-.7,13-1.14,19.51s-1.29,13-1.95,19.5a7.87,7.87,0,0,0,1,5"/><path class="cls-1" d="M559.5,706.5c6.18,3.27,11.59,7.62,17,11.93,2.37,1.87,2.56,4,2.46,6.57-.27,7,.5,14-.47,21a10.61,10.61,0,0,0,.46,3"/><path class="cls-1" d="M448,701.5c6.57,2.82,13.59,4,20.5,5.48,15,3.29,30.36,3.18,45.49,5.07,9.87,1.23,19.66,3.08,29.52,4.37,2.73.35,5.75-1.21,8,1.58"/><path class="cls-1" d="M843.5,562c-2,2.69-5,1.29-7.53,1.89-9.09,2.21-11.18,5-9.45,14.11.72,3.82.52,7.67.46,11.5-.23,14.81,5.82,18.31,17,21"/><path class="cls-1" d="M341,1284.5c-.25-2.53-2.6-3.41-4-5-7.43-8.07-15-16-22.42-24.07-1.32-1.45-2.22-1.6-4.08-1-4.41,1.29-9,2.12-13.48,3a5.21,5.21,0,0,1-2-.46"/><path class="cls-1" d="M557,473.5a9.94,9.94,0,0,1,14,.52c4.65,4.67,6.51,10.76,6.89,17,.54,9-.47,18-1.68,27-.59,4.41-.84,9-1.17,13.47-.66,8.88-1.86,17.69-2.83,26.52-.51,4.61-.75,9.32-1.22,14-.9,9-2.16,18-2.9,27-.44,5.48-.22,11-1,16.5-1.67,12.46-3.06,25-4,37.5-.35,4.83-.61,9.66-1.08,14.5-1.19,12.48-1.89,25-3.12,37.48-.75,7.54-1.09,7.61-6.83,13.39,1.75.53,3.59,1,5.39,1.63,7.59,2.58,9.5,5.22,9.5,13,0,5.67-.08,11.33,0,17,.11,6-.79,6.94-7,7"/><path class="cls-1" d="M556,137l12.88.62c.79-.79,1.1-1,1.1-1.12-.22-9.75,1.52-9.14-8.48-9-2.51,0-5,0-8,0,0,2.81,0,5.16,0,7.5,0,1.22.75,1.75,2,1.5"/><path class="cls-1" d="M474.5,709.5c-.83,8.17-1.61,16.34-2.52,24.5-.75,6.84-1.65,13.67-2.48,20.5"/><path class="cls-1" d="M167,226.5c4.18-1.37,6.14-.33,7.15,4.47,2.51,11.93,4.44,23.56.09,35.62-1.2,3.33-3.2,3.05-5.44,4,.2,2.71-1.35,4.08-3.73,5.52-4.89,3-9.4,6.56-14.07,9.89-.19.14-.3.41-.5.49-2.77,1.06-1.16,5.91-4.5,5.83-2.25-.05-4.47-1.42-7-1.37-13.67.27-27.33.5-41,.5-5.68,0-8.71,3.45-11.5,7.55"/><path class="cls-1" d="M536.5,1V17.25h12V1"/><path class="cls-1" d="M900.5,534.5c1.14,10.15.23,20.33.48,30.5.11,4.16,0,8.33,0,12.5"/><path class="cls-1" d="M470.5,691.5c3.73,2.73,8.32,2.61,12.52,3.38,11.75,2.17,23.37,4.87,35,7.66,8.21,2,16.71,2.81,24.55,6.38A15.3,15.3,0,0,1,548,712.5"/><path class="cls-1" d="M365,611.5c.37,6-3.3,10.92-4.55,16.49-.16.68-1,1-1.95,1-9.55,1-17.36,6.57-26,9.86-10.58,4-20.19,10.09-30.92,13.71-1,.34-2.05,1.28-3,.84-6.43-2.93-12,.07-17.51,2.58-11.49,5.22-19.9,13-23.25,25.91-1.32,5.08-5,10.13-4,15.25,1.21,5.69-.44,10.89-.3,16.31"/><path class="cls-1" d="M157,227c-2.66,10-3.46,20.31-5,30.5q-1.11,7.49-2,15c-.23,2-1.27,2.32-3,2.55-8.88,1.18-17.68-.24-26.51-.59-3.64-.14-5.08-2.51-5-6q.5-21,1-42"/><path class="cls-1" d="M56,93l44,.5"/><path class="cls-1" d="M893.5,567c1.48-.52,2.33-1.67,3.33-3.32-14.23-3-28.31-1.34-42.33-1.18"/><path class="cls-1" d="M94,103l-42-.5"/><path class="cls-1" d="M226.5,866.5a346.14,346.14,0,0,0-41.5,0"/><path class="cls-1" d="M522.5,714.5c-.82.5-.52,1.32-.48,2,.68,13.19-1.22,26.32-1,39.5"/><path class="cls-1" d="M43.5,1481.5c-10.65-1.13-21.34-.21-32-.49-3.16-.08-6.33,0-9.5,0"/><path class="cls-1" d="M492.5,679.5,534,697"/><path class="cls-1" d="M100,126H59"/><path class="cls-1" d="M85,82c-10.33.26-20.67-.37-31,.4-3.71.27-5.74.58-4.73,5.15A10.16,10.16,0,0,1,49.5,92"/><path class="cls-1" d="M115,269c-1.53-.35-2.38.76-3.55,1.41-2.41,1.36-4.62,2.85-8.06,1.33-2.45-1.08-5.89.29-8.89.22-8.83-.19-17.68.63-26.5-.43a8.61,8.61,0,0,0-2.5.47"/><path class="cls-1" d="M552.5,719c-.32,2.46,1.53,3.72,3,5,4.46,3.71,5.34,8.59,5.54,14,.31,8.16-1.85,16.06-2.28,24-.86,16.14-.71,32.45,5.21,48,1.15,3,2.19,6.07,3.56,9,.74,1.56.38,3,.44,4.53"/><path class="cls-1" d="M194,85H170.25q-.37,8.23-.75,16.5"/><path class="cls-1" d="M819,579c1.59,2.82,1.45,5.92,1.51,9,.12,5.5.54,11,.4,16.5-.07,2.94,2.05,4,3.64,5.44,7.11,6.24,15.82,8.06,25,8.56"/><path class="cls-1" d="M435,2c-1,5-.24,10-.62,15.25H445.5V1"/><path class="cls-1" d="M424.5,1q0,14.25,0,28.5c0,1.67.31,3.4-.49,5"/><path class="cls-1" d="M135,190.5H102"/><path class="cls-1" d="M456,3c2.36,2.82,5.58.81,8,.71,7.68-.32,15.35.08,23-.21"/><path class="cls-1" d="M496,43.5c.74,9.83.31,19.66.18,29.5-.1,7.64.28,15.33.31,23,0,10.67,0,21.33,0,32"/><path class="cls-1" d="M132,196H102"/><path class="cls-1" d="M941,423.5c-1.16,10-2.17,20,.45,30,.81,3.07-1,6.51,1,9.49"/><path class="cls-1" d="M299,1286c-4.83,1-9.65,2.09-14.5,3-5.15.94-10.33,1.69-15.5,2.52"/><path class="cls-1" d="M737.5,486.5c2.5.16,4.18-.81,4-3.5s1.41-6-1.5-7.93c-2.26-1.52-4.16-.6-5.49,1.91-2.21,4.2-.74,7.3,2.54,10"/><path class="cls-1" d="M435,113c-1.41,2.87.29,3,2.5,3,7.83,0,15.67,0,23.5,0"/><path class="cls-1" d="M282,1265.5c-9.74.57-19.18,3.6-29,3.5"/><path class="cls-1" d="M114,143H85"/><path class="cls-1" d="M132,201c-9.32,1.14-18.67.19-28,.5"/><path class="cls-1" d="M163,196H136"/><path class="cls-1" d="M554,105a5.66,5.66,0,0,0,1.56,4.45c3.7,4.28,7.62,8.37,11.94,13L576,114"/><path class="cls-1" d="M173.5,290.5c-.23-1.6.73-2.25,2-3.05,3.13-2,4-4.94,2.15-8.84A46.48,46.48,0,0,0,164.5,290"/><path class="cls-1" d="M18,621.5c-.33,0-.81-.15-1,0C9.79,628.44,3.48,636,1,646"/><path class="cls-1" d="M478,15H453"/><path class="cls-1" d="M485,21H460"/><path class="cls-1" d="M445,120c1.06,4.33.19,8.67.66,13.5H433"/><path class="cls-1" d="M241,104.5H216.5"/><path class="cls-1" d="M385.5,583c-.33.67-.49,1.6-1,2-7.69,5.17-11.06,13.47-15.53,21a14.24,14.24,0,0,1-6.22,5.46c-7.84,4.07-14,10.66-15.72,20.08"/><path class="cls-1" d="M650.5,543.5c-1.12,8.15-.19,16.34-.51,24.5-.13,3.5-.32,7-.49,10.5"/><path class="cls-1" d="M852.5,571.5c-.82.86-1.53,1.76-3,1.52-6.92-1.12-14-1.29-20.5-4.52"/><path class="cls-1" d="M191,167H168"/><path class="cls-1" d="M873,592.5c-5.44,3.88-10.37-.26-15.49-1.06-2.58-.4-4.74-2.41-7.51-2.44"/><path class="cls-1" d="M563,95l15.65-14.83a105.31,105.31,0,0,1,11.18,12.76c-1.82,3.17-3.52,6.15-5.42,9.48a132.32,132.32,0,0,1,12.78,14.47L594,119"/><path class="cls-1" d="M81,131.5c-7.31,1-14.67.3-22,.5"/><path class="cls-1" d="M529,46c-5.67,1.73-11.33-1-17.5-.37V51"/><path class="cls-1" d="M592,17c-8.81,1.15-17.67.15-26.5.51-2.17.09-4.39-.45-6.5.49"/><path class="cls-1" d="M78,148H57"/><path class="cls-1" d="M487,101H466"/><path class="cls-1" d="M237,148H216"/><path class="cls-1" d="M738.5,584c.84,3.61,1,7.27,3.41,10.57,5.55,7.58,11.93,7.91,17.6.44a9.44,9.44,0,0,1,1-1"/><path class="cls-1" d="M426,588c3.36,6.56,7.77,12.71,8,20.5"/><path class="cls-1" d="M466,110c6.64,1.08,13.34.22,20,.5"/><path class="cls-1" d="M487,133c-6.64-1.08-13.34-.22-20-.5"/><path class="cls-1" d="M487,82H467"/><path class="cls-1" d="M522,3.5c-6.67.23-13.35-.52-20,.5"/><path class="cls-1" d="M753.5,477c-1.81-2.41-3.77-2.92-6-.5a7.34,7.34,0,0,0-.5,9.5c2.34,2.79,4.67,2.27,7,0"/><path class="cls-1" d="M467.5,89H487"/><path class="cls-1" d="M466,49c7.33.49,14.67.92,22,0"/><path class="cls-1" d="M234,137H215"/><path class="cls-1" d="M20,616c-6.31-1-12.67-.25-19-.5"/><path class="cls-1" d="M78,190c6.31,1.13,12.67.19,19,.5"/><path class="cls-1" d="M486,116H467"/><path class="cls-1" d="M743.5,580a28.21,28.21,0,0,0,15,15.5"/><path class="cls-1" d="M937.5,349c5.5,4,11,8,16.49,12,.63.46,1,1.07,2,1,6-.38,12-.69,18-1"/><path class="cls-1" d="M530.5,51.5,499,51"/><path class="cls-1" d="M488,60c-6,1.16-12,.29-18,0"/><path class="cls-1" d="M719.5,480c-1.75,2.22-.69,4.64-1.08,6.94,4,.4,4,.4,7.08-2.94-.63-1.31-1.18-2.68-2.5-3.5"/><path class="cls-1" d="M748,533.5c-1.86-3.07-4.76-3.16-7.46-1.91-3.25,1.5-6.51,7.51-6,9.91.64,3.36,4.09,3.58,6,5.5"/><path class="cls-1" d="M97,278.5c.69,5.28,5.23,6.49,9,8.5,1.83,1,3.93,1.63,4.5,4"/><path class="cls-1" d="M491.5,679.5c-.51,5.5,1.48,11,0,16.5"/><path class="cls-1" d="M591,131H574.5"/><path class="cls-1" d="M570.5,1c-.18,5.33.44,10.69-.5,16"/><path class="cls-1" d="M759.5,475c-.88,5.07,1.18,9.51,3,14"/><path class="cls-1" d="M843.5,475c-.37,5.39,3.66,9.22,5,14"/><path class="cls-1" d="M229,110c-5-1.1-10-.21-15-.5"/><path class="cls-1" d="M669,2c.29,8.69-.5,17.34-1,26"/><path class="cls-1" d="M593,504c-4.71,2.1-9.69.34-14.5,1"/><path class="cls-1" d="M132,179l18,.5"/><path class="cls-1" d="M481.5,127.5c-4.83,1-9.67.51-14.5,0"/><path class="cls-1" d="M884.5,613.5c2.62,2.21,6,1.58,9,2.54,2.56.82,5,2,7.51,3"/><path class="cls-1" d="M483,8H456"/><path class="cls-1" d="M874.5,390,861,394.5"/><path class="cls-1" d="M188,92c-4.33.62-8.67-1.41-13,0"/><path class="cls-1" d="M729,474c1,4.3.27,8.67.5,13"/><path class="cls-1" d="M535.5,674c1.37,6.83.18,13.7-.23,20.49-.21,3.51.26,7-.27,10.51"/><path class="cls-1" d="M73,201.5H60.5"/><path class="cls-1" d="M824,475.5l-5.25.88V488.5H825"/><path class="cls-1" d="M140,84c4,1.09,8,.22,12,.5"/><path class="cls-1" d="M518,8a29.93,29.93,0,0,0-12,0"/><path class="cls-1" d="M80.5,290.5c1.72,2,4,.68,6,1,1.85.28,3.89-.52,5.5,1"/><path class="cls-1" d="M789,475.5c-1.84,1.16-4,.92-6.07,1.12a8.75,8.75,0,0,0,.07,5.88"/><path class="cls-1" d="M788,482.5c-5.48-.71-5.79-.37-5,5.67l6,.83"/><path class="cls-1" d="M739,568.5c-.82,5.18-4.84,5.94-9,6.5"/><path class="cls-1" d="M589,137c-3.63-1-7.34-.25-11-.5"/><path class="cls-1" d="M780,476h-5.5v13"/><path class="cls-1" d="M772,476c-1.5,1.22-3-.17-4.83,0-1.58,4.1-1.69,8.52-1.67,13"/><path class="cls-1" d="M804,476.5c-3.41-1.14-5.83-.62-6.53,3.5-.79,4.63.79,7.93,4.54,8.39.74.09,1.66-1.22,2.49-1.89"/><path class="cls-1" d="M597,63.5H587"/><path class="cls-1" d="M828.5,475c.16,3.52,1.13,6.68,4,9"/><path class="cls-1" d="M151,269.5c5.83.56,11.84-1.08,17.5,1.5"/><path class="cls-1" d="M507,105.5h-9.5"/><path class="cls-1" d="M810.5,480c-2.64,2.56-1.9,5.87-2,9"/><path class="cls-1" d="M435.5,4c2.95,1,6,.16,9,.5"/><path class="cls-1" d="M836.5,475c-1.42,4.67.67,9.33,0,14"/><path class="cls-1" d="M769.5,467a8.41,8.41,0,0,0,0-5.86c-3.85,1.58-7.31,3.37-10,6.36"/><path class="cls-1" d="M149,291l8.5,1"/><path class="cls-1" d="M110,292c-.42,3.64-5.56,4-5.5,8"/><path class="cls-1" d="M417,160c2.22,1.76,4.61,1.14,7,.5"/><path class="cls-1" d="M144,292.5c-1.05,3.07-5.39,3.74-5.5,7.5"/><path class="cls-1" d="M768,429c1.33.17,2.77.75,4,.43,5.13-1.35,7.29,0,7.5,5.07.09,2.17.27,4.38-.51,6.47-2.09.78-4.29.49-6.47.53"/><path class="cls-1" d="M779,461c-2.33-1-3.86-.15-5,2a3,3,0,0,1-3.47,1.52"/><path class="cls-1" d="M126.5,292.5c-2,2.07-4.25,3.84-5.5,6.5"/><path class="cls-1" d="M812.5,481c2.14,1.91,2.19,4.42,2,7"/><path class="cls-1" d="M803,467.5c-1.5-.33-3-.79-4.5-1-4-.47-8.21-.19-9.88-4.19-2.78-1.31-2.89,1.8-4.62,1.67"/><path class="cls-1" d="M942,453.5c2.37-.36,4.26,1.3,6.5,1.5"/><path class="cls-1" d="M828.5,481a9.16,9.16,0,0,0,0,6.5"/><path class="cls-1" d="M843,483.5c-1.92,1.45-1.46,3.54-1.5,5.5"/><path class="cls-1" d="M556.5,370c2.25,1.39,4.73-.56,7,.5"/><path class="cls-1" d="M835.5,480a10,10,0,0,0-3,6"/><path class="cls-1" d="M567,92.5l3.6,3.9,4.9-4.9"/><path class="cls-1" d="M785,423l-5.5,4.5"/><path class="cls-1" d="M783.5,445.5c2.5-.1,5.12,1.4,7.5-.5"/><path class="cls-1" d="M774,449c4.29-.64,4.55-.35,3.5,4"/><path class="cls-1" d="M772,430c.3,1.64-.36,2.3-2,2"/><path class="cls-1" d="M884,601.5c-6.41,1.18-13,1-19,4.42-9.36,5.42-10.27,14.41-.87,19.42,12.95,6.91,26.58,8.72,40.45,1.73A17.59,17.59,0,0,0,913,618c2.63-5.87-.43-11.1-8-14-6.66-2.58-13.56-2.57-20.51-2.46"/><path class="cls-1" d="M537.5,731a11,11,0,0,0-1,17c2,1.85,4.2,1.09,6,.34,2.38-1,4.71-9,3.48-11.85-1.43-3.31-3.69-6-7.93-5.53"/><path class="cls-1" d="M776.5,534c-6,1.26-12.16.86-18,2.9A17.06,17.06,0,0,0,754,539c-4.4,3.15-4.18,6.34.48,9,5.13,2.91,10.79,3.86,16.51,4.46a130.88,130.88,0,0,0,27.49,0,19.72,19.72,0,0,0,10.48-4c3.66-2.94,3.35-5.4-.45-8.5-3.54-2.89-7.92-3.61-12-4.32-6.4-1.08-13-1.15-19.47-1.65"/></g></g></svg>