<svg xmlns="http://www.w3.org/2000/svg" viewBox="0 0 1024.06 1022"><defs><style>.cls-1{fill:none;stroke:#333;stroke-linecap:round;stroke-linejoin:round;stroke-width:2px;}</style></defs><g id="Layer_2" data-name="Layer 2"><g id="Layer_1-2" data-name="Layer 1"><path class="cls-1" d="M814,223.5c-25.17.5-50.35.57-75.49,1.67-14.51.63-29,.39-43.51.89q-39.24,1.38-78.5,2.1c-13.49.26-27,.45-40.5.93-27.16,1-54.33,1.26-81.5,2-13.5.39-27,.54-40.5,1-28.83.9-57.66,1.54-86.5,2.09-15,.28-30,.64-45,.87-23.5.35-47,1-70.5,1.46-20.33.45-40.66,1.15-61,1.64-26.83.64-53.65,1.57-80.5,2q-22.74.4-45.5.88c-21.16.48-42.32,1.17-63.5.94"/><path class="cls-1" d="M813.5,198.5a5.45,5.45,0,0,1-1.5.48c-22.67.36-45.35.29-68,1.15-16.83.64-33.69.27-50.49,1.05-14.18.66-28.38.07-42.5,1-19.67,1.24-39.35.38-59,1.28-14.65.67-29.33.74-44,1.07-22.5.5-45,.75-67.5,1.58q-30.24,1.11-60.5,2c-25.33.77-50.67,1.24-76,2.11-17,.59-34,.48-51,1.18-21.32.87-42.68.83-64,1.66-26.16,1-52.32,1.55-78.5,2.1-13.83.29-27.7.15-41.49,1-20.34,1.22-40.7.1-61,1.37-15.5,1-31,.19-46.5.47"/><path class="cls-1" d="M833,133c1.06,1.58.47,3.34.47,5q0,259.25,0,518.5"/><path class="cls-1" d="M814.5,271.5c-23.33.59-46.66,1.22-70,1.77-14.5.35-29,.17-43.51.79-26.49,1.13-53,1.37-79.5,2.05-23.33.6-46.66,1.37-70,2-21.33.6-42.65,1.49-64,2-14.83.38-29.68.37-44.5.91-26.83,1-53.66,1.48-80.49,2.13-12.84.32-25.68.36-38.51.83-25.83.95-51.66,1.51-77.49,2.17-15.67.4-31.35.6-47,1.22-19.49.76-39.05.39-58.48,1.79-13.68,1-27.42-.37-41,1.71a10.36,10.36,0,0,1-6-.44"/><path class="cls-1" d="M592,532.5c-8.89-1.29-17.75-.2-26.47,1.18-4.52.72-7.38,4.39-9.64,8.76-13,25.17-25.8,50.44-34.37,77.57a207.13,207.13,0,0,0-10,60c-.25,19.73,1.65,39.35,2.92,59,1,15,2.67,30,2,45-.48,11.56-2.29,22.77-7.28,33.57C502.5,832,490.92,840.21,477,846c-12,4.95-24.86,5.7-37.49,7.53-24.22,3.5-48.57,5.66-73,7-7.5.42-15,1-22.5,1.49"/><path class="cls-1" d="M1023,73q-39.5,0-79,0c-51.17-.09-102.33,1.25-153.5,1.2q-37.49,0-75,.3c-25.67.23-51.33.34-77,.51"/><path class="cls-1" d="M1023,55c-128.17-.7-256.33,1-384.5,1"/><path class="cls-1" d="M1023,35c-65.33,0-130.67-.5-196,.16-51.17.52-102.33.52-153.5,1.07-11.64.12-23.33.56-35,.77"/><path class="cls-1" d="M1023,17H638.5"/><path class="cls-1" d="M1.5,525c20-.56,40-1.68,60-3,14-.89,28-1.16,42-2.11,10.5-.71,21-.81,31.5-1,4.17-.09,7.85,1.85,12,1.69,8.85-.36,11.26-2.94,9.45-11.57-1.55-7.39,1.68-13.77,3.49-20.53,2.11-7.89,4.9-15.6,5.28-24a37.57,37.57,0,0,0-.37-8c-1.13-6.69-5.28-9.75-11.81-7.88-13,3.72-26.35,2.62-39.54,3.3-23.83,1.22-47.66,2.14-71.5,3-13.49.5-27,.7-40.5,1"/><path class="cls-1" d="M507,325.5c-11.34-.52-22.67-1.29-34,.37a41.69,41.69,0,0,1-7,0c-11.53-.36-23,.93-34.5,1.2-26,.59-52,1.6-78,2.42-11.33.35-22.66.76-34,1-24,.46-48,1.2-72,1.69-19.66.4-39.33,1.23-59,1.94-24.18.87-48.32,3.08-72.5,3.69-14.82.38-29.63,1.4-44.51,1.2-6.62-.08-13.65.56-20.49,1-10.16.61-20.33,1-30.5,1.53L1,342.5"/><path class="cls-1" d="M941,262c-1.06,1.58-.47,3.34-.47,5q0,170.25,0,340.5c0,2,.31,4,.48,6"/><path class="cls-1" d="M350.5,811.5c-11.33.83-22.66,1.75-34,2.48-14.84,1-29.69,1.63-44.51,2.95-11.63,1-23.32,1.45-35,2.06-15.35.8-30.69,1.64-46,2.94-13.8,1.17-27.66,1.69-41.49,2.58-20.17,1.29-40.33,2.68-60.5,4q-27.75,1.8-55.5,3.51l-32,2"/><path class="cls-1" d="M324,649.75c0,11.66,2.8,22.9,5,34.26,3.66,19.3,6.94,38.67,10.57,58,3.88,20.68,8.49,41.25,11.76,62,1.82,11.49,1.49,23.31,2.24,35,.2,3.09-1,3.88-4,4.09-22.68,1.51-45.34,3.35-68,4.87-15.16,1-30.34,1.59-45.5,2.57-16,1-32,2.37-48,3.45-16.16,1.09-32.34,1.94-48.5,3-12.67.87-25.32,2.34-38,2.86-11.19.46-22.34,1.35-33.5,2.14-13.83,1-27.7,1.38-41.51,2.87-8.27.89-16.66.77-25,1.1"/><path class="cls-1" d="M475.5,859c7.33,21,14.61,42,22,63,8.95,25.35,18,50.66,27,76a13.75,13.75,0,0,1,.95,5.48c-.21,2.77-2.07,4.27-4.91,4.52-3.75.34-5.4-2-6.49-5q-4-11.24-8-22.5-19.26-54.5-38.54-109c-1.17-3.29-2-6.78-4.46-9.51"/><path class="cls-1" d="M855.5,838c8.26,3.76,17.28,4.25,26,6,6.33,1.23,12-.59,17.54-3.87,2.41-1.44,5.13-2.71,7.32-4.28,3.49-2.51,7.73-3.94,10.66-7.29,1.56-1.79,3.88-1.78,6-1.48,14.9,2.15,29.7,5,44.44,7.82,8.45,1.63,17.11,3.87,25.15,8,12.16,6.23,17.74,16.26,19.4,29.15.86,6.68-.53,13.44-.15,20,.56,9.69.3,19.36.69,29,.3,7.5,1.8,15,.39,22.48-.7,3.75,1,7,1.27,10.51.77,12-4.95,19.83-14.12,26.6-19.42,14.33-41.71,20.31-65.07,23.35a268.58,268.58,0,0,1-29.49,2.14c-18.83.36-37.17-3.1-55.49-6.64-14-2.71-28-6-42-8.87-1.49-.3-2-1.41-3-2.07"/><path class="cls-1" d="M814,317c-27.17.67-54.34,1.11-81.5,2.1-12.83.46-25.67.52-38.5,1-26.16,1-52.34,1.27-78.49,2.13-16.5.54-33,0-49.5,1.4-7.17.59-14.42-.66-21.51,1.13"/><path class="cls-1" d="M531.5,482.5c1.89-6.19,1.45-12.69,2.41-19,2-13.2,5.12-26.1,8.38-39,4.56-18.08,10.66-35.57,17.23-52.94,2.54-6.72,5.34-13.33,8.12-20.23-15-16-29.36-32.56-46.66-46.81A46.87,46.87,0,0,0,514,315c-15.18,28.56-24.49,59.2-32.06,90.48A145.87,145.87,0,0,0,480.43,467a257.19,257.19,0,0,1,3.48,26.5c1.16,15.11-6.71,21-22.92,22.39-11.05.92-22-1.76-33-2.53a440.31,440.31,0,0,0-53-.54,347,347,0,0,0-54.48,6.71c-6.72,1.42-13.34,3.29-20,5"/><path class="cls-1" d="M459.5,577.5c.33.67.49,1.55,1,2,9.47,7.38,10.84,18.54,13.36,29.06.88,3.66,2.25,7.41.78,11.53a7.52,7.52,0,0,0,1,6.32c4.59,5.25,3.44,11.7,4.24,17.64,1.14,8.43,2.78,17,2,25.47-1.14,12.38,3.74,23.91,4.13,36,.31,9.3-.68,18.52-4.59,27C475.09,746,463.2,751.59,449,751.9c-33.84.75-67.65-2.24-101.5-1.39-1.84,0-3.73-.35-5.5.49"/><path class="cls-1" d="M813.5,631.5c-22.67,1.17-45.33,2.53-68,3.4q-13,.5-26,1.09c-21.33,1-42.66,2.21-64,2.91-8.34.28-16.67.68-25,1.09q-31.5,1.54-63,3c-2.31.1-4.73.66-7-.45"/><path class="cls-1" d="M813,607c-22.51.7-45,1.42-67.5,2.94-12.48.84-25,1-37.5,1.56-28.67,1.16-57.34,2.24-86,3.54-17.84.8-35.67,2-53.5,2.92-1,0-2.15.58-3-.46"/><path class="cls-1" d="M1.5,757c18.85-.9,37.67-1.92,56-7a27.1,27.1,0,0,1,7.49-1c11,.14,22-.52,33-1a442.51,442.51,0,0,0,52-5.44c2.4-.4,2.84-1.81,3.51-3.57a182.48,182.48,0,0,0,11-48.51c.74-8.32.21-16.68.34-25,.1-6.85,3.4-13.6,4.61-20.51,3.39-19.33,2.76-38.68-.46-58a9.4,9.4,0,0,0-1-2.13,170.94,170.94,0,0,1-26,4.8,30.9,30.9,0,0,1-11-.81c-13.9-3.72-27.94-3.18-42-2.36a236.1,236.1,0,0,0-47,7c-9.24,2.45-18.45,4.92-28,6.09-4.2.51-8.35.12-12.51.4"/><path class="cls-1" d="M236,181a13.51,13.51,0,0,1-6,1c-7-.06-14,0-21,0-26.67-.26-53.32,1.11-80,1.23-15.15.07-30.35.28-45.49.9-17.51.72-35,.75-52.51.92-9.84.1-19.67.63-29.5,1"/><path class="cls-1" d="M929,907.5c-11,1-22,2.46-33,2.88-13.51.52-27-.15-41-1-2,1.47-1.53,4.12-1.53,6.64v66.84c10.46,2.7,21.24,4,32,5.1a195,195,0,0,0,74-6.46c14.15-4,27.54-9.68,39.56-18.41,5.53-4,8.51-9.89,12.45-15.07"/><path class="cls-1" d="M230.5,153.5c-9,1.13-18,1-27,1.27-16.15.45-32.33.75-48.49,1.19-29.5.8-59,1-88.49,2.21-11.51.45-23.06.07-34.49,1-10.2.85-20.35.54-30.52.81"/><path class="cls-1" d="M492.5,1014.5c-10.59-31.37-21.68-62.57-33.59-93.47-4-10.42-8.92-20.5-13.66-30.64C438.87,876.75,428.42,873.73,415,875c-11.65,1.06-23.35,1.54-35,2.6-11.82,1.08-23.79.54-35.5,3"/><path class="cls-1" d="M227.5,135.5c-4.5.17-9,.57-13.5.46-21.52-.54-43,1-64.49,1.36-11.49.22-23,.14-34.51.7-28.65,1.39-57.32,1.73-86,2.15-9.15.14-18.32.82-27.5.83"/><path class="cls-1" d="M813.5,165.5c-42.33.83-84.67.13-127,.6-28.33.31-56.66.94-85,.9"/><path class="cls-1" d="M763.5,567c-17.86.81-35.7,1.72-53.51,3.44-4.12.4-8.32,0-12.49.06a32.54,32.54,0,0,0-9.58,1.74c-4.51,1.38-9.58,1-14.42,1.24-14.33.56-28.67.91-43,1.55-15.84.7-31.67,1.66-47.5,2.44-1.86.09-3.89.58-5.5-1"/><path class="cls-1" d="M565.5,354.5c-6.17-3-12.29-6.09-18.51-9-4.61-2.14-9-1.33-12.46,2.5-6.25,6.92-10.58,15-14.61,23.43a258.91,258.91,0,0,0-15.82,43.07c-6.45,23.32-5.53,46.76,1,69.93,1.16,4.1,1,9,4.87,12"/><path class="cls-1" d="M496,1c.33,11,.75,22,1,33,.4,19.5.67,39,1,58.5q.45,25.25,1,50.5c.26,11.17.7,22.33.94,33.5a11.32,11.32,0,0,0,1.05,4"/><path class="cls-1" d="M456.5,1c-.12,26.84,1.06,53.66,1.25,80.5.11,15.65.09,31.36.9,47,.87,17,.63,34,.91,51,.07,3.8-1.63,5.36-5.06,5.48q-10,.36-20,.5c-4.08.07-5.65-1.71-5.51-5.73.66-19.77-.71-39.5-1-59.25-.15-10.33-.34-20.67-.5-31-.39-25-1.42-50-1-75,.07-4.5-.3-9-.47-13.5"/><path class="cls-1" d="M414.5,1c-.5,25.84.77,51.67,1.32,77.49.36,17,.19,34,1.09,51s1.09,33.83,1.59,50.75"/><path class="cls-1" d="M465.5,1c-.66,16.35,1,32.66,1.29,49,.16,9,.21,18,.76,27,1.16,18.82,2,37.66,3.13,56.49.88,15.17,2.23,30.32,2.81,45.51.17,4.59,1.16,5.88,5.5,5.43,5.18-.54,10.35-.21,15.51-.49,2.17-.12,4.75.4,6-2.42.79-1.74,2.59-1,4-1q44.5-.28,89-.52c7,0,7.17,0,7-7-1.57-57.33-.8-114.67-1-172"/><path class="cls-1" d="M512.5,1c.14,18.67.69,37.35,1.32,56,.45,13.34.08,26.69.7,40,1.2,25.65,2.05,51.31,1.94,77,0,1.83,1.31,3.67,0,5.5"/><path class="cls-1" d="M479.5,674c-3.15-5.06-3.37-11.09-5.46-16.52-4.42-11.46-6.8-23.56-11.19-35.11-2.73-7.18-5-14.66-7.9-21.85-3-7.44-7.14-14-15.46-16.5-4.09-1.22-8.37-.74-12.48-.41-7,.56-14,.24-21,.38-17.83.36-35.68.44-53.5,1.11-9.51.35-14.84,7.18-18.38,15-4,8.77-5.21,18.28-6.53,27.88-.93,6.81.49,14.14-3.09,20.56"/><path class="cls-1" d="M478.5,416.5c-7.17-1.5-14.33.13-21.5.12-8.67,0-17.34.84-26,1.39-12.5.79-25,1.58-37.5,2.51-14.5,1.08-29,2.14-43.49,3.53-12,1.16-24.19,2-35.07,8.35-1.39.8-3,1.35-3.9,2.63-1.75,2.37-3.73,2.51-6.56,2.1-5.06-.72-8.4,3-12,5.87"/><path class="cls-1" d="M23.5,391.5c3,3.17,1.51,6.16-.53,9-1.52,2.1-3.4,3.95-4.93,6-.68,1-1.52,2.06-1,3.47,1.5,4.4.11,8.68-.49,13-.77,5.5.54,7,6,7,47.67,0,95.33-.07,143,.11a21.67,21.67,0,0,0,12.92-4.22c9.89-7,19.41-14.56,29.22-22-.87-3-.91-6.3-3.14-8.89"/><path class="cls-1" d="M1023,94c-23,.17-46,0-69,.61-18,.51-36-.19-54,.49-14.67.54-29.33.17-44,.4"/><path class="cls-1" d="M177.5,397c0,10,0,10-10,10H25.5c-2,0-4.11.41-6-.74"/><path class="cls-1" d="M486.5,567.5c-19,4-37.74-.07-56.49-2.12-18.18-2-36.31-1.87-54.51-.93-14.57.75-29,2.39-43.5,4.07-7.51.88-15,2-22.5,3"/><path class="cls-1" d="M477,427c-22.32,1.64-44.69,2.55-67,4.38-15.46,1.28-30.93,2.6-46.49,2.71-14.58.1-28.85,3.06-43,6.4-1.28.3-1.76,1.4-2.5,2.26"/><path class="cls-1" d="M81,95.5c1.6.8,3.33.49,5,.49q70.25,0,140.5,0c4,0,8-.31,12-.48"/><path class="cls-1" d="M19,416c23,0,46-.19,69,.05,24,.26,48,.95,72,1.45a4.17,4.17,0,0,1,1,0c6.72,1.95,12.08-1,17.54-4.44,7.29-4.61,13.61-10.44,20.55-15.45,3.5-2.53,6-6.15,9.89-8.17,2.07-1.07,2.36-3.52,3.27-5.45"/><path class="cls-1" d="M1001,630.5c0,10.17-.82,20.42.2,30.48,1.36,13.37.78,26.7.64,40-.12,11.83-.25,23.67-.31,35.5,0,3.19-1.11,5.49-4.53,5.43-3.26-.07-4.57-2.23-4.52-5.43.35-20-.44-40,.37-60,.17-3.92-1.11-8.11-2.1-11.93-1.91-7.4-.72-14.73-1.26-22.06-.28-3.67.9-7.47-1-11"/><path class="cls-1" d="M209.5,362.5C212.28,368.62,212,372,206,375c-7,3.43-10.93,10.09-16.46,15.06-4.33,3.89-8.78,7.05-15,6a18.77,18.77,0,0,0-3,0H25.5"/><path class="cls-1" d="M240.5,109.5c-20.33,1-40.68-.06-61,.6-19,.62-38-.19-57,.5-16,.58-32,.15-48,.4"/><path class="cls-1" d="M344.5,870c27.2-1.34,54.47-1.66,81.5-5.48,2.31-.33,4.67-.34,7-.52a12.14,12.14,0,0,1,10.64,3.86c9,9.09,14.22,20.44,19.17,31.72,7.55,17.19,14,34.87,20.65,52.43,7.63,20.12,16,40,22.68,60.44a30,30,0,0,1,1.36,8.55"/><path class="cls-1" d="M1023,193c-25.82,1.07-51.66,1.67-77.5,2.18-17,.33-34,.74-51,.86-4.17,0-8.43.56-12.51.64-7,.13-13.71.25-20.53,2.18-5.52,1.56-10.34-1.59-15-4.36"/><path class="cls-1" d="M226,111.5c-1,6,1.32,11.62,1.66,17.49.47,8,2.43,16,3.71,23.95,1.12,7,3.48,14,4.4,21.09.8,6.14,4.42,11.6,3.75,18-.26,2.46,1.42,3.11,3.47,3.53,6.29,1.27,12.56,2.49,19,2.48,14.83,0,29.67.09,44.5,0A161.59,161.59,0,0,0,342,194.1c4.22-1,5.69-2.67,5.6-7.1-.19-9.61,1.75-19,3.31-28.51,2.42-14.75,4.33-29.58,5.58-44.49.25-3,.74-6,1-9,.13-1.83.43-3.8-2.47-4-2.43-.21-3.18,1.55-3.42,3.06q-1.77,11.2-3.05,22.49c-1.44,12.66-2.74,25.33-4,38-.15,1.57-1.39,2-2.05,3"/><path class="cls-1" d="M834,748c-1.06,1.58-.46,3.34-.47,5q-.06,69,0,138c0,2-.31,4-.48,6"/><path class="cls-1" d="M22.5,365.5c1.81-3.46,5.68-4,8.51-6,6.13-4.33,13.17-7.19,19-12,1.61-1.31,3.67-1.28,6-1.22,13.16.35,26.33.07,39.5.19,21.33.21,42.66-.36,64,.38,14.32.51,28.67.1,43,.1,1.17,0,2.58-.43,3.45.08,2.46,1.43,6.68-.53,7.56,3.92,1,5.1-.58,8.7-5,11-9.32,4.81-18.2,10.32-27,15.94A26.76,26.76,0,0,1,167,382q-68.74.07-137.5,0c-3.17,0-6.33,0-9.5,0s-4.22-1.57-4-4.51c.12-2,0-4,0-6,.12-3.42,4.36-7.08,6.83-5.28,2.83,2.06,5.18.71,7.66.72q67,.12,134,0c7,0,9.12,2.39,8.52,8.53-.14,1.49,0,3,0,4.5"/><path class="cls-1" d="M312,1c.17,43.33.18,86.67.67,130,.07,6.11,1.92,12.25,1.83,18.5"/><path class="cls-1" d="M1023,216c-23.19.53-46.34,1.79-69.51,2.81-10.15.45-20.32,1-30.49,1.26-15,.4-30,1.15-45,2-10.5.57-21,1.54-31.5.46"/><path class="cls-1" d="M814.5,132c-.51,22-.36,44-.07,66,.16,11.78.35,23.69.76,35.52.42,12.44.34,25,.1,37.5-.23,12,.12,24,.17,36,.12,31,0,62,0,93,0,18.83.4,37.68-.09,56.5-.72,27.33,0,54.67-.46,82-.13,8.34.13,16.72-.23,25-.62,14.43-.22,28.86-.42,43.26-.21,14.89-.25,29.84.24,44.75.22,6.67,2.58,8.86,9.46,9.49,6.57.6,12.78-1.13,19-2.94,3.49-1,2.88-4.21,2.79-6-.38-7.19.22-14.37,0-21.5-.66-22.68-.19-45.34-.27-68-.16-46.5,0-93,0-139.5V322c0-15.5.07-31,0-46.5-.09-16.5-.38-33-.24-49.5.16-21.16,0-42.33.22-63.5.08-8.16-.34-16.33-.44-24.5,0-3.3-.39-7-1.08-8.1-6.89,1.45-13.84,1.41-20.94,1.35-16.65-.13-33.15-2-48.88-6.66-11.55-3.41-22.77-2.31-34.12-2.46-29.33-.39-58.67-.16-88-.11-8,0-16,.07-24,.58-3.89.25-4.59-1-4.58-4.6q.17-58.5.07-117"/><path class="cls-1" d="M469.5,647c-8.25,1.85-16.67.79-25,1.41-19.48,1.45-39,2.46-58.49,3.58-12.83.73-25.67,1.32-38.5,2-4.84.27-9.66.77-14.5.94a79.6,79.6,0,0,1-8-.45"/><path class="cls-1" d="M1023,143c-28.33.67-56.68.59-85,1.3-17.34.43-34.68.22-52,.72-3.56.1-7.23,1.68-10.5-1"/><path class="cls-1" d="M869.5,223c-1.34,2.67.19,5.32.07,8-.6,13.33-.78,26.73-.52,40,.87,42.68.08,85.34.41,128,.2,25.5-.36,51,.15,76.5.5,25.17.61,50.34.17,75.5-.17,9.85.66,19.66.25,29.5-.31,7.16-.68,14.34-.47,21.5.5,16.83-1.28,33.68.75,50.52.38,3.14-.23,6.65-.29,10-.1,6.55,2.4,9.9,8.46,12.54,9.15,4,18.56,3.76,28,1.9a33.29,33.29,0,0,0,18.06-9.65c3.33-3.38,8.33-5.94,12.94-8.31,8.33-4.27,16.9-8.17,24-14.48.31-.27.67-.72,1-.72,9.81,0,15.62-8,23.45-11.88,3.12-1.57,5.72-3.47,9.58-2.5,3.19.8,6.17-.16,9-2.3,4.25-3.17,8.55-6.37,13.43-8.6"/><path class="cls-1" d="M341.5,845c1.41,9.45,1.37,19,1.67,28.49.47,14.67-.26,29.38,1.31,44,.13,1.16,0,2.33,0,3.5q1,45,2,90c.08,3.34.32,6.67.49,10"/><path class="cls-1" d="M637.5,1c.62,12,.59,24.05.4,36-.3,18,.19,36-.38,54-.14,4.33,0,8.67,0,13,0,3,.84,4.89,4.52,3.58,1.33-.48,3-.08,4.47-.08h121"/><path class="cls-1" d="M141,633c-13.17,1-26.32,2.41-39.5,2.89-14.67.54-29.3,2.55-44,1.53-6.8-.47-12.95-3.53-19-6.46a246.84,246.84,0,0,0-27-11.52A24.66,24.66,0,0,0,2,618"/><path class="cls-1" d="M1023,282l-52.5,1.5c-3.32.09-5.53,1-4,5a8,8,0,0,1,0,2.49c.47,24.66-.26,49.33.47,74,.37,12.95.37,26,0,39-.89,32.85-.17,65.68-.42,98.51-.09,11.5.79,23,.89,34.5.16,19.17.06,38.33,0,57.5,0,5.5.54,11-.49,16.5"/><path class="cls-1" d="M1023,161c-34.82,1.44-69.67.8-104.5,1.07-10.17.07-20.33.93-30.5,1.43"/><path class="cls-1" d="M462,622.5c-6.17.33-12.33.72-18.5,1-27.17,1.19-54.34,2.28-81.5,3.54-10.17.47-20.33,1.33-30.5,1.93-1,.06-2.15.58-3-.46"/><path class="cls-1" d="M145,671.5c-15.1-2.26-29.74,1.54-44.49,3.54-15,2-29.94,3.32-45,4-12.84.59-25.66,1.65-38.5,2.41-2,.12-.59,1.41-1,2"/><path class="cls-1" d="M472.5,327c.33,9,.7,18,1,27,.22,6.83.15,13.68.6,20.49.19,3-1.22,4.67-3.6,4.91-7.8.81-15.64,1.2-23.77,1.78-.1-2-.2-3.34-.21-4.68q-.27-22-.5-44c0-1.67-.31-3.4.49-5"/><path class="cls-1" d="M1006,376c-4.21,4.23-4.75,9.19-4.18,15,.73,7.43.4,15,.06,22.47-.12,2.54.19,5,.18,7.51q-.37,57.5-.53,115c0,9.17.3,18.33.47,27.5,0,1.74.29,2.6,2.38,3.72,6.33,3.39,12.11,7.8,18.13,11.77,1.11.73.14,1.71.49,2.51"/><path class="cls-1" d="M814,415c-18.33,1-36.66,2.3-55,2.9-13.36.44-26.67,1.4-40,2.11-11.34.61-22.67,1.31-34,2-.35,0-.67.63-1,1"/><path class="cls-1" d="M997.5,373c-3.7,3.55-5,8-5,13q.06,64.25,0,128.5v98"/><path class="cls-1" d="M767.5,96.5c-43,.82-86,.41-129,.5"/><path class="cls-1" d="M924,670c1.69,3.58,1.61,6-2.41,8.64-12.59,8.22-26.27,7.55-40.08,5.77-8.86-1.14-18-2.77-25.91-6.62C838.21,669.39,819.5,666.2,801,662c-2.21-.51-4.34-1.31-6.51-2"/><path class="cls-1" d="M482,595.5c2.93-2.76,2.44-6.7,2.85-10,3.59-28.75,12.38-55.92,23.48-82.55,3.71-8.89,9.14-16.61,13.34-25.17,4.37,1,7.53,3.68,10.77,5.83,17.79,11.81,35.4,23.9,53,35.93a32,32,0,0,1,3.5,3c5.89,5.4,6.11,6.93,3,14.5-3.43,8.46-6.65,17-10,25.49A352.76,352.76,0,0,0,565.66,613c-2.26,9.71-4.2,19.6-6.2,29.35-3,14.65-5.05,29.43-7.22,44.15-2.22,15.12-4,30.33-6.35,45.44-1.56,10.23-3.33,20.45-5.67,30.57-.66,2.85-1.27,6.53,2.06,9.68,2,1.91,1.73,6.15,2.75,9.26q5.64,17.28,11.49,34.5c1.19,3.54.06,5.68-3.52,6.5-3,.68-4.57,0-5.64-3.45-2.79-9-4.84-18.45-8.73-26.87-3.74-8.07-1.19-14.28,1.37-21.17"/><path class="cls-1" d="M900.5,118.5c.92,1.59,2.43,1.52,4,1.52,19.5,0,39,.48,58.5-.16,20-.65,40-.83,60-.86"/><path class="cls-1" d="M815,744c-1.06,1.58-.46,3.34-.47,5q-.06,50.75,0,101.5c0,8.33.6,16.67.37,25a136.47,136.47,0,0,0,.06,15c.27,3.34.9,5.11,5,5.75,4.53.71,9.12,0,13.54,1.25"/><path class="cls-1" d="M683,422.5c1.19.72,1.11,1.87,1,3-1.59,14.69.79,29.31.68,44-.16,21.66.78,43.33,1.36,65,.15,5.69.08,11.36,0,17-.09,3.88.8,8.29,1,12.49a19.22,19.22,0,0,1-.47,3.5"/><path class="cls-1" d="M136,712c-10,.83-20,1.6-30,2.52-11.84,1.09-23.73,1.9-35.49,3.58C53.42,720.54,39,729.83,24,737.58c-1,.51-2,1-3,1.42"/><path class="cls-1" d="M814,406c-15.5.83-31,1.69-46.5,2.49-10.66.55-21.34.89-32,1.54-13.68.83-27.36,1.52-41,2.83-7.57.73-15.2,1-22.74,1.95-.92,5.48.46,10.88-1.1,16.23-.89,3.06,1.73,4.84,5.35,4.47,2-.21,4-.34,6-.51"/><path class="cls-1" d="M322,149q2-17.25,4-34.5c.79-6.67,1.79-13.32,2.41-20,.19-2.07,1.2-5.27-1.94-5.86-3.61-.67-3.06,2.89-3.41,4.88-1.34,7.64-2.15,15.37-3.65,23-1.31,6.66-.3,13.8-3.92,20"/><path class="cls-1" d="M813,147c-12.67,0-25.33-.06-38,0-20.67.12-41.34,0-62,.59-21.5.66-43-.19-64.5.5-15.17.49-30.33.17-45.5.42a5.45,5.45,0,0,0-1.5.48"/><path class="cls-1" d="M967,725c1,.85.47,2,.47,3q.06,51.5,0,103c0,1,.57,2.15-.47,3"/><path class="cls-1" d="M293.5,1c0,30.5-.09,61,.05,91.5.05,12.17.67,24.33.93,36.5.12,5.94,0,5.94-6,6"/><path class="cls-1" d="M474,620c-4.58-3.75-4.59-9.7-6.93-14.53-3.63-7.47-6.88-15.06-13-21-2.6-2.54-5.78-4.55-7.29-8.34-.57-1.42-3.45-2.22-5.78-2.12-15.33.72-30.66,1.47-46,2-7.49.25-15,0-22.5,0a174.45,174.45,0,0,0-31,2.37c-4.53.8-9.29-.91-14,.08-2,.43-2.35-1.67-2.95-3A40.09,40.09,0,0,1,323,571"/><path class="cls-1" d="M781,926c-27.47,1.42-34.36,37.39-17.47,57.48,7,8.3,16.16,12.85,27,11.35,14.09-2,19.62-10.25,21.77-22.87a45.77,45.77,0,0,0-3.7-27c-5.38-11.67-14.78-17.3-27-19"/><path class="cls-1" d="M846.5,133.5c14,1.27,27.58.38,40.55-5.9a38.77,38.77,0,0,0,12.87-9.67c2.58-3,5.69-5.32,8.55-8,3.64-3.35,7.64-3.77,12.53-3.66q22,.45,44-.19c18-.51,36-.12,54-.12h4"/><path class="cls-1" d="M717.5,444.5c.84,1.77.49,3.66.49,5.5q0,48.75,0,97.5"/><path class="cls-1" d="M750,443.5c.17,3,.47,6,.48,9q0,46,0,92"/><path class="cls-1" d="M734,444.5c-1.06,1.58-.46,3.34-.47,5q-.06,48,0,96"/><path class="cls-1" d="M767,441.5v100"/><path class="cls-1" d="M800.5,440.5c0,8,0,16,0,24q-.21,35.25-.51,70.5c0,1.6.82,3.73-2,4"/><path class="cls-1" d="M52,921.5c1,10.74-1.89,21-3.5,31.5-2.84,18.5-5.57,37-8.57,55.49-.68,4.16-1.63,8.26-1.43,12.51"/><path class="cls-1" d="M784,442.5c-1.06,1.58-.46,3.34-.47,5,0,24.83,0,49.67,0,74.5,0,5.83-1.25,11.67,0,17.5"/><path class="cls-1" d="M671,453c2.9,5.28,1.06,11,1.3,16.51.72,16,.45,32,.73,48,.15,8.17.61,16.33,1,24.5.22,4.88-.34,5.86-5.52,6.44-6.8.76-13.58,2-20.49,1.59-2.69-.15-4.51-.15-4.13-4,.79-8.18-2.75-11.71-11.37-12a281.88,281.88,0,0,0-34.5,1.44c-1.55.15-3.22.35-4.5-1"/><path class="cls-1" d="M857,438.5c-1.06,1.58-.46,3.34-.47,5,0,24,0,48,0,72,0,6.33-.31,12.67-.48,19"/><path class="cls-1" d="M642,428.5c-6-4.9-13.75-6.14-20.53-9.43-14.24-6.91-29.36-7.85-45-6.76-9.93.69-20,1.69-30,.19"/><path class="cls-1" d="M638,438c-7.37-1.18-13.33-5.68-20-8.59a75,75,0,0,0-31-6.52c-13,.05-26,.75-39,1.07-1.48,0-3.11.66-4.5-.46"/><path class="cls-1" d="M979,435.5c1.06,1.58.46,3.34.47,5q.06,40.75,0,81.5c0,2.17.31,4.33.48,6.5"/><path class="cls-1" d="M1014,435.5q.25,43,.5,86c0,2.33,0,4.67,0,7"/><path class="cls-1" d="M940,734.5c2,4.6.48,9.33.48,14q.06,37.75,0,75.5c0,1.66.59,3.42-.47,5"/><path class="cls-1" d="M92.5,291.5c-7.65-1.1-15.38-.82-23-.33-7.17.47-14.33.91-21.51.81-15.51-.21-31,1.67-46.5,1"/><path class="cls-1" d="M674,559.5c-7.57-.54-15,1-22.5,1.47a67.57,67.57,0,0,1-9,0c-4.72-.38-7.76-3.59-8-8-.16-2.72,1.14-6.15-1.57-7.87s-6.52-1.81-9.92-1.6c-10.33.64-20.63,1.67-31,1.45a9.09,9.09,0,0,1-2-.48"/><path class="cls-1" d="M281.5,1q0,41.75,0,83.5c0,2.1-.57,4.39,1.49,6"/><path class="cls-1" d="M924,678c2,3,.82,6.33.94,9.5.21,5.49,0,11,.06,16.5s2.34,7.26,7.48,5.45c9.4-3.31,18.73-6.85,28-10.48,8.14-3.19,16.18-6.64,24.26-10"/><path class="cls-1" d="M199.5,381.5c1.67,1.2,3.38.17,5-.07,2.77-.4,5-.72,7.64,1.4,3.32,2.64,7.94,1.45,11.86,1,10.5-1.09,21-.73,31.51-.89,4.5-.07,9-.35,13.5-.47,3-.07,4.51,1.38,5.05,4.48q4.08,23.28,8.46,46.51c5.46,29,11,58,16.47,87q4.41,23.47,8.5,47c2.59,14.82,4.13,29.89,7.81,44.43,2.74,10.79,3.49,21.84,6.11,32.59a9.46,9.46,0,0,0,2.1,4"/><path class="cls-1" d="M834,898.5c-4.34,5.2-3.55,11.42-3.5,17.5q.25,36.25.5,72.5"/><path class="cls-1" d="M535.5,789c-2.79,4.25-3,9.35-4.4,14-8.41,28.4-28.72,44.79-55.14,54.88-9.38,3.57-19.54,3.71-29.46,4.55-2.24.18-4.28.54-6,2"/><path class="cls-1" d="M1023,259c-27,.86-54,1.89-81,2.12-4.07,0-7-2.05-9.92-3.76C914.57,247.08,896.94,237,879,227.44c-1.61-.86-3.81-1.49-4-3.94"/><path class="cls-1" d="M813.5,650.5c-5.33,1.83-10.65,3.71-16,5.49-4.38,1.45-4,5.17-4,8.51-.07,16.17,0,32.33,0,48.5,0,3.33.07,6.67,0,10s1.09,4.74,4.51,5.08c5.2.52,10.35,1.55,15.51,2.43,18.5,3.15,37,6.37,55.51,9.43,2,.33,4.34,1.16,6.09-1.37a5,5,0,0,1,3.88-2c8.31,1.17,16.79-.86,25,1.38"/><path class="cls-1" d="M852.5,89c-1.71-2.48-4.28-1.25-6.5-1.49a245,245,0,0,0-51-.63c-3.66.36-7.32.86-11,1.08a7.28,7.28,0,0,0-5.5,2.54"/><path class="cls-1" d="M428,180a101.74,101.74,0,0,1-15.5,1h-64"/><path class="cls-1" d="M954,905c2.16,4.54.9,9.35.9,14,0,8,3.3,8.35,9.07,5.93,8.94-3.74,17.7-7.92,26.53-11.94,2.41-1.1,4.68-2.63,7.5-2.49"/><path class="cls-1" d="M63.5,111.5c-3.46-1.1-7-.44-10.5-.46-17.17-.09-34.33,0-51.5,0"/><path class="cls-1" d="M915.5,825.5c-7.17-1-14.35-1.88-21.49-3-8.38-1.35-15.91,1-23,5.07-7.77,4.49-15.38,9.26-23,14-.91.57-1.7.28-2.53.45"/><path class="cls-1" d="M768,121.5c1.14-7.81.32-15.67.3-23.5,0-2,.69-3.65.7-5.5a21.48,21.48,0,0,1,13.07-.25c5.53,1.56,11.59,1.42,17.43,1.71,12.16.62,24.34,1.53,36.5,1.33,5.73-.1,11.87-.76,17-4.29"/><path class="cls-1" d="M57.5,95.5c-5.64,1.1-11.34.41-17,.46-13,.13-26,0-39,0"/><path class="cls-1" d="M98,275a12.62,12.62,0,0,0,10.94-1.59c5.53-3.69,5.15-9.75,2-13.87-3.49-4.6-9.41-4.69-14-.54-4.91,4.49-4.72,10.59.5,16"/><path class="cls-1" d="M951.5,625.5c2.12-5.45,6.5-9.11,10.59-12.9,1.06-1,3.32-1.27,4.9-1,15.58,2.4,31.37,1.81,47,3.23,5.14.47,5.24,3.83,5.34,6.69.36,10.66.15,21.33.13,32,0,3-2.26,3.64-4.48,4.53-6.61,2.65-13,5.88-20.52,5-1-.11-2,.61-3,.94"/><path class="cls-1" d="M73,103.5a35.84,35.84,0,0,1,4-4c4.35-3.16,4-7.25,2.45-11.53S74.94,81.15,70,80.93c-4.52-.2-8.83,1.57-10.86,6.63-1.21,3-2.66,6.87,0,9.87s4.77,6.81,9.92,5.62c3.47-.8,4.62.92,4.57,4.45-.1,7.5.11,15,.48,22.5.19,3.93-1.7,4.58-5.06,4.58s-5.55-.67-5-4.58c1.23-8.63-.49-17.42,1.49-26"/><path class="cls-1" d="M53,644.5c-9.38,8.93-20.44,15.49-31.53,22-6.69,3.9-13.64,7.37-20.47,11"/><path class="cls-1" d="M310,437c3.17,3.16,7.58,4.76,9.63,9.44,3.59,8.24,2,14.8-5.63,19.06-7.34,4.11-14.31,1.81-19.05-6-2.31-3.8-3.49-7.5-2.54-12S292,441.78,285,439"/><path class="cls-1" d="M339,179.5c-17.1,2.49-34.31,2.11-51.5,2-12.83-.12-25.67-.63-38.5-1"/><path class="cls-1" d="M846.5,651.5c5.27-.14,10.32,1.46,15.51,1.93,3.13.29,6.42,1.62,9.62-.93,3.77,5.61,9.29,7.25,15.37,8,12.24,1.58,23.83,0,34.5-6.54"/><path class="cls-1" d="M51,923c-8,3.19-15.3,7.75-23,11.44-8.88,4.25-18,8.06-27,12.06"/><path class="cls-1" d="M788,406c-.17-4.17-.47-8.33-.45-12.5,0-2.63-.92-3.62-3.55-3.54-4.66.14-9.33,0-14.52,0a65.32,65.32,0,0,0,0,17.5"/><path class="cls-1" d="M954,904c2.32-7.2,2-9.12-2.52-11-5.86-2.38-9.7-1-13.38,4.53-1.48,2.25-2.22,5.62,0,7.82a8.16,8.16,0,0,0,7.94,2.27c2.79-.62,4.73-2.74,7.46-3.16"/><path class="cls-1" d="M924.5,666.5c-3.14-4.13-1-9-1.81-13.53-.53-3-1.13-4.65-4.12-6.11-7.08-3.46-14.65-3.08-22.08-3.77-2.61-.24-5.32.67-8,.89-6.43.52-12,2.69-16,8"/><path class="cls-1" d="M169,262.5c.5,3.95,2.15,7,6.5,7.47,5.27.53,8.81-1.76,10.5-6.47,1.46-4.08-.25-8-4.51-10-3-1.38-8.71-.23-10,2.48-1,2-2,4-3,6"/><path class="cls-1" d="M207.5,270c3.84-1.25,7-3.27,8-7.51s-1.34-8.38-5-9.49c-4.56-1.39-8.66.77-11,5.48-2.06,4.1.07,8.75,3.53,10,1.34.49,2.67,1,4,1.5"/><path class="cls-1" d="M744.5,238.5c-5.68.53-7.83,2.05-8.5,6-.61,3.57,2.22,7.7,6.5,9.5,3.06,1.29,7.2-.13,9.46-3.52a8.23,8.23,0,0,0,.47-7.95c-1.32-3.09-4.09-4.27-7.43-4"/><path class="cls-1" d="M1003.5,598H1023c.38-3.39-.21-5.67-3.83-7.71-5.26-3-9.77-7.28-15.1-10.32a3.61,3.61,0,0,1-2-3.47c.24-3-.49-6,.51-9"/><path class="cls-1" d="M1011,894c-3.65,2.23-5.27,6.33-8.42,9.09-2.24,1.94-4.16,2.62-7.1,2-5.94-1.27-12.1-1.63-18-3.2-6.73-1.8-12.66-.39-18.53,2.62"/><path class="cls-1" d="M845,750c-.82,14.17-.52,28.33-.13,42.5.18,6.65.23,13.37,0,20-.62,14.68-.36,29.35-.17,44,.16,11.5-1.07,23,.34,34.5.15,1.16-.1,2.64-1,2.91-3.55,1-6.23,4.66-10.47,3.59"/><path class="cls-1" d="M929,666c2.61,2.24,6,1.79,9,2.53,13.12,3.21,26.53,5.14,39.52,8.94,5,1.47,7.29,5.16,7.62,10.52.43,6.85.08,13.68.41,20.51.16,3.42-.83,5.51-3.94,7.64-9.41,6.43-20.21,9.33-30.54,13.51-8.31,3.36-17.14,4.39-25.66,6.41-4.58,1.07-10.23.77-15.4.47-2.36-.14-4.75-.38-5.64,2.93-.29,1.07-2.1,1.91-3.38,2.51-8.3,3.89-16.33,9.06-25.08,11.08-6.56,1.52-5.91,4.61-5.93,9,0,4.83-.32,9.67-.46,14.5,0,1.81-.32,3.73,1.49,5"/><path class="cls-1" d="M770,237.5c-3.65,1-6.45,3-6.94,7-.38,3.05,1.07,5.57,3.45,7.48,2.94,2.37,6,2,9-1,2.74-2.74,3.52-7,1.46-9.47-1.56-1.86-3.26-3.75-6-4"/><path class="cls-1" d="M209.5,348.5c-.7,1.55-1.82,2.28-3.42,3.14-10.55,5.66-21.57,10.25-32.57,14.88a11.17,11.17,0,0,0-2,1.48"/><path class="cls-1" d="M7,705c8.45.84,16,4.44,23.48,8,4.82,2.32,9.92,3.6,15,5"/><path class="cls-1" d="M813.5,861c-3.66.17-6.45,2.46-9.47,4.06-12.07,6.36-23.95,13.1-36.07,19.37-5.93,3.06-8.74,7.31-8.54,14.07.3,9.83.08,19.67.08,29.5"/><path class="cls-1" d="M893.5,107.75c-2.06-1.21-4.32-.75-6.5-.73-10.17.12-20.33.31-30.5.48"/><path class="cls-1" d="M762.5,890.5c2.12,2,5,2,7.51,2.42,9.85,1.44,19.48,3.89,29.45,5a110,110,0,0,1,22,5.26c2.92,1,5.74.77,8.56,1.33"/><path class="cls-1" d="M885,791c9.21,7.82,16.89,17.12,25,26,3,3.21,6.26,6.11,7.48,10.52"/><path class="cls-1" d="M930.5,638c3-1.26,5.87-3.54,6.78-6.08,2.86-8,9.85-6,14.69-5.58,9.83.91,19.69,1.44,29.53,2.15,2,.13,4-.41,5.5,1.51"/><path class="cls-1" d="M923,640.5c1.45-2.31,4.18-3.15,5.9-1.86,5.29,4,11.4,2.42,17.11,3.29a62,62,0,0,0,11,.49c1.84,0,3,1,4.5,1.58"/><path class="cls-1" d="M447.5,575.75c.17-.08.34-.25.5-.24,8.57.47,17.68-.82,24.88,5.14,2.74,2.26,4.1,6.2,6.12,9.35,4.84,7.52,3.62,15.85,2.88,24-.3,3.19-.25,6.34-.34,9.51-.05,2.13-.09,4.13-2,5.5"/><path class="cls-1" d="M280.5,150.5c1.13-12.81,1-25.66,1-38.5,0-3.83-.66-7.81.16-11.46,1.07-4.73-1.13-4.77-4.65-5.14-8.36-.86-16.68.18-25,.1-2.17,0-4.33,0-6.5,0"/><path class="cls-1" d="M880.5,146.5a25,25,0,0,0,3,6,31,31,0,0,1,2.89,26.93c-1.3,3.89-4.46,7-7.32,10.09-1.84,2-4.5,3.23-5.54,6"/><path class="cls-1" d="M280.5,110.5a208.44,208.44,0,0,0-32,0"/><path class="cls-1" d="M311.5,586.5c6.5.07,13.06-2.13,20.12-.09-6.57,7.69-9.58,15.93-10.76,25.07-.3,2.31-.11,5.19-2.36,7"/><path class="cls-1" d="M837,96.5c.91,11.17.42,22.33,0,33.5"/><path class="cls-1" d="M916.5,105.5c-.15-2,2.83-2.74,1.66-5.69a28.53,28.53,0,0,0-20.56,5.83,45.3,45.3,0,0,0-9.52,10.42c-5.23,7.45-12.88,9.27-21.08,9.88-5.88.43-11.92-.75-17.5,2.07-1.53.77-3,1.66-4.5,2.49"/><path class="cls-1" d="M23.5,383c-.2,2.5.49,5.05-.9,8.5H1"/><path class="cls-1" d="M966.5,645a172.29,172.29,0,0,1,0,29"/><path class="cls-1" d="M891,748.5c1.26,4.28-1.08,7.56-3,11-3.32,6.06-8.54,10.91-11,17.49"/><path class="cls-1" d="M925,737c-.25,1,.26,2-.45,3-5.44,8.21-8.8,17.44-16.14,24.88-5.15,5.23-9.63,11.64-14.93,17.07-7.77,8-17.19,13.4-27.46,17.57-6.87,2.79-13.64,2.24-20.52.45"/><path class="cls-1" d="M659,426a10,10,0,0,1-1.51,1.48c-8.4,5.34-9.27,11.26-7.45,20,1.26,6.11,4.57,8.51,11,8.51,6.19,0,9.31-2.83,11.14-8.46,1.2-3.7.12-7.47,1.36-11"/><path class="cls-1" d="M1023,357c-6,.67-12,1.23-18,2.05-2.29.31-5.12.52-6.4,2.52-2.25,3.5-5.43,2.87-8.61,2.94-7.5.14-15,.32-22.5.49"/><path class="cls-1" d="M906.5,765c-4.9-.54-8.34,3-12.45,4.63-3.57,1.39-6.69,3.92-10.06,5.85-2.15,1.22-3.28,4.28-7.15,2.35-1.65-.82-4.43,2.75-5.82,5.18a37.34,37.34,0,0,1-8,9.46c-3.82,3.35-8,5-13,2.08-1.13-.67-2.64-.72-4-1"/><path class="cls-1" d="M37,637.5c-7.22.76-13.82,4-21,5.23-1.93.34-4.21.09-6,1.27"/><path class="cls-1" d="M280,135c-8.66.32-17.35-.65-26,.5"/><path class="cls-1" d="M885.5,165c-2.34,3-4.27,6.31-7.5,8.5-8.2,5.55-16.87,3.45-21.52-4-1.71-2.74-3.55-5.42-5.52-8-1.05-1.35-2.26-3.14-4.46-1.53"/><path class="cls-1" d="M796,592c-1.15,1.55-2.8,1.49-4.5,1.52-8.67.13-17.34.2-26,.54-3.13.12-4.76-.87-5-4.06a46.3,46.3,0,0,0-.83-4.68c1.58-1.86,3.84-.63,5.86-.82"/><path class="cls-1" d="M229.5,111c3.49,12.3,4.69,25.07,7.58,37.48,2,8.48,2.06,17.29,5.2,25.6.93,2.49-.2,6.12-1.78,8.92"/><path class="cls-1" d="M252,154.5c-3.76-1.77-2.71-5.73-3.32-8.54-3.22-15.08-5.79-30.3-8.79-45.44-.24-1.2-.09-2.38-.4-3.52-.51-1.86-.21-3.3,2-3.48,2.06-.17,2.72.68,3.12,3,2.08,11.88,4,23.83,7.09,35.46,1.77,6.66,2.68,13.42,4.29,20.06"/><path class="cls-1" d="M281,96c.5-1.33,1-2.66,1.5-4a2.65,2.65,0,0,1,3-2c2,.14,2.55,1.22,2.51,3-.23,11.33.16,22.66-.32,34-.31,7.61-1,15.35.31,23"/><path class="cls-1" d="M870,755c-7.17-1.83-14.25-4.18-21.52-5.37-9.09-1.49-18-3.93-27-5.75a70.78,70.78,0,0,1-9.58-2.21c-6.82-2.4-6.65-1.79-6.44-8.17,0-1,0-2,0-3"/><path class="cls-1" d="M991.5,413.5h-24"/><path class="cls-1" d="M243,173.5c2.93-3.09,3.44-7.28,5-11,4-9.31,4.54-9.77,14.46-10.46,7-.48,14-.36,21-.57,9.83-.3,19.67-.54,29.5-1.06a83.84,83.84,0,0,0,9.55-.64c3.46-.57,7,.64,9.69,4.54,3.27,4.65,6,9.82,10.37,13.82,1.31,1.2,1,4.18,1.39,6.35"/><path class="cls-1" d="M991,404H967.5"/><path class="cls-1" d="M29,722.5l-23,1"/><path class="cls-1" d="M991.5,559.5a116.29,116.29,0,0,1-23,0"/><path class="cls-1" d="M623,254.5c-.08-1,.56-2.2-1.5-2.05-6.49.47-13,.72-19.5,1.05"/><path class="cls-1" d="M991,599l-22.5.5"/><path class="cls-1" d="M991,544l-22.5,1.5"/><path class="cls-1" d="M813.5,881.5l-22.5-5"/><path class="cls-1" d="M868.5,564.5l-22,1"/><path class="cls-1" d="M939.5,736.5c-5.5,5.33-11,10.61-16.47,16-1.6,1.61-3.11,2.92-5.53,2.47"/><path class="cls-1" d="M868.5,604.5l-22,1"/><path class="cls-1" d="M868.5,315.5l-22,.5"/><path class="cls-1" d="M868,415c-7.17-.14-14.35.39-21.5-.5"/><path class="cls-1" d="M868,629l-21.5,1.5"/><path class="cls-1" d="M868,271H846.5"/><path class="cls-1" d="M868,558a129.82,129.82,0,0,0-21.5,1"/><path class="cls-1" d="M795.5,581c6.87.82,9.64,4.78,10.5,11-3.56,2-3.56,2-8.5-.5"/><path class="cls-1" d="M963,870c-4-1.73-6.49,1.71-9.46,3.1-5.32,2.49-10.37,5.57-15.54,8.4"/><path class="cls-1" d="M868,405H846.5"/><path class="cls-1" d="M1023,413.5h-20.5"/><path class="cls-1" d="M1023,543l-20.5,1"/><path class="cls-1" d="M1003.5,559H1023"/><path class="cls-1" d="M1003.5,404H1023"/><path class="cls-1" d="M670,430.5a29.46,29.46,0,0,0-12-6.06c-7.2-2-18.8,2.71-19,12.06-.14,6.37,2,11.89,7,15.95,1.57,1.26,3.63.65,5.46.05"/><path class="cls-1" d="M813.5,560.5c-4.83.56-9.72,1-14.47,1.7-7.84,1.22-15.78.11-23.53,1.8"/><path class="cls-1" d="M1003,580c-1.46,1.44-1,3.29-1,5q0,14,0,28"/><path class="cls-1" d="M869,177.5c.29,6-.48,12.2,2,18"/><path class="cls-1" d="M813,567l-17.5.5"/><path class="cls-1" d="M853.5,90c2.69,6.33.76,13,1.6,19.49.71,5.36-.23,10.69.4,16"/><path class="cls-1" d="M869,666c-6.15,2-11.82,5-17.5,8"/><path class="cls-1" d="M846.5,864c6,3.62,11.41,2,16.57-1.93-4.72-5.28-8.86-5.4-17.07-.57"/><path class="cls-1" d="M764.5,568.5c3.17,3.21,1.68,7.51,1.68,11A27,27,0,0,0,770,593"/><path class="cls-1" d="M685,551.5l-8.5.61c-.22,1.8-1.52,3.3-1.59,5.39-.16,5.06.91,6.64,5.56,8.58,2.87,1.2,6.37,1.16,8.53,3.92"/><path class="cls-1" d="M181,379c1.93,2.65.63,5.67,1,8.5.28,2.18-.68,4.54,1,6.5"/><path class="cls-1" d="M873.5,133.5c1.61,8.64.08,17.34.5,26"/><path class="cls-1" d="M995,365c.85,4.06,2.36,7.56,7,8.5,7.82,1.59,13.26,7.21,19.54,11.44,1.51,1,1.46,2.18,1.46,3.56"/><path class="cls-1" d="M97.5,275.5,93,291"/><path class="cls-1" d="M813.5,885A34.13,34.13,0,0,0,800,897"/><path class="cls-1" d="M794,564c1,7.31.52,14.67.32,22,0,1.75-.1,2.9,1.18,4"/><path class="cls-1" d="M472.5,180c-4,1.09-8,.2-12,.5"/><path class="cls-1" d="M872,741q.5,6,1,12"/><path class="cls-1" d="M881,830.5c.42,4.23,5,3.58,7,6.73L891.5,833"/><path class="cls-1" d="M991,672c-2.94,3-7,4-10.5,6"/><path class="cls-1" d="M875.5,836c3.26,2.82,6.7,3.83,10.5,1"/><path class="cls-1" d="M879,779.5c-3.08,6-3,6.47,2,8"/><path class="cls-1" d="M1023,376c-3.34.29-6.81-.78-10,1"/><path class="cls-1" d="M484.5,580.5a17.13,17.13,0,0,0-10,.25"/><path class="cls-1" d="M245,135l-9.5,1"/><path class="cls-1" d="M171.75,418c2,3,.91,6.32,1.25,9.5"/><path class="cls-1" d="M922,640.5c2,2.67,1,5.33,0,8"/><path class="cls-1" d="M249.5,152.5l-10,1.5"/><path class="cls-1" d="M718.5,239.5c-6.38,3.35-7.87,8.23-4,12.53,2.56,2.88,5.69,2.57,8.48,1.35s5.29-4.09,4.37-7.33c-.88-3.07-2.06-7-6.82-6.56-.5,0-1,0-1.5,0"/><path class="cls-1" d="M780,99c-6.53,4.72-8.17,9.8-5,15.5s7.75,6.17,10.87.92c1.44-2.42,2.9-5.1,2.73-8.43-.31-6.19-1.84-8-8.1-8"/><path class="cls-1" d="M620,242c-8.28,1.38-16.67.87-25.5,1.05,0,6.44-.08,12.45,0,18.45.05,2.75,1.69,3.53,4.46,3.58,9,.16,18-.46,27-1.12,2.84-.21,6.18,2,8.36-.34,2-2.15.09-5.38,0-8.12-.12-4.32,2.22-9.79-1.14-12.7-2.89-2.52-8.08-.52-12.24-.8h-.5"/><path class="cls-1" d="M790,882c-1.71.89-3.61,1.55-4.68,3.27,3.8,5,8.18,5,13.37.05-1.85-3.29-5-3.34-8.19-3.32"/><path class="cls-1" d="M777,937c-12.56,3.09-16.55,17.24-13.56,29,1.93,7.57,5.9,13.61,12.6,17.42,9.44,5.37,20.35,1.5,25-8.43,6.57-14.16-1.12-29.91-11.5-36-3.73-2.19-7.87-2.15-12-2"/><path class="cls-1" d="M503,246c-9.95,1.72-20,.78-30,1-5.49.11-5.45,0-5.51,5.52a48.63,48.63,0,0,0,1.08,11.3c13.47,1.09,26.92-1.52,40.68-.71.78-5.3-.62-9.93-.87-14.58-.14-2.54-2.71-2.69-4.88-2.51"/><path class="cls-1" d="M147,253c-2.17,1.66-5.33,1.61-6.62,4.95-1.51,3.92-2.33,7.51,1.17,10.49,2.91,2.49,6.51,2.63,9.93,1,3.67-1.73,6.11-6.69,5-10.44-1.44-4.67-3-6.7-8.94-6"/><path class="cls-1" d="M326.5,253.5c-6.14,1.08-12.34.41-18.5.44a53.59,53.59,0,0,0-14.5,1.7c0,3.68.1,7.52,0,11.36-.08,2.38,1.31,2.55,3,2.5,10.33-.33,20.66-.78,31-.94,3.65-.06,5.4-1.15,5.05-5.06-.26-3-.05-6-.05-9-1.61-1.54-3.63-.85-5.5-1"/><path class="cls-1" d="M989,868c-8.7,6.81-9.53,22.31-1.5,28,7-4.8,10.35-17.79,6.49-25-1-1.77-2.07-3.38-4.49-3"/><path class="cls-1" d="M242.49,420.1a10.39,10.39,0,0,1-1.53,2.47c-5.23,4.68-5.36,10.36-3.48,16.53,2.07,6.79,11.46,13.34,18,12.5,8.43-1.08,14.76-8.79,15.7-17,.76-6.69-4.14-9.87-6.7-14.52"/><path class="cls-1" d="M215.49,421.1c4.89,5.9,6.52,12.36,3,19.49-4.69,9.44-16.92,16.61-27.5,5a21.13,21.13,0,0,0-2.48-2"/><path class="cls-1" d="M200.49,420.6c-6.58-3.89-14.32,3.46-13.92,9.49.2,3-1.84,6.7,1.92,9"/><path class="cls-1" d="M272,429.1c1.73-1,4.07-.32,5.49-2,2.63-3.14,0-7.37-5.5-7.9-7.46-.71-15.05-1.51-22.47-.89-7.86.67-15.68.62-23.52.8-6.5.15-13,.51-19.5.45s-8.39,5.13-11.5,9.05c-4.72,6-6,13.63-9.85,20.09-.89,1.5-1.62,1.24-2.65,1.41"/><path class="cls-1" d="M236,429.1c-5,.16-10-.49-15,.5"/></g></g></svg>